<svg width="2000" height="2000" viewBox="0 0 2000 2000" fill="none" xmlns="http://www.w3.org/2000/svg">
<path d="M894.533 405.867C894.267 406.133 886.8 406.8 878 407.333C869.2 407.867 861.6 408.533 861.067 408.8C860.533 409.2 854.8 410 848.4 410.667C842 411.333 831.333 412.8 824.667 414C818.133 415.333 810 416.8 806.667 417.333C803.333 418 796.8 419.467 792 420.667C787.2 421.867 781.2 423.333 778.667 424C776.133 424.667 770.667 426.133 766.667 427.333C762.667 428.533 757.6 430 755.333 430.533C749.867 432 726.933 439.867 722 442C719.867 442.933 713.867 445.333 708.667 447.333C694 452.933 663.2 467.733 646 477.333C641.6 479.733 635.867 482.933 633.333 484.4C630.8 485.733 627.733 487.733 626.533 488.8C625.467 489.867 624 490.667 623.467 490.667C620.4 490.667 573.867 524 556.667 538.533C532.667 558.8 499.2 591.867 488 606.533C486.8 608 484.133 611.2 481.867 613.6C474.667 621.733 448 657.067 446.533 660.667C446.267 661.467 442.667 667.067 438.533 673.333C434.4 679.6 429.067 688.267 426.667 692.667C424.267 697.067 420.667 703.333 418.933 706.667C417.067 710 415.2 713.6 414.667 714.667C414.133 715.733 412.667 718.8 411.333 721.333C407.333 728.933 407.067 729.6 402.267 740C387.2 772.667 372.933 814 366.133 844.4C364.133 853.467 364.933 854.4 375.467 855.067C381.6 855.333 381.733 855.2 382.933 850.667C386 838.133 390.667 821.2 392 818C392.667 816.533 393.467 813.867 393.733 812C394.4 808.667 402.8 784.533 405.2 779.333C405.867 777.867 408.4 771.867 410.667 766C415.2 754.533 432 720 438.8 708C449.467 689.067 481.867 640.933 488.533 633.867C489.333 633.067 492.4 629.467 495.333 625.867C498.267 622.4 502.933 616.667 505.867 613.333C511.467 606.667 552.667 565.6 560 559.333C570 550.667 590.533 534.667 600.667 527.6C606.533 523.467 612 519.467 612.8 518.933C615.2 516.8 639.867 501.467 647.733 497.067C651.867 494.8 657.467 491.733 660 490.267C675.6 481.467 707.333 466.8 724 460.8C729.467 458.8 735.2 456.667 736.667 456C741.467 453.867 763.467 446.8 774.133 443.867C779.867 442.267 786.8 440.4 789.333 439.733C794.667 438.267 798.8 437.467 819.333 433.467C839.333 429.6 848.667 428.133 857.333 427.2C861.333 426.8 868.267 426 872.667 425.333C883.067 423.6 966.267 423.6 976.667 425.2C981.067 426 988.533 426.933 993.333 427.333C998.133 427.733 1002.93 428.4 1004 428.8C1005.2 429.067 1010.27 429.867 1015.33 430.667C1026.93 432.133 1054.13 437.867 1064 440.8C1068 441.867 1073.47 443.333 1076 444C1078.53 444.533 1083.73 446 1087.33 447.333C1091.07 448.533 1095.87 450 1098 450.667C1102.53 451.867 1127.33 460.667 1131.33 462.533C1133.73 463.6 1140.4 466.4 1147.33 469.333C1158.4 473.867 1194.27 492.133 1206.53 499.6C1229.2 513.333 1244.8 523.333 1247.73 526.267C1248.8 527.2 1250.8 528.667 1252.27 529.467C1255.6 531.2 1285.87 555.467 1295.33 564C1313.2 580 1344.8 612.933 1354.8 626C1356.53 628.133 1358.8 630.933 1359.87 632C1365.07 637.333 1400 686.933 1400 688.933C1400 689.2 1402.13 692.8 1404.67 696.8C1408.67 702.933 1413.6 712.133 1425.47 734.667C1428.53 740.4 1437.73 761.2 1442.4 772.667C1450.67 793.2 1462.93 831.2 1466.67 848.667C1467.33 851.6 1468.8 858.133 1470 863.333C1475.07 885.867 1478.4 909.067 1479.87 930.8C1480.53 940.667 1481.6 953.733 1482 959.733L1483.07 970.667L859.867 971.067C391.467 971.333 235.067 971.867 230.4 972.933C213.467 977.2 197.733 990.267 190.4 1006.13C186.4 1014.8 186.133 1016.27 186.133 1030.67C186.133 1045.07 186.4 1046.53 190.4 1055.2C195.333 1065.87 208 1079.2 217.6 1083.6C233.6 1091.2 186.8 1090.67 862 1090.67H1482.4L1483.33 1085.33C1483.87 1082.4 1483.87 1078.27 1483.33 1076L1482.4 1072L857.6 1071.73L232.667 1071.33L226.933 1068.27C218.133 1063.6 211.6 1056.93 207.333 1048.4C204.133 1042 203.467 1039.07 203.467 1030.67C203.467 1022.27 204.133 1019.33 207.333 1012.93C211.6 1004.4 218.133 997.733 226.933 993.067L232.667 990L1090 989.333C1561.6 988.933 1947.47 988.533 1947.73 988.267C1947.87 988.133 1948 984.4 1948 980.133C1948 974.267 1947.47 972.133 1945.87 971.467C1944.67 971.067 1843.87 970.667 1721.87 970.667H1500V956.933C1499.87 940.133 1494.53 893.6 1490 871.333C1485.87 850.8 1485.47 848.667 1483.33 840.667C1482.13 836.267 1480.67 830.533 1480.13 828C1479.47 825.467 1477.87 819.733 1476.4 815.333C1474.93 810.933 1472.67 803.733 1471.33 799.333C1470 794.933 1468.53 790.8 1467.87 790.133C1467.2 789.333 1466.67 787.6 1466.67 786C1466.67 784.4 1466.13 782.667 1465.6 781.867C1464.93 781.2 1463.33 777.6 1462.13 774C1460.8 770.267 1458.8 765.2 1457.73 762.667C1456.67 760.133 1455.33 756.8 1454.67 755.333C1453.47 752.4 1448.27 741.067 1442.8 729.333C1440.93 725.333 1438 719.733 1436.4 717.067C1434.67 714.267 1433.33 711.467 1433.33 710.667C1433.33 705.733 1387.47 635.467 1377.73 625.6C1376.8 624.667 1376 623.467 1376 622.933C1376 622.4 1374 619.867 1371.6 617.333C1369.33 614.8 1364.93 609.6 1362 606C1354 595.867 1310.13 552.4 1296.67 541.2C1257.07 508.533 1222.67 485.867 1181.07 465.067C1172.53 460.8 1165.2 457.333 1164.8 457.333C1164.4 457.333 1160.67 455.733 1156.4 453.867C1152.13 452 1147.47 449.867 1146 449.333C1144.53 448.667 1141.2 447.333 1138.67 446.267C1132 443.467 1102.93 433.067 1092 429.6C1083.87 427.067 1050.27 418.533 1043.33 417.333C1039.73 416.667 1031.6 415.2 1025.33 414C996.4 408.8 956.133 405.333 921.867 405.333C907.2 405.333 894.8 405.6 894.533 405.867Z" fill="white"/>
<path d="M396.267 1173.6C394.133 1175.73 394.133 1186.93 396.267 1189.07C397.467 1190.27 516.533 1190.67 924.133 1190.67C1213.6 1190.67 1451.33 1190.27 1452.53 1189.87C1455.6 1188.67 1455.6 1174 1452.53 1172.8C1451.33 1172.4 1213.6 1172 924.133 1172C516.533 1172 397.467 1172.4 396.267 1173.6Z" fill="white"/>
<path d="M446.933 1273.2C445.733 1273.87 445.333 1276.67 445.6 1282.13L446 1290H925.333H1404.67L1405.07 1282.93C1405.33 1278.8 1404.8 1274.93 1403.87 1273.87C1402.53 1272.27 1335.6 1272 925.467 1272C663.2 1272 447.867 1272.53 446.933 1273.2Z" fill="white"/>
<path d="M525.867 1375.2C525.467 1376.13 525.333 1379.87 525.6 1383.47L526 1390H925.333H1324.67V1382V1374L925.6 1373.6C587.467 1373.33 526.533 1373.6 525.867 1375.2Z" fill="white"/>
<path d="M663.6 1474.27C663.067 1474.67 662.667 1478.67 662.667 1482.93V1490.67H925.333H1188.13L1187.73 1482.27L1187.33 1474L925.867 1473.6C782.133 1473.47 664 1473.73 663.6 1474.27Z" fill="white"/>
</svg>
