<svg width="1600" height="1200" viewBox="0 0 1600 1200" fill="none" xmlns="http://www.w3.org/2000/svg">
<g opacity="0.57">
<path d="M1524.37 954.29H147.75V954.98H1524.37V954.29Z" fill="#EBEBEB"/>
<path d="M1386.43 998.59H1295.24V999.28H1386.43V998.59Z" fill="#EBEBEB"/>
<path d="M1059.68 1006.08H1035.75V1006.77H1059.68V1006.08Z" fill="#EBEBEB"/>
<path d="M1292.49 973.04H1239.66V973.73H1292.49V973.04Z" fill="#EBEBEB"/>
<path d="M411.09 977.67H292.18V978.36H411.09V977.67Z" fill="#EBEBEB"/>
<path d="M453.06 977.67H435.63V978.36H453.06V977.67Z" fill="#EBEBEB"/>
<path d="M767.64 989.28H509.72V989.97H767.64V989.28Z" fill="#EBEBEB"/>
<path d="M800.27 831.5H268.64C264.485 831.479 260.507 829.813 257.576 826.868C254.645 823.922 253 819.935 253 815.78V68.46C253.037 64.3203 254.705 60.3622 257.643 57.4452C260.58 54.5282 264.55 52.8877 268.69 52.88H800.27C802.335 52.8787 804.38 53.2843 806.289 54.0737C808.197 54.8632 809.931 56.0209 811.392 57.4808C812.853 58.9406 814.012 60.674 814.802 62.5819C815.593 64.4898 816 66.5348 816 68.6V815.78C816 817.845 815.593 819.89 814.802 821.798C814.012 823.706 812.853 825.439 811.392 826.899C809.931 828.359 808.197 829.517 806.289 830.306C804.38 831.096 802.335 831.501 800.27 831.5ZM268.64 53.43C264.662 53.43 260.846 55.0104 258.033 57.8234C255.22 60.6365 253.64 64.4518 253.64 68.43V815.78C253.64 819.758 255.22 823.574 258.033 826.387C260.846 829.2 264.662 830.78 268.64 830.78H800.27C804.243 830.762 808.047 829.175 810.856 826.366C813.665 823.557 815.252 819.753 815.27 815.78V68.46C815.252 64.4874 813.665 60.6828 810.856 57.8737C808.047 55.0647 804.243 53.4784 800.27 53.46L268.64 53.43Z" fill="#EBEBEB"/>
<path d="M1395.82 831.5H864.17C860.003 831.492 856.009 829.833 853.063 826.887C850.117 823.941 848.458 819.947 848.45 815.78V68.46C848.492 64.3167 850.166 60.3572 853.109 57.4405C856.052 54.5237 860.026 52.8851 864.17 52.88H1395.82C1399.96 52.8956 1403.92 54.5392 1406.85 57.4551C1409.78 60.371 1411.45 64.3246 1411.49 68.46V815.78C1411.49 819.941 1409.84 823.931 1406.9 826.878C1403.97 829.825 1399.98 831.487 1395.82 831.5ZM864.17 53.43C860.197 53.4458 856.39 55.0312 853.581 57.8409C850.771 60.6505 849.186 64.4566 849.17 68.43V815.78C849.186 819.753 850.771 823.56 853.581 826.369C856.39 829.179 860.197 830.764 864.17 830.78H1395.82C1399.79 830.764 1403.6 829.179 1406.41 826.369C1409.22 823.56 1410.8 819.753 1410.82 815.78V68.46C1410.8 64.4866 1409.22 60.6805 1406.41 57.8709C1403.6 55.0612 1399.79 53.4758 1395.82 53.46L864.17 53.43Z" fill="#EBEBEB"/>
<path d="M1306.53 250.04H985.23V605.57H1306.53V250.04Z" fill="#E9E9E9"/>
<path d="M1293.23 264.14H999.38V592.24H1293.23V264.14Z" fill="#F5F5F5"/>
<path d="M1082.42 264.14L999.38 575.17V406.78L1037.38 264.14H1082.42Z" fill="white"/>
<path d="M1119.53 264.14L1031.95 592.21H1015.43L1103.01 264.14H1119.53Z" fill="white"/>
<path d="M1293.23 353.59V522L1274.62 592.21H1229.58L1293.23 353.59Z" fill="white"/>
<path d="M1151.61 250.04H1140.18V605.57H1151.61V250.04Z" fill="#E9E9E9"/>
<path d="M1300.37 322.2H990.82V333.63H1300.37V322.2Z" fill="#E9E9E9"/>
<path d="M686.88 250.04H365.58V605.57H686.88V250.04Z" fill="#E9E9E9"/>
<path d="M673.59 264.14H379.74V592.24H673.59V264.14Z" fill="#F5F5F5"/>
<path d="M462.77 264.14L379.74 575.17V406.78L417.73 264.14H462.77Z" fill="white"/>
<path d="M499.89 264.14L412.31 592.21H395.79L483.37 264.14H499.89Z" fill="white"/>
<path d="M673.59 353.59V522L654.98 592.21H609.93L673.59 353.59Z" fill="white"/>
<path d="M531.97 250.04H520.54V605.57H531.97V250.04Z" fill="#E9E9E9"/>
<path d="M680.72 322.2H371.17V333.63H680.72V322.2Z" fill="#E9E9E9"/>
</g>
<path d="M1397.58 377.032C1412.81 361.806 1412.81 337.119 1397.58 321.892C1382.35 306.666 1357.67 306.666 1342.44 321.892C1327.21 337.119 1327.21 361.806 1342.44 377.032C1357.67 392.259 1382.35 392.259 1397.58 377.032Z" fill="#2E112D"/>
<path d="M1370 349.46L1389.08 315.46C1395.12 318.849 1400.15 323.785 1403.64 329.761C1407.14 335.736 1408.99 342.535 1408.99 349.46H1370Z" fill="#820333"/>
<path d="M1370 349.46H1409C1409 357.578 1406.46 365.494 1401.75 372.104C1397.04 378.713 1390.38 383.686 1382.7 386.33L1370 349.46Z" fill="#E3EAFC"/>
<path d="M863 128.24V118H857.1C856.874 116.171 856.479 114.366 855.92 112.61L860.71 109.85L855.59 101L851.19 103.54C849.999 101.972 848.659 100.522 847.19 99.21L849.57 95.09L840.66 90L838.42 93.88C836.484 93.112 834.473 92.5489 832.42 92.2V87.87H822.22V92.16C820.167 92.519 818.156 93.0887 816.22 93.86L814.09 90.17L805.22 95.29L807.5 99.24C805.979 100.583 804.599 102.078 803.38 103.7L799.31 101.35L794.19 110.21L798.71 112.82C798.144 114.645 797.755 116.52 797.55 118.42H792.1V128.66H798.17C798.578 130.373 799.137 132.046 799.84 133.66L794.4 136.8L799.52 145.66L805.52 142.22C806.631 143.408 807.839 144.502 809.13 145.49L805.62 151.57L814.48 156.69L818.2 150.26C819.666 150.735 821.167 151.093 822.69 151.33V158.78H832.92V151.2C834.422 150.921 835.899 150.527 837.34 150.02L841 156.5L849.86 151.38L846.21 145C847.439 144.011 848.586 142.924 849.64 141.75L855.79 145.3L860.91 136.43L855.09 133.07C855.736 131.499 856.248 129.877 856.62 128.22L863 128.24ZM850.36 121.72C850.36 126.269 849.011 130.716 846.484 134.498C843.957 138.28 840.365 141.228 836.162 142.969C831.959 144.71 827.335 145.166 822.873 144.278C818.411 143.391 814.313 141.2 811.097 137.983C807.88 134.767 805.69 130.669 804.802 126.207C803.915 121.746 804.37 117.121 806.111 112.918C807.852 108.716 810.8 105.123 814.582 102.596C818.364 100.069 822.811 98.72 827.36 98.72C833.46 98.72 839.31 101.143 843.624 105.457C847.937 109.77 850.36 115.62 850.36 121.72Z" fill="#2E112D"/>
<path d="M827.34 102.7C823.582 102.7 819.909 103.814 816.784 105.902C813.66 107.99 811.224 110.957 809.786 114.429C808.348 117.901 807.972 121.721 808.705 125.407C809.438 129.092 811.248 132.478 813.905 135.135C816.562 137.792 819.948 139.602 823.633 140.335C827.319 141.068 831.139 140.692 834.611 139.254C838.083 137.816 841.05 135.38 843.138 132.256C845.226 129.131 846.34 125.458 846.34 121.7C846.34 116.661 844.338 111.828 840.775 108.265C837.212 104.702 832.379 102.7 827.34 102.7ZM827.34 137.44C824.231 137.44 821.192 136.518 818.607 134.791C816.021 133.063 814.006 130.608 812.817 127.736C811.627 124.863 811.316 121.703 811.922 118.653C812.529 115.604 814.026 112.803 816.224 110.604C818.423 108.406 821.224 106.909 824.273 106.302C827.323 105.696 830.483 106.007 833.356 107.197C836.228 108.386 838.683 110.401 840.411 112.986C842.138 115.572 843.06 118.611 843.06 121.72C843.06 125.889 841.404 129.888 838.456 132.836C835.508 135.784 831.509 137.44 827.34 137.44Z" fill="#820333"/>
<path d="M233.39 535.2L201.31 516.68V479.68L233.39 461.16L265.47 479.68V516.68L265.17 516.86L233.39 535.2ZM202.51 516L233.39 533.83L264.27 516V480.33L233.39 462.51L202.51 480.33V516Z" fill="#49494A"/>
<path d="M202.5 516.29L201.95 515.68L203.5 513L204.24 513.43L202.69 516.11L202.42 515.95L202.56 516.26L202.5 516.29ZM263.57 515.96L260.75 514.69L261.1 513.91L263.42 514.91L262.08 512.59L262.82 512.16L264.37 514.83L263.87 515.12H263.92L263.57 515.96ZM204.12 515.55L203.77 514.77L206.59 513.5L206.94 514.28L204.12 515.55ZM259.18 514L256.37 512.73L256.72 511.94L259.54 513.22L259.18 514ZM208.51 513.59L208.15 512.81L210.97 511.53L211.32 512.32L208.51 513.59ZM254.8 512L252 510.73L252.36 509.94L255.17 511.22L254.8 512ZM205.1 511.94L204.35 511.51L205.9 508.84L206.64 509.27L205.1 511.94ZM212.89 511.59L212.54 510.81L215.35 509.53L215.71 510.32L212.89 511.59ZM261.22 511.14L259.67 508.46L260.42 508.03L261.96 510.71L261.22 511.14ZM250.42 510L247.6 508.72L248 508L250.82 509.27L250.42 510ZM217.27 509.59L216.92 508.8L219.74 507.53L220.09 508.31L217.27 509.59ZM246 508L243.19 506.72L243.54 505.94L246.36 507.21L246 508ZM207.47 507.74L206.73 507.31L208.28 504.63L209.02 505.06L207.47 507.74ZM221.62 507.59L221.27 506.8L224.09 505.53L224.44 506.31L221.62 507.59ZM258.78 506.93L257.24 504.25L257.98 503.83L259.53 506.5L258.78 506.93ZM241.62 506.01L238.8 504.74L239.16 503.96L241.97 505.23L241.62 506.01ZM226 505.64L225.64 504.86L228.46 503.59L228.82 504.37L226 505.64ZM237.23 504.07L234.41 502.8L234.76 502.02L237.58 503.29L237.23 504.07ZM230.38 503.66L230.03 502.88L232.84 501.61L233.2 502.39L230.38 503.66ZM209.87 503.61L209.12 503.18L210.67 500.51L211.41 500.94L209.87 503.61ZM256.37 502.81L254.82 500.13L255.57 499.7L257.11 502.38L256.37 502.81ZM212.27 499.45L211.53 499.02L213.08 496.34L213.82 496.77L212.27 499.45ZM253.96 498.64L252.46 496L253.2 495.57L254.75 498.25L253.96 498.64ZM214.68 495.28L213.94 494.85L215.48 492.17L216.23 492.6L214.68 495.28ZM251.56 494.48L250.01 491.8L250.76 491.37L252.3 494.05L251.56 494.48ZM217.08 491.12L216.34 490.69L217.89 488.01L218.63 488.44L217.08 491.12ZM249.15 490.31L247.61 487.63L248.35 487.2L249.9 489.88L249.15 490.31ZM219.53 487L218.79 486.57L220.33 483.89L221.08 484.32L219.53 487ZM246.79 486.19L245.24 483.52L246 483L247.55 485.67L246.79 486.19ZM221.93 482.83L221.19 482.4L222.74 479.73L223.48 480.16L221.93 482.83ZM244.38 482.03L242.84 479.35L243.58 478.92L245.13 481.6L244.38 482.03ZM224.38 478.67L223.64 478.24L225.18 475.56L225.93 475.99L224.38 478.67ZM242.02 477.86L240.47 475.18L241.21 474.76L242.76 477.43L242.02 477.86ZM226.78 474.5L226 474L227.55 471.33L228.29 471.76L226.78 474.5ZM239.61 473.7L238 471L238.74 470.57L240.29 473.25L239.61 473.7ZM229.19 470.34L228.45 469.91L229.99 467.23L230.74 467.66L229.19 470.34ZM237.19 469.53L235.64 466.85L236.38 466.42L237.93 469.1L237.19 469.53ZM231.57 466.17L230.83 465.74L232.38 463.06L233.12 463.49L231.57 466.17ZM234.78 465.37L233.24 462.69L233.98 462.26L235.53 464.94L234.78 465.37Z" fill="#49494A"/>
<path d="M234 534.38L233.26 533.96L234.8 531.28L235.55 531.71L234 534.38ZM232.4 533.58L230.85 530.9L231.59 530.47L233.14 533.15L232.4 533.58ZM236.4 530.22L235.66 529.79L237.21 527.11L237.95 527.54L236.4 530.22ZM229.99 529.41L228.45 526.73L229.19 526.31L230.7 529L229.99 529.41ZM238.81 526.05L238.07 525.62L239.61 522.95L240.36 523.38L238.81 526.05ZM227.59 525.25L226 522.57L226.74 522.14L228.29 524.82L227.59 525.25ZM241.21 521.89L240.47 521.46L242.02 518.78L242.76 519.21L241.21 521.89ZM225.21 521.08L223.67 518.4L224.41 517.97L225.96 520.65L225.21 521.08ZM243.65 517.72L242.91 517.29L244.45 514.61L245.2 515.04L243.65 517.72ZM222.81 516.92L221.26 514.24L222 513.81L223.55 516.49L222.81 516.92ZM246 513.56L245.26 513.13L246.81 510.45L247.55 510.88L246 513.56ZM220.35 512.75L218.81 510.07L219.55 509.64L221.1 512.32L220.35 512.75ZM248.41 509.39L247.67 508.96L249.21 506.28L249.96 506.71L248.41 509.39ZM217.95 508.58L216.4 505.91L217.14 505.48L218.69 508.15L217.95 508.58ZM250.82 505.22L250.07 504.8L251.62 502.12L252.36 502.55L250.82 505.22ZM215.54 504.42L214 501.74L214.74 501.31L216.29 503.99L215.54 504.42ZM253.22 501.06L252.48 500.63L254 498L254.75 498.43L253.22 501.06ZM213.14 500.25L211.59 497.57L212.33 497.15L213.88 499.82L213.14 500.25ZM255.63 496.89L254.88 496.46L256.43 493.79L257.17 494.22L255.63 496.89ZM210.73 496.09L209.18 493.41L209.93 492.98L211.47 495.66L210.73 496.09ZM232.9 494.99L230.09 493.71L230.44 492.93L233.26 494.2L232.9 494.99ZM234.82 494.58L234.47 493.79L237.29 492.52L237.64 493.3L234.82 494.58ZM228.5 493L225.68 491.72L226 491L228.82 492.27L228.5 493ZM258.01 492.72L257.27 492.29L258.81 489.61L259.56 490.04L258.01 492.72ZM239.19 492.58L238.83 491.8L241.65 490.53L242 491.31L239.19 492.58ZM208.31 491.91L206.76 489.23L207.5 488.8L209.05 491.48L208.31 491.91ZM224.12 491.01L221.3 489.74L221.65 488.96L224.47 490.23L224.12 491.01ZM243.57 490.6L243.22 489.82L246.03 488.55L246.39 489.33L243.57 490.6ZM219.74 489L216.92 487.73L217.27 486.95L220.09 488.22L219.74 489ZM247.95 488.59L247.6 487.81L250.42 486.54L250.77 487.32L247.95 488.59ZM260.42 488.52L259.67 488.09L261.22 485.41L261.96 485.84L260.42 488.52ZM205.9 487.72L204.35 485.04L205.1 484.61L206.64 487.29L205.9 487.72ZM215.35 487.02L212.54 485.75L212.89 484.96L215.71 486.24L215.35 487.02ZM252.35 486.61L251.99 485.83L254.81 484.55L255.16 485.34L252.35 486.61ZM211 485.08L208.18 483.8L208.54 483.02L211.35 484.3L211 485.08ZM256.75 484.67L256.4 483.89L259.21 482.61L259.57 483.39L256.75 484.67ZM262.85 484.4L262.11 483.97L263.45 481.64L261.13 482.69L260.78 481.9L263.6 480.63L263.95 481.41H263.9L264.4 481.7L262.85 484.4ZM203.53 483.59L202 480.91L202.55 480.31H202.61L202.47 480.62L202.74 480.46L204.29 483.14L203.53 483.59ZM206.62 483.1L203.8 481.82L204.15 481.04L206.97 482.31L206.62 483.1Z" fill="#49494A"/>
<path d="M238.743 463.286C239.565 460.327 237.834 457.262 234.875 456.439C231.917 455.617 228.852 457.348 228.029 460.306C227.206 463.265 228.938 466.33 231.896 467.153C234.855 467.975 237.92 466.244 238.743 463.286Z" fill="#2E112D"/>
<path d="M233.39 467.37C231.915 467.37 230.501 466.784 229.459 465.742C228.416 464.699 227.83 463.285 227.83 461.81C227.83 460.335 228.416 458.921 229.459 457.878C230.501 456.836 231.915 456.25 233.39 456.25V467.37Z" fill="#2E112D"/>
<path d="M227.19 534.51C227.19 533.284 227.554 532.085 228.235 531.066C228.916 530.046 229.884 529.251 231.017 528.782C232.15 528.313 233.397 528.19 234.6 528.429C235.802 528.668 236.907 529.259 237.774 530.126C238.641 530.993 239.232 532.098 239.471 533.3C239.71 534.503 239.587 535.75 239.118 536.883C238.649 538.016 237.854 538.984 236.834 539.665C235.815 540.346 234.616 540.71 233.39 540.71C232.575 540.711 231.769 540.552 231.016 540.241C230.263 539.93 229.579 539.473 229.003 538.897C228.427 538.321 227.97 537.637 227.659 536.884C227.348 536.131 227.189 535.325 227.19 534.51Z" fill="#29547F"/>
<path d="M233.39 540.71C231.746 540.71 230.169 540.057 229.006 538.894C227.843 537.731 227.19 536.154 227.19 534.51C227.19 532.866 227.843 531.289 229.006 530.126C230.169 528.963 231.746 528.31 233.39 528.31V540.71Z" fill="#2E112D"/>
<path d="M195.71 480.7C195.71 479.474 196.074 478.275 196.755 477.255C197.436 476.236 198.404 475.441 199.537 474.972C200.67 474.503 201.917 474.38 203.12 474.619C204.322 474.858 205.427 475.449 206.294 476.316C207.161 477.183 207.752 478.288 207.991 479.49C208.23 480.693 208.107 481.94 207.638 483.073C207.169 484.206 206.374 485.174 205.354 485.855C204.335 486.536 203.136 486.9 201.91 486.9C200.266 486.897 198.691 486.243 197.529 485.081C196.367 483.919 195.713 482.344 195.71 480.7Z" fill="#2E112D"/>
<path d="M265.04 487.29C268.884 487.29 272 484.174 272 480.33C272 476.486 268.884 473.37 265.04 473.37C261.196 473.37 258.08 476.486 258.08 480.33C258.08 484.174 261.196 487.29 265.04 487.29Z" fill="#820333"/>
<path d="M265 487.29C263.283 487.106 261.694 486.293 260.54 485.008C259.386 483.723 258.747 482.057 258.747 480.33C258.747 478.603 259.386 476.937 260.54 475.652C261.694 474.367 263.283 473.554 265 473.37V487.29Z" fill="#4D92B3"/>
<path d="M269.138 516.246C269.304 513.904 267.541 511.871 265.2 511.705C262.859 511.538 260.826 513.301 260.659 515.642C260.492 517.984 262.255 520.017 264.597 520.183C266.938 520.35 268.971 518.587 269.138 516.246Z" fill="#29547F"/>
<path d="M264.87 520.14C264.295 520.168 263.721 520.079 263.182 519.878C262.642 519.677 262.149 519.369 261.733 518.972C261.316 518.575 260.984 518.098 260.758 517.569C260.531 517.04 260.414 516.471 260.414 515.895C260.414 515.32 260.531 514.75 260.758 514.221C260.984 513.692 261.316 513.215 261.733 512.818C262.149 512.421 262.642 512.113 263.182 511.912C263.721 511.711 264.295 511.622 264.87 511.65V520.14Z" fill="#2E112D"/>
<path d="M246.798 500.303C247.992 492.893 242.954 485.917 235.544 484.723C228.134 483.528 221.159 488.566 219.964 495.976C218.769 503.386 223.808 510.361 231.217 511.556C238.627 512.751 245.603 507.713 246.798 500.303Z" fill="#A1A7AD"/>
<path d="M201.91 506.5C200.05 506.498 198.232 507.048 196.685 508.079C195.138 509.111 193.931 510.578 193.218 512.296C192.505 514.013 192.318 515.904 192.679 517.728C193.041 519.552 193.935 521.228 195.25 522.543C196.564 523.859 198.239 524.755 200.062 525.119C201.886 525.482 203.777 525.297 205.495 524.585C207.213 523.874 208.682 522.669 209.715 521.123C210.748 519.577 211.3 517.76 211.3 515.9C211.301 514.666 211.059 513.444 210.588 512.304C210.117 511.163 209.425 510.127 208.553 509.254C207.681 508.381 206.646 507.688 205.506 507.216C204.366 506.743 203.144 506.5 201.91 506.5ZM201.91 520.66C200.966 520.662 200.042 520.384 199.256 519.86C198.47 519.337 197.857 518.592 197.495 517.72C197.133 516.848 197.037 515.888 197.221 514.962C197.405 514.036 197.859 513.185 198.527 512.517C199.195 511.849 200.046 511.395 200.972 511.211C201.898 511.027 202.858 511.123 203.73 511.485C204.602 511.847 205.347 512.46 205.87 513.246C206.394 514.032 206.672 514.956 206.67 515.9C206.67 517.162 206.169 518.373 205.276 519.266C204.383 520.158 203.172 520.66 201.91 520.66Z" fill="#820333"/>
<g style="mix-blend-mode:multiply" opacity="0.5">
<path d="M201.91 522.18C200.286 522.115 198.751 521.425 197.625 520.253C196.499 519.082 195.871 517.52 195.871 515.895C195.871 514.27 196.499 512.708 197.625 511.537C198.751 510.365 200.286 509.675 201.91 509.61V506.5C199.471 506.58 197.159 507.604 195.462 509.357C193.765 511.111 192.816 513.455 192.816 515.895C192.816 518.335 193.765 520.679 195.462 522.432C197.159 524.186 199.471 525.21 201.91 525.29V522.18Z" fill="#4D92B3"/>
</g>
<g style="mix-blend-mode:multiply">
<path d="M248.81 497.19C248.81 497.51 248.81 497.83 248.81 498.19C248.81 501.246 247.904 504.233 246.206 506.774C244.508 509.314 242.095 511.295 239.272 512.464C236.449 513.633 233.343 513.939 230.346 513.343C227.349 512.747 224.596 511.276 222.435 509.115C220.274 506.954 218.803 504.201 218.207 501.204C217.611 498.207 217.916 495.101 219.086 492.278C220.255 489.454 222.235 487.042 224.776 485.344C227.317 483.646 230.304 482.74 233.36 482.74V472.56C228.297 472.56 223.347 474.061 219.137 476.874C214.927 479.687 211.646 483.686 209.708 488.363C207.771 493.041 207.264 498.188 208.252 503.154C209.239 508.12 211.678 512.682 215.258 516.262C218.838 519.842 223.4 522.28 228.365 523.268C233.331 524.256 238.479 523.749 243.156 521.811C247.834 519.874 251.832 516.593 254.645 512.383C257.458 508.173 258.96 503.223 258.96 498.16C258.96 497.83 258.96 497.51 258.96 497.16L248.81 497.19Z" fill="#CED6DB"/>
</g>
<path d="M242.61 497.56C242.464 495.322 241.509 493.213 239.923 491.627C238.337 490.041 236.228 489.086 233.99 488.94V487.85H232.79V488.94C230.552 489.086 228.443 490.041 226.857 491.627C225.271 493.213 224.316 495.322 224.17 497.56H223.08V498.77H224.17C224.318 501.006 225.274 503.113 226.86 504.697C228.446 506.281 230.553 507.234 232.79 507.38V508.47H234V507.38C236.237 507.234 238.344 506.281 239.93 504.697C241.516 503.113 242.472 501.006 242.62 498.77H243.71V497.56H242.61ZM234 493V492.13C235.36 492.265 236.634 492.854 237.62 493.8L236.52 494.9C235.68 494.101 234.565 493.655 233.405 493.655C232.246 493.655 231.13 494.101 230.29 494.9L229.2 493.8C230.18 492.859 231.448 492.275 232.8 492.14V493H234ZM239.45 498.79C239.316 500.142 238.731 501.41 237.79 502.39L236.69 501.29C237.489 500.452 237.933 499.338 237.93 498.18C237.933 497.017 237.485 495.899 236.68 495.06L237.78 493.97C238.726 494.952 239.315 496.223 239.45 497.58H238.59V498.79H239.45ZM227.35 497.58C227.486 496.236 228.067 494.977 229 494L230.1 495.09C229.301 495.93 228.855 497.045 228.855 498.205C228.855 499.365 229.301 500.48 230.1 501.32L229 502.42C228.056 501.437 227.468 500.166 227.33 498.81H228.2V497.6L227.35 497.58ZM229.52 498.18C229.517 497.411 229.742 496.659 230.168 496.02C230.593 495.38 231.2 494.881 231.91 494.587C232.62 494.293 233.402 494.217 234.155 494.369C234.908 494.521 235.599 494.894 236.14 495.44C236.503 495.798 236.79 496.225 236.986 496.695C237.182 497.166 237.282 497.67 237.28 498.18C237.283 498.948 237.058 499.701 236.632 500.34C236.207 500.98 235.6 501.479 234.89 501.773C234.18 502.067 233.399 502.143 232.645 501.991C231.892 501.839 231.201 501.466 230.66 500.92C230.295 500.559 230.005 500.129 229.808 499.656C229.61 499.182 229.509 498.673 229.51 498.16L229.52 498.18ZM227.66 492.44C229.034 491.061 230.859 490.223 232.8 490.08V491.59C231.256 491.729 229.809 492.406 228.712 493.502C227.616 494.599 226.939 496.045 226.8 497.59H225.29C225.426 495.638 226.264 493.801 227.65 492.42L227.66 492.44ZM232.8 506.28C230.861 506.133 229.04 505.297 227.664 503.923C226.288 502.549 225.45 500.728 225.3 498.79H226.81C226.947 500.335 227.623 501.783 228.72 502.88C229.817 503.977 231.265 504.653 232.81 504.79L232.8 506.28ZM232.8 503.37V504.23C231.442 504.1 230.169 503.511 229.19 502.56L230.28 501.47C231.121 502.267 232.236 502.711 233.395 502.711C234.554 502.711 235.669 502.267 236.51 501.47L237.61 502.57C236.627 503.513 235.356 504.098 234 504.23V503.37H232.8ZM239.14 503.92C237.768 505.302 235.942 506.14 234 506.28V504.77C235.545 504.633 236.993 503.957 238.09 502.86C239.187 501.763 239.863 500.315 240 498.77H241.51C241.362 500.711 240.517 502.534 239.13 503.9L239.14 503.92ZM239.99 497.58C239.851 496.035 239.174 494.589 238.078 493.492C236.981 492.396 235.535 491.719 233.99 491.58V490.07C235.93 490.217 237.753 491.055 239.129 492.431C240.505 493.807 241.343 495.63 241.49 497.57L239.99 497.58Z" fill="#49494A"/>
<g style="mix-blend-mode:multiply" opacity="0.5">
<path d="M201.91 486.9C200.308 486.836 198.792 486.154 197.681 484.997C196.57 483.841 195.949 482.299 195.949 480.695C195.949 479.091 196.57 477.549 197.681 476.393C198.792 475.236 200.308 474.554 201.91 474.49V486.9Z" fill="#65C3EF"/>
</g>
<path d="M1468 999.04H146V1002.93H1468V999.04Z" fill="#2E112D"/>
<path d="M1413.35 650.25C1413.25 649.891 1413.04 649.574 1412.74 649.348C1412.44 649.122 1412.08 649 1411.71 649C1395.64 649.26 1375.49 649.31 1361.88 659.24C1349.2 668.5 1347.3 684.84 1347.59 699.4C1347.6 699.71 1347.7 700.011 1347.87 700.271C1348.04 700.53 1348.28 700.739 1348.56 700.875C1348.84 701.011 1349.15 701.069 1349.46 701.044C1349.77 701.018 1350.07 700.91 1350.32 700.73L1350.44 700.8C1384.23 713.44 1418.15 685.68 1413.35 650.25Z" fill="#820333"/>
<path d="M1335.51 716C1335.64 704.81 1333.04 693.5 1324.45 685.73C1314.59 676.82 1300.35 671.73 1288.7 665.73C1287.52 665.12 1285.61 666.17 1286.2 667.66C1291.47 681.06 1290.73 697.43 1300.03 709.07C1307.94 718.97 1321.31 722.31 1333.19 718.66C1333.44 718.587 1333.68 718.452 1333.86 718.267C1334.05 718.082 1334.19 717.853 1334.27 717.6C1334.63 717.522 1334.96 717.319 1335.18 717.027C1335.41 716.734 1335.53 716.37 1335.51 716Z" fill="#820333"/>
<path d="M1439.41 752.46C1431.5 746.33 1421.32 746.95 1411.76 747.37C1401.15 747.83 1390.48 749.46 1380.82 754.05C1363.99 762.05 1352.15 779.74 1358.25 798.45C1358.14 798.865 1358.2 799.307 1358.41 799.681C1358.62 800.055 1358.97 800.331 1359.38 800.45C1375.38 805.53 1383.17 794.81 1392.83 784.14C1405.23 770.581 1421.07 760.626 1438.66 755.33C1439.75 755 1440.48 753.29 1439.41 752.46Z" fill="#820333"/>
<path d="M1477.81 792.43C1477.6 792.353 1477.39 792.262 1477.19 792.16C1470.38 789.23 1464.28 783.68 1458.09 778.33C1458.09 778.33 1458.09 778.33 1458.02 778.26C1451.24 772.4 1444.32 766.85 1436.25 765.39C1436.18 765.371 1436.12 765.371 1436.05 765.39C1432.03 764.691 1427.9 765.035 1424.05 766.39C1406.88 772.11 1396.32 789.99 1394.62 807.19C1394.59 807.545 1394.68 807.9 1394.89 808.19C1394.85 808.281 1394.82 808.375 1394.79 808.47C1394.71 808.727 1394.69 808.999 1394.73 809.265C1394.77 809.531 1394.86 809.787 1395.01 810.013C1395.15 810.239 1395.34 810.431 1395.57 810.576C1395.8 810.72 1396.05 810.814 1396.32 810.85C1411.03 812.58 1425.48 810.85 1439.89 807.85C1452.66 805.16 1467.1 802.98 1478.21 795.59C1478.51 795.422 1478.75 795.169 1478.9 794.864C1479.06 794.559 1479.11 794.215 1479.07 793.876C1479.03 793.537 1478.89 793.218 1478.66 792.96C1478.44 792.703 1478.14 792.518 1477.81 792.43Z" fill="#820333"/>
<path d="M1452.25 825.37C1433.47 821.6 1394.65 812 1392 842C1391.97 842.187 1391.99 842.378 1392.04 842.561C1392.09 842.743 1392.17 842.914 1392.29 843.061C1392.41 843.209 1392.55 843.332 1392.72 843.421C1392.89 843.51 1393.07 843.564 1393.26 843.58C1410.26 863.58 1443.46 847.72 1453.26 827.88C1453.39 827.654 1453.47 827.402 1453.49 827.142C1453.5 826.882 1453.46 826.621 1453.37 826.379C1453.27 826.138 1453.12 825.921 1452.92 825.746C1452.73 825.571 1452.5 825.443 1452.25 825.37Z" fill="#820333"/>
<path d="M1333.2 765.14C1328.2 754.14 1316.64 742.72 1305.2 738.56C1304.95 738.493 1304.68 738.485 1304.43 738.535C1304.17 738.586 1303.93 738.695 1303.72 738.853C1303.51 739.011 1303.34 739.214 1303.22 739.448C1303.11 739.681 1303.04 739.939 1303.04 740.2C1303.23 761.94 1297.9 796.14 1321.54 808.2C1321.69 808.273 1321.86 808.32 1322.03 808.34C1322.18 808.593 1322.39 808.804 1322.64 808.951C1322.89 809.097 1323.18 809.174 1323.47 809.174C1323.76 809.174 1324.05 809.097 1324.3 808.951C1324.56 808.804 1324.76 808.593 1324.91 808.34C1332.26 795.28 1339.92 780 1333.2 765.14Z" fill="#820333"/>
<path d="M1271.64 779C1260.09 769.56 1241.86 767.52 1228.43 774.33C1209.8 783.8 1213.14 806.24 1210.3 823.53C1210.21 823.89 1210.24 824.269 1210.39 824.611C1210.53 824.952 1210.78 825.237 1211.11 825.424C1211.43 825.611 1211.8 825.689 1212.17 825.647C1212.53 825.604 1212.88 825.444 1213.15 825.19C1231.56 809.04 1257.24 802.7 1271.29 781.55C1271.53 781.451 1271.74 781.29 1271.9 781.084C1272.06 780.878 1272.16 780.633 1272.2 780.376C1272.23 780.118 1272.2 779.855 1272.1 779.613C1272 779.372 1271.84 779.161 1271.64 779Z" fill="#820333"/>
<path d="M1271.76 796.08C1271.54 795.739 1271.21 795.488 1270.82 795.376C1270.43 795.264 1270.02 795.297 1269.65 795.47C1269.42 795.139 1269.07 794.906 1268.68 794.819C1268.28 794.732 1267.87 794.797 1267.52 795C1258.3 800.06 1247.52 807.14 1245.66 818.3C1243.5 831.6 1250.97 844.59 1251.82 857.69C1251.94 859.49 1254.82 860.15 1255.16 858.15C1257.53 845.55 1270.58 839.81 1275.38 828.48C1279.33 819.15 1277.25 804.47 1271.76 796.08Z" fill="#820333"/>
<path d="M1328.69 873.37C1317.85 858.15 1306.69 845.14 1287.88 840.37C1287.55 840.287 1287.21 840.301 1286.89 840.41C1286.58 840.52 1286.3 840.72 1286.09 840.986C1285.89 841.251 1285.76 841.572 1285.74 841.906C1285.71 842.241 1285.79 842.576 1285.95 842.87C1290.19 849.25 1290.1 856.47 1293.66 862.87C1295.76 866.68 1299.22 869.53 1302.84 871.81C1310.84 876.89 1321.22 881.49 1330.17 876.36C1332 875.35 1330.49 872.65 1328.69 873.37Z" fill="#820333"/>
<path d="M1353.14 855.4C1353.11 855.226 1353.04 855.06 1352.95 854.91C1345.5 843.01 1345.18 827.91 1334.89 817.66C1334.7 817.479 1334.48 817.343 1334.23 817.261C1333.99 817.179 1333.73 817.153 1333.47 817.186C1333.21 817.219 1332.96 817.309 1332.75 817.45C1332.53 817.591 1332.35 817.779 1332.21 818C1327.21 826.08 1324.73 835.78 1328.74 844.83C1333.08 854.63 1342.2 857.31 1352.13 858.33C1353.88 858.51 1354.19 856.37 1353.14 855.4Z" fill="#820333"/>
<path d="M1374 722.45C1371.88 720.67 1369 722.45 1366.94 723.33C1362.96 724.931 1359.19 727.006 1355.7 729.51C1349.25 734.31 1344.83 741.11 1344.42 749.14C1344.39 749.345 1344.39 749.555 1344.42 749.76C1344.42 750 1344.42 750.22 1344.42 750.46C1344.44 750.842 1344.59 751.207 1344.84 751.497C1345.09 751.786 1345.43 751.985 1345.8 752.062C1346.18 752.138 1346.57 752.088 1346.91 751.92C1347.25 751.751 1347.53 751.473 1347.7 751.13C1355.95 749.32 1362.46 744.01 1367.87 737.64C1370.3 734.71 1379 726.6 1374 722.45Z" fill="#820333"/>
<path d="M1377.76 856.76C1377.5 856.52 1377.3 856.24 1377.05 855.99C1379.17 841.46 1380.05 824.63 1365.76 816.09C1365.54 815.96 1365.28 815.882 1365.03 815.863C1364.77 815.845 1364.51 815.885 1364.27 815.981C1364.03 816.078 1363.81 816.227 1363.64 816.42C1363.46 816.612 1363.33 816.841 1363.26 817.09C1361.29 824.54 1361.38 832.383 1363.51 839.788C1365.64 847.193 1369.74 853.883 1375.36 859.15C1377 860.68 1379.36 858.27 1377.76 856.76Z" fill="#820333"/>
<path d="M1476.34 790.73C1470.04 787.93 1464.11 783.1 1458.09 778.33C1458.09 778.33 1458.09 778.33 1458.02 778.26C1451.11 772.78 1444.09 767.39 1436.25 765.39C1436.18 765.371 1436.12 765.371 1436.05 765.39C1432.03 764.691 1427.9 765.035 1424.05 766.39C1406.88 772.11 1396.32 789.99 1394.62 807.19C1394.59 807.545 1394.68 807.9 1394.89 808.19C1394.85 808.281 1394.82 808.375 1394.79 808.47C1395.08 808.456 1395.36 808.375 1395.62 808.233C1395.87 808.09 1396.09 807.891 1396.25 807.65C1396.6 807.604 1396.93 807.434 1397.17 807.17C1402.76 801.17 1408.72 795.66 1414.58 789.97C1417.4 787.24 1420.16 783.8 1423.37 781.52C1430.18 776.65 1436.04 777.52 1443.19 779.65C1451.74 782.13 1459.54 786.56 1467.31 790.82C1470.2 792.45 1473.03 795.22 1476.31 793.71C1476.58 793.573 1476.81 793.358 1476.96 793.093C1477.11 792.828 1477.18 792.524 1477.16 792.22C1477.19 791.918 1477.13 791.614 1476.98 791.348C1476.84 791.081 1476.61 790.866 1476.34 790.73Z" fill="#C9283E"/>
<path d="M1325.52 848.06C1323.89 841.46 1322.08 834.77 1319.83 828.23C1319.83 828.17 1319.89 828.14 1319.92 828.08C1322.93 817.798 1324.15 807.075 1323.52 796.38C1323.83 796.34 1324.12 796.211 1324.35 796.009C1324.59 795.806 1324.76 795.539 1324.84 795.24C1326.8 789.035 1327.64 782.53 1327.32 776.03C1327.22 773.85 1323.81 773.84 1323.92 776.03C1324.13 780.505 1323.77 784.987 1322.84 789.37C1322.15 784.291 1321.06 779.274 1319.57 774.37C1318.92 772.28 1315.64 773.17 1316.28 775.28C1321.06 790.646 1321.58 807.021 1317.79 822.66C1314.73 814.506 1310.49 806.84 1305.23 799.9C1292.61 783.75 1269.67 773.9 1251.51 781.55C1251.49 781.215 1251.36 780.897 1251.14 780.645C1250.92 780.393 1250.62 780.222 1250.29 780.16C1246.87 779.309 1243.31 779.145 1239.82 779.677C1236.33 780.209 1232.98 781.427 1229.97 783.26C1228.1 784.39 1229.81 787.34 1231.69 786.2C1236.6 783.187 1242.45 782.117 1248.11 783.2C1243.59 785.79 1239.7 789.34 1236.7 793.6C1235.41 795.39 1238.37 797.09 1239.64 795.32C1248.35 783.24 1264.18 779.44 1278.05 783.94C1282.01 785.256 1285.76 787.114 1289.21 789.46C1274.7 789.16 1263.69 798.88 1253.77 808.55C1252.19 810.08 1254.61 812.49 1256.18 810.96C1258.18 809.04 1260.18 807.11 1262.18 805.26C1261.62 808.698 1261.51 812.195 1261.87 815.66C1262.09 817.81 1265.5 817.83 1265.28 815.66C1264.81 811.232 1265.14 806.756 1266.28 802.45C1266.32 802.235 1266.32 802.015 1266.28 801.8C1273.28 796.26 1281.14 792.22 1290.77 792.91C1291.13 792.952 1291.49 792.858 1291.78 792.647C1292.07 792.436 1292.27 792.123 1292.34 791.77C1300.06 797.87 1306.14 806.15 1310.55 814.91C1319.3 832.32 1324.3 852.23 1327.13 872.16C1320.15 870.385 1313.85 866.59 1309.01 861.25C1307.53 859.63 1305.12 862.04 1306.6 863.66C1309.05 866.34 1311.86 868.674 1314.94 870.6C1312.97 870.616 1311.01 870.482 1309.06 870.2C1306.92 869.86 1306 873.14 1308.16 873.48C1311.4 874.003 1314.69 874.167 1317.97 873.97C1318.27 873.957 1318.56 873.862 1318.81 873.694C1319.06 873.527 1319.26 873.294 1319.39 873.02C1321.92 874.197 1324.57 875.105 1327.29 875.73C1327.4 875.74 1327.51 875.74 1327.62 875.73C1328.87 885.39 1329.62 895.01 1330.07 904.34C1330.17 906.52 1333.58 906.53 1333.47 904.34C1332.65 885.367 1329.99 866.518 1325.52 848.06Z" fill="#C9283E"/>
<path d="M1382 778.05C1378.95 780.258 1376.02 782.621 1373.22 785.13C1374.83 779.101 1377.49 773.404 1381.08 768.3C1382.35 766.5 1379.4 764.8 1378.14 766.58C1373.73 772.853 1370.66 779.973 1369.14 787.49C1369.09 787.709 1369.08 787.937 1369.12 788.159C1369.16 788.381 1369.25 788.592 1369.37 788.78C1361.76 796.22 1355.26 804.717 1350.07 814.01C1349.15 802.27 1348.4 790.513 1347.81 778.74C1347.41 770.38 1346.75 761.03 1346.52 751.39C1350.46 746.08 1354.63 740.85 1360.75 737.98C1362.75 737.05 1361.01 734.11 1359.03 734.98C1353.84 737.42 1349.94 741.47 1346.43 745.87C1346.43 741.35 1346.49 736.8 1346.77 732.29C1346.91 732.054 1346.99 731.789 1347 731.516C1347.02 731.243 1346.97 730.97 1346.86 730.72C1348.57 706.72 1355.79 683.95 1378.86 673.32C1380.86 672.41 1379.12 669.47 1377.14 670.38C1371.68 672.866 1366.7 676.299 1362.44 680.52C1362.25 677.218 1362.79 673.914 1364.01 670.84C1364.8 668.84 1361.51 667.91 1360.72 669.94C1359.04 674.297 1358.56 679.026 1359.34 683.63C1359.34 683.7 1359.4 683.75 1359.42 683.82C1349.61 695.51 1345.57 711.13 1344.1 727.31C1339.16 721.577 1334.22 715.847 1329.29 710.12C1329.55 709.995 1329.77 709.791 1329.91 709.536C1330.05 709.282 1330.11 708.99 1330.08 708.7C1329.81 703.961 1328.22 699.392 1325.49 695.51C1324.24 693.73 1321.29 695.43 1322.55 697.22C1324.57 700.064 1325.89 703.342 1326.41 706.79L1320.91 700.4C1319.48 698.74 1317.08 701.16 1318.5 702.81C1326.92 712.577 1335.33 722.34 1343.74 732.1C1343.38 738.1 1343.33 744.04 1343.41 749.9L1343.19 750.2C1343.07 750.345 1342.98 750.514 1342.92 750.696C1342.87 750.878 1342.86 751.069 1342.88 751.257C1342.91 751.445 1342.97 751.626 1343.07 751.788C1343.16 751.951 1343.3 752.091 1343.45 752.2C1343.57 757.93 1343.79 763.52 1344 768.8C1345.09 795.953 1347.13 823.043 1350.13 850.07C1344 846.68 1340.63 840.3 1337.57 834.18C1336.57 832.18 1333.65 833.94 1334.63 835.9C1338.14 842.9 1342.16 850.26 1349.63 853.67C1349.92 853.802 1350.24 853.85 1350.55 853.81C1352.51 871.143 1354.84 888.44 1357.55 905.7C1357.88 907.87 1361.17 906.95 1360.83 904.8C1356.4 876.48 1352.99 848.03 1350.6 819.45C1350.95 819.32 1351.23 819.062 1351.39 818.73C1359.08 803.792 1370.16 790.868 1383.76 781C1385.51 779.71 1383.82 776.76 1382 778.05Z" fill="#C9283E"/>
<path d="M1438.4 780.74C1431.59 780.621 1424.85 782.173 1418.78 785.26C1421.29 782.559 1424.03 780.071 1426.95 777.82C1428.67 776.51 1426.95 773.55 1425.23 774.88C1419.55 779.217 1414.53 784.361 1410.33 790.15C1410.19 790.351 1410.09 790.579 1410.04 790.82C1398.52 799.82 1390.04 813.68 1384.7 826.82C1381.53 834.83 1379.03 843.093 1377.24 851.52C1375.33 848.33 1374.24 844.76 1373.09 841.23C1372.15 838.42 1371.29 835.87 1368.68 834.23C1366.81 833.06 1365.1 836.01 1366.96 837.17C1369.71 838.89 1370.35 843.88 1371.35 846.75C1372.22 849.53 1373.48 852.171 1375.1 854.59C1375.25 854.806 1375.44 854.985 1375.67 855.111C1375.9 855.238 1376.16 855.31 1376.42 855.32C1372.3 875.91 1371.15 897.32 1369.18 917.93C1368.97 920.11 1372.37 920.1 1372.58 917.93C1374.42 898.74 1375.58 879.1 1379.09 860C1379.36 859.918 1379.61 859.763 1379.8 859.55C1386.23 852.44 1392.9 845.3 1401.02 840.36C1403.46 842.627 1406.35 844.354 1409.5 845.43C1411.58 846.14 1412.5 842.85 1410.41 842.15C1408.13 841.368 1406.01 840.175 1404.16 838.63C1406.43 837.441 1408.81 836.457 1411.26 835.69C1413.36 835.07 1412.47 831.78 1410.36 832.41C1407.13 833.398 1404.02 834.74 1401.09 836.41C1400.83 836.436 1400.58 836.519 1400.35 836.654C1400.13 836.789 1399.94 836.972 1399.79 837.19C1392.44 841.57 1386.2 847.62 1380.29 854.01C1381.42 848.65 1382.71 843.32 1384.29 838.09C1387.58 827.47 1392.78 815.7 1400.03 805.87H1400.21C1404.07 804.573 1408.05 803.649 1412.09 803.11C1414.25 802.82 1413.33 799.53 1411.19 799.82C1408.66 800.185 1406.16 800.693 1403.69 801.34C1412.58 791.08 1424.07 783.87 1438.36 784.15C1440.59 784.18 1440.59 780.78 1438.4 780.74Z" fill="#C9283E"/>
<path d="M1409.99 886.87L1407.28 903.75L1402.41 933.98L1391.83 999.89H1314.34L1303.76 933.98L1298.89 903.75L1296.19 886.87H1409.99Z" fill="#2E112D"/>
<path opacity="0.08" d="M1328.54 903.75L1325.83 886.87H1296.19L1298.89 903.75L1303.76 933.98L1314.34 999.89H1343.99L1333.4 933.98L1328.54 903.75Z" fill="black"/>
<path opacity="0.64" d="M1382.75 994.46H1382.44C1380.44 994.35 1378.96 993.24 1379.13 991.98L1392.45 891.7C1392.61 890.44 1394.34 889.48 1396.36 889.6C1398.38 889.72 1399.85 890.82 1399.68 892.08L1386.36 992.36C1386.2 993.55 1384.61 994.46 1382.75 994.46Z" fill="white"/>
<path opacity="0.64" d="M1367.1 994.46H1366.8C1364.8 994.35 1363.32 993.24 1363.48 991.98L1376.8 891.7C1376.96 890.44 1378.7 889.48 1380.72 889.6C1382.74 889.72 1384.2 890.82 1384.04 892.08L1370.72 992.36C1370.56 993.55 1369 994.46 1367.1 994.46Z" fill="white"/>
<path d="M361.35 646.25C361.252 645.891 361.038 645.574 360.741 645.348C360.445 645.122 360.083 645 359.71 645C343.64 645.26 323.49 645.31 309.88 655.24C297.2 664.5 295.3 680.84 295.59 695.4C295.605 695.71 295.702 696.011 295.873 696.271C296.044 696.53 296.281 696.739 296.561 696.875C296.84 697.011 297.151 697.069 297.46 697.044C297.77 697.018 298.067 696.91 298.32 696.73L298.44 696.8C332.23 709.44 366.15 681.68 361.35 646.25Z" fill="#820333"/>
<path d="M283.51 712C283.64 700.81 281.04 689.5 272.45 681.73C262.59 672.82 248.35 667.73 236.7 661.73C235.52 661.12 233.61 662.17 234.2 663.66C239.47 677 238.73 693.4 248 705C255.91 714.9 269.28 718.24 281.16 714.59C281.414 714.517 281.645 714.382 281.834 714.197C282.023 714.012 282.162 713.783 282.24 713.53C282.596 713.461 282.916 713.271 283.148 712.992C283.379 712.713 283.507 712.362 283.51 712Z" fill="#820333"/>
<path d="M387.41 748.46C379.5 742.33 369.32 742.95 359.76 743.37C349.15 743.83 338.48 745.46 328.82 750.05C311.99 758.05 300.15 775.74 306.25 794.45C306.139 794.865 306.195 795.307 306.406 795.681C306.618 796.055 306.967 796.331 307.38 796.45C323.38 801.53 331.17 790.81 340.83 780.14C353.23 766.581 369.065 756.626 386.66 751.33C387.75 751 388.48 749.29 387.41 748.46Z" fill="#820333"/>
<path d="M425.81 788.43C425.598 788.353 425.391 788.262 425.19 788.16C418.38 785.23 412.28 779.68 406.09 774.33C406.09 774.33 406.09 774.33 406.02 774.26C399.24 768.4 392.32 762.85 384.25 761.39C384.185 761.371 384.115 761.371 384.05 761.39C380.03 760.691 375.898 761.035 372.05 762.39C354.88 768.11 344.32 785.99 342.62 803.19C342.587 803.545 342.683 803.9 342.89 804.19C342.851 804.281 342.817 804.375 342.79 804.47C342.712 804.727 342.691 804.999 342.729 805.265C342.766 805.531 342.861 805.787 343.006 806.013C343.152 806.239 343.344 806.431 343.571 806.576C343.798 806.72 344.053 806.814 344.32 806.85C359.03 808.58 373.48 806.85 387.89 803.85C400.66 801.16 415.1 798.98 426.21 791.59C426.508 791.422 426.749 791.169 426.902 790.864C427.056 790.559 427.115 790.215 427.072 789.876C427.029 789.537 426.886 789.218 426.661 788.96C426.437 788.703 426.14 788.518 425.81 788.43Z" fill="#820333"/>
<path d="M400.25 821.37C381.47 817.6 342.65 808 340 838C339.974 838.187 339.986 838.378 340.035 838.561C340.085 838.743 340.172 838.914 340.29 839.061C340.408 839.209 340.554 839.332 340.721 839.421C340.888 839.51 341.072 839.564 341.26 839.58C358.31 859.58 391.46 843.72 401.26 823.88C401.39 823.654 401.467 823.402 401.485 823.142C401.504 822.882 401.463 822.621 401.365 822.379C401.268 822.138 401.117 821.921 400.924 821.746C400.731 821.571 400.5 821.443 400.25 821.37Z" fill="#820333"/>
<path d="M281.2 761.14C276.2 750.14 264.64 738.72 253.25 734.56C252.997 734.493 252.732 734.485 252.476 734.535C252.219 734.586 251.978 734.695 251.77 734.853C251.561 735.011 251.392 735.214 251.274 735.448C251.156 735.681 251.093 735.939 251.09 736.2C251.28 757.94 245.95 792.14 269.59 804.2C269.745 804.273 269.91 804.32 270.08 804.34C270.225 804.593 270.435 804.804 270.688 804.951C270.941 805.097 271.228 805.174 271.52 805.174C271.812 805.174 272.099 805.097 272.352 804.951C272.605 804.804 272.815 804.593 272.96 804.34C280.26 791.28 287.92 776 281.2 761.14Z" fill="#820333"/>
<path d="M219.64 775C208.09 765.56 189.86 763.52 176.43 770.33C157.8 779.8 161.14 802.24 158.3 819.53C158.212 819.89 158.243 820.269 158.388 820.611C158.533 820.952 158.785 821.237 159.105 821.424C159.426 821.611 159.798 821.689 160.166 821.647C160.535 821.604 160.88 821.444 161.15 821.19C179.56 805.04 205.24 798.7 219.29 777.55C219.531 777.451 219.741 777.29 219.9 777.084C220.059 776.878 220.162 776.633 220.197 776.376C220.233 776.118 220.2 775.855 220.102 775.613C220.004 775.372 219.845 775.161 219.64 775Z" fill="#820333"/>
<path d="M219.76 792.08C219.543 791.739 219.209 791.488 218.82 791.376C218.432 791.264 218.016 791.297 217.65 791.47C217.419 791.139 217.071 790.906 216.677 790.819C216.282 790.732 215.869 790.797 215.52 791C206.3 796.06 195.52 803.14 193.66 814.3C191.5 827.6 198.97 840.59 199.82 853.69C199.94 855.49 202.82 856.15 203.16 854.15C205.53 841.55 218.58 835.81 223.38 824.48C227.33 815.15 225.25 800.47 219.76 792.08Z" fill="#820333"/>
<path d="M276.69 869.37C265.85 854.15 254.69 841.14 235.88 836.37C235.554 836.287 235.212 836.301 234.894 836.41C234.577 836.52 234.298 836.72 234.093 836.986C233.888 837.251 233.765 837.572 233.739 837.906C233.714 838.241 233.787 838.576 233.95 838.87C238.19 845.25 238.1 852.47 241.66 858.87C243.76 862.68 247.22 865.53 250.84 867.81C258.84 872.89 269.22 877.49 278.17 872.36C280 871.35 278.49 868.65 276.69 869.37Z" fill="#820333"/>
<path d="M301.14 851.4C301.108 851.226 301.043 851.06 300.95 850.91C293.5 839.01 293.18 823.91 282.89 813.66C282.704 813.479 282.479 813.343 282.233 813.261C281.987 813.179 281.726 813.153 281.468 813.186C281.211 813.219 280.964 813.309 280.747 813.45C280.529 813.591 280.345 813.779 280.21 814C275.21 822.08 272.73 831.78 276.74 840.83C281.08 850.63 290.2 853.31 300.13 854.33C301.88 854.51 302.19 852.37 301.14 851.4Z" fill="#820333"/>
<path d="M322 718.45C319.88 716.67 317 718.45 314.94 719.33C310.959 720.931 307.185 723.006 303.7 725.51C297.25 730.31 292.83 737.11 292.42 745.14C292.385 745.345 292.385 745.555 292.42 745.76C292.42 746 292.42 746.22 292.42 746.46C292.441 746.842 292.588 747.207 292.838 747.497C293.087 747.786 293.426 747.985 293.801 748.062C294.176 748.138 294.566 748.088 294.91 747.92C295.253 747.751 295.531 747.473 295.7 747.13C303.95 745.32 310.46 740.01 315.87 733.64C318.3 730.71 327 722.6 322 718.45Z" fill="#820333"/>
<path d="M325.76 852.76C325.5 852.52 325.3 852.24 325.05 851.99C327.17 837.46 328.05 820.63 313.76 812.09C313.536 811.96 313.284 811.882 313.026 811.863C312.767 811.845 312.507 811.885 312.266 811.981C312.026 812.078 311.81 812.227 311.635 812.42C311.461 812.612 311.333 812.841 311.26 813.09C309.294 820.54 309.381 828.383 311.512 835.788C313.642 843.193 317.736 849.883 323.36 855.15C325 856.68 327.36 854.27 325.76 852.76Z" fill="#820333"/>
<path d="M424.34 786.73C418.04 783.93 412.11 779.1 406.09 774.33C406.09 774.33 406.09 774.33 406.02 774.26C399.11 768.78 392.09 763.39 384.25 761.39C384.185 761.371 384.115 761.371 384.05 761.39C380.03 760.691 375.898 761.035 372.05 762.39C354.88 768.11 344.32 785.99 342.62 803.19C342.587 803.545 342.683 803.9 342.89 804.19C342.851 804.281 342.817 804.375 342.79 804.47C343.08 804.456 343.363 804.375 343.617 804.233C343.87 804.09 344.087 803.891 344.25 803.65C344.604 803.604 344.93 803.434 345.17 803.17C350.76 797.17 356.72 791.66 362.58 785.97C365.4 783.24 368.16 779.8 371.37 777.52C378.18 772.65 384.04 773.52 391.19 775.65C399.74 778.13 407.54 782.56 415.31 786.82C418.2 788.45 421.03 791.22 424.31 789.71C424.583 789.573 424.809 789.358 424.96 789.093C425.111 788.828 425.181 788.524 425.16 788.22C425.19 787.918 425.128 787.614 424.982 787.348C424.835 787.081 424.611 786.866 424.34 786.73Z" fill="#C9283E"/>
<path d="M273.52 844.06C271.89 837.46 270.08 830.77 267.83 824.23L267.92 824.08C270.931 813.798 272.148 803.075 271.52 792.38C271.827 792.34 272.117 792.211 272.351 792.009C272.586 791.806 272.756 791.539 272.84 791.24C274.804 785.025 275.644 778.51 275.32 772C275.22 769.82 271.81 769.81 271.92 772C272.129 776.474 271.767 780.957 270.84 785.34C270.153 780.261 269.06 775.244 267.57 770.34C266.92 768.25 263.64 769.14 264.28 771.25C269.061 786.616 269.583 802.991 265.79 818.63C262.725 810.476 258.494 802.81 253.23 795.87C240.61 779.72 217.67 769.87 199.51 777.52C199.491 777.185 199.361 776.866 199.14 776.615C198.918 776.363 198.619 776.192 198.29 776.13C194.866 775.279 191.307 775.115 187.82 775.647C184.332 776.179 180.984 777.397 177.97 779.23C176.1 780.36 177.81 783.31 179.69 782.17C184.598 779.157 190.454 778.087 196.11 779.17C191.591 781.76 187.696 785.31 184.7 789.57C183.41 791.36 186.37 793.06 187.64 791.29C196.35 779.21 212.18 775.41 226.05 779.91C230.007 781.226 233.762 783.084 237.21 785.43C222.7 785.13 211.69 794.85 201.77 804.52C200.19 806.05 202.61 808.46 204.18 806.93C206.18 805.01 208.18 803.08 210.18 801.23C209.616 804.668 209.512 808.165 209.87 811.63C210.09 813.78 213.5 813.8 213.28 811.63C212.805 807.202 213.144 802.725 214.28 798.42C214.319 798.205 214.319 797.985 214.28 797.77C221.28 792.23 229.14 788.19 238.77 788.88C239.127 788.922 239.487 788.828 239.778 788.617C240.069 788.406 240.269 788.093 240.34 787.74C248.06 793.84 254.14 802.12 258.55 810.88C267.3 828.29 272.3 848.2 275.13 868.13C268.148 866.355 261.845 862.56 257.01 857.22C255.53 855.6 253.12 858.01 254.6 859.63C257.053 862.31 259.859 864.644 262.94 866.57C260.973 866.586 259.007 866.452 257.06 866.17C254.92 865.83 254 869.11 256.16 869.45C259.402 869.973 262.692 870.137 265.97 869.94C266.271 869.927 266.563 869.832 266.813 869.664C267.064 869.497 267.263 869.263 267.39 868.99C269.921 870.166 272.569 871.075 275.29 871.7C275.4 871.71 275.51 871.71 275.62 871.7C276.87 881.36 277.62 890.98 278.07 900.31C278.17 902.49 281.58 902.5 281.47 900.31C280.646 881.347 277.984 862.509 273.52 844.06Z" fill="#C9283E"/>
<path d="M330 774.05C326.954 776.258 324.024 778.621 321.22 781.13C322.829 775.101 325.49 769.404 329.08 764.3C330.35 762.5 327.4 760.8 326.14 762.58C321.709 768.849 318.627 775.969 317.09 783.49C317.038 783.709 317.031 783.937 317.07 784.159C317.11 784.381 317.195 784.592 317.32 784.78C309.724 792.22 303.237 800.713 298.06 810C297.14 798.26 296.387 786.503 295.8 774.73C295.4 766.37 294.74 757.02 294.51 747.38C298.45 742.07 302.62 736.84 308.74 733.97C310.74 733.04 309 730.1 307.02 730.97C301.83 733.41 297.93 737.46 294.42 741.86C294.42 737.34 294.48 732.79 294.76 728.28C294.898 728.044 294.978 727.779 294.994 727.506C295.009 727.233 294.96 726.96 294.85 726.71C296.56 702.71 303.78 679.94 326.85 669.31C328.85 668.4 327.11 665.46 325.13 666.37C319.67 668.856 314.693 672.289 310.43 676.51C310.241 673.208 310.777 669.904 312 666.83C312.79 664.83 309.5 663.9 308.71 665.93C307.029 670.287 306.552 675.016 307.33 679.62C307.33 679.69 307.39 679.74 307.41 679.81C297.6 691.5 293.56 707.12 292.09 723.3C287.15 717.567 282.213 711.837 277.28 706.11C277.543 705.985 277.76 705.781 277.902 705.526C278.044 705.272 278.102 704.98 278.07 704.69C277.8 699.951 276.21 695.382 273.48 691.5C272.23 689.72 269.28 691.42 270.54 693.21C272.558 696.054 273.88 699.332 274.4 702.78L268.9 696.39C267.47 694.73 265.07 697.15 266.49 698.8C274.91 708.567 283.323 718.33 291.73 728.09C291.37 734.09 291.32 740.03 291.4 745.89L291.18 746.19C291.058 746.335 290.968 746.504 290.915 746.686C290.861 746.868 290.847 747.059 290.871 747.247C290.895 747.435 290.959 747.616 291.057 747.778C291.154 747.941 291.285 748.081 291.44 748.19C291.56 753.92 291.78 759.51 291.99 764.79C293.083 791.943 295.127 819.033 298.12 846.06C291.99 842.67 288.62 836.29 285.56 830.17C284.56 828.17 281.64 829.93 282.62 831.89C286.13 838.89 290.15 846.25 297.62 849.66C297.907 849.792 298.226 849.84 298.54 849.8C300.5 867.133 302.833 884.43 305.54 901.69C305.87 903.86 309.16 902.94 308.82 900.79C304.393 872.47 300.983 844.02 298.59 815.44C298.936 815.31 299.219 815.052 299.38 814.72C307.071 799.785 318.162 786.864 331.76 777C333.51 775.71 331.82 772.76 330 774.05Z" fill="#C9283E"/>
<path d="M386.4 776.74C379.589 776.621 372.852 778.173 366.78 781.26C369.294 778.559 372.027 776.071 374.95 773.82C376.67 772.51 374.95 769.55 373.23 770.88C367.546 775.217 362.526 780.361 358.33 786.15C358.187 786.351 358.089 786.579 358.04 786.82C346.52 795.82 338.04 809.68 332.7 822.82C329.527 830.83 327.032 839.093 325.24 847.52C323.33 844.33 322.24 840.76 321.09 837.23C320.15 834.42 319.29 831.87 316.68 830.23C314.81 829.06 313.1 832.01 314.96 833.17C317.71 834.89 318.35 839.88 319.35 842.75C320.216 845.53 321.479 848.171 323.1 850.59C323.248 850.806 323.444 850.985 323.674 851.111C323.903 851.238 324.158 851.31 324.42 851.32C320.3 871.91 319.15 893.32 317.18 913.93C316.97 916.11 320.37 916.1 320.58 913.93C322.42 894.74 323.58 875.1 327.09 856C327.364 855.918 327.609 855.763 327.8 855.55C334.23 848.44 340.9 841.3 349.02 836.36C351.459 838.627 354.349 840.354 357.5 841.43C359.58 842.14 360.5 838.85 358.41 838.15C356.129 837.368 354.011 836.175 352.16 834.63C354.435 833.441 356.811 832.457 359.26 831.69C361.36 831.07 360.47 827.78 358.36 828.41C355.132 829.398 352.024 830.74 349.09 832.41C348.829 832.436 348.577 832.519 348.352 832.654C348.128 832.789 347.935 832.972 347.79 833.19C340.44 837.57 334.2 843.62 328.29 850.01C329.42 844.65 330.71 839.32 332.29 834.09C335.58 823.47 340.78 811.7 348.03 801.87H348.21C352.073 800.573 356.051 799.649 360.09 799.11C362.25 798.82 361.33 795.53 359.19 795.82C356.663 796.185 354.159 796.693 351.69 797.34C360.58 787.08 372.07 779.87 386.36 780.15C388.59 780.18 388.59 776.78 386.4 776.74Z" fill="#C9283E"/>
<path d="M357.99 882.87L355.28 899.75L350.41 929.98L339.83 995.89H262.34L251.76 929.98L246.89 899.75L244.19 882.87H357.99Z" fill="#2E112D"/>
<path opacity="0.08" d="M276.54 899.75L273.83 882.87H244.19L246.89 899.75L251.76 929.98L262.34 995.89H291.99L281.4 929.98L276.54 899.75Z" fill="black"/>
<path opacity="0.64" d="M330.75 990.46H330.44C328.44 990.35 326.96 989.24 327.13 987.98L340.45 887.7C340.61 886.44 342.34 885.48 344.36 885.6C346.38 885.72 347.85 886.82 347.68 888.08L334.36 988.35C334.2 989.55 332.61 990.46 330.75 990.46Z" fill="white"/>
<path opacity="0.64" d="M315.1 990.46H314.8C312.8 990.35 311.32 989.24 311.48 987.98L324.8 887.69C324.96 886.43 326.7 885.47 328.72 885.59C330.74 885.71 332.2 886.81 332.04 888.07L318.72 988.35C318.56 989.55 317 990.46 315.1 990.46Z" fill="white"/>
<path d="M788.335 743.456L787.512 744.315L793.273 749.837L794.097 748.977L788.335 743.456Z" fill="#49494A"/>
<path d="M811.17 743.25L810 743L810.34 741.31L811.51 741.54L811.17 743.25ZM811.74 740.39L810.58 740.15L811.05 737.82L812.21 738.05L811.74 740.39ZM812.45 736.89L811.28 736.65L811.75 734.32L812.91 734.56L812.45 736.89ZM813.15 733.39L811.98 733.16L812.45 730.82L813.61 731.06L813.15 733.39ZM813.85 729.89L812.68 729.66L813.15 727.32L814.32 727.56L813.85 729.89ZM814.55 726.39L813.38 726.16L813.85 723.82L815.02 724.06L814.55 726.39Z" fill="#49494A"/>
<path d="M830.035 733.518L817.239 746.516L818.087 747.351L830.883 734.353L830.035 733.518Z" fill="#49494A"/>
<path d="M819.393 766.515L818.809 767.552L836.451 777.492L837.035 776.456L819.393 766.515Z" fill="#49494A"/>
<path d="M793.349 766.452L776.14 778.381L776.818 779.359L794.027 767.43L793.349 766.452Z" fill="#49494A"/>
<path d="M806.88 743.13C803.539 743.13 800.272 744.121 797.494 745.978C794.716 747.835 792.551 750.474 791.274 753.561C789.996 756.649 789.663 760.046 790.316 763.322C790.969 766.599 792.58 769.609 794.944 771.97C797.308 774.331 800.32 775.938 803.597 776.588C806.875 777.237 810.272 776.9 813.357 775.619C816.443 774.337 819.08 772.169 820.933 769.389C822.787 766.609 823.774 763.341 823.77 760C823.765 755.524 821.983 751.233 818.816 748.07C815.649 744.907 811.356 743.13 806.88 743.13ZM806.88 771.32C804.645 771.32 802.46 770.657 800.602 769.416C798.744 768.174 797.295 766.409 796.44 764.344C795.585 762.279 795.361 760.007 795.797 757.815C796.233 755.624 797.309 753.61 798.89 752.03C800.47 750.449 802.483 749.373 804.675 748.937C806.867 748.501 809.14 748.725 811.204 749.58C813.269 750.435 815.034 751.884 816.276 753.742C817.517 755.6 818.18 757.785 818.18 760.02C818.18 763.017 816.989 765.891 814.87 768.01C812.751 770.129 809.877 771.32 806.88 771.32Z" fill="#254F7A"/>
<path d="M806.88 771.32C803.883 771.32 801.009 770.129 798.89 768.01C796.77 765.891 795.58 763.017 795.58 760.02C795.58 757.023 796.77 754.149 798.89 752.03C801.009 749.911 803.883 748.72 806.88 748.72V743.13C802.473 743.237 798.282 745.063 795.203 748.218C792.124 751.373 790.401 755.607 790.401 760.015C790.401 764.423 792.124 768.657 795.203 771.812C798.282 774.967 802.473 776.793 806.88 776.9V771.32Z" fill="#2E112D"/>
<path d="M783.36 731.93C781.996 731.928 780.663 732.331 779.528 733.087C778.394 733.843 777.509 734.919 776.986 736.179C776.464 737.438 776.326 738.824 776.592 740.162C776.857 741.499 777.514 742.728 778.478 743.692C779.442 744.656 780.671 745.312 782.008 745.578C783.346 745.844 784.732 745.706 785.991 745.184C787.251 744.661 788.327 743.776 789.083 742.642C789.839 741.507 790.242 740.174 790.24 738.81C790.24 736.985 789.515 735.235 788.225 733.945C786.935 732.655 785.185 731.93 783.36 731.93ZM783.36 742.3C782.67 742.3 781.995 742.095 781.421 741.712C780.847 741.328 780.4 740.783 780.136 740.146C779.871 739.508 779.802 738.806 779.937 738.129C780.072 737.452 780.404 736.83 780.892 736.342C781.38 735.854 782.002 735.522 782.679 735.387C783.356 735.252 784.058 735.321 784.696 735.586C785.333 735.85 785.878 736.297 786.262 736.871C786.645 737.445 786.85 738.12 786.85 738.81C786.85 739.268 786.76 739.722 786.584 740.146C786.409 740.569 786.152 740.954 785.828 741.278C785.504 741.602 785.119 741.859 784.696 742.034C784.272 742.21 783.818 742.3 783.36 742.3Z" fill="#2E112D"/>
<path d="M783.36 743.42C782.737 743.449 782.115 743.351 781.531 743.133C780.947 742.915 780.413 742.58 779.962 742.15C779.511 741.719 779.152 741.202 778.907 740.629C778.662 740.055 778.535 739.438 778.535 738.815C778.535 738.191 778.662 737.574 778.907 737.001C779.152 736.428 779.511 735.911 779.962 735.48C780.413 735.05 780.947 734.715 781.531 734.497C782.115 734.278 782.737 734.181 783.36 734.21V731.93C781.579 731.998 779.894 732.753 778.659 734.037C777.423 735.32 776.732 737.033 776.732 738.815C776.732 740.597 777.423 742.309 778.659 743.593C779.894 744.877 781.579 745.632 783.36 745.7V743.42Z" fill="#820333"/>
<path d="M821.771 724.553C822.72 720.493 820.197 716.432 816.137 715.483C812.076 714.535 808.016 717.057 807.067 721.118C806.118 725.178 808.641 729.239 812.701 730.187C816.762 731.136 820.822 728.613 821.771 724.553Z" fill="#820333"/>
<path d="M784 778.9C784 780.393 783.557 781.853 782.728 783.095C781.898 784.336 780.719 785.304 779.339 785.875C777.96 786.447 776.442 786.596 774.977 786.305C773.512 786.014 772.167 785.295 771.111 784.239C770.055 783.183 769.336 781.837 769.045 780.373C768.754 778.908 768.903 777.39 769.475 776.011C770.046 774.631 771.014 773.452 772.255 772.622C773.497 771.793 774.957 771.35 776.45 771.35C778.452 771.35 780.373 772.145 781.789 773.561C783.204 774.977 784 776.898 784 778.9Z" fill="#A1A7AD"/>
<path d="M830.975 738.261C833.316 737.972 834.979 735.84 834.69 733.5C834.401 731.159 832.269 729.496 829.929 729.785C827.588 730.074 825.925 732.206 826.214 734.546C826.503 736.887 828.635 738.55 830.975 738.261Z" fill="#A1A7AD"/>
<path d="M841 776.9C841.002 777.747 840.752 778.576 840.283 779.282C839.813 779.987 839.145 780.537 838.362 780.862C837.58 781.187 836.719 781.273 835.887 781.108C835.056 780.943 834.293 780.536 833.694 779.936C833.094 779.337 832.687 778.574 832.522 777.743C832.357 776.911 832.442 776.05 832.768 775.268C833.093 774.485 833.643 773.817 834.348 773.347C835.054 772.878 835.883 772.628 836.73 772.63C837.862 772.633 838.946 773.083 839.746 773.884C840.547 774.684 840.997 775.768 841 776.9Z" fill="#A1A7AD"/>
<g style="mix-blend-mode:multiply">
<path d="M1006.26 233.77H618.36C598.909 233.77 583.14 249.539 583.14 268.99V618.78C583.14 638.232 598.909 654 618.36 654H1006.26C1025.71 654 1041.48 638.232 1041.48 618.78V268.99C1041.48 249.539 1025.71 233.77 1006.26 233.77Z" fill="#254F7A"/>
</g>
<path d="M1001.49 229H613.59C594.139 229 578.37 244.769 578.37 264.22V614.01C578.37 633.461 594.139 649.23 613.59 649.23H1001.49C1020.94 649.23 1036.71 633.461 1036.71 614.01V264.22C1036.71 244.769 1020.94 229 1001.49 229Z" fill="#E4EFF2"/>
<path d="M569.08 436.39L571.2 434.27" stroke="#9C2031" stroke-miterlimit="10"/>
<path d="M575.56 429.93L660.48 345.37" stroke="#9C2031" stroke-miterlimit="10" stroke-dasharray="6.15 6.15"/>
<path d="M662.66 343.2L664.78 341.09L666.93 343.19" stroke="#9C2031" stroke-miterlimit="10"/>
<path d="M671.35 347.53L748.83 423.54" stroke="#9C2031" stroke-miterlimit="10" stroke-dasharray="6.2 6.2"/>
<path d="M751.04 425.71L753.19 427.81L755.21 425.59" stroke="#9C2031" stroke-miterlimit="10"/>
<path d="M759.38 421.03L832.29 341.16" stroke="#9C2031" stroke-miterlimit="10" stroke-dasharray="6.18 6.18"/>
<path d="M834.38 338.88L836.4 336.66L838.63 338.67" stroke="#9C2031" stroke-miterlimit="10"/>
<path d="M843.03 342.62L884.81 380.2" stroke="#9C2031" stroke-miterlimit="10" stroke-dasharray="5.91 5.91"/>
<path d="M887.01 382.17L889.24 384.18L891.23 381.94" stroke="#9C2031" stroke-miterlimit="10"/>
<path d="M895.32 377.35L983.21 278.6" stroke="#9C2031" stroke-miterlimit="10" stroke-dasharray="6.15 6.15"/>
<path d="M985.26 276.3L987.25 274.06L989.56 275.97" stroke="#9C2031" stroke-miterlimit="10"/>
<path d="M994.54 280.08L1031.9 310.9" stroke="#9C2031" stroke-miterlimit="10" stroke-dasharray="6.46 6.46"/>
<path d="M1034.39 312.96L1036.7 314.87" stroke="#9C2031" stroke-miterlimit="10"/>
<path d="M642.31 481.15H607.75V623.54H642.31V481.15Z" fill="#9C2031"/>
<path d="M695.15 462.32H660.59V623.54H695.15V462.32Z" fill="#FFC800"/>
<path d="M747.99 444.57H713.43V623.54H747.99V444.57Z" fill="#9C2031"/>
<path d="M800.83 425.03H766.27V623.54H800.83V425.03Z" fill="#FFC800"/>
<path d="M853.68 403.28H819.12V623.54H853.68V403.28Z" fill="#9C2031"/>
<path d="M906.52 377.28H871.96V623.54H906.52V377.28Z" fill="#FFC800"/>
<path d="M959.36 316.15H924.8V623.54H959.36V316.15Z" fill="#9C2031"/>
<path d="M1008.7 263.3H974.14V620.04H1008.7V263.3Z" fill="#FFC800"/>
<path d="M603 337C602.999 348.422 605.558 359.698 610.49 370L614.29 378L647.59 344.45L646.97 341.27C646.757 339.867 646.65 338.449 646.65 337.03C646.61 330.548 648.588 324.214 652.309 318.906C656.031 313.599 661.312 309.581 667.42 307.41L671.6 305.91V261.51L664.24 262.88C628.8 269.43 603 300.61 603 337Z" fill="#2E112D"/>
<path d="M654.55 358.48L623.75 389.48L628.75 393.85C642.335 405.787 659.801 412.37 677.885 412.37C695.969 412.37 713.435 405.787 727.02 393.85L732.02 389.48L701.21 358.48L696.83 362C691.384 366.155 684.725 368.405 677.875 368.405C671.025 368.405 664.366 366.155 658.92 362L654.55 358.48Z" fill="#9C2031"/>
<path d="M691.47 262.88L684.11 261.51V305.91L688.29 307.41C694.392 309.58 699.668 313.593 703.388 318.895C707.107 324.197 709.086 330.524 709.05 337C709.053 338.419 708.949 339.836 708.74 341.24L708.12 344.42L741.42 378L745.22 370C750.149 359.697 752.705 348.421 752.7 337C752.7 300.61 727 269.43 691.47 262.88Z" fill="#FFC800"/>
<path d="M942.49 261.51H756.49C755.479 261.51 754.508 261.109 753.792 260.395C753.076 259.68 752.673 258.711 752.67 257.7C752.67 256.687 753.072 255.715 753.789 254.999C754.505 254.282 755.477 253.88 756.49 253.88H942.49C943.503 253.88 944.475 254.282 945.191 254.999C945.907 255.715 946.31 256.687 946.31 257.7C946.307 258.711 945.904 259.68 945.188 260.395C944.471 261.109 943.501 261.51 942.49 261.51Z" fill="#9C2031"/>
<path d="M942.49 274.44H756.49C755.477 274.44 754.505 274.038 753.789 273.321C753.072 272.605 752.67 271.633 752.67 270.62C752.67 269.607 753.072 268.635 753.789 267.919C754.505 267.202 755.477 266.8 756.49 266.8H942.49C943.503 266.8 944.475 267.202 945.191 267.919C945.907 268.635 946.31 269.607 946.31 270.62C946.31 271.633 945.907 272.605 945.191 273.321C944.475 274.038 943.503 274.44 942.49 274.44Z" fill="#9C2031"/>
<path d="M942.49 287.36H756.49C755.477 287.36 754.505 286.958 753.789 286.241C753.072 285.525 752.67 284.553 752.67 283.54C752.67 282.527 753.072 281.555 753.789 280.839C754.505 280.122 755.477 279.72 756.49 279.72H942.49C943.503 279.72 944.475 280.122 945.191 280.839C945.907 281.555 946.31 282.527 946.31 283.54C946.31 284.553 945.907 285.525 945.191 286.241C944.475 286.958 943.503 287.36 942.49 287.36Z" fill="#9C2031"/>
<path d="M782 296.89H823C826.55 296.893 829.955 298.304 832.465 300.815C834.976 303.325 836.387 306.73 836.39 310.28C836.39 313.831 834.979 317.237 832.468 319.748C829.957 322.259 826.551 323.67 823 323.67H782V296.89Z" fill="#6697BF"/>
<path d="M782 323.67C780.241 323.671 778.499 323.326 776.874 322.653C775.249 321.981 773.772 320.995 772.529 319.751C771.285 318.507 770.299 317.031 769.626 315.406C768.954 313.781 768.609 312.039 768.61 310.28C768.61 306.729 770.021 303.323 772.532 300.812C775.043 298.301 778.449 296.89 782 296.89C785.551 296.89 788.957 298.301 791.468 300.812C793.979 303.323 795.39 306.729 795.39 310.28C795.391 312.039 795.046 313.781 794.373 315.406C793.701 317.031 792.715 318.507 791.471 319.751C790.227 320.995 788.751 321.981 787.126 322.653C785.5 323.326 783.759 323.671 782 323.67Z" fill="#9C2031"/>
<path d="M860.1 296.89H901.1C904.651 296.89 908.057 298.301 910.568 300.812C913.079 303.323 914.49 306.729 914.49 310.28C914.491 312.039 914.146 313.781 913.474 315.406C912.801 317.031 911.815 318.507 910.571 319.751C909.328 320.995 907.851 321.981 906.226 322.653C904.601 323.326 902.859 323.671 901.1 323.67H860.1V296.89Z" fill="#6697BF"/>
<path d="M860.1 323.67C858.341 323.671 856.598 323.326 854.973 322.654C853.347 321.981 851.87 320.995 850.625 319.752C849.381 318.508 848.394 317.032 847.72 315.406C847.047 313.781 846.7 312.039 846.7 310.28C846.703 306.728 848.116 303.322 850.628 300.811C853.141 298.3 856.548 296.89 860.1 296.89C863.65 296.893 867.055 298.304 869.565 300.815C872.076 303.325 873.487 306.73 873.49 310.28C873.49 313.831 872.079 317.237 869.568 319.748C867.057 322.259 863.651 323.67 860.1 323.67Z" fill="#2E112D"/>
<path d="M1034.53 623.54H580.52" stroke="#32338C" stroke-miterlimit="10"/>
<path d="M695.16 520.26H578.37V592.9H695.16V520.26Z" fill="#6697BF"/>
<path d="M683.19 539.59H590.12C588.563 539.59 587.3 540.853 587.3 542.41V544.41C587.3 545.967 588.563 547.23 590.12 547.23H683.19C684.748 547.23 686.01 545.967 686.01 544.41V542.41C686.01 540.853 684.748 539.59 683.19 539.59Z" fill="#EEEEFF"/>
<path d="M682.2 560.15H591.12C590.618 560.15 590.122 560.051 589.658 559.859C589.195 559.667 588.774 559.386 588.419 559.031C588.064 558.676 587.783 558.255 587.591 557.792C587.399 557.328 587.3 556.832 587.3 556.33C587.303 555.319 587.706 554.35 588.422 553.635C589.139 552.921 590.109 552.52 591.12 552.52H682.2C683.211 552.52 684.182 552.921 684.898 553.635C685.614 554.35 686.017 555.319 686.02 556.33C686.02 556.832 685.921 557.328 685.729 557.792C685.537 558.255 685.256 558.676 684.901 559.031C684.546 559.386 684.125 559.667 683.662 559.859C683.198 560.051 682.702 560.15 682.2 560.15Z" fill="#EEEEFF"/>
<path d="M683.19 565.44H590.12C588.563 565.44 587.3 566.703 587.3 568.26V570.26C587.3 571.817 588.563 573.08 590.12 573.08H683.19C684.748 573.08 686.01 571.817 686.01 570.26V568.26C686.01 566.703 684.748 565.44 683.19 565.44Z" fill="#EEEEFF"/>
<path d="M681.158 528.281C685.548 526.453 687.625 521.412 685.797 517.023C683.968 512.633 678.928 510.557 674.538 512.385C670.148 514.213 668.072 519.253 669.9 523.643C671.728 528.033 676.769 530.109 681.158 528.281Z" fill="#2E112D"/>
<path d="M1087.9 516C1087.93 516.928 1087.7 517.846 1087.24 518.648C1086.77 519.45 1086.08 520.103 1085.26 520.53C1083.8 521.403 1082.28 522.191 1080.73 522.89C1080.82 517.8 1080.64 512.709 1080.17 507.64C1079.78 501.79 1078.97 496.08 1078.01 490.31C1078.01 490.22 1077.85 490.24 1077.85 490.31C1078.37 496.16 1078.65 502.09 1079 507.92C1079.29 513.06 1079.16 518.27 1079.49 523.4C1077.89 524.06 1076.24 524.66 1074.59 525.21C1074.63 523.397 1074.63 521.587 1074.59 519.78C1074.59 514.34 1074.06 509.04 1073.69 503.66C1073.69 503.634 1073.68 503.61 1073.66 503.592C1073.64 503.574 1073.62 503.562 1073.59 503.56C1073.56 503.56 1073.54 503.571 1073.52 503.589C1073.5 503.608 1073.49 503.633 1073.49 503.66C1073.72 508.91 1073.49 514.23 1073.42 519.48C1073.42 521.48 1073.36 523.48 1073.31 525.55C1072.16 525.89 1071.03 526.22 1069.92 526.55C1069.17 526.75 1068.42 526.95 1067.67 527.12C1067.67 523.57 1067.35 520 1067.21 516.53C1066.97 510.91 1066.3 505.34 1066.01 499.73C1066.01 499.69 1065.99 499.652 1065.97 499.624C1065.94 499.596 1065.9 499.58 1065.86 499.58C1065.82 499.58 1065.78 499.596 1065.75 499.624C1065.73 499.652 1065.71 499.69 1065.71 499.73C1066 505.31 1065.91 510.94 1066.06 516.53C1066.16 520.15 1066.06 523.78 1066.22 527.45C1056.14 529.549 1045.79 530.031 1035.56 528.88C1029.64 528.241 1023.76 527.239 1017.96 525.88C1016.57 525.56 1012.96 524.64 1009.48 523.68C1009.48 521.99 1009.36 520.29 1009.34 518.68C1009.34 514.94 1009.04 511.17 1009.12 507.44C1009.13 507.434 1009.13 507.426 1009.14 507.417C1009.14 507.409 1009.14 507.399 1009.14 507.39C1009.14 507.381 1009.14 507.371 1009.14 507.363C1009.13 507.354 1009.13 507.347 1009.12 507.34C1009.11 507.335 1009.1 507.333 1009.09 507.333C1009.08 507.333 1009.07 507.335 1009.06 507.34C1009.05 507.345 1009.04 507.352 1009.03 507.361C1009.03 507.369 1009.02 507.379 1009.02 507.39C1008.8 511.14 1008.35 514.87 1008.27 518.63C1008.27 520.14 1008.17 521.7 1008.15 523.27C1006.89 522.93 1005.68 522.58 1004.62 522.27C1005.02 515.2 1004.53 508.03 1004.48 500.99C1004.48 500.956 1004.47 500.922 1004.44 500.898C1004.42 500.874 1004.38 500.86 1004.35 500.86C1004.33 500.86 1004.32 500.863 1004.3 500.87C1004.29 500.877 1004.27 500.886 1004.26 500.899C1004.25 500.911 1004.24 500.925 1004.24 500.941C1004.23 500.957 1004.23 500.973 1004.23 500.99C1003.93 507.9 1003.23 514.91 1003.23 521.82C1002.43 521.609 1001.64 521.324 1000.89 520.97C999.15 519.69 1000.32 491.77 1000.43 485.25C1000.63 473.11 1000.23 460.42 1004.11 448.77C1005.68 443.409 1008.5 438.496 1012.33 434.433C1016.16 430.369 1020.9 427.27 1026.16 425.39C1041.47 419.69 1053.98 425.57 1059.1 428.33C1063.83 430.88 1068.27 433.86 1071.41 438.33C1074.44 442.983 1076.82 448.03 1078.48 453.33C1080.42 458.934 1081.93 464.677 1083 470.51C1085.19 482.29 1086.1 494.36 1087.13 506.35C1087.38 509.57 1087.83 512.79 1087.9 516Z" fill="#540032"/>
<path d="M997.86 793.56C997.86 793.56 1001.38 824.56 1002.35 830.08L1004.66 843.22C1004.66 843.22 1002.5 877.92 1009.46 905.67C1016.42 933.42 1024.93 963 1024.83 965.92C1024.73 968.84 1022.19 975.78 1022.19 975.78C1022.19 975.78 1013.87 984.55 1007.88 987.83C1001.89 991.11 997.88 991.12 997.47 993.68C997.06 996.24 1002.85 996.6 1004.37 996.23C1005.89 995.86 1037.97 996.23 1037.97 996.23C1037.97 996.23 1044.42 996.96 1045.36 993.31C1046.3 989.66 1045.56 975.79 1044.87 973.23C1044.18 970.67 1042.87 960.45 1043.03 959.35C1043.19 958.25 1040.82 894.35 1042.42 877.19C1044.02 860.03 1040.17 833.37 1040.17 833.37L1044.51 796.48L997.86 793.56Z" fill="#FFBC8E"/>
<path d="M1012 985.06C1010.69 986.082 1009.31 987.011 1007.87 987.84C1001.87 991.12 997.87 991.12 997.46 993.68C997.05 996.24 1002.84 996.6 1004.36 996.24C1005.88 995.88 1037.96 996.24 1037.96 996.24C1037.96 996.24 1044.41 996.97 1045.35 993.32C1045.79 990.402 1045.93 987.447 1045.77 984.5L1016.1 988.93L1012 985.06Z" fill="#540032" stroke="#540032" stroke-linecap="round" stroke-linejoin="round"/>
<path d="M1036.18 791.37C1036.18 791.37 1028.98 814.29 1029.81 825.24C1030.64 836.19 1046.91 957.89 1047.47 965.92C1048.03 973.95 1051.12 984.55 1051.61 990.75C1052.1 996.95 1057.28 998.75 1060.71 1000.25C1064.14 1001.75 1072.13 1004.25 1073.9 992.95C1075.67 981.65 1064.02 965.19 1062.9 960.44C1061.78 955.69 1069.73 905.3 1070.83 886.68C1071.93 868.06 1070.2 846.51 1068.49 838.84C1067.47 834.399 1066.84 829.879 1066.59 825.33L1080.44 790.64L1036.18 791.37Z" fill="#FFBC8E"/>
<path d="M1073.91 993C1074.64 988.3 1073.06 982.74 1070.91 977.48C1070.72 981.21 1070.43 984.86 1069.91 985.69C1068.91 987.52 1061.72 988.98 1058.44 988.98C1055.9 988.771 1053.42 988.132 1051.09 987.09C1051.31 988.43 1051.49 989.7 1051.58 990.81C1052.07 997.02 1057.26 998.81 1060.68 1000.3C1064.1 1001.79 1072.13 1004.27 1073.91 993Z" fill="#540032" stroke="#540032" stroke-linecap="round" stroke-linejoin="round"/>
<path d="M1034.91 519.37C1034.91 519.37 1018.25 517.25 1010.07 518.16C1001.89 519.07 986.43 522.4 986.43 522.4L954.62 524.22L933.4 510.58L920.68 526.94C920.68 526.94 937.68 547.24 945.83 549.67C953.98 552.1 995.52 553.91 995.52 553.91C995.52 553.91 995.22 569.36 997.04 575.12C998.86 580.88 999.16 617.24 999.46 624.21C999.76 631.18 989.76 656.03 989.16 657.21C988.56 658.39 979.77 676.6 979.46 709.33C979.15 742.06 991.28 802.05 991.28 802.05H1081.58C1081.58 802.05 1095.86 760.29 1096.77 719.68C1097.68 679.07 1089.15 661.45 1083.4 644.78C1077.65 628.11 1081.58 619.63 1081.58 619.63C1081.58 619.63 1077.94 609.63 1082.49 590.85C1087.04 572.07 1097.04 553.58 1097.64 548.73C1098.24 543.88 1058.55 522.37 1058.55 522.37L1034.91 519.37Z" fill="#2E112D"/>
<path d="M1097.64 548.76C1097.64 548.76 1101.88 547.85 1105.21 576.03C1108.54 604.21 1110.56 633.84 1111.58 635.73C1112.86 638.09 1101.32 640.95 1095.82 642.73C1092.34 643.83 1083.4 644.85 1083.4 644.85L1079.15 628.49L1090.37 624.55L1082.49 590.91C1082.49 590.91 1091.88 557.55 1097.64 548.76Z" fill="#2E112D"/>
<path d="M1018.55 627.24L1010.98 609.37L1023.1 606.94L1029.16 626.03L1018.55 627.24Z" fill="white" stroke="#540032" stroke-linecap="round" stroke-linejoin="round"/>
<path d="M1072.19 631.18L1043.7 632.7C1043.7 632.7 1038 623 1037 622.4C1036 621.8 1026.69 618.76 1026.69 618.76L1028.51 623.91L1011.51 626.33C1011.51 628.022 1011.93 629.688 1012.73 631.18C1014 633 1017 633 1017 633C1017 633 1025.48 640 1028.51 641.49C1031.54 642.98 1039.42 642.7 1039.42 642.7L1075.78 647.24L1072.19 631.18Z" fill="#FFBC8E"/>
<path d="M1081.58 623.91L1067.64 628.15L1076.43 649.36L1087.94 647.24L1081.58 623.91Z" fill="#254F7A"/>
<path d="M930.37 507.85L888.86 469.67C888.86 469.67 874.32 452.4 867 448.46C859.68 444.52 855.19 444.52 856.4 447.55C857.61 450.58 862.16 452.4 862.16 452.4L867.91 458.16C867.91 458.16 867.61 469.98 869.43 473.01C871.25 476.04 879.12 477.86 879.12 477.86L883.97 479.68L916.7 523.31L930.37 507.85Z" fill="#FFBC8E"/>
<path d="M893.71 476C893.71 476 890.71 465.09 888.25 461.45C885.79 457.81 882.5 453.88 881.25 450.85C880 447.82 880.94 441.76 879.43 442.06C877.92 442.36 874.58 442.67 874.58 447.21C874.58 451.75 877.58 457.51 877.58 457.51C877.58 457.51 877.58 468.42 880.31 471.75" fill="#FFBC8E"/>
<path d="M863.17 456.92C863.17 456.92 862.49 460.73 863.39 461.85C864.29 462.97 870.78 465.21 871.9 463.2C873.02 461.19 872.57 458.27 870.78 457.59C868.99 456.91 864.73 455.13 863.17 456.92Z" fill="#FFBC8E"/>
<path d="M865.18 463.42C865.18 463.42 861.37 462.52 861.6 465.21C861.83 467.9 862.05 469.69 863.17 470.14C864.29 470.59 869.66 470.14 871.23 469.24C872.8 468.34 873.23 466.11 872.35 465.24C871.47 464.37 865.18 463.42 865.18 463.42Z" fill="#FFBC8E"/>
<path d="M863.17 470.14C863.17 470.14 863.84 473.28 865.17 473.95C866.5 474.62 871.45 474.62 872.57 472.83C873.69 471.04 871.22 469.25 871.22 469.25C871.22 469.25 864.28 469.92 863.17 470.14Z" fill="#FFBC8E"/>
<path d="M930.07 505.13L914.01 523.01L921.89 533.91L940.07 513.01L930.07 505.13Z" fill="#254F7A"/>
<path d="M1025.89 516.46C1025.89 516.46 1021.95 521.61 1020.13 524.34C1018.31 527.07 1012.25 548.58 1012.25 548.58L1029.25 545.58L1051.06 554.67C1051.06 554.67 1060.46 534.07 1058.64 524.97C1056.82 515.87 1047.12 514.67 1047.12 514.67L1025.89 516.46Z" fill="#254F7A"/>
<path d="M1046.26 529.76C1046.94 531.211 1047.42 532.749 1047.68 534.33C1046.64 533.128 1045.78 531.781 1045.13 530.33C1044.44 528.878 1043.96 527.336 1043.71 525.75C1044.74 526.962 1045.6 528.311 1046.26 529.76Z" fill="white"/>
<path d="M996.18 473.39C995.44 509.13 1016.77 513.62 1024.48 513.77C1031.48 513.91 1055.28 513.48 1059.75 478.01C1064.22 442.54 1047.75 430.9 1031.75 429.72C1015.75 428.54 996.92 437.64 996.18 473.39Z" fill="#FFBC8E"/>
<path d="M1003.93 466.68C1004.73 466.517 1005.51 466.313 1006.29 466.07C1007.15 465.967 1007.95 465.588 1008.58 464.99C1008.74 464.763 1008.82 464.49 1008.81 464.213C1008.79 463.936 1008.69 463.671 1008.51 463.46C1008.09 463.091 1007.59 462.842 1007.04 462.738C1006.5 462.634 1005.93 462.68 1005.41 462.87C1004.29 463.082 1003.29 463.707 1002.61 464.62C1002.51 464.766 1002.45 464.93 1002.41 465.102C1002.38 465.275 1002.38 465.452 1002.41 465.624C1002.45 465.796 1002.52 465.959 1002.62 466.105C1002.72 466.25 1002.84 466.374 1002.99 466.47C1003.27 466.657 1003.6 466.732 1003.93 466.68Z" fill="#540032"/>
<path d="M1029 466.59C1028.19 466.51 1027.38 466.38 1026.59 466.2C1025.72 466.167 1024.88 465.851 1024.21 465.3C1024.03 465.087 1023.92 464.821 1023.91 464.542C1023.9 464.263 1023.98 463.988 1024.14 463.76C1024.52 463.358 1024.99 463.062 1025.52 462.902C1026.04 462.743 1026.6 462.725 1027.14 462.85C1028.27 462.96 1029.32 463.492 1030.08 464.34C1030.27 464.539 1030.39 464.792 1030.43 465.062C1030.47 465.333 1030.43 465.61 1030.3 465.855C1030.18 466.1 1029.99 466.302 1029.75 466.433C1029.51 466.565 1029.23 466.619 1028.96 466.59H1029Z" fill="#540032"/>
<path d="M1025.09 494.37C1024.61 495.01 1024.18 495.86 1023.27 496.07C1022.39 496.191 1021.48 496.119 1020.63 495.86C1020.61 495.854 1020.59 495.855 1020.57 495.865C1020.55 495.874 1020.54 495.89 1020.53 495.91C1020.52 495.923 1020.52 495.939 1020.52 495.955C1020.52 495.971 1020.52 495.987 1020.53 496C1020.94 496.417 1021.45 496.715 1022.02 496.862C1022.59 497.008 1023.18 496.997 1023.74 496.83C1024.2 496.628 1024.6 496.294 1024.87 495.868C1025.15 495.443 1025.29 494.946 1025.28 494.44C1025.35 494.29 1025.16 494.28 1025.09 494.37Z" fill="#540032"/>
<path d="M1012.91 485.86C1012.91 485.86 1012.59 489.48 1012.67 491.19C1014.28 491.486 1015.95 491.346 1017.49 490.783C1019.03 490.221 1020.4 489.256 1021.44 487.99C1021.57 487.83 1021.33 487.65 1021.17 487.76C1019.08 489.349 1016.54 490.223 1013.92 490.25C1013.78 489.78 1014.67 484.06 1014.4 484.05C1013.09 484.239 1011.8 484.599 1010.58 485.12C1011.03 477.54 1012.67 470.12 1012.99 462.55C1013 462.521 1013 462.491 1012.99 462.462C1012.98 462.433 1012.97 462.406 1012.96 462.381C1012.94 462.357 1012.92 462.335 1012.9 462.319C1012.87 462.302 1012.84 462.291 1012.82 462.285C1012.79 462.279 1012.76 462.279 1012.73 462.284C1012.7 462.29 1012.67 462.301 1012.65 462.318C1012.62 462.334 1012.6 462.355 1012.58 462.379C1012.57 462.404 1012.56 462.431 1012.55 462.46C1010.26 470.14 1009.55 478.85 1008.92 486.66C1008.81 487.64 1012.24 486.18 1012.91 485.86Z" fill="#540032"/>
<path d="M1022.38 476.68C1022.38 476.63 1022.61 476.68 1022.59 476.68C1022.2 477.88 1022.29 479.06 1025.08 478.38C1025.17 478.38 1025.14 478.38 1025.08 478.45C1021.56 479.6 1021.49 478 1022.38 476.68Z" fill="#540032"/>
<path d="M1022 478.18C1022 478.48 1031.19 475.23 1031.22 475.01C1031.25 474.79 1028.37 473.01 1024.88 474.35C1024.07 474.624 1023.36 475.136 1022.85 475.819C1022.33 476.503 1022.04 477.326 1022 478.18Z" fill="#540032"/>
<path d="M1027.13 473.86C1028.13 473.923 1029.14 473.893 1030.13 473.77C1030.55 473.608 1030.92 473.349 1031.22 473.016C1031.52 472.682 1031.73 472.283 1031.85 471.85C1031.85 471.75 1031.98 471.8 1032.01 471.85C1032.22 472.465 1032.23 473.133 1032.01 473.749C1031.8 474.365 1031.39 474.894 1030.85 475.25C1029.57 476.01 1027.53 475.65 1027.01 474.39C1026.89 474.16 1026.81 473.88 1027.13 473.86Z" fill="#540032"/>
<path d="M1009 476.25C1009 476.2 1008.82 476.25 1008.84 476.25C1009.23 477.35 1009.25 478.46 1007.03 477.93C1006.95 477.93 1006.98 477.93 1007.03 478.01C1009.88 478.93 1009.82 477.44 1009 476.25Z" fill="#540032"/>
<path d="M1009.49 477.72C1009.49 478.02 1001.41 474.91 1001.4 474.72C1002.26 474.174 1003.23 473.833 1004.24 473.723C1005.25 473.614 1006.27 473.74 1007.22 474.09C1007.89 474.429 1008.46 474.947 1008.86 475.587C1009.26 476.227 1009.48 476.965 1009.49 477.72Z" fill="#540032"/>
<path d="M1005 473.64C1004.12 473.773 1003.22 473.817 1002.33 473.77C1001.95 473.656 1001.59 473.453 1001.3 473.179C1001.01 472.905 1000.79 472.566 1000.65 472.19C1000.65 472.11 1000.53 472.19 1000.52 472.24C1000.37 472.801 1000.41 473.397 1000.64 473.931C1000.87 474.464 1001.28 474.905 1001.79 475.18C1002.99 475.77 1004.79 475.3 1005.16 474.18C1005.25 473.9 1005.3 473.64 1005 473.64Z" fill="#540032"/>
<path d="M1014.52 490.7C1015.49 491.939 1016.75 492.91 1018.2 493.52C1019 493.832 1019.88 493.888 1020.71 493.68C1022.52 493.2 1022.52 491.53 1022.22 490.11C1022.04 489.354 1021.77 488.622 1021.41 487.93C1019.46 489.559 1017.05 490.528 1014.52 490.7Z" fill="#540032"/>
<path d="M1018.25 493.52C1019.05 493.832 1019.92 493.888 1020.75 493.68C1022.57 493.2 1022.57 491.53 1022.27 490.11C1020.33 490.32 1018.41 491.64 1018.25 493.52Z" fill="#FF98B9"/>
<path d="M1057.78 479.6C1048.84 479.75 1044.78 452.42 1044.35 449.09C1044.53 451.22 1045.43 462.51 1044.59 462.99C1043.63 463.029 1042.67 462.9 1041.76 462.61C1041.68 461.265 1041.5 459.928 1041.22 458.61C1041.12 457.99 1041.06 459.98 1040.85 462.43L1039.17 462.06C1039.12 459.168 1038.68 456.296 1037.87 453.52C1037.55 452.47 1037.52 457.29 1036.72 461.52C1030.48 460.18 1021.46 458.46 1013.16 458.62C1011.21 458.63 1009.25 458.74 1007.31 458.95C1007.13 455.61 1007.31 452.04 1007.12 452.82C1006.56 454.87 1006.2 456.97 1006.05 459.09C1005.15 459.19 1004.29 459.3 1003.52 459.42C1003.04 454.71 1004.89 447.08 1004.2 448.26C1002.14 451.922 1000.78 455.938 1000.2 460.1C997.02 460.89 996.2 461.57 996.04 460.74C995.81 459.24 996.94 445.96 1006.72 435.74C1017.33 424.65 1039.44 420.85 1052.84 436.38C1052.84 436.38 1063.53 442.58 1065.72 453.38C1067.91 464.18 1063 479.46 1057.78 479.6Z" fill="#540032"/>
<path d="M1053.68 478.19C1053.68 478.19 1060.68 466.54 1065.97 468.98C1071.26 471.42 1066.41 487.98 1060.63 490.55C1059.93 490.929 1059.17 491.165 1058.38 491.245C1057.59 491.325 1056.79 491.248 1056.03 491.017C1055.27 490.786 1054.56 490.407 1053.95 489.901C1053.34 489.395 1052.83 488.773 1052.46 488.07C1052.46 487.99 1052.37 487.91 1052.33 487.83L1053.68 478.19Z" fill="#FFBC8E"/>
<path d="M1064.48 473.68C1064.57 473.68 1064.6 473.8 1064.48 473.85C1060.48 475.8 1058.48 479.85 1057.24 483.85C1058.38 482.23 1060.01 481.28 1062.16 482.61C1062.27 482.68 1062.16 482.87 1062.06 482.85C1061.31 482.663 1060.53 482.713 1059.81 482.993C1059.09 483.272 1058.48 483.767 1058.06 484.41C1057.36 485.487 1056.77 486.637 1056.32 487.84C1056.15 488.23 1055.47 488.07 1055.58 487.64V487.54C1055.19 482.32 1058.82 474.6 1064.48 473.68Z" fill="#540032"/>
<path d="M1052.89 520.84C1052.39 523.47 1042.22 541.48 1028.26 539.46C1022.39 538.61 1024.06 519.59 1024.06 519.59L1017.84 496.31L1046.55 476.42C1046.55 476.42 1053.09 519.73 1052.89 520.84Z" fill="#FFBC8E"/>
<path d="M555.83 403.1C555.83 403.1 561.3 415.73 560.83 418.67C560.36 421.61 559.99 426.67 560.83 429.2C561.67 431.73 563.83 436.35 562.09 443.51C560.35 450.67 559.15 463.71 555.36 466.66C551.57 469.61 544.41 466.24 544.41 466.24L544 481L510 482.24L506.63 458.66C506.63 458.66 499.89 434.25 509.15 412.36C518.41 390.47 553.3 399.31 555.83 403.1Z" fill="#FFBC8E"/>
<path d="M555.83 403.1C555.83 403.1 557.09 409.83 554.99 414.04C552.89 418.25 548.25 423.3 548.25 423.3C548.25 423.3 550.35 427.93 549.51 429.2C548.67 430.47 547.41 427.51 545.73 427.51C544.05 427.51 540.67 427.51 541.51 434.25C542.146 438.712 543.276 443.088 544.88 447.3C544.236 450.293 542.966 453.115 541.153 455.582C539.339 458.048 537.024 460.103 534.36 461.61C525.1 467.08 512.05 466.24 507.84 464.14C503.63 462.04 483 433.83 483 414C483 394.17 513.73 377 530.57 377C547.41 377 567.57 385.42 567.57 393.84C567.57 402.26 555.83 403.1 555.83 403.1Z" fill="#540032" stroke="#540032" stroke-linecap="round" stroke-linejoin="round"/>
<path d="M502 477.19L495.26 489.81C495.26 489.81 512.1 487.71 528.09 487.29C537.079 486.985 546.079 487.407 555 488.55L550.79 477.19C550.79 477.19 516.68 470.87 502 477.19Z" fill="#820333"/>
<path d="M463.64 507.07C463.64 507.07 454.38 547.07 454.38 572.74C454.38 598.41 451.85 613.99 457.33 616.09C462.81 618.19 483 608.52 483 608.52L472.48 515.07L463.64 507.07Z" fill="#820333"/>
<path d="M480.48 615.25C480.48 615.25 466.59 625.78 460.27 667.45C453.95 709.12 466.59 776.45 474.59 793.73C482.59 811.01 484.27 817.31 483.85 823.2C483.43 829.09 473.32 840.88 480.48 872.03C487.64 903.18 496.05 957.48 496.05 957.48V962.48C496.05 962.48 493.53 964.17 494.37 965.85C495.21 967.53 496.48 974.69 496.48 974.69L515 975.11C515 975.11 519.63 967.95 519.63 962.11C519.63 956.27 518.79 946.95 518.79 946.95L518.37 930.54L523 755L524.68 719.64L557.93 827.4L599.19 965.47C599.19 965.47 610.55 966.31 614.76 965.89C618.97 965.47 625.7 964.2 625.7 964.2C625.7 964.2 626.97 959.15 626.13 955.78C624.789 951.379 622.95 947.145 620.65 943.16C618.13 938.52 614.76 905.27 613.92 900.22C613.08 895.17 610.55 845.08 606.76 833.29C604.146 825.541 600.763 818.074 596.66 811C596.66 811 591.66 688.51 581.93 656.09C572.2 623.67 566.35 617.79 566.35 617.79C566.35 617.79 522.57 623.25 480.48 615.25Z" fill="#540032" stroke="#540032" stroke-linecap="round" stroke-linejoin="round"/>
<path d="M495.21 489.81C495.21 489.81 463.64 505 463.64 507.07C463.64 509.14 480.48 615.25 480.48 615.25C480.48 615.25 499 626.62 527.62 624.09C556.24 621.56 566.35 617.78 566.35 617.78C566.35 617.78 587.35 505.78 585.29 502.44C583.23 499.1 555 488.55 555 488.55C555 488.55 515 482.24 495.21 489.81Z" fill="#820333"/>
<path d="M597.5 483.5L644.65 490.65L623.18 565.16L576.45 552.95L597.5 483.5Z" fill="#540032" stroke="#540032" stroke-linecap="round" stroke-linejoin="round"/>
<path d="M601.71 583.68C601.71 583.68 614.34 560.11 615.6 559.27C616.86 558.43 613.5 547.06 613.92 544.11C614.49 540.773 615.478 537.521 616.86 534.43C618.55 530.22 616.44 526.43 619.39 527.28C622.34 528.13 623.18 529.8 622.75 534.01C622.32 538.22 622.33 541.17 622.33 541.17L633.28 531.91L636.64 521.39C636.64 521.39 639.64 527.28 639.64 531.49C639.704 534.07 639.276 536.639 638.38 539.06C637.96 540.33 638.38 549.17 633.75 556.32C629.12 563.47 627.01 564.74 626.17 566.85C625.33 568.96 623.64 585.37 618.59 599.26C613.54 613.15 608.44 624.93 601.7 627C594.96 629.07 589.92 611.84 592.86 601.74C594.859 595.299 597.844 589.206 601.71 583.68Z" fill="#FFBC8E"/>
<path d="M555.83 559.27C555.83 559.27 576.45 614.83 582.35 622.83C588.25 630.83 603.35 628.3 606.76 621.15C610.17 614 607.6 601.36 606.34 595.05C605.08 588.74 597.08 543.7 595 529.38C592.92 515.06 585.31 502.44 585.31 502.44C585.31 502.44 575.63 496.13 569.31 501.6" fill="#820333"/>
<path d="M496.47 974.74L495.74 998.23H517.64L515 975.16L496.47 974.74Z" fill="#820333"/>
<path d="M495.74 998.23H517.64L516.98 992.47H495.92L495.74 998.23Z" fill="#540032" stroke="#540032" stroke-linecap="round" stroke-linejoin="round"/>
<path d="M599.18 965.48C599.18 965.48 593.72 988.24 595.64 989.39C597.56 990.54 612.55 993.23 617.55 994.77C622.55 996.31 634.07 999 639.07 999C644.07 999 652.13 999 652.52 996.31C652.91 993.62 653.28 991.7 651.36 990.55C645.34 986.426 639.683 981.796 634.45 976.71C630.811 973.102 627.848 968.872 625.7 964.22L599.18 965.48Z" fill="#820333"/>
<path d="M617.93 987.86C607.39 983.4 600.2 982.48 595.72 982.59C595.19 986.17 595 989 595.64 989.39C597.56 990.55 612.55 993.23 617.55 994.77C622.55 996.31 634.07 999 639.06 999C644.05 999 652.13 999 652.51 996.31C652.679 995.335 652.782 994.349 652.82 993.36C647.43 994.22 634.38 994.82 617.93 987.86Z" fill="#540032" stroke="#540032" stroke-linecap="round" stroke-linejoin="round"/>
<path d="M805 998.41H732.37C726.424 998.41 720.721 996.05 716.513 991.848C712.306 987.646 709.938 981.946 709.93 976C709.93 970.049 712.294 964.341 716.502 960.133C720.711 955.924 726.418 953.56 732.37 953.56H805V998.41Z" fill="#9C2031"/>
<path d="M710.08 973.47C710.693 967.987 713.305 962.921 717.417 959.243C721.529 955.564 726.853 953.53 732.37 953.53H805V971.14C796.3 974.51 786.47 978.46 783.29 973.48C779.64 967.75 767.57 958.72 767.57 958.72C767.57 958.72 744.28 958.56 728.45 958.56C712.75 958.56 710.12 973.2 710.08 973.47Z" fill="#820333"/>
<path d="M910.87 993.92H780.87C776.025 993.92 771.378 991.995 767.951 988.569C764.525 985.143 762.6 980.496 762.6 975.65C762.6 970.805 764.525 966.157 767.951 962.731C771.378 959.305 776.025 957.38 780.87 957.38H910.87V993.92Z" fill="url(#paint0_linear_1_3980)"/>
<path d="M918.56 990.71H781.9C777.991 990.71 774.241 989.157 771.477 986.393C768.713 983.628 767.16 979.879 767.16 975.97C767.16 972.061 768.713 968.312 771.477 965.547C774.241 962.783 777.991 961.23 781.9 961.23H918.56V953.53H781.9C775.949 953.53 770.241 955.894 766.032 960.103C761.824 964.311 759.46 970.019 759.46 975.97C759.46 981.921 761.824 987.629 766.032 991.837C770.241 996.046 775.949 998.41 781.9 998.41H918.56V990.71Z" fill="#820333"/>
<path d="M818.23 889.76H762C757.391 889.76 752.97 887.929 749.711 884.669C746.451 881.41 744.62 876.989 744.62 872.38C744.62 867.771 746.451 863.35 749.711 860.09C752.97 856.831 757.391 855 762 855H818.23V889.76Z" fill="#254F7A"/>
<path d="M900.24 886.28H799.52C795.768 886.277 792.171 884.786 789.517 882.133C786.864 879.48 785.373 875.882 785.37 872.13C785.375 868.381 786.869 864.787 789.522 862.137C792.175 859.488 795.771 858 799.52 858H900.24V886.28Z" fill="url(#paint1_linear_1_3980)"/>
<path d="M906.2 883.79H800.36C798.833 883.835 797.312 883.573 795.887 883.02C794.463 882.467 793.164 881.633 792.067 880.569C790.971 879.504 790.099 878.231 789.504 876.823C788.909 875.416 788.602 873.903 788.602 872.375C788.602 870.847 788.909 869.334 789.504 867.927C790.099 866.519 790.971 865.246 792.067 864.181C793.164 863.117 794.463 862.283 795.887 861.73C797.312 861.177 798.833 860.915 800.36 860.96H906.2V854.96H800.36C795.751 854.96 791.33 856.791 788.07 860.05C784.811 863.31 782.98 867.731 782.98 872.34C782.98 876.949 784.811 881.37 788.07 884.629C791.33 887.889 795.751 889.72 800.36 889.72H906.2V883.79Z" fill="#2E112D"/>
<path d="M825.09 916.35H764C762.244 916.357 760.505 916.016 758.882 915.347C757.259 914.679 755.784 913.696 754.542 912.455C753.3 911.214 752.316 909.74 751.646 908.117C750.977 906.495 750.635 904.755 750.64 903C750.647 901.252 750.997 899.523 751.672 897.91C752.347 896.298 753.333 894.834 754.574 893.603C755.814 892.372 757.285 891.397 758.903 890.734C760.52 890.071 762.252 889.733 764 889.74H825.14L825.09 916.35Z" fill="#9C2031"/>
<path d="M751.07 906.34C750.555 904.371 750.501 902.311 750.912 900.317C751.322 898.324 752.186 896.453 753.436 894.847C754.687 893.242 756.29 891.946 758.122 891.061C759.954 890.175 761.965 889.723 764 889.74H825.14V895.91L810.25 894.39H764.37C764.37 894.39 752.69 894.41 751.07 906.34Z" fill="#820333"/>
<path d="M918.21 913.69H819.66C818.237 913.69 816.828 913.41 815.513 912.865C814.199 912.32 813.004 911.521 811.999 910.514C810.993 909.508 810.195 908.313 809.652 906.998C809.108 905.682 808.829 904.273 808.83 902.85C808.827 901.426 809.106 900.016 809.649 898.699C810.192 897.383 810.989 896.187 811.995 895.179C813.001 894.171 814.196 893.372 815.511 892.826C816.826 892.281 818.236 892 819.66 892H918.21V913.69Z" fill="url(#paint2_linear_1_3980)"/>
<path d="M922.77 911.79H820.3C817.982 911.79 815.759 910.869 814.12 909.23C812.481 907.591 811.56 905.368 811.56 903.05C811.56 900.732 812.481 898.509 814.12 896.87C815.759 895.231 817.982 894.31 820.3 894.31H922.77V889.74H820.3C816.834 889.835 813.543 891.278 811.125 893.763C808.707 896.248 807.355 899.578 807.355 903.045C807.355 906.512 808.707 909.842 811.125 912.327C813.543 914.812 816.834 916.255 820.3 916.35H922.77V911.79Z" fill="#820333"/>
<path d="M773.64 953.53H885.35C890.28 953.53 895.009 951.571 898.495 948.085C901.982 944.599 903.94 939.87 903.94 934.94C903.94 930.01 901.982 925.281 898.495 921.795C895.009 918.309 890.28 916.35 885.35 916.35H773.64V953.53Z" fill="#254F7A"/>
<path d="M885.35 916.35C887.957 916.358 890.533 916.913 892.912 917.979C895.292 919.044 897.421 920.596 899.163 922.536C900.906 924.475 902.222 926.758 903.027 929.237C903.833 931.716 904.11 934.337 903.84 936.93C901.985 933.098 899.087 929.866 895.478 927.606C891.87 925.345 887.698 924.147 883.44 924.15C868.44 924.01 803.44 924.15 803.44 924.15L785.77 916.35H885.35Z" fill="#2E112D"/>
<path d="M728.43 949.82H793.66C795.648 949.82 797.616 949.428 799.452 948.667C801.289 947.906 802.957 946.791 804.362 945.385C805.767 943.979 806.881 942.31 807.641 940.473C808.401 938.636 808.791 936.668 808.79 934.68C808.791 932.692 808.401 930.724 807.641 928.887C806.881 927.05 805.767 925.381 804.362 923.975C802.957 922.569 801.289 921.454 799.452 920.693C797.616 919.932 795.648 919.54 793.66 919.54H728.43V949.82Z" fill="url(#paint3_linear_1_3980)"/>
<path d="M722.06 947.16H792.76C794.394 947.207 796.02 946.925 797.543 946.333C799.066 945.74 800.454 944.847 801.626 943.709C802.798 942.57 803.73 941.207 804.366 939.702C805.002 938.197 805.33 936.579 805.33 934.945C805.33 933.311 805.002 931.693 804.366 930.188C803.73 928.683 802.798 927.32 801.626 926.181C800.454 925.043 799.066 924.15 797.543 923.557C796.02 922.965 794.394 922.683 792.76 922.73H722.06V916.35H792.76C797.69 916.35 802.419 918.309 805.905 921.795C809.391 925.281 811.35 930.01 811.35 934.94C811.35 939.87 809.391 944.599 805.905 948.085C802.419 951.571 797.69 953.53 792.76 953.53H722.06V947.16Z" fill="#2E112D"/>
<defs>
<linearGradient id="paint0_linear_1_3980" x1="762.55" y1="975.65" x2="910.87" y2="975.65" gradientUnits="userSpaceOnUse">
<stop stop-color="white"/>
<stop offset="1" stop-color="#D3DBEB"/>
</linearGradient>
<linearGradient id="paint1_linear_1_3980" x1="785.37" y1="872.13" x2="900.24" y2="872.13" gradientUnits="userSpaceOnUse">
<stop stop-color="white"/>
<stop offset="1" stop-color="#D3DBEB"/>
</linearGradient>
<linearGradient id="paint2_linear_1_3980" x1="808.83" y1="902.86" x2="918.21" y2="902.86" gradientUnits="userSpaceOnUse">
<stop stop-color="white"/>
<stop offset="1" stop-color="#D3DBEB"/>
</linearGradient>
<linearGradient id="paint3_linear_1_3980" x1="728.43" y1="934.68" x2="808.79" y2="934.68" gradientUnits="userSpaceOnUse">
<stop stop-color="white"/>
<stop offset="1" stop-color="#D3DBEB"/>
</linearGradient>
</defs>
</svg>
