<svg width="1600" height="1200" viewBox="0 0 1600 1200" fill="none" xmlns="http://www.w3.org/2000/svg">
<g opacity="0.5">
<path d="M356.75 344.66H204.89V496.52H356.75V344.66Z" fill="white"/>
<path d="M364.62 336.85H197V504.5H364.62V336.85ZM204.83 496.61V344.66H356.72V496.52L204.83 496.61Z" fill="#DBDBDB"/>
<path d="M286.83 367.24H234.33V485.6H286.83V367.24Z" fill="#EBEBEB"/>
<path d="M311.14 390.27H250.49V450.92H311.14V390.27Z" fill="#C7C7C7"/>
<path d="M364.67 504.42H196.99V510.89H364.67V504.42Z" fill="#C7C7C7"/>
<path d="M356.75 130.9H204.89V282.76H356.75V130.9Z" fill="white"/>
<path d="M332.46 157.02H217.91V196.67H332.46V157.02Z" fill="#C7C7C7"/>
<path d="M364.62 123H197V290.68H364.62V123ZM204.89 282.78V130.87H356.78V282.78H204.89Z" fill="#DBDBDB"/>
<path d="M311.17 176.53H250.52V237.18H311.17V176.53Z" fill="#EBEBEB"/>
<path d="M364.67 290.68H196.99V297.15H364.67V290.68Z" fill="#C7C7C7"/>
<path d="M356.75 562.78H204.89V714.64H356.75V562.78Z" fill="white"/>
<path d="M336.07 579.63H286.26V662.97H336.07V579.63Z" fill="#EBEBEB"/>
<path d="M364.62 554.88H197V722.53H364.62V554.88ZM204.83 714.64V562.87H356.72V714.72L204.83 714.64Z" fill="#DBDBDB"/>
<path d="M311.17 608.38H250.52V669.03H311.17V608.38Z" fill="#C7C7C7"/>
<path d="M364.67 722.53H196.99V729H364.67V722.53Z" fill="#C7C7C7"/>
</g>
<path d="M207 1019V913.49C207 912.654 206.668 911.853 206.077 911.262C205.487 910.672 204.685 910.34 203.85 910.34H190.9C190.065 910.34 189.263 910.672 188.673 911.262C188.082 911.853 187.75 912.654 187.75 913.49V1019H207Z" fill="#4C4C4C" stroke="#540032" stroke-linecap="round" stroke-linejoin="round"/>
<path d="M190.86 1019V913.49C190.86 912.654 190.528 911.853 189.937 911.262C189.347 910.672 188.545 910.34 187.71 910.34H174.8C173.965 910.34 173.163 910.672 172.573 911.262C171.982 911.853 171.65 912.654 171.65 913.49V1019H190.86Z" fill="#540032" stroke="#540032" stroke-linecap="round" stroke-linejoin="round"/>
<path d="M198.13 1019H428.87C426.93 1014.77 424.37 1010.92 420.99 1008.8C410.53 1002.19 310.87 986.8 310.87 986.8L207.35 985.15L202.35 986.8C202.35 986.8 196.85 994.51 197.4 998.36C197.72 1000.22 197.85 1009.68 198.13 1019Z" fill="#540032" stroke="#540032" stroke-linecap="round" stroke-linejoin="round"/>
<path d="M292.15 786.84C292.15 786.84 267.92 800.61 259.66 808.32C251.4 816.03 237.66 841.32 236.53 856.77C235.4 872.22 223.32 931.11 223.32 931.11C223.32 931.11 198.54 979.56 202.4 986.72C206.26 993.88 308.12 986.72 310.87 986.72C313.62 986.72 308.12 956.44 308.12 956.44C308.12 956.44 346.66 897 348.31 881C349.96 865 338.4 821.53 336.2 811.62C334 801.71 297.1 784.64 292.15 786.84Z" fill="#820333"/>
<path d="M273.12 871C273.12 871 292.39 889.25 300.5 895.33" stroke="#540032" stroke-linecap="round" stroke-linejoin="round"/>
<path d="M264 885.14C264 885.14 299.49 897.31 308.61 898.33" stroke="#540032" stroke-linecap="round" stroke-linejoin="round"/>
<path d="M367.58 725.17C367.58 725.17 370.34 745.55 369.79 751.6C369.24 757.65 363.73 778.6 362.08 782.99C360.43 787.38 358.77 792.35 352.72 791.8C349.195 791.519 345.791 790.387 342.8 788.5L336.75 808.87L294.9 784.64L300.41 773.64C300.41 773.64 294.35 763.73 292.7 747.21C291.05 730.69 300.41 711.97 312.52 704.81C324.63 697.65 345.52 700.41 351.61 705.36C357.7 710.31 367.58 725.17 367.58 725.17Z" fill="#FFBC8E"/>
<path d="M292.7 776.38C294.9 776.93 342.25 798.38 342.8 803.91C343.35 809.44 345.56 826.49 345.56 826.49C335.839 818.151 325.326 810.782 314.17 804.49C297.1 795.13 288.84 788.49 288.84 788.49L292.7 776.38Z" fill="#820333"/>
<path d="M334.54 680C334.54 680 348.86 673.94 360.42 676.7C371.98 679.46 376.42 692.7 376.42 703.7C376.42 714.7 370.37 727.93 368.16 728.48C365.95 729.03 360.42 702.6 350 694.89C339.58 687.18 334.54 680 334.54 680Z" fill="#540032" stroke="#540032" stroke-linecap="round" stroke-linejoin="round"/>
<path d="M316.93 683.32C316.93 683.32 339.5 671.21 359.32 688.32C379.14 705.43 372.54 722.46 368.13 728.52C363.72 734.58 363.73 746.14 360.42 748.34C357.11 750.54 356.57 739.53 352.72 737.34C348.87 735.15 349.41 743.39 345.01 754.41C340.61 765.43 320.78 781.41 310.32 780.29C299.86 779.17 287.19 767.62 280.03 743.39C272.87 719.16 277.83 693.29 291.03 685.03C294.87 682.629 299.246 681.216 303.765 680.917C308.284 680.619 312.807 681.444 316.93 683.32Z" fill="#540032" stroke="#540032" stroke-linecap="round" stroke-linejoin="round"/>
<path d="M360.74 693.71C360.74 693.71 365.11 706.35 353.93 720.45C342.75 734.55 327.68 742.33 316.5 735.53C305.32 728.73 304.83 720.94 304.83 720.94" stroke="#540032" stroke-linecap="round" stroke-linejoin="round"/>
<path d="M286.84 723.37C286.84 723.37 284.4 761.29 307.26 765.18C330.12 769.07 342.75 745.25 342.75 745.25" stroke="#540032" stroke-linecap="round" stroke-linejoin="round"/>
<path d="M294.07 724.07C306.69 724.07 316.92 713.714 316.92 700.94C316.92 688.165 306.69 677.81 294.07 677.81C281.45 677.81 271.22 688.165 271.22 700.94C271.22 713.714 281.45 724.07 294.07 724.07Z" fill="#540032" stroke="#540032" stroke-linecap="round" stroke-linejoin="round"/>
<path d="M289.27 697.6C289.27 697.6 292.18 682.53 300.45 680.6" stroke="#540032" stroke-linecap="round" stroke-linejoin="round"/>
<path d="M288.29 699.54C288.29 699.54 304.83 693.71 312.61 700.03" stroke="#540032" stroke-linecap="round" stroke-linejoin="round"/>
<path d="M287.32 702.46C287.32 702.46 280.03 707.32 282.46 718.46" stroke="#540032" stroke-linecap="round" stroke-linejoin="round"/>
<path d="M356 750C356 750 354.35 733.48 349.39 734C344.43 734.52 346.64 759.33 349.39 763.18C352.14 767.03 354.9 763.74 354.9 763.74" fill="#FFBC8E"/>
<path d="M821.41 996.58H310.08L327.33 953.18H706.37L821.41 996.58Z" fill="#B5B5B5" stroke="#540032" stroke-linecap="round" stroke-linejoin="round"/>
<path d="M814.4 1005.26H315.76V1018.95H814.4V1005.26Z" fill="#540032" stroke="#540032" stroke-linecap="round" stroke-linejoin="round"/>
<path d="M821.41 996.58H310.08V1012.7H821.41V996.58Z" fill="#4C4C4C" stroke="#540032" stroke-linecap="round" stroke-linejoin="round"/>
<path d="M502.72 958.74L517.53 982.12H397.49L409.18 958.74H502.72Z" fill="white"/>
<path d="M480.11 965.75L494.92 989.14H374.88L386.57 965.75H480.11Z" fill="white"/>
<path d="M334 837L357.13 944.37L446.87 957C446.87 957 473.87 946 476.05 946C478.23 946 482.11 952.61 483.76 954.81C485.41 957.01 488.17 960.32 489.27 961.97C490.37 963.62 490.92 971.88 489.27 974.09C487.62 976.3 484.27 982.35 481.01 981.79C477.75 981.23 481.01 972.43 481.01 972.43C481.01 972.43 461.74 980.14 455.68 980.14C449.62 980.14 437.51 974.64 437.51 974.64C437.51 974.64 335.09 986.17 329 984C322.91 981.83 319.64 978.49 317.43 974.09C315.22 969.69 280 851.82 280 851.82" fill="#820333"/>
<path d="M483.77 954.79C482.11 952.58 478.26 945.98 476.06 945.98C473.86 945.98 446.87 956.98 446.87 956.98L395.73 949.76C397.94 956.12 400.53 966.97 398.19 978.83C419.53 976.63 437.51 974.6 437.51 974.6C437.51 974.6 449.63 980.1 455.68 980.1C461.73 980.1 481.01 972.4 481.01 972.4C481.01 972.4 477.71 981.21 481.01 981.76C484.31 982.31 487.62 976.25 489.27 974.05C490.92 971.85 490.37 963.59 489.27 961.93C488.17 960.27 485.42 957 483.77 954.79Z" fill="#FFBC8E"/>
<path d="M157.92 1018.95H1029.72" stroke="#540032" stroke-linecap="round" stroke-linejoin="round"/>
<path d="M1016.81 1019V901.77C1016.81 900.935 1016.48 900.133 1015.89 899.543C1015.3 898.952 1014.5 898.62 1013.66 898.62H971C970.165 898.62 969.363 898.952 968.773 899.543C968.182 900.133 967.85 900.935 967.85 901.77V1019H1016.81Z" fill="#540032" stroke="#540032" stroke-linecap="round" stroke-linejoin="round"/>
<path d="M1001.38 1019V901.77C1001.38 900.936 1001.04 900.136 1000.45 899.546C999.864 898.955 999.065 898.623 998.23 898.62H955.54C954.705 898.62 953.903 898.952 953.313 899.543C952.722 900.133 952.39 900.935 952.39 901.77V1019H1001.38Z" fill="#4C4C4C" stroke="#540032" stroke-linecap="round" stroke-linejoin="round"/>
<path d="M830.33 832.14C830.33 832.14 811.53 844.67 809.11 852.39C806.69 860.11 792.72 903.99 791.27 907.39C789.82 910.79 778.27 928.6 778.27 928.6L716.54 931.5C716.54 931.5 688.54 925.23 686.16 925.23C683.78 925.23 659.64 941.14 657.71 945.48C655.78 949.82 651.44 956.09 653.37 957.54C655.3 958.99 658.19 956.54 658.19 956.54C658.19 956.54 659.19 963.29 671.19 960.88C683.19 958.47 695.3 949.78 695.3 949.78C695.3 949.78 710.3 957.02 716.04 955.57L716.52 955.43V961.84C716.52 961.84 798.02 966.18 801.4 965.21C804.78 964.24 822.62 942.55 822.62 942.55L843.35 830.67C843.35 830.67 842.39 820.08 830.33 832.14Z" fill="#2E112D"/>
<path d="M717.86 933.15L716.69 931.47H716.52C716.52 931.47 688.52 925.2 686.14 925.2C683.76 925.2 659.62 941.11 657.69 945.45C655.76 949.79 651.42 956.06 653.35 957.51C655.28 958.96 658.17 956.51 658.17 956.51C658.17 956.51 659.17 963.26 671.17 960.85C683.17 958.44 695.28 949.75 695.28 949.75C695.28 949.75 710.28 956.99 716.02 955.54L716.5 955.4V961.81L717.86 933.15Z" fill="#FFBC8E"/>
<path d="M832.63 1019H834.54C833.06 1015.51 831.77 1012.29 831.25 1010.55C829.7 1005.4 811.17 938.47 809.11 928.69C807.05 918.91 808.11 905.01 813.23 885.44C818.35 865.87 830.33 832.19 830.33 832.19L813.23 856.1C813.23 856.1 798.81 911.7 798.81 918.91C798.81 926.12 806.02 962.67 813.23 980.68C817.41 991.08 826.07 1007.22 832.63 1019Z" fill="#2E112D"/>
<path d="M838.05 818.63C838.05 818.63 820.21 846.63 815.38 865.89C810.55 885.15 806.7 902.06 806.7 919.42C806.7 936.78 826 986 828.89 992.24C831.78 998.48 863.13 1000.44 872.77 970.54C882.41 940.64 886.77 854.32 880.97 834.54C875.17 814.76 850.1 805.61 838.05 818.63Z" fill="white" stroke="#540032" stroke-linecap="round" stroke-linejoin="round"/>
<path d="M833 814.58C831.81 816.36 815.79 825.26 815.79 825.26L815.2 841.88L820 833L827.46 855L835.46 814L833 814.58Z" fill="#808080" stroke="#540032" stroke-linecap="round" stroke-linejoin="round"/>
<path d="M834.82 1019H966.12C961.8 1007.44 945.12 962.67 944.59 960.61C943.99 958.23 930.35 852.61 916.1 833.03C901.85 813.45 868.63 806.32 861.51 810.48C861.51 810.48 837.78 858.54 828.87 881.09C819.96 903.64 814 948.1 814 954.62C814 961.14 826.46 1002.1 826.46 1002.1L834.82 1019Z" fill="#2E112D"/>
<path d="M929.36 983.63L872.61 1000.54L876.23 1007.78L907.62 998.13" stroke="#540032" stroke-linecap="round" stroke-linejoin="round"/>
<path d="M805 731C805 731 800.44 745.08 800.33 748C800.278 750.159 800.341 752.318 800.52 754.47C800.579 755.628 800.301 756.777 799.72 757.78C798.72 759.3 788.12 769.57 789.38 771.62C790.64 773.67 798 781.88 798 781.88C798 781.88 803.16 806.48 810.06 809.31C816.96 812.14 826.72 810.41 826.72 810.41L830.25 820.01L873.34 805.89L872.68 791.72C872.68 791.72 877 766.5 872 748.37C867 730.24 823.94 710.51 805 731Z" fill="#FFBC8E"/>
<path d="M806.35 760C805.84 762.1 804.78 763.65 803.97 763.45C803.16 763.25 802.91 761.45 803.42 759.29C803.93 757.13 804.99 755.64 805.8 755.84C806.61 756.04 806.86 757.85 806.35 760Z" fill="#540032"/>
<path d="M803.3 750.39C803.3 750.39 809.3 748.59 811.73 755.21L803.3 750.39Z" fill="white"/>
<path d="M803.3 750.39C803.3 750.39 809.3 748.59 811.73 755.21" stroke="#540032" stroke-linecap="round" stroke-linejoin="round"/>
<path d="M799.08 785.33C799.08 785.33 803.9 790.15 812.33 787.14L799.08 785.33Z" fill="white"/>
<path d="M799.08 785.33C799.08 785.33 803.9 790.15 812.33 787.14" stroke="#540032" stroke-linecap="round" stroke-linejoin="round"/>
<path d="M831.4 696.55C830.019 693.19 827.828 690.225 825.023 687.918C822.217 685.611 818.883 684.035 815.32 683.33C803.05 680.96 794.25 698.1 797.32 704.68C800.39 711.26 801.79 712.76 795.88 713.09C789.97 713.42 778.67 728.78 788.65 738.19C798.63 747.6 810.65 734.19 811.23 738.97C811.81 743.75 810.23 748.06 815.99 748.29C821.75 748.52 831.26 747.88 829.78 751.61C828.3 755.34 828 764 833.48 765.34C838.96 766.68 842.39 759.9 846.25 760.83C850.11 761.76 855.25 774.11 851.92 780.83C848.59 787.55 846.2 787.62 845.8 789.28C845.4 790.94 856.09 802.28 867.08 800.28C878.07 798.28 892.36 794.7 894.08 782.85C895.8 771 892.31 768.41 896.82 764.24C901.33 760.07 905.72 758.8 904.42 752.07C903.12 745.34 898.98 743.17 900.31 737.65C901.64 732.13 896 706.88 872.4 695.93C848.8 684.98 831.4 696.55 831.4 696.55Z" fill="#540032" stroke="#540032" stroke-linecap="round" stroke-linejoin="round"/>
<path d="M877.85 792.56L823.53 824.08L827.43 855.01L885.41 808.94L877.85 792.56Z" fill="#2E112D"/>
<path d="M735.71 939.2C735.71 939.2 724.82 935.13 717.86 933.15C705.96 929.75 694.86 924.68 690.67 925.86C686.48 927.04 666.28 941 666.28 941C666.28 941 659.16 958.21 659.75 960.58C660.34 962.95 664.75 959.13 664.75 959.13C664.75 959.13 662.18 962.36 664.55 964.73C666.92 967.1 669.3 962.36 669.3 962.36C669.3 962.36 668.7 968.29 672.3 967.7C675.9 967.11 676.19 964.47 676.19 964.47C676.19 964.47 676.45 967.7 679.42 967.7C682.39 967.7 688.91 955.24 688.91 955.24L700.18 955.83C700.18 955.83 709.09 960.58 714.43 961.17C719.77 961.76 726.29 958.17 726.29 958.17L733.41 959.95L739.35 942.74L735.71 939.2Z" fill="#FFBC8E"/>
<path d="M664.71 959.11C664.71 959.11 670.77 944.55 671.71 943.58C672.65 942.61 684.82 935.82 684.82 935.82" stroke="#540032" stroke-linecap="round" stroke-linejoin="round"/>
<path d="M669.25 962.34C669.25 962.34 676.6 947.46 677.33 946.74C678.06 946.02 687.28 941.4 687.28 941.4" stroke="#540032" stroke-linecap="round" stroke-linejoin="round"/>
<path d="M676.11 964.45C676.11 964.45 683.11 950.86 684.36 950.13C685.61 949.4 688.73 947.71 688.73 947.71" stroke="#540032" stroke-linecap="round" stroke-linejoin="round"/>
<path d="M893 831.79C893 831.79 855.62 856.12 856.21 865.61C856.8 875.1 859.77 875.11 859.77 875.11L840.77 946.32C840.77 946.32 834.84 941.57 834.25 947.5L833.65 953.44L734.55 936.82L724.47 961.74C724.47 961.74 765.41 977.74 793.89 987.85C822.37 997.96 852.05 1009.22 855.01 1003.85C857.97 998.48 916.73 910.69 920.29 904.16C923.85 897.63 923.85 885.77 923.85 885.77" fill="#2E112D"/>
<path d="M859.73 875.11C859.73 875.11 871 852 898.3 850.18" stroke="#540032" stroke-linecap="round" stroke-linejoin="round"/>
<path d="M1147.06 157.28V631.39C1147.06 635.899 1145.27 640.223 1142.08 643.411C1138.89 646.599 1134.57 648.39 1130.06 648.39H469.9C465.4 648.377 461.089 646.58 457.912 643.393C454.734 640.206 452.95 635.89 452.95 631.39V157.31C452.947 151.564 455.227 146.053 459.286 141.987C463.346 137.922 468.854 135.635 474.6 135.63H1125.38C1131.13 135.627 1136.64 137.906 1140.7 141.966C1144.77 146.026 1147.05 151.534 1147.06 157.28Z" fill="#DFE9EF"/>
<path d="M1147.05 210.26H452.94V157.26C452.94 154.414 453.501 151.596 454.59 148.967C455.679 146.338 457.275 143.949 459.287 141.937C461.299 139.925 463.688 138.329 466.317 137.24C468.946 136.151 471.764 135.59 474.61 135.59H1125.38C1128.23 135.59 1131.04 136.151 1133.67 137.24C1136.3 138.329 1138.69 139.925 1140.7 141.937C1142.72 143.949 1144.31 146.338 1145.4 148.967C1146.49 151.596 1147.05 154.414 1147.05 157.26V210.26Z" fill="#2E112D"/>
<path d="M572.33 172.94C572.332 170.673 573.006 168.458 574.267 166.575C575.528 164.691 577.319 163.224 579.414 162.359C581.508 161.493 583.813 161.268 586.036 161.712C588.258 162.156 590.299 163.25 591.9 164.854C593.502 166.458 594.591 168.501 595.032 170.724C595.472 172.947 595.243 175.251 594.374 177.345C593.505 179.438 592.034 181.227 590.148 182.484C588.263 183.742 586.047 184.412 583.78 184.41C582.274 184.411 580.783 184.115 579.392 183.539C578.001 182.963 576.737 182.118 575.674 181.052C574.61 179.987 573.767 178.721 573.193 177.329C572.619 175.937 572.326 174.446 572.33 172.94Z" fill="#254F7A"/>
<path d="M528.22 172.94C528.222 170.674 528.896 168.459 530.156 166.576C531.417 164.693 533.207 163.225 535.301 162.359C537.396 161.494 539.7 161.268 541.922 161.711C544.144 162.155 546.185 163.247 547.787 164.85C549.389 166.453 550.479 168.495 550.921 170.718C551.362 172.941 551.134 175.244 550.267 177.338C549.399 179.431 547.93 181.221 546.046 182.479C544.161 183.738 541.946 184.41 539.68 184.41C538.174 184.411 536.682 184.115 535.291 183.539C533.899 182.963 532.635 182.118 531.57 181.053C530.506 179.987 529.662 178.722 529.087 177.33C528.512 175.938 528.217 174.446 528.22 172.94Z" fill="#F9B200"/>
<path d="M484.11 172.94C484.112 170.674 484.786 168.459 486.046 166.576C487.307 164.693 489.097 163.225 491.191 162.359C493.286 161.494 495.589 161.268 497.812 161.711C500.034 162.155 502.075 163.247 503.677 164.85C505.279 166.453 506.369 168.495 506.811 170.718C507.252 172.941 507.024 175.244 506.157 177.338C505.289 179.431 503.82 181.221 501.936 182.479C500.051 183.738 497.836 184.41 495.57 184.41C494.064 184.411 492.572 184.115 491.181 183.539C489.789 182.963 488.525 182.118 487.46 181.053C486.396 179.987 485.552 178.722 484.977 177.33C484.402 175.938 484.107 174.446 484.11 172.94Z" fill="white"/>
<path d="M1092.43 164.57L1098.1 158.9L1106.21 167L1114.32 158.9L1119.99 164.57L1111.88 172.67L1119.99 180.78L1114.32 186.45L1106.21 178.34L1098.1 186.45L1092.43 180.78L1100.54 172.67L1092.43 164.57Z" fill="white"/>
<path d="M692.73 309.41V310.3L619.28 309.53L655.88 247.53L659.25 249.22C669.571 255.488 678.085 264.332 683.955 274.885C689.824 285.437 692.848 297.335 692.73 309.41Z" fill="#2E112D"/>
<path d="M512.35 327.35C512.35 328.56 512.35 329.75 512.42 330.92C512.608 335.364 513.217 339.781 514.24 344.11C515.932 351.23 518.704 358.049 522.46 364.33C523.746 366.496 525.151 368.59 526.67 370.6C526.88 370.86 527.07 371.13 527.29 371.4C537.99 385.24 553.63 394.86 571.52 396.77C580.122 397.756 588.814 397.652 597.39 396.46C597.92 396.38 598.44 396.31 598.96 396.22C633.17 390.45 649.06 365.22 653.39 341.61C653.48 341.1 653.57 340.61 653.64 340.07C654.135 337.122 654.449 334.146 654.58 331.16C654.64 330.16 654.67 329.06 654.69 328.01L591.47 327.28H589.93H585.82L577.82 273.28L577.6 271.77L577.53 271.25L576.91 267.13L575.65 258.67L571.07 259.58C540.77 263.96 516.87 288.81 512.97 318.79C512.596 321.629 512.389 324.487 512.35 327.35Z" fill="#F9B200"/>
<path d="M594.22 318.26L583.38 244L587.94 243.09C603.732 240.769 619.84 244.026 633.49 252.3L594.22 318.26Z" fill="#254F7A"/>
<path d="M718.23 259.57V265.69H780.99L781.06 259.57H718.23Z" fill="#254F7A"/>
<path d="M718.23 277.98V284.09H831.62L831.69 277.98H718.23Z" fill="#254F7A"/>
<path d="M718.23 296.38V302.5H823.51L823.58 296.38H718.23Z" fill="#254F7A"/>
<path d="M787.55 265.69H806.93L807 259.57H787.63L787.55 265.69Z" fill="#254F7A"/>
<path d="M718.23 313.58V319.7H780.99L781.06 313.58H718.23Z" fill="#254F7A"/>
<path d="M718.23 331.99V338.11H831.62L831.69 331.99H718.23Z" fill="#254F7A"/>
<path d="M718.23 350.4V356.52H823.51L823.58 350.4H718.23Z" fill="#254F7A"/>
<path d="M787.55 319.7H806.93L807 313.58H787.63L787.55 319.7Z" fill="#254F7A"/>
<path d="M992.84 358.71H952.5V395.8H992.84V358.71Z" fill="#254F7A"/>
<path d="M934.83 372.88H894.49V395.8H934.83V372.88Z" fill="#F9B200"/>
<path d="M1048.07 335.24H1007.73V395.8H1048.07V335.24Z" fill="#2E112D"/>
<path d="M1103.3 312.19H1062.96V395.8H1103.3V312.19Z" fill="#F9B200"/>
<path d="M890.19 357.86C889.506 357.924 888.822 357.751 888.25 357.37C887.948 357.175 887.69 356.918 887.493 356.617C887.296 356.316 887.164 355.977 887.105 355.622C887.047 355.267 887.063 354.904 887.154 354.556C887.244 354.207 887.406 353.882 887.63 353.6L916 317.23C916.401 316.727 916.952 316.367 917.573 316.201C918.194 316.035 918.852 316.074 919.45 316.31L952.98 329.31L979.33 286.7C979.545 286.359 979.828 286.066 980.162 285.841C980.496 285.615 980.873 285.462 981.27 285.39C981.67 285.31 982.082 285.312 982.48 285.396C982.879 285.48 983.257 285.645 983.59 285.88L1016.89 309.65L1036.47 266.11C1036.63 265.762 1036.86 265.45 1037.15 265.193C1037.43 264.935 1037.77 264.737 1038.13 264.61C1038.87 264.342 1039.69 264.378 1040.41 264.71L1071.41 278.85L1092.41 247.01C1092.84 246.377 1093.49 245.93 1094.23 245.759C1094.97 245.588 1095.75 245.706 1096.41 246.09C1096.73 246.258 1097.01 246.491 1097.23 246.773C1097.45 247.056 1097.61 247.381 1097.7 247.73C1097.79 248.078 1097.81 248.441 1097.75 248.796C1097.69 249.151 1097.56 249.49 1097.36 249.79L1074.98 283.79C1074.58 284.372 1073.98 284.791 1073.29 284.974C1072.61 285.157 1071.88 285.092 1071.24 284.79L1040.59 270.79L1020.74 314.92C1020.56 315.311 1020.29 315.655 1019.96 315.929C1019.63 316.202 1019.24 316.398 1018.82 316.5C1018.39 316.608 1017.95 316.624 1017.52 316.546C1017.08 316.468 1016.67 316.299 1016.31 316.05L982.66 292.05L956.66 334.05C956.285 334.633 955.719 335.069 955.059 335.282C954.399 335.496 953.686 335.474 953.04 335.22L919.26 322.15L892.26 356.78C892.007 357.092 891.693 357.349 891.337 357.535C890.981 357.721 890.591 357.832 890.19 357.86Z" fill="#F9B200"/>
<path d="M1102.25 263.16C1101.6 263.226 1100.94 263.062 1100.39 262.697C1099.84 262.332 1099.44 261.789 1099.25 261.16L1095.63 246.97L1078.29 252.47C1077.58 252.713 1076.81 252.673 1076.13 252.36C1075.45 252.047 1074.92 251.485 1074.65 250.79C1074.54 250.444 1074.49 250.079 1074.53 249.717C1074.56 249.354 1074.66 249.002 1074.84 248.681C1075.01 248.361 1075.24 248.078 1075.53 247.851C1075.81 247.624 1076.14 247.457 1076.49 247.36L1096.81 240.91C1097.19 240.787 1097.58 240.739 1097.98 240.77C1098.37 240.801 1098.76 240.91 1099.11 241.09C1099.45 241.261 1099.75 241.502 1100 241.799C1100.24 242.096 1100.41 242.44 1100.51 242.81L1104.87 259.81C1104.95 260.166 1104.96 260.535 1104.89 260.893C1104.83 261.252 1104.69 261.595 1104.49 261.9C1104.29 262.206 1104.03 262.468 1103.73 262.673C1103.43 262.877 1103.09 263.019 1102.73 263.09C1102.57 263.125 1102.41 263.148 1102.25 263.16Z" fill="#F9B200"/>
<path d="M538.25 613.72H1103.54C1103.54 613.72 1104.11 494.16 1069.46 496.97C1034.81 499.78 1036.55 574.8 1011.64 581.83C986.73 588.86 960.44 521.83 927.1 523.69C906.4 524.85 873.49 571.6 849.59 571.99C820.11 572.45 799.76 539.63 772.78 542.53C757.71 544.15 728.9 580.08 636.84 573.2C608.99 571.12 580.94 577.71 561.84 591.4C545.46 603.16 538.25 613.72 538.25 613.72Z" fill="#F9B200"/>
<path d="M841.79 489.23H544.5C538.98 489.23 534.5 485.92 534.5 481.84C534.5 477.77 538.98 474.46 544.5 474.46H841.79C847.31 474.46 851.79 477.77 851.79 481.84C851.8 485.92 847.31 489.23 841.79 489.23Z" fill="#F9B200"/>
<path d="M747.63 511.69H544.5C538.98 511.69 534.5 508.38 534.5 504.3C534.5 500.22 538.98 496.92 544.5 496.92H747.63C753.15 496.92 757.63 500.22 757.63 504.3C757.64 508.38 753.15 511.69 747.63 511.69Z" fill="#254F7A"/>
<g opacity="0.45">
<path d="M1328.81 138.27H1205.23V261.85H1328.81V138.27Z" fill="#DBDBDB"/>
<path d="M1309.64 157.42H1224.38V242.68H1309.64V157.42Z" fill="white"/>
<path d="M1309.65 157.43H1224.38V242.69L1309.65 157.43Z" fill="#EBEBEB"/>
<path d="M1205.23 138.27H1193.16V261.85H1205.23V138.27Z" fill="#C7C7C7"/>
<path d="M1481.79 138.27H1358.21V261.85H1481.79V138.27Z" fill="#DBDBDB"/>
<path d="M1462.63 157.42H1377.37V242.68H1462.63V157.42Z" fill="white"/>
<path d="M1437.58 157.43H1377.37V217.63L1437.58 157.43Z" fill="#EBEBEB"/>
<path d="M1358.22 138.27H1346.15V261.85H1358.22V138.27Z" fill="#C7C7C7"/>
<path d="M1490.57 305.23H1214.01V429H1490.57V305.23Z" fill="#DBDBDB"/>
<path d="M1470.39 318.01H1234.22V411.19H1470.39V318.01Z" fill="white"/>
</g>
<path d="M561.585 759.603L553.864 767.325L559.676 773.137L567.398 765.415L561.585 759.603Z" fill="#2E112D"/>
<path d="M580.58 772.84C595.171 772.84 607 761.011 607 746.42C607 731.829 595.171 720 580.58 720C565.989 720 554.16 731.829 554.16 746.42C554.16 761.011 565.989 772.84 580.58 772.84Z" fill="#A1A7AD"/>
<path d="M580.58 765.1C590.897 765.1 599.26 756.737 599.26 746.42C599.26 736.103 590.897 727.74 580.58 727.74C570.263 727.74 561.9 736.103 561.9 746.42C561.9 756.737 570.263 765.1 580.58 765.1Z" fill="#49494A"/>
<path d="M552.007 765.468L547.623 769.852L557.162 779.391L561.546 775.007L552.007 765.468Z" fill="#A1A7AD"/>
<path d="M548.771 771.015L526.151 793.635L533.377 800.862L555.998 778.242L548.771 771.015Z" fill="#2E112D"/>
<path d="M580.58 770.1C575.101 770.102 569.792 768.204 565.555 764.73C561.319 761.256 558.419 756.421 557.348 751.048C556.277 745.675 557.103 740.097 559.684 735.264C562.265 730.431 566.442 726.643 571.503 724.545C576.564 722.447 582.195 722.169 587.439 723.758C592.682 725.346 597.212 728.704 600.257 733.259C603.302 737.813 604.674 743.282 604.138 748.735C603.602 754.187 601.193 759.285 597.32 763.16C595.127 765.366 592.518 767.115 589.645 768.306C586.772 769.497 583.691 770.107 580.58 770.1ZM580.58 723.55C575.289 723.549 570.161 725.383 566.071 728.739C561.98 732.095 559.18 736.766 558.147 741.955C557.114 747.145 557.912 752.532 560.406 757.198C562.9 761.865 566.934 765.523 571.823 767.548C576.711 769.573 582.15 769.841 587.213 768.306C592.277 766.771 596.651 763.527 599.591 759.128C602.531 754.729 603.855 749.446 603.337 744.181C602.819 738.915 600.491 733.992 596.75 730.25C594.632 728.12 592.112 726.43 589.336 725.28C586.56 724.13 583.584 723.542 580.58 723.55Z" fill="#49494A"/>
<path d="M268.804 362.088L267.988 362.94L273.728 368.44L274.544 367.589L268.804 362.088Z" fill="#49494A"/>
<path d="M291.55 361.83L290.38 361.6L290.72 359.91L291.88 360.15L291.55 361.83ZM292.12 358.98L290.96 358.75L291.42 356.43L292.58 356.66L292.12 358.98ZM292.82 355.5L291.65 355.27L292.12 352.94L293.28 353.18L292.82 355.5ZM293.51 352.01L292.35 351.78L292.82 349.46L293.98 349.69L293.51 352.01ZM294.21 348.53L293.05 348.3L293.52 345.97L294.68 346.21L294.21 348.53ZM294.91 345.04L293.75 344.81L294.21 342.49L295.38 342.72L294.91 345.04Z" fill="#49494A"/>
<path d="M310.334 352.196L297.595 365.138L298.435 365.966L311.175 353.024L310.334 352.196Z" fill="#49494A"/>
<path d="M299.721 384.97L299.142 385.998L316.714 395.899L317.293 394.871L299.721 384.97Z" fill="#49494A"/>
<path d="M273.794 384.953L256.65 396.837L257.322 397.807L274.466 385.923L273.794 384.953Z" fill="#49494A"/>
<path d="M287.28 361.72C283.952 361.718 280.699 362.703 277.932 364.55C275.164 366.398 273.007 369.025 271.732 372.099C270.458 375.172 270.124 378.555 270.773 381.819C271.421 385.083 273.024 388.081 275.376 390.434C277.729 392.786 280.727 394.389 283.991 395.037C287.255 395.686 290.637 395.352 293.711 394.078C296.785 392.803 299.412 390.646 301.259 387.878C303.107 385.111 304.092 381.858 304.09 378.53C304.087 374.072 302.315 369.798 299.164 366.646C296.012 363.495 291.737 361.723 287.28 361.72ZM287.28 389.79C285.053 389.792 282.875 389.133 281.022 387.897C279.169 386.661 277.724 384.903 276.87 382.846C276.016 380.789 275.792 378.524 276.225 376.339C276.658 374.155 277.73 372.147 279.304 370.572C280.879 368.996 282.885 367.922 285.07 367.487C287.254 367.052 289.519 367.274 291.577 368.126C293.635 368.978 295.394 370.421 296.632 372.273C297.869 374.125 298.53 376.303 298.53 378.53C298.53 381.515 297.345 384.377 295.236 386.488C293.126 388.6 290.265 389.787 287.28 389.79Z" fill="#254F7A"/>
<path d="M287.28 389.79C285.774 389.835 284.274 389.577 282.869 389.032C281.464 388.486 280.183 387.664 279.102 386.615C278.021 385.565 277.161 384.309 276.574 382.922C275.987 381.534 275.684 380.042 275.684 378.535C275.684 377.028 275.987 375.537 276.574 374.149C277.161 372.761 278.021 371.505 279.102 370.455C280.183 369.406 281.464 368.584 282.869 368.039C284.274 367.493 285.774 367.235 287.28 367.28V361.72C285.037 361.665 282.806 362.06 280.718 362.88C278.63 363.701 276.728 364.931 275.122 366.497C273.517 368.064 272.241 369.936 271.37 372.004C270.499 374.071 270.05 376.292 270.05 378.535C270.05 380.778 270.499 382.999 271.37 385.066C272.241 387.134 273.517 389.006 275.122 390.573C276.728 392.14 278.63 393.369 280.718 394.19C282.806 395.01 285.037 395.405 287.28 395.35V389.79Z" fill="#2E112D"/>
<path d="M263.85 350.56C262.492 350.558 261.165 350.959 260.035 351.712C258.905 352.465 258.025 353.536 257.504 354.79C256.984 356.044 256.847 357.424 257.111 358.756C257.376 360.088 258.029 361.311 258.989 362.271C259.949 363.231 261.173 363.884 262.504 364.149C263.836 364.413 265.216 364.276 266.47 363.756C267.724 363.236 268.795 362.355 269.548 361.225C270.301 360.095 270.702 358.768 270.7 357.41C270.697 355.594 269.975 353.853 268.691 352.569C267.407 351.285 265.666 350.563 263.85 350.56ZM263.85 360.89C263.161 360.892 262.488 360.69 261.914 360.308C261.34 359.927 260.893 359.384 260.628 358.749C260.363 358.113 260.293 357.413 260.426 356.737C260.559 356.062 260.889 355.441 261.376 354.953C261.862 354.465 262.482 354.133 263.157 353.998C263.833 353.863 264.533 353.931 265.169 354.194C265.806 354.457 266.35 354.903 266.733 355.476C267.116 356.048 267.32 356.721 267.32 357.41C267.32 358.331 266.955 359.215 266.304 359.867C265.654 360.52 264.771 360.887 263.85 360.89Z" fill="#2E112D"/>
<path d="M263.85 362C263.23 362.029 262.61 361.932 262.029 361.714C261.447 361.497 260.916 361.164 260.467 360.735C260.018 360.307 259.66 359.792 259.416 359.221C259.172 358.65 259.046 358.036 259.046 357.415C259.046 356.794 259.172 356.18 259.416 355.609C259.66 355.038 260.018 354.523 260.467 354.094C260.916 353.666 261.447 353.333 262.029 353.115C262.61 352.898 263.23 352.801 263.85 352.83V350.56C262.928 350.525 262.008 350.676 261.145 351.005C260.283 351.333 259.496 351.832 258.831 352.472C258.166 353.112 257.637 353.88 257.276 354.729C256.914 355.579 256.728 356.492 256.728 357.415C256.728 358.338 256.914 359.251 257.276 360.101C257.637 360.95 258.166 361.717 258.831 362.357C259.496 362.997 260.283 363.497 261.145 363.825C262.008 364.154 262.928 364.305 263.85 364.27V362Z" fill="#820333"/>
<path d="M302.115 343.217C303.06 339.173 300.547 335.128 296.503 334.184C292.458 333.239 288.414 335.751 287.469 339.796C286.524 343.84 289.037 347.884 293.081 348.829C297.125 349.774 301.17 347.262 302.115 343.217Z" fill="#820333"/>
<path d="M264.51 397.34C264.51 398.827 264.069 400.281 263.243 401.518C262.416 402.755 261.242 403.718 259.868 404.288C258.494 404.857 256.982 405.006 255.523 404.716C254.064 404.425 252.724 403.709 251.673 402.658C250.621 401.606 249.905 400.266 249.615 398.807C249.324 397.348 249.473 395.836 250.042 394.462C250.612 393.088 251.575 391.914 252.812 391.087C254.049 390.261 255.503 389.82 256.99 389.82C258.984 389.82 260.897 390.612 262.307 392.023C263.718 393.433 264.51 395.346 264.51 397.34Z" fill="#A1A7AD"/>
<path d="M311.271 356.883C313.606 356.595 315.265 354.468 314.977 352.133C314.688 349.798 312.562 348.139 310.227 348.427C307.892 348.715 306.233 350.842 306.521 353.177C306.809 355.512 308.936 357.171 311.271 356.883Z" fill="#A1A7AD"/>
<path d="M321.25 395.35C321.252 396.194 321.004 397.019 320.536 397.721C320.069 398.423 319.404 398.97 318.625 399.294C317.846 399.618 316.989 399.703 316.161 399.539C315.334 399.375 314.574 398.969 313.978 398.372C313.381 397.776 312.975 397.016 312.811 396.189C312.647 395.361 312.733 394.504 313.056 393.725C313.38 392.946 313.927 392.281 314.63 391.814C315.332 391.347 316.157 391.098 317 391.1C318.127 391.1 319.208 391.548 320.005 392.345C320.802 393.142 321.25 394.223 321.25 395.35Z" fill="#A1A7AD"/>
<path d="M1477 1017.04H155V1020.93H1477V1017.04Z" fill="#2E112D"/>
<path d="M1349.88 915.02V744.48" stroke="#5E5E5E" stroke-width="4" stroke-miterlimit="10"/>
<path d="M1328.65 918.47V682.93" stroke="#5E5E5E" stroke-width="4" stroke-miterlimit="10"/>
<path d="M1376.78 919.62V836.89" stroke="#5E5E5E" stroke-width="4" stroke-miterlimit="10"/>
<path d="M1320.41 706.15C1320.41 706.15 1316.15 698.35 1301.96 681.32C1287.77 664.29 1228.87 618.16 1228.87 618.16C1228.87 618.16 1262.22 635.9 1272.87 645.16C1283.52 654.42 1297.71 665.74 1297.71 665.74C1297.71 665.74 1257.97 622.46 1253.71 619.62C1249.45 616.78 1294.16 653.68 1294.16 653.68C1294.16 653.68 1277.16 619.62 1268.61 608.26C1260.06 596.9 1243.78 569.94 1243.78 569.94C1243.78 569.94 1289.91 631.68 1292.03 635.23C1294.15 638.78 1303.39 654.39 1303.39 654.39L1287.07 611.81L1306.94 646.58C1306.94 646.58 1278.55 587.68 1277.13 584.84C1275.71 582 1297 612.48 1297 612.48L1278.55 557.13L1321.13 644.41L1318.29 610.35L1326.1 645.83L1328.23 558.55L1333.23 645.12C1333.23 645.12 1341.04 589.77 1342.46 578.42C1343.88 567.07 1344.59 555 1344.59 555C1344.59 555 1343.17 630.22 1343.17 632.35C1343.17 634.48 1341.75 651.51 1341.75 651.51L1355.23 611.06C1358.07 602.55 1360.91 573.45 1362.33 569.19C1363.75 564.93 1355.23 634.48 1354.52 637.32C1353.26 641.956 1351.58 646.47 1349.52 650.81C1347.4 655.06 1365.14 625.26 1371.52 612.48L1389.98 575.58C1389.98 575.58 1379.33 611.07 1376.49 617.45C1373.65 623.83 1355.2 657.9 1355.2 657.9C1355.2 657.9 1382.88 625.26 1394.94 616.74C1407 608.22 1429 591.9 1429 591.9C1429 591.9 1393.52 630.23 1386.42 637.32C1379.32 644.41 1358.74 669.26 1358.74 669.26C1358.74 669.26 1394.22 646.55 1396.35 644.42C1398.48 642.29 1424 626 1424 626C1424 626 1372.49 666.69 1370.07 669.29C1349.49 691.29 1342.39 701.93 1338.13 706.19C1333.87 710.45 1326.8 712.54 1320.41 706.15Z" fill="#FFC800"/>
<path d="M1344.9 768.36C1344.9 768.36 1341.9 762.84 1331.85 750.8C1321.8 738.76 1280.15 706.12 1280.15 706.12C1280.15 706.12 1303.74 718.67 1311.27 725.19C1318.8 731.71 1328.84 739.75 1328.84 739.75C1328.84 739.75 1300.73 709.13 1297.72 707.13C1294.71 705.13 1326.33 731.22 1326.33 731.22C1326.33 731.22 1314.33 707.13 1308.26 699.1C1302.19 691.07 1290.69 672 1290.69 672C1290.69 672 1323.32 715.67 1324.82 718.18C1326.32 720.69 1332.82 731.73 1332.82 731.73L1321.27 701.61L1335.33 726.21C1335.33 726.21 1315.25 684.55 1314.24 682.54C1313.23 680.53 1328.3 702.11 1328.3 702.11L1315.3 662.96L1345.42 724.7L1343.42 700.61L1348.94 725.71L1350.45 663.97L1353.96 725.2C1353.96 725.2 1359.48 686.05 1360.49 678.02C1361.5 669.99 1361.99 661.45 1361.99 661.45C1361.99 661.45 1360.99 714.66 1360.99 716.17C1360.99 717.68 1359.99 729.72 1359.99 729.72L1369.53 701.11C1371.53 695.11 1373.53 674.51 1374.53 671.5C1375.53 668.49 1369.53 717.68 1369.01 719.68C1368.12 722.957 1366.95 726.149 1365.5 729.22C1363.99 732.22 1376.5 711.15 1381.06 702.11L1394.06 676.01C1394.06 676.01 1386.53 701.11 1384.52 705.63C1382.51 710.15 1369.46 734.24 1369.46 734.24C1369.46 734.24 1389.04 711.15 1397.57 705.13C1406.1 699.11 1421.67 687.56 1421.67 687.56C1421.67 687.56 1396.57 714.66 1391.55 719.68C1386.53 724.7 1372 742.26 1372 742.26C1372 742.26 1397.1 726.2 1398.61 724.69C1400.12 723.18 1418.18 711.64 1418.18 711.64C1418.18 711.64 1381.75 740.43 1380.03 742.26C1365.48 757.82 1360.46 765.35 1357.45 768.36C1354.44 771.37 1349.42 772.88 1344.9 768.36Z" fill="#FFC800"/>
<path d="M1370.45 840C1370.45 840 1367.45 834.48 1357.45 822.43C1347.45 810.38 1305.75 777.75 1305.75 777.75C1305.75 777.75 1329.34 790.3 1336.87 796.83C1344.4 803.36 1354.44 811.38 1354.44 811.38C1354.44 811.38 1326.33 780.77 1323.32 778.76C1320.31 776.75 1351.93 802.85 1351.93 802.85C1351.93 802.85 1339.88 778.76 1333.86 770.73C1327.84 762.7 1316.29 743.62 1316.29 743.62C1316.29 743.62 1348.92 787.29 1350.43 789.8C1351.94 792.31 1358.43 803.35 1358.43 803.35L1346.88 773.24L1360.94 797.83C1360.94 797.83 1340.86 756.17 1339.85 754.16C1338.84 752.15 1353.91 773.74 1353.91 773.74L1340.86 734.58L1371 796.36L1369 772.27L1374.52 797.37L1376.03 735.63L1379.54 796.86C1379.54 796.86 1385.06 757.71 1386.07 749.68C1387.08 741.65 1387.57 733.11 1387.57 733.11C1387.57 733.11 1386.57 786.32 1386.57 787.83C1386.57 789.34 1385.57 801.38 1385.57 801.38L1395.11 772.77C1397.11 766.77 1399.11 746.16 1400.11 743.15C1401.11 740.14 1395.11 789.33 1394.59 791.34C1393.7 794.617 1392.53 797.809 1391.08 800.88C1389.57 803.88 1402.08 782.81 1406.64 773.77C1411.2 764.73 1419.69 747.67 1419.69 747.67C1419.69 747.67 1412.16 772.77 1410.15 777.29C1408.14 781.81 1395.09 805.9 1395.09 805.9C1395.09 805.9 1414.67 782.81 1423.2 776.78C1431.73 770.75 1447.29 759.21 1447.29 759.21C1447.29 759.21 1422.19 786.32 1417.17 791.34C1412.15 796.36 1397.6 813.93 1397.6 813.93C1397.6 813.93 1422.7 797.86 1424.2 796.36C1425.7 794.86 1443.78 783.31 1443.78 783.31C1443.78 783.31 1407.34 812.1 1405.63 813.93C1391 829.49 1386 837 1383 840C1380 843 1375 844.56 1370.45 840Z" fill="#FFC800"/>
<path d="M1396.22 1020.79C1400.28 1005.8 1402.3 990.324 1402.22 974.79C1402.22 971.87 1402.15 968.96 1402.02 966.1C1401.7 958.846 1400.92 951.619 1399.71 944.46C1399.26 941.83 1398.77 939.25 1398.21 936.73C1397.75 934.63 1397.21 932.57 1396.72 930.55C1394.43 921.625 1391.13 912.989 1386.88 904.81H1313.28C1309.04 912.989 1305.74 921.625 1303.45 930.55C1302.91 932.55 1302.45 934.63 1301.95 936.73C1301.39 939.25 1300.95 941.83 1300.45 944.46C1299.24 951.62 1298.48 958.847 1298.15 966.1C1298.01 968.96 1297.95 971.86 1297.95 974.79C1297.87 990.323 1299.89 1005.8 1303.95 1020.79H1396.22Z" fill="#540032" stroke="#540032" stroke-miterlimit="10"/>
<path d="M1396.71 930.58H1303.45C1302.91 932.58 1302.41 934.64 1301.95 936.76H1398.21C1397.75 934.66 1397.25 932.6 1396.71 930.58ZM1399.71 944.49H1300.45C1299.24 951.649 1298.47 958.876 1298.15 966.13H1402C1401.68 958.877 1400.91 951.65 1399.71 944.49Z" fill="#540032" stroke="#540032" stroke-miterlimit="10"/>
<path d="M1283.58 212.03C1298.8 196.803 1298.8 172.116 1283.58 156.89C1268.35 141.663 1243.66 141.663 1228.44 156.89C1213.21 172.116 1213.21 196.803 1228.44 212.03C1243.66 227.256 1268.35 227.256 1283.58 212.03Z" fill="#2E112D"/>
<path d="M1256 184.46L1275.08 150.46C1281.12 153.849 1286.15 158.785 1289.64 164.761C1293.14 170.736 1294.99 177.535 1294.99 184.46H1256Z" fill="#820333"/>
<path d="M1256 184.46H1295C1295 192.578 1292.46 200.494 1287.75 207.104C1283.04 213.713 1276.38 218.686 1268.7 221.33L1256 184.46Z" fill="#E3EAFC"/>
<path d="M1494.39 590.2L1462.31 571.68V534.68L1494.39 516.16L1526.47 534.68V571.68L1526.17 571.86L1494.39 590.2ZM1463.51 571L1494.39 588.83L1525.27 571V535.33L1494.39 517.51L1463.51 535.33V571Z" fill="#49494A"/>
<path d="M1463.5 571.29L1462.95 570.68L1464.5 568L1465.24 568.43L1463.69 571.11L1463.42 570.95L1463.56 571.26L1463.5 571.29ZM1524.57 570.96L1521.75 569.69L1522.1 568.91L1524.42 569.91L1523.08 567.59L1523.82 567.16L1525.37 569.83L1524.87 570.12H1524.92L1524.57 570.96ZM1465.12 570.55L1464.77 569.77L1467.59 568.5L1467.94 569.28L1465.12 570.55ZM1520.18 568.98L1517.37 567.71L1517.72 566.92L1520.54 568.2L1520.18 568.98ZM1469.51 568.57L1469.15 567.79L1471.97 566.51L1472.32 567.3L1469.51 568.57ZM1515.8 567L1512.98 565.73L1513.34 564.94L1516.15 566.22L1515.8 567ZM1466.1 566.94L1465.35 566.51L1466.9 563.84L1467.64 564.27L1466.1 566.94ZM1473.89 566.59L1473.54 565.81L1476.35 564.53L1476.71 565.32L1473.89 566.59ZM1522.22 566.14L1520.67 563.46L1521.42 563.03L1522.96 565.71L1522.22 566.14ZM1511.42 565.02L1508.6 563.74L1508.95 562.96L1511.77 564.23L1511.42 565.02ZM1478.27 564.61L1477.92 563.82L1480.74 562.55L1481.09 563.33L1478.27 564.61ZM1507 563L1504.19 561.72L1504.54 560.94L1507.36 562.21L1507 563ZM1468.47 562.74L1467.73 562.31L1469.28 559.63L1470.02 560.06L1468.47 562.74ZM1482.62 562.59L1482.27 561.8L1485.09 560.53L1485.44 561.31L1482.62 562.59ZM1519.78 561.93L1518.24 559.25L1518.98 558.83L1520.53 561.5L1519.78 561.93ZM1502.62 561.01L1499.8 559.74L1500.16 558.96L1502.97 560.23L1502.62 561.01ZM1487.01 560.6L1486.65 559.82L1489.47 558.55L1489.83 559.33L1487.01 560.6ZM1498.24 559.03L1495.42 557.76L1495.77 556.98L1498.59 558.25L1498.24 559.03ZM1491.39 558.62L1491.04 557.84L1493.85 556.57L1494.21 557.35L1491.39 558.62ZM1470.88 558.62L1470.13 558.19L1471.68 555.52L1472.42 555.95L1470.88 558.62ZM1517.38 557.82L1515.83 555.14L1516.58 554.71L1518.12 557.39L1517.38 557.82ZM1473.28 554.46L1472.54 554.03L1474.09 551.35L1474.83 551.78L1473.28 554.46ZM1514.97 553.65L1513.43 550.97L1514.17 550.54L1515.72 553.22L1514.97 553.65ZM1475.69 550.29L1474.95 549.86L1476.49 547.18L1477.24 547.61L1475.69 550.29ZM1512.57 549.49L1511.02 546.81L1511.77 546.38L1513.31 549.06L1512.57 549.49ZM1478.09 546.13L1477.35 545.7L1478.9 543.02L1479.64 543.45L1478.09 546.13ZM1510.16 545.32L1508.62 542.64L1509.36 542.21L1510.91 544.89L1510.16 545.32ZM1480.53 542L1479.79 541.57L1481.33 538.89L1482.08 539.32L1480.53 542ZM1507.79 541.19L1506.24 538.52L1506.98 538.09L1508.53 540.76L1507.79 541.19ZM1482.93 537.83L1482.19 537.4L1483.74 534.73L1484.48 535.16L1482.93 537.83ZM1505.38 537.03L1503.84 534.35L1504.58 533.92L1506.13 536.6L1505.38 537.03ZM1485.38 533.67L1484.64 533.24L1486.18 530.56L1486.93 530.99L1485.38 533.67ZM1503.02 532.86L1501.47 530.18L1502.21 529.76L1503.76 532.43L1503.02 532.86ZM1487.78 529.5L1487 529L1488.55 526.33L1489.29 526.76L1487.78 529.5ZM1500.61 528.7L1499 526L1499.74 525.57L1501.29 528.25L1500.61 528.7ZM1490.19 525.34L1489.45 524.91L1490.99 522.23L1491.74 522.66L1490.19 525.34ZM1498.19 524.53L1496.64 521.85L1497.38 521.42L1498.93 524.1L1498.19 524.53ZM1492.57 521.17L1491.83 520.74L1493.38 518.06L1494.12 518.49L1492.57 521.17ZM1495.78 520.37L1494.24 517.69L1494.98 517.26L1496.53 519.94L1495.78 520.37Z" fill="#49494A"/>
<path d="M1495 589.38L1494.26 588.96L1495.8 586.28L1496.55 586.71L1495 589.38ZM1493.4 588.58L1491.85 585.9L1492.59 585.47L1494.14 588.15L1493.4 588.58ZM1497.4 585.22L1496.66 584.79L1498.21 582.11L1498.95 582.54L1497.4 585.22ZM1490.99 584.41L1489.45 581.73L1490.19 581.31L1491.74 583.98L1490.99 584.41ZM1499.81 581.05L1499.07 580.62L1500.61 577.95L1501.36 578.38L1499.81 581.05ZM1488.59 580.25L1487.04 577.57L1487.78 577.14L1489.33 579.82L1488.59 580.25ZM1502.21 576.89L1501.47 576.46L1503.02 573.78L1503.76 574.21L1502.21 576.89ZM1486.21 576.08L1484.67 573.4L1485.41 572.97L1486.96 575.65L1486.21 576.08ZM1504.65 572.72L1503.91 572.29L1505.45 569.61L1506.2 570.04L1504.65 572.72ZM1483.81 571.92L1482.26 569.24L1483 568.81L1484.55 571.49L1483.81 571.92ZM1507.05 568.56L1506.31 568.13L1507.86 565.45L1508.6 565.88L1507.05 568.56ZM1481.4 567.75L1479.86 565.07L1480.6 564.64L1482.15 567.32L1481.4 567.75ZM1509.46 564.39L1508.72 563.96L1510.26 561.28L1511.01 561.71L1509.46 564.39ZM1479 563.58L1477.45 560.91L1478.19 560.48L1479.74 563.15L1479 563.58ZM1511.87 560.22L1511.12 559.8L1512.67 557.12L1513.41 557.55L1511.87 560.22ZM1476.59 559.42L1475.05 556.74L1475.79 556.31L1477.34 558.99L1476.59 559.42ZM1514.27 556.06L1513.53 555.63L1515 553L1515.75 553.43L1514.27 556.06ZM1474.19 555.25L1472.64 552.57L1473.38 552.15L1474.93 554.82L1474.19 555.25ZM1516.68 551.89L1515.93 551.46L1517.48 548.79L1518.22 549.22L1516.68 551.89ZM1471.78 551.09L1470.23 548.41L1470.98 547.98L1472.52 550.66L1471.78 551.09ZM1493.95 549.99L1491.14 548.71L1491.49 547.93L1494.31 549.2L1493.95 549.99ZM1495.87 549.58L1495.52 548.79L1498.34 547.52L1498.69 548.3L1495.87 549.58ZM1489.57 548.01L1486.75 546.73L1487.11 545.95L1489.93 547.22L1489.57 548.01ZM1519.08 547.73L1518.34 547.3L1519.88 544.62L1520.63 545.05L1519.08 547.73ZM1500.26 547.59L1499.9 546.81L1502.72 545.54L1503.07 546.32L1500.26 547.59ZM1469.38 546.92L1467.83 544.24L1468.57 543.81L1470.12 546.49L1469.38 546.92ZM1485.19 546.02L1482.37 544.75L1482.72 543.97L1485.54 545.24L1485.19 546.02ZM1504.64 545.61L1504.29 544.83L1507.1 543.56L1507.46 544.34L1504.64 545.61ZM1480.74 544L1477.92 542.73L1478.27 541.95L1481.09 543.22L1480.74 544ZM1508.95 543.59L1508.6 542.81L1511.42 541.54L1511.77 542.32L1508.95 543.59ZM1521.42 543.52L1520.67 543.09L1522.22 540.41L1522.96 540.84L1521.42 543.52ZM1466.9 542.72L1465.35 540.04L1466.1 539.61L1467.64 542.29L1466.9 542.72ZM1476.35 542.02L1473.54 540.75L1473.89 539.96L1476.71 541.24L1476.35 542.02ZM1513.35 541.61L1512.99 540.83L1515.81 539.55L1516.16 540.34L1513.35 541.61ZM1472 540.08L1469.18 538.8L1469.54 538.02L1472.35 539.3L1472 540.08ZM1517.75 539.67L1517.4 538.89L1520.21 537.61L1520.57 538.39L1517.75 539.67ZM1523.85 539.4L1523.11 538.97L1524.45 536.64L1522.13 537.69L1521.78 536.9L1524.6 535.63L1524.95 536.41H1524.9L1525.4 536.7L1523.85 539.4ZM1464.53 538.59L1462.98 535.91L1463.53 535.31H1463.59L1463.45 535.62L1463.72 535.46L1465.27 538.14L1464.53 538.59ZM1467.62 538.1L1464.8 536.82L1465.15 536.04L1467.97 537.31L1467.62 538.1Z" fill="#49494A"/>
<path d="M1499.71 518.278C1500.53 515.32 1498.8 512.255 1495.84 511.432C1492.88 510.609 1489.82 512.341 1488.99 515.299C1488.17 518.257 1489.9 521.323 1492.86 522.145C1495.82 522.968 1498.88 521.237 1499.71 518.278Z" fill="#2E112D"/>
<path d="M1494.39 522.37C1492.92 522.37 1491.5 521.784 1490.46 520.742C1489.42 519.699 1488.83 518.285 1488.83 516.81C1488.83 515.335 1489.42 513.921 1490.46 512.878C1491.5 511.836 1492.92 511.25 1494.39 511.25V522.37Z" fill="#2E112D"/>
<path d="M1488.19 589.51C1488.19 588.284 1488.55 587.085 1489.23 586.066C1489.92 585.046 1490.88 584.251 1492.02 583.782C1493.15 583.313 1494.4 583.19 1495.6 583.429C1496.8 583.668 1497.91 584.259 1498.77 585.126C1499.64 585.993 1500.23 587.098 1500.47 588.3C1500.71 589.503 1500.59 590.75 1500.12 591.883C1499.65 593.016 1498.85 593.984 1497.83 594.665C1496.82 595.346 1495.62 595.71 1494.39 595.71C1493.58 595.711 1492.77 595.552 1492.02 595.241C1491.26 594.93 1490.58 594.473 1490 593.897C1489.43 593.321 1488.97 592.637 1488.66 591.884C1488.35 591.131 1488.19 590.325 1488.19 589.51Z" fill="#29547F"/>
<path d="M1494.39 595.71C1492.75 595.71 1491.17 595.057 1490.01 593.894C1488.84 592.731 1488.19 591.154 1488.19 589.51C1488.19 587.866 1488.84 586.289 1490.01 585.126C1491.17 583.963 1492.75 583.31 1494.39 583.31V595.71Z" fill="#2E112D"/>
<path d="M1456.71 535.7C1456.71 534.474 1457.07 533.275 1457.75 532.255C1458.44 531.236 1459.4 530.441 1460.54 529.972C1461.67 529.503 1462.92 529.38 1464.12 529.619C1465.32 529.858 1466.43 530.449 1467.29 531.316C1468.16 532.183 1468.75 533.288 1468.99 534.49C1469.23 535.693 1469.11 536.94 1468.64 538.073C1468.17 539.206 1467.37 540.174 1466.35 540.855C1465.33 541.536 1464.14 541.9 1462.91 541.9C1461.27 541.897 1459.69 541.243 1458.53 540.081C1457.37 538.919 1456.71 537.344 1456.71 535.7Z" fill="#2E112D"/>
<path d="M1526.04 542.29C1529.88 542.29 1533 539.174 1533 535.33C1533 531.486 1529.88 528.37 1526.04 528.37C1522.2 528.37 1519.08 531.486 1519.08 535.33C1519.08 539.174 1522.2 542.29 1526.04 542.29Z" fill="#820333"/>
<path d="M1526 542.29C1524.28 542.106 1522.69 541.293 1521.54 540.008C1520.39 538.723 1519.75 537.057 1519.75 535.33C1519.75 533.603 1520.39 531.937 1521.54 530.652C1522.69 529.367 1524.28 528.554 1526 528.37V542.29Z" fill="#4D92B3"/>
<path d="M1530.24 571.26C1530.41 568.918 1528.64 566.885 1526.3 566.719C1523.96 566.552 1521.93 568.315 1521.76 570.656C1521.59 572.998 1523.36 575.031 1525.7 575.197C1528.04 575.364 1530.07 573.601 1530.24 571.26Z" fill="#29547F"/>
<path d="M1525.87 575.14C1525.3 575.168 1524.72 575.079 1524.18 574.878C1523.64 574.677 1523.15 574.369 1522.73 573.972C1522.32 573.575 1521.98 573.098 1521.76 572.569C1521.53 572.04 1521.41 571.47 1521.41 570.895C1521.41 570.32 1521.53 569.75 1521.76 569.221C1521.98 568.692 1522.32 568.215 1522.73 567.818C1523.15 567.421 1523.64 567.113 1524.18 566.912C1524.72 566.711 1525.3 566.622 1525.87 566.65V575.14Z" fill="#2E112D"/>
<path d="M1507.74 555.289C1508.93 547.879 1503.89 540.904 1496.48 539.709C1489.07 538.514 1482.1 543.552 1480.9 550.962C1479.71 558.372 1484.75 565.347 1492.16 566.542C1499.57 567.737 1506.54 562.699 1507.74 555.289Z" fill="#A1A7AD"/>
<path d="M1462.91 561.5C1461.05 561.498 1459.23 562.048 1457.68 563.079C1456.14 564.111 1454.93 565.578 1454.22 567.296C1453.51 569.013 1453.32 570.904 1453.68 572.728C1454.04 574.552 1454.94 576.228 1456.25 577.543C1457.56 578.859 1459.24 579.755 1461.06 580.119C1462.89 580.482 1464.78 580.297 1466.49 579.585C1468.21 578.874 1469.68 577.669 1470.72 576.123C1471.75 574.577 1472.3 572.76 1472.3 570.9C1472.3 569.666 1472.06 568.444 1471.59 567.304C1471.12 566.163 1470.43 565.127 1469.55 564.254C1468.68 563.381 1467.65 562.688 1466.51 562.216C1465.37 561.743 1464.14 561.5 1462.91 561.5ZM1462.91 575.66C1461.97 575.662 1461.04 575.384 1460.26 574.86C1459.47 574.337 1458.86 573.592 1458.49 572.72C1458.13 571.848 1458.04 570.888 1458.22 569.962C1458.4 569.036 1458.86 568.185 1459.53 567.517C1460.19 566.849 1461.05 566.395 1461.97 566.211C1462.9 566.027 1463.86 566.123 1464.73 566.485C1465.6 566.847 1466.35 567.46 1466.87 568.246C1467.39 569.032 1467.67 569.956 1467.67 570.9C1467.67 572.162 1467.17 573.373 1466.28 574.266C1465.38 575.158 1464.17 575.66 1462.91 575.66Z" fill="#820333"/>
<g style="mix-blend-mode:multiply" opacity="0.5">
<path d="M1462.91 577.18C1461.29 577.115 1459.75 576.425 1458.63 575.253C1457.5 574.082 1456.87 572.52 1456.87 570.895C1456.87 569.27 1457.5 567.708 1458.63 566.537C1459.75 565.365 1461.29 564.675 1462.91 564.61V561.5C1460.47 561.58 1458.16 562.604 1456.46 564.357C1454.77 566.111 1453.82 568.455 1453.82 570.895C1453.82 573.335 1454.77 575.679 1456.46 577.432C1458.16 579.186 1460.47 580.21 1462.91 580.29V577.18Z" fill="#4D92B3"/>
</g>
<g style="mix-blend-mode:multiply">
<path d="M1509.81 552.19C1509.81 552.51 1509.81 552.83 1509.81 553.19C1509.81 556.246 1508.9 559.233 1507.21 561.774C1505.51 564.314 1503.1 566.295 1500.27 567.464C1497.45 568.633 1494.34 568.939 1491.35 568.343C1488.35 567.747 1485.6 566.276 1483.44 564.115C1481.27 561.954 1479.8 559.201 1479.21 556.204C1478.61 553.207 1478.92 550.101 1480.09 547.278C1481.26 544.454 1483.24 542.042 1485.78 540.344C1488.32 538.646 1491.3 537.74 1494.36 537.74V527.56C1489.3 527.56 1484.35 529.061 1480.14 531.874C1475.93 534.687 1472.65 538.686 1470.71 543.363C1468.77 548.041 1468.26 553.188 1469.25 558.154C1470.24 563.12 1472.68 567.682 1476.26 571.262C1479.84 574.842 1484.4 577.28 1489.37 578.268C1494.33 579.256 1499.48 578.749 1504.16 576.811C1508.83 574.874 1512.83 571.593 1515.65 567.383C1518.46 563.173 1519.96 558.223 1519.96 553.16C1519.96 552.83 1519.96 552.51 1519.96 552.16L1509.81 552.19Z" fill="#CED6DB"/>
</g>
<path d="M1503.61 552.56C1503.46 550.322 1502.51 548.213 1500.92 546.627C1499.34 545.041 1497.23 544.086 1494.99 543.94V542.85H1493.79V543.94C1491.55 544.086 1489.44 545.041 1487.86 546.627C1486.27 548.213 1485.32 550.322 1485.17 552.56H1484.08V553.77H1485.17C1485.32 556.007 1486.27 558.113 1487.86 559.697C1489.45 561.281 1491.55 562.235 1493.79 562.38V563.47H1494.99V562.38C1497.23 562.235 1499.33 561.281 1500.92 559.697C1502.51 558.113 1503.46 556.007 1503.61 553.77H1504.7V552.56H1503.61ZM1495 548V547.13C1496.36 547.266 1497.63 547.854 1498.62 548.8L1497.52 549.9C1496.68 549.101 1495.56 548.655 1494.41 548.655C1493.25 548.655 1492.13 549.101 1491.29 549.9L1490.2 548.8C1491.18 547.859 1492.45 547.275 1493.8 547.14V548H1495ZM1500.45 553.79C1500.32 555.142 1499.73 556.41 1498.79 557.39L1497.69 556.29C1498.49 555.452 1498.93 554.338 1498.93 553.18C1498.93 552.018 1498.48 550.899 1497.68 550.06L1498.78 548.97C1499.73 549.952 1500.31 551.223 1500.45 552.58H1499.59V553.79H1500.45ZM1488.35 552.58C1488.49 551.236 1489.07 549.977 1490 549L1491.1 550.09C1490.3 550.93 1489.86 552.046 1489.86 553.205C1489.86 554.365 1490.3 555.48 1491.1 556.32L1490 557.42C1489.06 556.437 1488.47 555.166 1488.33 553.81H1489.2V552.6L1488.35 552.58ZM1490.52 553.18C1490.52 552.412 1490.74 551.66 1491.17 551.02C1491.59 550.38 1492.2 549.881 1492.91 549.587C1493.62 549.293 1494.4 549.217 1495.15 549.369C1495.91 549.521 1496.6 549.894 1497.14 550.44C1497.5 550.798 1497.79 551.225 1497.99 551.695C1498.18 552.166 1498.28 552.671 1498.28 553.18C1498.28 553.949 1498.06 554.701 1497.63 555.341C1497.21 555.98 1496.6 556.479 1495.89 556.773C1495.18 557.067 1494.4 557.143 1493.65 556.991C1492.89 556.839 1492.2 556.466 1491.66 555.92C1491.29 555.559 1491.01 555.129 1490.81 554.656C1490.61 554.182 1490.51 553.673 1490.51 553.16L1490.52 553.18ZM1488.66 547.44C1490.03 546.061 1491.86 545.223 1493.8 545.08V546.59C1492.26 546.729 1490.81 547.406 1489.71 548.502C1488.62 549.599 1487.94 551.046 1487.8 552.59H1486.29C1486.43 550.638 1487.26 548.801 1488.65 547.42L1488.66 547.44ZM1493.8 561.28C1491.86 561.133 1490.04 560.297 1488.66 558.923C1487.29 557.549 1486.45 555.728 1486.3 553.79H1487.81C1487.95 555.335 1488.62 556.783 1489.72 557.88C1490.82 558.977 1492.26 559.653 1493.81 559.79L1493.8 561.28ZM1493.8 558.37V559.23C1492.44 559.1 1491.17 558.511 1490.19 557.56L1491.28 556.47C1492.12 557.267 1493.24 557.711 1494.4 557.711C1495.55 557.711 1496.67 557.267 1497.51 556.47L1498.61 557.57C1497.63 558.513 1496.36 559.098 1495 559.23V558.37H1493.8ZM1500.14 558.92C1498.77 560.302 1496.94 561.14 1495 561.28V559.77C1496.55 559.633 1497.99 558.957 1499.09 557.86C1500.19 556.763 1500.86 555.315 1501 553.77H1502.51C1502.36 555.711 1501.52 557.534 1500.13 558.9L1500.14 558.92ZM1500.99 552.58C1500.85 551.036 1500.17 549.589 1499.08 548.492C1497.98 547.396 1496.53 546.719 1494.99 546.58V545.07C1496.93 545.218 1498.75 546.055 1500.13 547.431C1501.51 548.807 1502.34 550.63 1502.49 552.57L1500.99 552.58Z" fill="#49494A"/>
<g style="mix-blend-mode:multiply" opacity="0.5">
<path d="M1462.91 541.9C1461.31 541.836 1459.79 541.154 1458.68 539.997C1457.57 538.841 1456.95 537.299 1456.95 535.695C1456.95 534.091 1457.57 532.55 1458.68 531.393C1459.79 530.236 1461.31 529.554 1462.91 529.49V541.9Z" fill="#65C3EF"/>
</g>
<path d="M925.31 566.79L914.44 550.92C914.44 550.92 916.58 525.43 914.15 521.45C911.72 517.47 872.28 512.86 870.05 515.82C867.82 518.78 876.05 521.42 876.05 521.42C876.05 521.42 870.44 523.91 871.05 526.74C871.91 530.91 879.05 531.43 879.05 531.43C879.05 531.43 873.37 535.25 874.05 537.74C874.6 539.74 880.32 541.25 880.32 541.25C880.32 541.25 874.54 543.87 879.26 547.25C883.98 550.63 887.98 554.07 887.98 554.07C887.98 554.07 884.72 561.07 893.57 567.2C902.42 573.33 917.78 584.4 917.78 584.4L925.31 566.79Z" fill="#FFBC8E"/>
<path d="M871.44 505.2L862.7 504.46L862.78 507.17L869.78 511.11C869.78 511.11 871.27 504.49 871.44 505.2Z" fill="#540032" stroke="#540032" stroke-linecap="round" stroke-linejoin="round"/>
<path d="M905.73 522.86C905.34 522.871 904.952 522.817 904.58 522.7L870 511.77C869.123 511.494 868.392 510.881 867.968 510.067C867.543 509.252 867.459 508.302 867.735 507.425C868.011 506.548 868.624 505.817 869.438 505.393C870.253 504.968 871.204 504.884 872.08 505.16L906.72 516.09C907.497 516.341 908.16 516.857 908.594 517.548C909.027 518.239 909.203 519.061 909.091 519.87C908.979 520.678 908.586 521.421 907.98 521.968C907.374 522.514 906.596 522.83 905.78 522.86H905.73Z" fill="white" stroke="#540032" stroke-linecap="round" stroke-linejoin="round"/>
<path d="M923.64 529.65C923.122 529.669 922.604 529.598 922.11 529.44L904.24 523.8C903.628 523.649 903.053 523.374 902.552 522.992C902.05 522.61 901.632 522.129 901.323 521.579C901.014 521.03 900.821 520.423 900.755 519.796C900.69 519.169 900.753 518.535 900.942 517.933C901.131 517.331 901.44 516.775 901.852 516.297C902.264 515.82 902.769 515.432 903.337 515.157C903.905 514.882 904.522 514.727 905.152 514.7C905.782 514.673 906.411 514.775 907 515L924.87 520.63C925.895 520.97 926.768 521.659 927.338 522.576C927.908 523.493 928.139 524.581 927.99 525.65C927.842 526.72 927.323 527.704 926.525 528.431C925.726 529.158 924.699 529.582 923.62 529.63L923.64 529.65Z" fill="#540032" stroke="#540032" stroke-linecap="round" stroke-linejoin="round"/>
<path d="M909.34 534.89C907.742 530.215 905.872 525.637 903.74 521.18C901.29 516.63 896.55 512.72 894.68 508.18C892.81 503.64 887.82 510.7 889.68 514.11C891.54 517.52 895.68 522.61 895.78 524.92C895.88 527.23 896.48 528.92 893.78 536.54C891.08 544.16 889.64 552.84 895.6 559.02" fill="#FFBC8E"/>
<path d="M876 521.42L895.75 524.89" stroke="#540032" stroke-linecap="round" stroke-linejoin="round"/>
<path d="M879 531.43C881.29 530.79 893.78 536.51 893.78 536.51" stroke="#540032" stroke-linecap="round" stroke-linejoin="round"/>
<path d="M880.28 541.25L890.56 544.69" stroke="#540032" stroke-linecap="round" stroke-linejoin="round"/>
<path d="M1063.71 536.31C1063.71 536.31 1057.83 532.82 1055.22 542.15C1052.61 551.48 1044.99 567.88 1041.63 571.45C1038.27 575.02 1005.13 607.78 1005.13 607.78C1005.13 607.78 990.93 596.64 987.58 600.78C984.23 604.92 981.94 605.57 981.94 605.57L925.14 561L904.14 592.84C904.14 592.84 981.37 663.39 987.79 665.51C994.21 667.63 998.79 666.92 1001.09 665.69C1003.39 664.46 1045.77 632.59 1045.77 632.59C1045.77 632.59 1071.63 549.17 1073.86 546.21C1076.09 543.25 1063.71 536.31 1063.71 536.31Z" fill="#820333"/>
<path d="M987.44 608C987.44 608 999 621.26 999 638.08L987.44 608Z" fill="#820333"/>
<path d="M1006 613.29C1006 613.29 1009.54 622.14 1004.23 641.62L1006 613.29Z" fill="#820333"/>
<path d="M1089 433.36C1089 433.36 1064 417 1066.93 401.43C1069.86 385.86 1126.13 373.38 1158.45 383.86C1190.77 394.34 1197.35 442.74 1193.08 472.59C1188.81 502.44 1186.25 570.59 1186.25 570.59L1076.59 573.83C1076.59 573.83 1086.81 494.06 1088.93 468.83C1091.05 443.6 1089 433.36 1089 433.36Z" fill="#540032" stroke="#540032" stroke-linecap="round" stroke-linejoin="round"/>
<path d="M1032.88 872.53C1035.11 896.37 1039.66 1001.4 1042.16 1016.96H1156.27C1156.04 999.04 1155.73 877.96 1158.27 868.11C1161.52 855.75 1166.07 814.48 1161.04 790.81C1156.01 767.14 1149.91 755.81 1149.91 755.81L1031.55 755.69L1031.89 765.4C1031.89 765.4 1029.72 838.71 1032.88 872.53Z" fill="#2E112D"/>
<path d="M1092.18 534.7L1150.05 536.85C1150.05 536.85 1103.6 608.35 1103.99 647.64C1104.38 686.93 1112.18 768.4 1112.18 768.4C1112.18 768.4 1086.72 788.53 1060.41 784.68C1057.55 784.27 1056.04 760.68 1056.04 760.68C1056.04 760.68 1054.35 783.57 1052.41 783.22C1037.69 780.58 1031.94 765.36 1031.94 765.36L1035.01 686.66C1035.01 686.66 1035.01 635.02 1040.76 620.21C1046.51 605.4 1085.39 539.52 1085.39 539.52L1092.18 534.7Z" fill="white" stroke="#540032" stroke-linecap="round" stroke-linejoin="round"/>
<path d="M1089.92 580.26C1089.92 580.26 1072.04 617.45 1065.5 639.26C1058.96 661.07 1056 760.69 1056 760.69" stroke="#540032" stroke-linecap="round" stroke-linejoin="round"/>
<path d="M1143.09 536.28C1143.09 536.28 1102.49 596.82 1094.66 618.63C1086.83 640.44 1081.58 723.83 1082.66 759.25C1083.74 794.67 1094.87 833.65 1094.87 833.65C1094.87 833.65 1141.39 843.06 1193.32 826.89C1193.32 826.89 1179.14 764.11 1172.32 743.5C1168.02 729.997 1164.78 716.178 1162.63 702.17C1162.63 702.17 1209.11 553.6 1209 551.29C1208.89 548.98 1208.09 546.69 1203.43 545.29C1198.77 543.89 1143.09 536.28 1143.09 536.28Z" fill="#820333"/>
<path d="M1105.9 767.85L1166.12 763.04L1166.92 772.67L1141.23 775.88" fill="#820333"/>
<path d="M1091.64 542.42C1091.64 542.42 1043.29 627.85 1042.21 643.3C1041.13 658.75 1033.97 729.86 1030.01 752.3C1026.05 774.74 1008.84 818.44 1008.84 818.44C1008.84 818.44 1004.42 799.3 1005.71 790.78C1007 782.26 1025.62 733.94 1027.61 723.09C1029.6 712.24 1032.32 673.62 1031.81 656.68C1031.3 639.74 1030.18 627.45 1033.67 615.01C1037.16 602.57 1063.67 536.29 1063.67 536.29L1102.15 534.38L1091.64 542.42Z" fill="#820333"/>
<path d="M1081.17 535.35L1073.11 572.18L1093.79 556.13L1081.17 535.35Z" fill="white" stroke="#540032" stroke-linecap="round" stroke-linejoin="round"/>
<path d="M1105.8 517.47L1081.17 535.35L1090.46 559.66L1089.92 580.26L1117.86 538.84L1105.8 517.47Z" fill="white" stroke="#540032" stroke-linecap="round" stroke-linejoin="round"/>
<path d="M1104.37 507.8C1104.37 507.8 1099.66 542.24 1098.22 551.43C1096.78 560.62 1089.92 580.26 1089.92 580.26C1089.92 580.26 1133.84 537.8 1136.02 534.26C1138.2 530.72 1145.77 496.81 1145.77 496.81C1145.77 496.81 1117.5 507.41 1104.37 507.8Z" fill="#FFBC8E"/>
<path d="M1103 517.46C1109 521.19 1113.63 521.19 1120.57 520.11C1127.51 519.03 1137 512.54 1143.31 507.42C1144.71 501.42 1145.74 496.86 1145.74 496.86C1145.74 496.86 1117.46 507.41 1104.33 507.8C1104.37 507.8 1103.82 511.81 1103 517.46Z" fill="#540032" stroke="#540032" stroke-linecap="round" stroke-linejoin="round"/>
<path d="M1118.44 403.34L1086 428.88C1086 428.88 1082.73 453.55 1081.52 470.74C1080.31 487.93 1087.52 500.29 1096.93 508.59C1106.34 516.89 1111.48 517.31 1120.58 515.89C1129.68 514.47 1143.09 503.79 1148.1 499.07C1153.11 494.35 1162.41 480.36 1162.41 480.36C1162.41 480.36 1169.88 481.85 1172.07 478.36C1173.17 476.727 1174.08 474.972 1174.77 473.13C1174.77 473.13 1143.96 455.75 1131.31 433.83C1118.66 411.91 1118.44 403.34 1118.44 403.34Z" fill="#FFBC8E"/>
<path d="M1108.34 448.8C1108.34 448.8 1107.4 455.69 1105.22 459.18C1103.04 462.67 1094.52 464.64 1099.22 468.5C1103.92 472.36 1111.33 472.15 1111.33 472.15" stroke="#540032" stroke-linecap="round" stroke-linejoin="round"/>
<path d="M1098.94 478.8C1098.94 478.8 1116.31 486.29 1127.45 476.25" stroke="#540032" stroke-linecap="round" stroke-linejoin="round"/>
<path d="M1104.73 481.49C1104.73 481.49 1107.3 491.13 1112.97 489.25C1118.64 487.37 1123.55 479.79 1123.55 479.79C1117.32 480.788 1111.03 481.356 1104.73 481.49Z" stroke="#540032" stroke-linecap="round" stroke-linejoin="round"/>
<path d="M1130.2 453.3C1130.28 455.82 1129.2 457.9 1127.77 457.94C1126.34 457.98 1125.13 455.94 1125.06 453.45C1124.99 450.96 1126.06 448.85 1127.5 448.81C1128.94 448.77 1130.13 450.77 1130.2 453.3Z" fill="#540032"/>
<path d="M1103 450.1C1103.08 452.63 1102 454.7 1100.57 454.75C1099.14 454.8 1097.93 452.75 1097.86 450.25C1097.79 447.75 1098.86 445.65 1100.3 445.61C1101.74 445.57 1102.88 447.58 1103 450.1Z" fill="#540032"/>
<path d="M1093.78 439.51C1093.78 439.51 1099.88 433.04 1106.93 439.69" stroke="#540032" stroke-linecap="round" stroke-linejoin="round"/>
<path d="M1120.12 441C1120.12 441 1133.12 436 1138.6 447.31" stroke="#540032" stroke-linecap="round" stroke-linejoin="round"/>
<path d="M1112.9 545.28L1089.92 580.26L1123.69 562.11L1112.9 545.28Z" fill="white" stroke="#540032" stroke-linecap="round" stroke-linejoin="round"/>
<path d="M1151.46 514.99L1112.9 545.28L1124.13 576.96L1161.17 534.14L1151.46 514.99Z" fill="white" stroke="#540032" stroke-linecap="round" stroke-linejoin="round"/>
<path d="M1104.61 694.63C1104.61 694.63 1098.4 693.27 1089.77 688.13C1081.14 682.99 1071.95 684.81 1064.25 685.03C1056.55 685.25 1051.25 686.96 1052.06 690.03C1052.87 693.1 1060.62 692.86 1062.93 692.79C1065.24 692.72 1069.21 696.46 1069.21 696.46L1050 701.11C1050 701.11 1044 705.11 1048.71 709.62C1053.42 714.13 1054.32 713.07 1054.32 713.07C1054.32 713.07 1061.59 724.42 1069.32 724.96C1077.05 725.5 1108.41 717.64 1108.41 717.64L1104.61 694.63Z" fill="#FFBC8E"/>
<path d="M1159.15 606.21C1160.05 610.81 1165.05 679.75 1165.05 679.75L1101.53 694.75L1104.9 730.88C1104.9 730.88 1218.57 717.51 1220.68 710.51C1222.79 703.51 1215.37 582.73 1215.93 575.78C1216.49 568.83 1225.83 545.43 1198.08 545.48" fill="#820333"/>
<path d="M1169.77 594.71C1169.77 594.71 1188.35 570.81 1208.71 571.71L1169.77 594.71Z" fill="#820333"/>
<path d="M1169.77 603.56C1169.77 603.56 1185.7 594.71 1201.63 594.71L1169.77 603.56Z" fill="#820333"/>
<path d="M578.17 989.28H657.83V986.72L539.22 968.98L542.1 971.54L578.17 989.28Z" fill="white" stroke="#540032" stroke-linecap="round" stroke-linejoin="round"/>
<path d="M578.17 986.72H657.83L615.75 969.39L542.1 968.98L578.17 986.72Z" fill="#DFE9EF"/>
<path d="M591.14 972.92H598.61L594.8 971.32L587.48 971.39L591.14 972.92Z" fill="white" stroke="#540032" stroke-width="0.75" stroke-linecap="round" stroke-linejoin="round"/>
<path d="M606.29 979.26L610.11 980.86H617.59L613.76 979.26H606.29Z" fill="white" stroke="#540032" stroke-width="0.75" stroke-linecap="round" stroke-linejoin="round"/>
<path d="M620.13 976.86H611.88L614.06 977.77H622.35L620.13 976.86Z" fill="white" stroke="#540032" stroke-width="0.75" stroke-linecap="round" stroke-linejoin="round"/>
<path d="M602.73 977.77H610.2L608.02 976.86H600.55L602.73 977.77Z" fill="white" stroke="#540032" stroke-width="0.75" stroke-linecap="round" stroke-linejoin="round"/>
<path d="M608.32 975.37H616.51L614.17 974.41H606.02L608.32 975.37Z" fill="white" stroke="#540032" stroke-width="0.75" stroke-linecap="round" stroke-linejoin="round"/>
<path d="M579.81 972.92H587.28L583.71 971.42L576.38 971.48L579.81 972.92Z" fill="white" stroke="#540032" stroke-width="0.75" stroke-linecap="round" stroke-linejoin="round"/>
<path d="M594.7 974.41L596.99 975.37H604.46L602.17 974.41H594.7Z" fill="white" stroke="#540032" stroke-width="0.75" stroke-linecap="round" stroke-linejoin="round"/>
<path d="M631.3 984.99H639.9L633.48 982.35H625L631.3 984.99Z" fill="white" stroke="#540032" stroke-width="0.75" stroke-linecap="round" stroke-linejoin="round"/>
<path d="M613.67 982.35L619.98 984.99H627.45L621.14 982.35H613.67Z" fill="white" stroke="#540032" stroke-width="0.75" stroke-linecap="round" stroke-linejoin="round"/>
<path d="M602.34 982.35L608.65 984.99H616.12L609.82 982.35H602.34Z" fill="white" stroke="#540032" stroke-width="0.75" stroke-linecap="round" stroke-linejoin="round"/>
<path d="M598.49 982.35H583.89L589.1 984.99H604.79L598.49 982.35Z" fill="white" stroke="#540032" stroke-width="0.75" stroke-linecap="round" stroke-linejoin="round"/>
<path d="M602.47 972.92H610.55L606.43 971.22L598.58 971.29L602.47 972.92Z" fill="white" stroke="#540032" stroke-width="0.75" stroke-linecap="round" stroke-linejoin="round"/>
<path d="M617.62 979.26L621.44 980.86H629.86L625.97 979.26H617.62Z" fill="white" stroke="#540032" stroke-width="0.75" stroke-linecap="round" stroke-linejoin="round"/>
<path d="M606.26 980.86L602.43 979.26H594.96L598.78 980.86H606.26Z" fill="white" stroke="#540032" stroke-width="0.75" stroke-linecap="round" stroke-linejoin="round"/>
<path d="M575.96 972.92L572.61 971.51L562.67 971.6L565.27 972.92H575.96Z" fill="white" stroke="#540032" stroke-width="0.75" stroke-linecap="round" stroke-linejoin="round"/>
<path d="M596.7 976.86H589.22L591.4 977.77H598.88L596.7 976.86Z" fill="white" stroke="#540032" stroke-width="0.75" stroke-linecap="round" stroke-linejoin="round"/>
<path d="M583.37 974.41L585.66 975.37H593.14L590.84 974.41H583.37Z" fill="white" stroke="#540032" stroke-width="0.75" stroke-linecap="round" stroke-linejoin="round"/>
<path d="M587.55 977.77L585.37 976.86H573.04L574.85 977.77H587.55Z" fill="white" stroke="#540032" stroke-width="0.75" stroke-linecap="round" stroke-linejoin="round"/>
<path d="M570.1 975.37H581.81L579.51 974.41H568.21L570.1 975.37Z" fill="white" stroke="#540032" stroke-width="0.75" stroke-linecap="round" stroke-linejoin="round"/>
<path d="M591.11 979.26H577.79L580.95 980.86H594.93L591.11 979.26Z" fill="white" stroke="#540032" stroke-width="0.75" stroke-linecap="round" stroke-linejoin="round"/>
<path d="M578.17 986.72H575.29L520.18 907.26L522.91 906.44H558.98L578.17 986.72Z" fill="white" stroke="#540032" stroke-linecap="round" stroke-linejoin="round"/>
<path d="M575.29 986.72L539.22 968.98L520.04 906.44H556.1L575.29 986.72Z" fill="#DFE9EF"/>
</svg>
