<svg width="1600" height="1200" viewBox="0 0 1600 1200" fill="none" xmlns="http://www.w3.org/2000/svg">
<path d="M764.44 430.68C773.35 420.08 807.18 412.99 825.85 429.73C825.85 429.73 819.42 419.79 825.85 411.3C825.85 411.3 817.36 416.81 809.77 411.3C802.18 405.79 800.36 378.21 800.36 378.21C800.36 378.21 798.57 406.21 786.09 408.77C773.61 411.33 765.61 393.57 765.61 393.57C765.61 393.57 772.4 413.05 769 416.09C765.6 419.13 758.82 416.09 758.82 416.09L764.44 430.68Z" fill="#E0E0E0"/>
<path d="M739.89 457.69C739.89 457.69 727.6 481.55 739.89 502.88C737.348 501.256 734.464 500.241 731.465 499.915C728.466 499.589 725.432 499.96 722.6 501C722.6 501 727.43 495.9 726.73 490.49C726.03 485.08 703.83 477.49 703.83 477.49C703.83 477.49 721.33 479.1 725.14 473.03C728.95 466.96 715.49 455.23 715.49 455.23C715.49 455.23 730.21 463.17 733.39 460.63C736.57 458.09 733.39 450.13 733.39 450.13L739.89 457.69Z" fill="#E0E0E0"/>
<path d="M849.84 505.74C849.84 505.74 862.26 488.53 852.38 462.38L860.91 457.27C860.91 457.27 857.69 462.72 859.64 466.18C861.59 469.64 879.64 467.24 879.64 467.24C879.64 467.24 865.32 470.13 864.7 477.68C864.08 485.23 882.51 496.3 882.51 496.3C882.51 496.3 865.65 492.08 862.16 496.3C858.67 500.52 866.16 508.68 866.16 508.68C866.16 508.68 857.81 502.68 849.84 505.74Z" fill="#E0E0E0"/>
<path d="M358.2 335.47C351.59 345.554 346.948 356.799 344.52 368.61L326 370.35V406.2L344.51 407.94C346.94 419.754 351.581 431.001 358.19 441.09L346.37 455.36L371.71 480.71L386 468.89C396.092 475.492 407.338 480.13 419.15 482.56L420.89 501.07H456.73L458.48 482.56C470.289 480.13 481.532 475.492 491.62 468.89L505.9 480.71L531.25 455.36L519.43 441.08C526.032 430.992 530.67 419.749 533.1 407.94L551.61 406.19V370.35L533.1 368.61C530.672 356.799 526.031 345.554 519.42 335.47L531.24 321.18L505.9 295.84L491.62 307.66C481.533 301.06 470.289 296.425 458.48 294L456.73 275.49H420.89L419.14 294C407.332 296.425 396.088 301.06 386 307.66L371.72 295.84L346.38 321.18L358.2 335.47ZM473.12 354C479.909 360.786 484.533 369.434 486.406 378.848C488.28 388.262 487.32 398.021 483.648 406.89C479.975 415.758 473.755 423.339 465.774 428.672C457.793 434.005 448.409 436.852 438.81 436.852C429.211 436.852 419.828 434.005 411.847 428.672C403.865 423.339 397.645 415.758 393.973 406.89C390.3 398.021 389.34 388.262 391.214 378.848C393.088 369.434 397.711 360.786 404.5 354C413.601 344.902 425.942 339.792 438.81 339.792C451.678 339.792 464.019 344.902 473.12 354Z" fill="#E0E0E0"/>
<path d="M579.72 162.43C576.132 167.909 573.608 174.016 572.28 180.43L562.2 181.43V201L572.28 202C573.61 208.415 576.138 214.522 579.73 220L573.29 227.77L587.09 241.58L594.87 235.14C600.35 238.73 606.456 241.257 612.87 242.59L613.87 252.67H633.39L634.39 242.59C640.804 241.257 646.91 238.73 652.39 235.14L660.17 241.58L673.97 227.78L667.53 220C671.125 214.523 673.653 208.416 674.98 202L685.06 201V181.43L674.98 180.43C673.653 174.014 671.125 167.907 667.53 162.43L673.97 154.65L660.17 140.85L652.39 147.29C646.913 143.695 640.806 141.167 634.39 139.84L633.39 129.76H613.87L612.87 139.84C606.454 141.167 600.347 143.695 594.87 147.29L587.09 140.85L573.29 154.65L579.72 162.43ZM642.31 172.5C646.004 176.195 648.52 180.903 649.538 186.028C650.557 191.152 650.033 196.464 648.033 201.291C646.033 206.118 642.647 210.244 638.302 213.147C633.958 216.049 628.85 217.599 623.625 217.599C618.4 217.599 613.293 216.049 608.948 213.147C604.603 210.244 601.217 206.118 599.217 201.291C597.217 196.464 596.693 191.152 597.712 186.028C598.731 180.903 601.246 176.195 604.94 172.5C607.394 170.046 610.307 168.099 613.513 166.771C616.719 165.442 620.155 164.759 623.625 164.759C627.095 164.759 630.532 165.442 633.738 166.771C636.944 168.099 639.857 170.046 642.31 172.5Z" fill="#F0F0F0"/>
<path d="M937.83 532.51C935.302 536.374 933.525 540.679 932.59 545.2L925.5 545.87V559.59L932.59 560.26C933.514 564.8 935.292 569.124 937.83 573L933.3 578.46L943.01 588.16L948.47 583.64C952.332 586.169 956.638 587.943 961.16 588.87L961.83 595.96H975.55L976.22 588.88C980.738 587.945 985.04 586.168 988.9 583.64L994.37 588.16L1004.07 578.46L999.55 573C1002.08 569.138 1003.85 564.832 1004.78 560.31L1011.87 559.64V545.87L1004.78 545.2C1003.85 540.68 1002.07 536.377 999.54 532.52L1004.07 527.05L994.37 517.35L988.9 521.87C985.036 519.345 980.731 517.571 976.21 516.64L975.55 509.55H961.82L961.16 516.63C956.639 517.565 952.334 519.342 948.47 521.87L943 517.34L933.3 527.05L937.83 532.51ZM981.83 539.6C984.426 542.198 986.194 545.506 986.909 549.108C987.625 552.71 987.256 556.444 985.85 559.836C984.445 563.229 982.064 566.128 979.011 568.168C975.957 570.208 972.367 571.297 968.695 571.297C965.023 571.297 961.433 570.208 958.379 568.168C955.326 566.128 952.946 563.229 951.54 559.836C950.134 556.444 949.765 552.71 950.481 549.108C951.197 545.506 952.964 542.198 955.56 539.6C959.043 536.118 963.766 534.162 968.69 534.162C973.615 534.162 978.338 536.118 981.82 539.6H981.83Z" fill="#E0E0E0"/>
<path d="M900.08 646.76C896.485 652.237 893.957 658.344 892.63 664.76L882.55 665.76V685.28L892.63 686.28C893.96 692.695 896.488 698.802 900.08 704.28L893.64 712.05L907.44 725.86L915.22 719.42C920.7 723.01 926.806 725.537 933.22 726.87L934.22 736.95H953.74L954.74 726.87C961.156 725.543 967.263 723.015 972.74 719.42L980.52 725.86L994.32 712.05L987.88 704.28C991.475 698.803 994.003 692.696 995.33 686.28L1005.41 685.28V665.76L995.33 664.76C994.003 658.344 991.475 652.237 987.88 646.76L994.32 638.98L980.52 625.18L972.74 631.61C967.258 628.024 961.153 625.497 954.74 624.16L953.74 614.08H934.22L933.22 624.16C926.806 625.493 920.7 628.02 915.22 631.61L907.44 625.17L893.64 639L900.08 646.76ZM962.67 656.83C966.366 660.527 968.883 665.236 969.902 670.363C970.922 675.49 970.398 680.804 968.398 685.633C966.397 690.462 963.01 694.59 958.663 697.494C954.317 700.398 949.207 701.948 943.98 701.948C938.753 701.948 933.643 700.398 929.297 697.494C924.95 694.59 921.563 690.462 919.562 685.633C917.562 680.804 917.038 675.49 918.058 670.363C919.077 665.236 921.594 660.527 925.29 656.83C930.248 651.875 936.971 649.092 943.98 649.092C950.989 649.092 957.712 651.875 962.67 656.83Z" fill="#E0E0E0"/>
<path d="M1045.13 608.46C1040.04 616.234 1036.47 624.9 1034.6 634L1020.36 635.34V662.92L1034.6 664.26C1036.47 673.347 1040.05 681.999 1045.13 689.76L1036.03 700.76L1055.53 720.26L1066.53 711.16C1074.29 716.221 1082.93 719.773 1092 721.63L1093.35 735.86H1120.92L1122.26 721.63C1131.35 719.759 1140 716.186 1147.76 711.1L1158.76 720.2L1178.26 700.7L1169.17 689.7C1174.25 681.936 1177.82 673.285 1179.69 664.2L1193.93 662.86V635.3L1179.68 634C1177.81 624.917 1174.24 616.269 1169.16 608.51L1178.25 597.51L1158.76 578L1147.76 587.1C1140 582.018 1131.35 578.445 1122.26 576.57L1120.92 562.33H1093.35L1092 576.56C1082.91 578.427 1074.26 581.997 1066.5 587.08L1055.5 577.98L1036 597.48L1045.13 608.46ZM1133.54 622.7C1138.76 627.921 1142.31 634.573 1143.75 641.814C1145.19 649.055 1144.45 656.56 1141.63 663.381C1138.8 670.201 1134.02 676.031 1127.88 680.132C1121.74 684.234 1114.52 686.423 1107.14 686.423C1099.76 686.423 1092.54 684.234 1086.4 680.132C1080.26 676.031 1075.48 670.201 1072.65 663.381C1069.83 656.56 1069.09 649.055 1070.53 641.814C1071.97 634.573 1075.52 627.921 1080.74 622.7C1087.74 615.7 1097.24 611.767 1107.14 611.767C1117.04 611.767 1126.54 615.7 1133.54 622.7Z" fill="#F0F0F0"/>
<path d="M322.4 680C318.42 686.088 315.627 692.874 314.17 700L303 701V722.57L314.14 723.57C315.597 730.696 318.39 737.482 322.37 743.57L315.26 752.16L330.52 767.42L339.11 760.31C345.183 764.284 351.951 767.077 359.06 768.54L360.11 779.68H381.68L382.73 768.54C389.839 767.073 396.608 764.277 402.68 760.3L411.27 767.42L426.53 752.16L419.41 743.57C423.393 737.483 426.185 730.697 427.64 723.57L438.78 722.57V701L427.64 700C426.184 692.872 423.388 686.085 419.4 680L426.52 671.41L411.3 656.17L402.71 663.29C396.639 659.31 389.87 656.514 382.76 655.05L381.71 643.91H360.14L359.09 655.05C351.982 656.515 345.214 659.307 339.14 663.28L330.55 656.17L315.29 671.42L322.4 680ZM391.57 691.14C395.653 695.224 398.433 700.427 399.56 706.091C400.686 711.755 400.107 717.626 397.897 722.961C395.686 728.296 391.944 732.856 387.142 736.064C382.34 739.273 376.695 740.985 370.92 740.985C365.145 740.985 359.5 739.273 354.698 736.064C349.896 732.856 346.154 728.296 343.944 722.961C341.733 717.626 341.155 711.755 342.281 706.091C343.407 700.427 346.187 695.224 350.27 691.14C352.982 688.428 356.202 686.277 359.746 684.81C363.29 683.343 367.089 682.589 370.924 682.591C374.76 682.593 378.557 683.35 382.1 684.821C385.643 686.291 388.861 688.445 391.57 691.16V691.14Z" fill="#F0F0F0"/>
<path d="M1286.43 813.32H822.85C818.877 813.304 815.071 811.719 812.261 808.909C809.451 806.099 807.866 802.293 807.85 798.32V123C807.866 119.027 809.451 115.22 812.261 112.411C815.071 109.601 818.877 108.016 822.85 108H1286.43C1290.41 108 1294.22 109.58 1297.04 112.393C1299.85 115.206 1301.43 119.022 1301.43 123V798.28C1301.43 802.261 1299.85 806.079 1297.04 808.898C1294.22 811.717 1290.41 813.307 1286.43 813.32ZM822.85 108.64C819.039 108.643 815.384 110.155 812.685 112.846C809.986 115.538 808.463 119.189 808.45 123V798.28C808.455 802.097 809.975 805.755 812.674 808.453C815.374 811.151 819.034 812.667 822.85 812.67H1286.43C1290.25 812.665 1293.9 811.147 1296.6 808.449C1299.3 805.752 1300.81 802.095 1300.82 798.28V123C1300.81 119.185 1299.3 115.528 1296.6 112.831C1293.9 110.133 1290.25 108.615 1286.43 108.61L822.85 108.64Z" fill="#E0E0E0"/>
<path d="M751.85 813.32H288.27C284.297 813.304 280.491 811.719 277.681 808.909C274.871 806.099 273.286 802.293 273.27 798.32V123C273.286 119.027 274.871 115.22 277.681 112.411C280.491 109.601 284.297 108.016 288.27 108H751.85C755.824 108.013 759.632 109.598 762.442 112.408C765.252 115.218 766.837 119.026 766.85 123V798.28C766.845 802.26 765.264 806.077 762.453 808.895C759.643 811.713 755.83 813.304 751.85 813.32ZM288.27 108.64C284.46 108.645 280.808 110.159 278.111 112.85C275.415 115.541 273.893 119.19 273.88 123V798.28C273.883 802.096 275.4 805.754 278.098 808.452C280.796 811.15 284.454 812.667 288.27 812.67H751.85C755.666 812.667 759.324 811.15 762.022 808.452C764.721 805.754 766.237 802.096 766.24 798.28V123C766.235 119.185 764.717 115.528 762.02 112.831C759.322 110.133 755.665 108.615 751.85 108.61L288.27 108.64Z" fill="#E0E0E0"/>
<path d="M1430.26 969.95H147.86V970.59H1430.26V969.95Z" fill="#E0E0E0"/>
<path d="M321.58 1006.53H280.39V1007.17H321.58V1006.53Z" fill="#E0E0E0"/>
<path d="M722.07 999.58H584.78V1000.22H722.07V999.58Z" fill="#E0E0E0"/>
<path d="M417.11 1030.36H324.14V1031H417.11V1030.36Z" fill="#E0E0E0"/>
<path d="M1229.03 999.25H1118.26V999.89H1229.03V999.25Z" fill="#E0E0E0"/>
<path d="M1268.12 999.25H1251.88V999.89H1268.12V999.25Z" fill="#E0E0E0"/>
<path d="M1097.1 1015.23H958.88V1015.87H1097.1V1015.23Z" fill="#E0E0E0"/>
<path d="M1444 1032.04H122V1035.93H1444V1032.04Z" fill="#2E112D"/>
<path d="M366.34 632.43C366.219 632.023 365.972 631.665 365.634 631.408C365.296 631.151 364.885 631.008 364.46 631C346.05 631.3 322.97 631.35 307.39 642.73C292.86 653.34 290.69 672.05 291.01 688.73C291.032 689.085 291.147 689.427 291.345 689.722C291.542 690.017 291.815 690.255 292.135 690.409C292.455 690.564 292.81 690.631 293.164 690.603C293.518 690.575 293.859 690.453 294.15 690.25C294.193 690.286 294.24 690.316 294.29 690.34C333 704.8 371.83 673 366.34 632.43Z" fill="#820333"/>
<path d="M277.18 707.74C277.33 694.93 274.35 681.97 264.51 673.07C253.23 662.87 236.91 657.07 223.57 650.13C222.21 649.43 220.03 650.63 220.7 652.33C226.7 667.68 225.89 686.44 236.54 699.77C245.6 711.11 260.91 714.93 274.54 710.77C275.553 709.889 276.447 708.881 277.2 707.77L277.18 707.74Z" fill="#820333"/>
<path d="M396.18 749.5C387.13 742.5 375.46 743.19 364.51 743.67C352.36 744.2 340.15 746.06 329.07 751.32C309.8 760.49 296.24 780.74 303.22 802.17C303.102 802.643 303.172 803.143 303.414 803.566C303.656 803.989 304.052 804.302 304.52 804.44C322.9 810.25 331.77 797.98 342.84 785.76C357.042 770.234 375.174 758.832 395.32 752.76C396.58 752.37 397.41 750.45 396.18 749.5Z" fill="#820333"/>
<path d="M440.16 795.28C439.921 795.189 439.688 795.086 439.46 794.97C431.66 791.61 424.67 785.25 417.57 779.13C417.57 779.13 417.57 779.13 417.5 779.05C409.73 772.34 401.81 765.98 392.57 764.3C392.491 764.281 392.409 764.281 392.33 764.3C387.731 763.493 383.003 763.886 378.6 765.44C358.93 771.99 346.84 792.44 344.89 812.17C344.861 812.571 344.971 812.97 345.2 813.3C345.2 813.42 345.12 813.5 345.09 813.61C345 813.906 344.976 814.217 345.018 814.523C345.06 814.829 345.168 815.123 345.334 815.383C345.501 815.643 345.721 815.864 345.981 816.031C346.241 816.198 346.534 816.307 346.84 816.35C363.69 818.35 380.24 816.35 396.74 812.91C411.37 809.83 427.91 807.33 440.63 798.91C440.962 798.709 441.228 798.416 441.397 798.067C441.565 797.717 441.628 797.327 441.579 796.942C441.529 796.557 441.368 796.195 441.116 795.9C440.864 795.605 440.532 795.39 440.16 795.28Z" fill="#820333"/>
<path d="M410.89 833C389.38 828.69 344.89 817.74 341.89 852C341.859 852.215 341.873 852.434 341.929 852.644C341.986 852.853 342.084 853.049 342.219 853.219C342.354 853.39 342.522 853.531 342.713 853.634C342.904 853.737 343.114 853.801 343.33 853.82C362.86 876.74 400.84 858.56 412.07 835.82C412.203 835.561 412.277 835.276 412.289 834.985C412.3 834.694 412.247 834.405 412.135 834.136C412.023 833.867 411.853 833.627 411.638 833.431C411.423 833.234 411.168 833.087 410.89 833Z" fill="#820333"/>
<path d="M274.54 764C268.83 751.37 255.54 738.32 242.54 733.56C242.251 733.49 241.95 733.485 241.659 733.546C241.368 733.607 241.094 733.732 240.858 733.912C240.621 734.092 240.428 734.323 240.291 734.587C240.155 734.851 240.08 735.143 240.07 735.44C240.29 760.33 234.18 799.51 261.26 813.28C261.438 813.357 261.627 813.407 261.82 813.43C261.986 813.721 262.226 813.963 262.516 814.131C262.806 814.299 263.135 814.388 263.47 814.388C263.805 814.388 264.134 814.299 264.424 814.131C264.714 813.963 264.954 813.721 265.12 813.43C273.45 798.54 282.24 781.07 274.54 764Z" fill="#820333"/>
<path d="M204 779.87C190.77 769.05 169.89 766.71 154.51 774.52C133.17 785.35 136.99 811.06 133.74 830.86C133.662 831.267 133.712 831.688 133.884 832.065C134.055 832.442 134.339 832.756 134.697 832.965C135.055 833.173 135.469 833.265 135.881 833.229C136.294 833.192 136.685 833.028 137 832.76C158.09 814.26 187.51 807.01 203.6 782.76C203.871 782.645 204.107 782.462 204.285 782.229C204.464 781.995 204.579 781.72 204.619 781.429C204.66 781.137 204.624 780.841 204.515 780.568C204.407 780.294 204.229 780.054 204 779.87Z" fill="#820333"/>
<path d="M204.17 799.46C203.919 799.071 203.535 798.786 203.091 798.658C202.646 798.529 202.17 798.565 201.75 798.76C201.486 798.379 201.088 798.112 200.636 798.012C200.183 797.912 199.71 797.986 199.31 798.22C188.75 804.02 176.36 812.12 174.31 824.9C171.82 840.14 180.39 855.01 181.36 870.02C181.49 872.09 184.75 872.83 185.18 870.55C187.9 856.12 202.85 849.55 208.34 836.55C212.84 825.88 210.45 809.07 204.17 799.46Z" fill="#820333"/>
<path d="M269.37 888C256.96 870.57 244.19 855.67 222.62 850.2C221.06 849.81 219.44 851.6 220.42 853.07C225.28 860.37 225.18 868.65 229.25 876.01C231.65 880.37 235.61 883.63 239.76 886.25C248.95 892.07 260.81 897.34 271.06 891.47C273.14 890.25 271.44 887.16 269.37 888Z" fill="#820333"/>
<path d="M297.37 867.4C297.331 867.203 297.26 867.014 297.16 866.84C288.63 853.21 288.25 835.9 276.47 824.17C276.254 823.969 275.997 823.818 275.716 823.728C275.435 823.637 275.138 823.61 274.846 823.649C274.553 823.687 274.273 823.789 274.025 823.949C273.776 824.108 273.567 824.32 273.41 824.57C267.63 833.82 264.84 844.93 269.41 855.3C274.41 866.52 284.83 869.58 296.21 870.75C298.22 871 298.58 868.51 297.37 867.4Z" fill="#820333"/>
<path d="M321.3 715.12C318.87 713.12 315.62 715.12 313.22 716.12C308.661 717.96 304.337 720.336 300.34 723.2C292.95 728.69 287.89 736.49 287.42 745.69C287.38 745.925 287.38 746.165 287.42 746.4C287.42 746.67 287.37 746.93 287.37 747.19C287.406 747.621 287.581 748.028 287.868 748.351C288.155 748.674 288.538 748.896 288.962 748.982C289.385 749.069 289.825 749.016 290.216 748.832C290.607 748.648 290.928 748.342 291.13 747.96C300.57 745.9 308.04 739.81 314.23 732.51C317 729.17 327 719.88 321.3 715.12Z" fill="#820333"/>
<path d="M325.58 869C325.28 868.72 325.04 868.4 324.76 868.11C327.18 851.47 328.22 832.2 311.83 822.41C311.569 822.268 311.281 822.186 310.984 822.169C310.688 822.152 310.392 822.202 310.117 822.314C309.842 822.426 309.596 822.597 309.396 822.817C309.196 823.036 309.047 823.296 308.96 823.58C306.718 832.115 306.822 841.096 309.262 849.577C311.701 858.057 316.385 865.721 322.82 871.76C324.64 873.45 327.41 870.69 325.58 869Z" fill="#820333"/>
<path d="M438.48 793.33C431.27 790.13 424.48 784.59 417.57 779.13C417.57 779.13 417.57 779.13 417.5 779.05C409.58 772.77 401.5 766.6 392.57 764.3C392.491 764.281 392.409 764.281 392.33 764.3C387.731 763.493 383.003 763.886 378.6 765.44C358.93 771.99 346.84 792.44 344.89 812.17C344.861 812.571 344.971 812.97 345.2 813.3C345.2 813.42 345.12 813.5 345.09 813.61C345.423 813.594 345.747 813.502 346.038 813.341C346.33 813.18 346.58 812.954 346.77 812.68C347.157 812.618 347.511 812.424 347.77 812.13C354.18 805.3 361 798.95 367.72 792.43C370.95 789.31 374.11 785.37 377.78 782.75C385.58 777.18 392.29 778.23 400.48 780.61C410.28 783.46 419.21 788.53 428.1 793.4C431.42 795.27 434.66 798.4 438.44 796.72C438.757 796.566 439.022 796.322 439.2 796.017C439.378 795.713 439.461 795.362 439.44 795.01C439.466 794.666 439.388 794.323 439.217 794.023C439.046 793.724 438.789 793.483 438.48 793.33Z" fill="#C9283E"/>
<path d="M265.74 859C263.88 851.43 261.79 843.77 259.23 836.28C259.23 836.22 259.3 836.17 259.32 836.11C262.773 824.334 264.17 812.051 263.45 799.8C263.801 799.75 264.13 799.6 264.398 799.368C264.666 799.136 264.861 798.831 264.96 798.49C267.204 791.383 268.169 783.934 267.81 776.49C267.68 773.99 263.81 773.98 263.9 776.49C264.145 781.612 263.732 786.744 262.67 791.76C261.889 785.928 260.634 780.169 258.92 774.54C258.18 772.14 254.42 773.17 255.16 775.54C260.635 793.141 261.229 811.898 256.88 829.81C253.376 820.472 248.532 811.693 242.5 803.75C228.05 785.25 201.77 774.01 180.97 782.75C180.95 782.368 180.802 782.003 180.55 781.715C180.298 781.427 179.956 781.231 179.58 781.16C175.658 780.183 171.58 779.994 167.584 780.603C163.588 781.213 159.753 782.609 156.3 784.71C154.16 786.01 156.12 789.38 158.3 788.08C163.919 784.63 170.624 783.403 177.1 784.64C171.91 787.606 167.438 791.68 164 796.57C162.53 798.57 165.91 800.57 167.36 798.57C177.36 784.73 195.47 780.37 211.36 785.57C215.899 787.073 220.207 789.2 224.16 791.89C207.53 791.54 194.93 802.68 183.56 813.76C181.76 815.51 184.56 818.27 186.32 816.52C188.58 814.31 190.88 812.1 193.24 809.99C192.593 813.923 192.475 817.926 192.89 821.89C193.14 824.36 197.05 824.39 196.79 821.89C196.237 816.824 196.613 811.7 197.9 806.77C197.949 806.526 197.949 806.274 197.9 806.03C205.9 799.68 214.9 795.03 225.96 795.84C226.369 795.893 226.783 795.786 227.117 795.542C227.45 795.299 227.676 794.936 227.75 794.53C236.6 801.53 243.56 811.01 248.61 821.03C258.61 840.98 264.36 863.78 267.61 886.61C259.612 884.574 252.392 880.226 246.85 874.11C245.16 872.25 242.41 875.02 244.09 876.87C246.897 879.961 250.113 882.652 253.65 884.87C251.398 884.892 249.148 884.738 246.92 884.41C244.46 884.03 243.41 887.78 245.92 888.17C249.634 888.771 253.404 888.959 257.16 888.73C257.504 888.716 257.838 888.607 258.124 888.415C258.411 888.222 258.637 887.954 258.78 887.64C261.682 888.984 264.715 890.026 267.83 890.75C267.96 890.76 268.09 890.76 268.22 890.75C269.65 901.81 270.51 912.84 271.02 923.51C271.13 926.02 275.02 926.03 274.91 923.51C273.951 901.76 270.88 880.155 265.74 859Z" fill="#C9283E"/>
<path d="M330.47 778.81C326.985 781.342 323.631 784.049 320.42 786.92C322.263 780.014 325.31 773.488 329.42 767.64C330.86 765.58 327.48 763.64 326.05 765.64C320.969 772.837 317.435 781.009 315.67 789.64C315.612 789.891 315.607 790.152 315.656 790.405C315.704 790.658 315.804 790.898 315.95 791.11C307.234 799.628 299.79 809.358 293.85 820C292.79 806.547 291.923 793.083 291.25 779.61C290.79 770.04 290.05 759.32 289.78 748.29C294.29 742.2 299.07 736.21 306.08 732.92C308.35 731.85 306.37 728.49 304.08 729.55C298.13 732.34 293.66 736.98 289.65 742.01C289.65 736.84 289.72 731.63 290.03 726.46C290.191 726.193 290.285 725.89 290.304 725.579C290.323 725.267 290.267 724.955 290.14 724.67C292.14 697.12 300.37 671.1 326.75 658.93C329.02 657.93 327.05 654.51 324.75 655.56C318.528 658.407 312.857 662.331 308 667.15C307.785 663.371 308.396 659.59 309.79 656.07C310.7 653.74 306.93 652.72 306.03 655.07C304.098 660.058 303.552 665.477 304.45 670.75C304.476 670.825 304.506 670.899 304.54 670.97C293.31 684.35 288.67 702.24 286.99 720.78L269.99 701.1C270.29 700.955 270.538 700.72 270.7 700.428C270.861 700.136 270.927 699.802 270.89 699.47C270.585 694.039 268.766 688.802 265.64 684.35C264.21 682.35 260.82 684.26 262.27 686.35C264.592 689.616 266.106 693.386 266.69 697.35L260.39 690.04C258.75 688.14 256 690.9 257.63 692.8C267.27 703.98 276.907 715.163 286.54 726.35C286.13 733.17 286.07 740.02 286.16 746.73L285.91 747.07C285.77 747.235 285.665 747.428 285.604 747.636C285.543 747.844 285.525 748.062 285.554 748.277C285.582 748.492 285.655 748.698 285.768 748.883C285.881 749.068 286.032 749.227 286.21 749.35C286.34 755.92 286.6 762.35 286.84 768.35C288.093 799.457 290.427 830.487 293.84 861.44C286.84 857.56 282.96 850.25 279.45 843.24C278.34 840.99 274.97 842.97 276.09 845.24C280.09 853.24 284.71 861.69 293.25 865.6C293.578 865.75 293.943 865.803 294.3 865.75C296.54 885.617 299.207 905.43 302.3 925.19C302.69 927.67 306.45 926.62 306.06 924.19C300.993 891.75 297.087 859.163 294.34 826.43C294.736 826.282 295.061 825.989 295.25 825.61C304.074 808.471 316.803 793.646 332.41 782.33C334.45 780.71 332.51 777.33 330.47 778.81Z" fill="#C9283E"/>
<path d="M395 781.89C387.199 781.755 379.484 783.534 372.53 787.07C375.409 783.976 378.54 781.126 381.89 778.55C383.89 777.04 381.89 773.66 379.89 775.18C373.378 780.147 367.627 786.039 362.82 792.67C362.651 792.898 362.535 793.161 362.48 793.44C349.29 803.8 339.48 819.62 333.48 834.71C329.877 843.89 327.04 853.352 325 863C322.82 859.34 321.61 855.25 320.25 851.21C319.18 847.99 318.19 845.06 315.2 843.21C313.07 841.87 311.1 845.21 313.2 846.57C316.36 848.57 317.09 854.26 318.2 857.57C319.193 860.759 320.638 863.79 322.49 866.57C322.661 866.817 322.888 867.021 323.152 867.165C323.416 867.309 323.71 867.39 324.01 867.4C319.28 890.98 318.01 915.49 315.71 939.12C315.47 941.61 319.37 941.6 319.61 939.12C321.72 917.12 323.08 894.64 327.07 872.77C327.38 872.67 327.659 872.49 327.88 872.25C335.24 864.11 342.88 855.92 352.19 850.25C354.978 852.856 358.288 854.84 361.9 856.07C364.28 856.88 365.3 853.07 362.9 852.31C360.29 851.423 357.864 850.068 355.74 848.31C358.347 846.946 361.071 845.818 363.88 844.94C366.28 844.23 365.25 840.46 362.88 841.18C359.189 842.307 355.631 843.833 352.27 845.73C351.971 845.757 351.681 845.851 351.423 846.005C351.166 846.159 350.946 846.369 350.78 846.62C342.35 851.62 335.2 858.62 328.44 865.89C329.74 859.75 331.21 853.65 333.07 847.65C336.83 835.49 342.79 822.01 351.07 810.76C351.14 810.76 351.2 810.76 351.28 810.76C355.702 809.275 360.256 808.216 364.88 807.6C367.35 807.26 366.3 803.5 363.88 803.83C360.985 804.247 358.117 804.831 355.29 805.58C365.48 793.82 378.63 785.58 395 785.88C397.54 785.83 397.54 781.93 395 781.89Z" fill="#C9283E"/>
<path d="M362.49 903.44L359.38 922.78L353.81 957.4L341.69 1032.89H252.94L240.81 957.4L235.24 922.78L232.14 903.44H362.49Z" fill="#FFC800"/>
<path d="M269.19 922.78L266.09 903.44H232.14L235.24 922.78L240.81 957.4L252.94 1032.89H286.89L274.77 957.4L269.19 922.78Z" fill="#FFC800"/>
<path opacity="0.64" d="M331.29 1026.67H330.93C328.64 1026.55 326.93 1025.27 327.14 1023.83L342.39 909C342.58 907.56 344.56 906.46 346.88 906.6C349.2 906.74 350.88 908 350.68 909.44L335.43 1024.3C335.24 1025.63 333.42 1026.67 331.29 1026.67Z" fill="white"/>
<path opacity="0.64" d="M313.37 1026.67H313C310.71 1026.55 309 1025.27 309.2 1023.83L324.47 909C324.66 907.56 326.65 906.46 328.96 906.6C331.27 906.74 332.96 908 332.76 909.44L317.51 1024.3C317.33 1025.63 315.5 1026.67 313.37 1026.67Z" fill="white"/>
<path d="M1399.86 758C1399.79 757.714 1399.62 757.46 1399.39 757.279C1399.15 757.098 1398.87 757 1398.57 757C1385.88 757.2 1369.99 757.24 1359.25 765.08C1349.25 772.39 1347.74 785.28 1347.97 796.77C1347.98 797.015 1348.06 797.253 1348.2 797.457C1348.33 797.662 1348.52 797.827 1348.74 797.934C1348.96 798.041 1349.21 798.087 1349.45 798.067C1349.69 798.047 1349.93 797.962 1350.13 797.82L1350.22 797.88C1376.88 807.85 1403.65 785.94 1399.86 758Z" fill="#820333"/>
<path d="M1338.44 809.87C1338.54 801.04 1336.44 792.12 1329.71 785.98C1321.93 778.98 1310.71 774.98 1301.5 770.18C1300.57 769.7 1299.06 770.53 1299.5 771.7C1303.65 782.27 1303.07 795.19 1310.41 804.38C1316.65 812.19 1327.2 814.83 1336.58 811.94C1337.28 811.331 1337.89 810.636 1338.41 809.87H1338.44Z" fill="#820333"/>
<path d="M1420.42 838.64C1414.19 833.81 1406.15 834.3 1398.6 834.64C1390.23 835 1381.82 836.28 1374.19 839.91C1360.91 846.23 1351.57 860.17 1356.38 874.91C1356.3 875.235 1356.35 875.578 1356.51 875.868C1356.68 876.159 1356.95 876.374 1357.27 876.47C1369.93 880.47 1376.04 872.02 1383.67 863.61C1393.45 852.909 1405.95 845.051 1419.83 840.87C1420.7 840.62 1421.27 839.3 1420.42 838.64Z" fill="#820333"/>
<path d="M1450.73 870.18C1450.56 870.125 1450.4 870.055 1450.24 869.97C1444.87 867.66 1440.05 863.27 1435.16 859.05C1435.16 859.05 1435.16 859.05 1435.11 859.05C1429.76 854.43 1424.3 850.05 1417.93 848.89C1417.88 848.875 1417.82 848.875 1417.77 848.89C1414.6 848.338 1411.34 848.61 1408.31 849.68C1394.76 854.19 1386.43 868.3 1385.09 881.87C1385.06 882.147 1385.14 882.424 1385.3 882.65L1385.22 882.87C1385.16 883.074 1385.14 883.288 1385.17 883.498C1385.2 883.709 1385.28 883.91 1385.39 884.089C1385.51 884.268 1385.66 884.419 1385.84 884.534C1386.02 884.648 1386.22 884.722 1386.43 884.75C1398.04 886.12 1409.43 884.75 1420.81 882.38C1430.89 880.26 1442.28 878.54 1451.05 872.71C1451.3 872.582 1451.5 872.381 1451.63 872.135C1451.75 871.889 1451.8 871.609 1451.77 871.334C1451.74 871.058 1451.62 870.8 1451.43 870.594C1451.25 870.388 1451 870.243 1450.73 870.18Z" fill="#820333"/>
<path d="M1430.56 896.17C1415.74 893.17 1385.1 885.66 1383.01 909.29C1382.99 909.438 1383 909.589 1383.04 909.733C1383.08 909.877 1383.15 910.011 1383.24 910.128C1383.34 910.245 1383.45 910.341 1383.58 910.412C1383.72 910.483 1383.86 910.526 1384.01 910.54C1397.46 926.33 1423.63 913.8 1431.36 898.15C1431.46 897.971 1431.52 897.772 1431.54 897.567C1431.55 897.362 1431.52 897.156 1431.44 896.966C1431.36 896.775 1431.24 896.605 1431.09 896.467C1430.94 896.329 1430.76 896.227 1430.56 896.17Z" fill="#820333"/>
<path d="M1336.62 848.65C1332.68 839.94 1323.55 830.95 1314.56 827.65C1314.36 827.597 1314.15 827.59 1313.95 827.63C1313.75 827.67 1313.55 827.756 1313.39 827.882C1313.23 828.007 1313.09 828.169 1313 828.354C1312.91 828.539 1312.86 828.743 1312.86 828.95C1313 846.1 1308.8 873.09 1327.45 882.58C1327.57 882.632 1327.71 882.666 1327.84 882.68C1327.95 882.88 1328.12 883.045 1328.32 883.16C1328.52 883.275 1328.74 883.336 1328.97 883.336C1329.21 883.336 1329.43 883.275 1329.63 883.16C1329.83 883.045 1330 882.88 1330.11 882.68C1335.87 872.43 1341.92 860.39 1336.62 848.65Z" fill="#820333"/>
<path d="M1288 859.56C1278.89 852.11 1264.5 850.5 1253.9 855.88C1239.2 863.34 1241.83 881.05 1239.6 894.7C1239.53 894.984 1239.55 895.284 1239.66 895.554C1239.78 895.824 1239.97 896.051 1240.23 896.198C1240.48 896.346 1240.77 896.408 1241.06 896.374C1241.36 896.34 1241.63 896.212 1241.84 896.01C1256.37 883.26 1276.64 878.26 1287.72 861.57C1287.91 861.491 1288.07 861.364 1288.2 861.202C1288.32 861.039 1288.4 860.848 1288.43 860.645C1288.46 860.442 1288.44 860.235 1288.36 860.045C1288.28 859.855 1288.16 859.688 1288 859.56Z" fill="#820333"/>
<path d="M1288.13 873.07C1287.96 872.799 1287.7 872.599 1287.39 872.509C1287.09 872.418 1286.76 872.444 1286.47 872.58C1286.29 872.321 1286.01 872.139 1285.7 872.071C1285.39 872.002 1285.07 872.052 1284.79 872.21C1277.51 876.21 1268.97 881.79 1267.54 890.59C1265.83 901.09 1271.73 911.34 1272.4 921.68C1272.49 923.1 1274.74 923.62 1275.03 922.04C1276.9 912.1 1287.2 907.57 1291.03 898.63C1294.11 891.27 1292.46 879.68 1288.13 873.07Z" fill="#820333"/>
<path d="M1333.06 934.05C1324.5 922.05 1315.71 911.78 1300.85 908.05C1300.59 907.982 1300.32 907.992 1300.06 908.08C1299.81 908.168 1299.59 908.329 1299.42 908.543C1299.26 908.757 1299.16 909.014 1299.15 909.282C1299.13 909.551 1299.19 909.818 1299.33 910.05C1302.68 915.05 1302.61 920.79 1305.41 925.86C1307.2 928.784 1309.69 931.212 1312.66 932.92C1318.99 936.92 1327.16 940.56 1334.22 936.51C1334.55 936.356 1334.8 936.079 1334.92 935.74C1335.04 935.4 1335.02 935.026 1334.87 934.7C1334.72 934.374 1334.44 934.122 1334.1 934C1333.76 933.878 1333.39 933.896 1333.06 934.05Z" fill="#820333"/>
<path d="M1352.35 919.87C1352.32 919.736 1352.27 919.607 1352.2 919.49C1346.32 910.1 1346.06 898.17 1337.95 890.09C1337.8 889.948 1337.63 889.84 1337.43 889.775C1337.24 889.711 1337.03 889.691 1336.83 889.717C1336.63 889.743 1336.43 889.814 1336.26 889.925C1336.09 890.037 1335.95 890.185 1335.84 890.36C1331.84 896.73 1329.93 904.36 1333.09 911.53C1336.52 919.26 1343.72 921.38 1351.56 922.18C1352.94 922.33 1353.18 920.64 1352.35 919.87Z" fill="#820333"/>
<path d="M1368.83 815C1367.16 813.59 1364.92 815 1363.27 815.69C1360.13 816.958 1357.15 818.596 1354.39 820.57C1349.3 824.36 1345.81 829.73 1345.5 836.06C1345.46 836.221 1345.46 836.389 1345.5 836.55C1345.5 836.74 1345.5 836.92 1345.5 837.1C1345.51 837.405 1345.62 837.697 1345.82 837.93C1346.02 838.163 1346.29 838.323 1346.59 838.384C1346.89 838.445 1347.2 838.404 1347.47 838.267C1347.74 838.131 1347.96 837.906 1348.09 837.63C1354.59 836.21 1359.74 832.01 1364 826.98C1365.89 824.64 1372.75 818.23 1368.83 815Z" fill="#820333"/>
<path d="M1371.78 921C1371.58 920.8 1371.41 920.58 1371.21 920.38C1372.89 908.92 1373.6 895.64 1362.31 888.9C1362.13 888.792 1361.93 888.727 1361.72 888.71C1361.51 888.693 1361.3 888.725 1361.11 888.802C1360.92 888.88 1360.74 889.001 1360.6 889.157C1360.47 889.313 1360.37 889.499 1360.31 889.7C1358.76 895.58 1358.82 901.77 1360.5 907.615C1362.18 913.46 1365.41 918.741 1369.85 922.9C1371.14 924 1373 922.14 1371.78 921Z" fill="#820333"/>
<path d="M1449.57 868.84C1444.57 866.63 1439.92 862.84 1435.16 859.05C1435.16 859.05 1435.16 859.05 1435.11 859.05C1429.65 854.72 1424.11 850.48 1417.93 848.89C1417.88 848.875 1417.82 848.875 1417.77 848.89C1414.6 848.338 1411.34 848.61 1408.31 849.68C1394.76 854.19 1386.43 868.3 1385.09 881.87C1385.06 882.147 1385.14 882.424 1385.3 882.65L1385.22 882.87C1385.45 882.861 1385.68 882.797 1385.88 882.684C1386.08 882.571 1386.25 882.412 1386.38 882.22C1386.66 882.188 1386.91 882.057 1387.1 881.85C1391.51 877.14 1396.22 872.76 1400.84 868.27C1403.07 866.12 1405.25 863.41 1407.77 861.61C1413.15 857.76 1417.77 858.49 1423.42 860.13C1430.16 862.13 1436.32 865.59 1442.42 868.94C1444.7 870.23 1446.93 872.41 1449.54 871.23C1449.76 871.121 1449.93 870.951 1450.05 870.741C1450.17 870.531 1450.23 870.291 1450.21 870.05C1450.24 869.807 1450.2 869.56 1450.08 869.344C1449.97 869.127 1449.79 868.951 1449.57 868.84Z" fill="#C9283E"/>
<path d="M1330.55 914.08C1329.27 908.87 1327.84 903.59 1326.07 898.43C1326.07 898.43 1326.07 898.36 1326.13 898.31C1328.52 890.204 1329.48 881.745 1328.97 873.31C1329.2 873.268 1329.42 873.161 1329.6 873.002C1329.77 872.843 1329.9 872.638 1329.97 872.41C1331.53 867.515 1332.2 862.382 1331.97 857.25C1331.88 855.53 1329.19 855.52 1329.28 857.25C1329.45 860.782 1329.16 864.321 1328.43 867.78C1327.89 863.761 1327.03 859.791 1325.85 855.91C1325.34 854.26 1322.74 854.96 1323.25 856.62C1327.03 868.745 1327.44 881.669 1324.44 894.01C1322.03 887.559 1318.69 881.495 1314.53 876.01C1304.53 863.26 1286.47 855.51 1272.14 861.52C1272.13 861.25 1272.02 860.994 1271.84 860.795C1271.65 860.596 1271.41 860.467 1271.14 860.43C1268.44 859.761 1265.64 859.633 1262.9 860.052C1260.15 860.47 1257.51 861.428 1255.14 862.87C1254.85 863.058 1254.64 863.352 1254.55 863.691C1254.47 864.03 1254.52 864.387 1254.7 864.689C1254.88 864.99 1255.16 865.211 1255.5 865.307C1255.83 865.402 1256.19 865.364 1256.5 865.2C1260.38 862.811 1265.02 861.962 1269.5 862.82C1265.94 864.872 1262.87 867.673 1260.5 871.03C1259.5 872.44 1261.82 873.79 1262.82 872.39C1269.7 862.86 1282.19 859.86 1293.13 863.39C1296.26 864.425 1299.23 865.893 1301.95 867.75C1290.49 867.51 1281.81 875.18 1273.95 882.81C1272.71 884.02 1274.62 885.92 1275.86 884.71C1277.41 883.19 1279 881.71 1280.63 880.22C1280.18 882.929 1280.09 885.688 1280.38 888.42C1280.56 890.12 1283.25 890.14 1283.07 888.42C1282.69 884.929 1282.95 881.399 1283.83 878C1283.87 877.832 1283.87 877.658 1283.83 877.49C1289.37 873.11 1295.56 869.93 1303.16 870.49C1303.44 870.526 1303.73 870.452 1303.96 870.285C1304.19 870.118 1304.35 869.87 1304.4 869.59C1310.45 874.57 1315.35 880.799 1318.77 887.85C1325.68 901.59 1329.62 917.29 1331.85 933.02C1326.34 931.621 1321.37 928.63 1317.55 924.42C1316.39 923.13 1314.49 925.04 1315.65 926.32C1317.59 928.436 1319.81 930.279 1322.24 931.8C1320.69 931.808 1319.14 931.701 1317.6 931.48C1315.9 931.21 1315.18 933.8 1316.88 934.07C1319.44 934.481 1322.04 934.609 1324.63 934.45C1324.87 934.442 1325.1 934.367 1325.29 934.235C1325.49 934.102 1325.64 933.917 1325.74 933.7C1327.74 934.628 1329.83 935.346 1331.98 935.84C1332.07 935.85 1332.15 935.85 1332.24 935.84C1333.24 943.46 1333.83 951.06 1334.17 958.41C1334.25 960.14 1336.94 960.15 1336.86 958.41C1336.19 943.464 1334.08 928.618 1330.55 914.08Z" fill="#C9283E"/>
<path d="M1375.16 858.83C1372.76 860.575 1370.44 862.441 1368.23 864.42C1369.5 859.662 1371.6 855.166 1374.43 851.14C1375.43 849.72 1373.1 848.38 1372.11 849.78C1368.62 854.729 1366.18 860.346 1364.96 866.28C1364.89 866.625 1364.96 866.985 1365.15 867.28C1359.15 873.154 1354.02 879.859 1349.92 887.19C1349.19 877.923 1348.59 868.646 1348.13 859.36C1347.82 852.76 1347.3 845.36 1347.13 837.78C1350.25 833.59 1353.54 829.46 1358.37 827.19C1359.93 826.46 1358.57 824.14 1357.01 824.87C1352.91 826.8 1349.83 829.99 1347.07 833.46C1347.07 829.89 1347.07 826.3 1347.33 822.74C1347.44 822.556 1347.5 822.348 1347.52 822.133C1347.53 821.919 1347.49 821.705 1347.4 821.51C1348.75 802.51 1354.4 784.6 1372.63 776.21C1374.2 775.49 1372.83 773.21 1371.27 773.89C1366.96 775.852 1363.03 778.56 1359.67 781.89C1359.52 779.287 1359.94 776.684 1360.9 774.26C1361.53 772.65 1358.9 771.94 1358.31 773.54C1356.98 776.98 1356.61 780.715 1357.23 784.35C1357.23 784.35 1357.23 784.44 1357.23 784.49C1349.5 793.72 1346.3 806.04 1345.14 818.81C1341.25 814.303 1337.35 809.783 1333.46 805.25C1333.67 805.152 1333.84 804.992 1333.95 804.79C1334.06 804.589 1334.11 804.358 1334.08 804.13C1333.87 800.391 1332.62 796.785 1330.47 793.72C1329.47 792.31 1327.15 793.66 1328.14 795.07C1329.72 797.318 1330.74 799.904 1331.14 802.62L1326.8 797.62C1325.67 796.31 1323.8 798.22 1324.9 799.52L1344.82 822.64C1344.53 827.33 1344.49 832.06 1344.55 836.64L1344.38 836.88C1344.28 836.992 1344.21 837.124 1344.17 837.266C1344.13 837.408 1344.11 837.557 1344.13 837.704C1344.15 837.851 1344.2 837.993 1344.28 838.119C1344.36 838.246 1344.46 838.355 1344.58 838.44C1344.68 842.97 1344.85 847.38 1345.02 851.54C1345.88 872.973 1347.49 894.353 1349.86 915.68C1345.02 913 1342.36 907.97 1339.94 903.14C1339.17 901.59 1336.85 902.95 1337.63 904.5C1340.4 910.04 1343.56 915.83 1349.45 918.5C1349.68 918.603 1349.92 918.641 1350.17 918.61C1351.72 932.29 1353.55 945.956 1355.68 959.61C1355.95 961.31 1358.54 960.61 1358.28 958.9C1354.78 936.553 1352.09 914.103 1350.2 891.55C1350.47 891.444 1350.7 891.241 1350.83 890.98C1356.91 879.17 1365.68 868.955 1376.43 861.16C1377.9 860.15 1376.56 857.81 1375.16 858.83Z" fill="#C9283E"/>
<path d="M1419.63 861C1414.25 860.907 1408.93 862.133 1404.14 864.57C1406.13 862.433 1408.29 860.466 1410.6 858.69C1411.95 857.69 1410.6 855.33 1409.24 856.37C1404.76 859.78 1400.8 863.822 1397.48 868.37C1397.36 868.527 1397.29 868.708 1397.25 868.9C1388.16 876.04 1381.43 886.9 1377.25 897.34C1374.75 903.664 1372.78 910.182 1371.36 916.83C1369.99 914.247 1368.89 911.525 1368.09 908.71C1367.35 906.49 1366.67 904.48 1364.61 903.19C1363.14 902.27 1361.79 904.59 1363.25 905.51C1365.43 906.87 1365.93 910.8 1366.72 913.07C1367.42 915.266 1368.43 917.35 1369.72 919.26C1369.83 919.424 1369.98 919.561 1370.15 919.66C1370.33 919.758 1370.52 919.817 1370.72 919.83C1367.47 936.08 1366.56 952.96 1365 969.24C1364.84 970.96 1367.53 970.95 1367.69 969.24C1369.14 954.09 1370.08 938.6 1372.83 923.53C1373.04 923.457 1373.23 923.333 1373.39 923.17C1378.46 917.56 1383.73 911.92 1390.13 908.02C1392.06 909.808 1394.34 911.171 1396.83 912.02C1398.47 912.58 1399.17 910.02 1397.54 909.43C1395.74 908.81 1394.07 907.868 1392.61 906.65C1394.41 905.709 1396.28 904.932 1398.22 904.33C1398.53 904.21 1398.79 903.977 1398.94 903.677C1399.1 903.377 1399.13 903.031 1399.04 902.707C1398.95 902.383 1398.74 902.105 1398.46 901.926C1398.17 901.747 1397.83 901.681 1397.5 901.74C1394.96 902.515 1392.51 903.565 1390.19 904.87C1389.99 904.898 1389.8 904.967 1389.62 905.074C1389.45 905.181 1389.3 905.322 1389.19 905.49C1383.39 908.94 1378.46 913.72 1373.8 918.76C1374.7 914.53 1375.71 910.33 1376.99 906.2C1379.72 897.107 1383.91 888.52 1389.41 880.78C1389.46 880.785 1389.51 880.785 1389.56 880.78C1392.61 879.763 1395.75 879.037 1398.93 878.61C1400.64 878.38 1399.93 875.79 1398.22 876.02C1396.22 876.299 1394.25 876.699 1392.3 877.22C1399.3 869.12 1408.38 863.43 1419.66 863.64C1419.97 863.582 1420.25 863.417 1420.45 863.173C1420.65 862.929 1420.76 862.623 1420.75 862.307C1420.75 861.992 1420.64 861.688 1420.43 861.449C1420.22 861.21 1419.94 861.051 1419.63 861Z" fill="#C9283E"/>
<path d="M1397.21 944.7L1395.07 958.02L1391.23 981.88L1382.88 1033.89H1321.74L1313.38 981.88L1309.54 958.02L1307.41 944.7H1397.21Z" fill="#FFC800"/>
<path d="M1332.93 958.02L1330.8 944.7H1307.41L1309.54 958.02L1313.38 981.88L1321.74 1033.89H1345.13L1336.77 981.88L1332.93 958.02Z" fill="#FFC800"/>
<path opacity="0.64" d="M1375.71 1029.6H1375.47C1373.89 1029.52 1372.72 1028.6 1372.86 1027.65L1383.37 948.52C1383.5 947.52 1384.86 946.77 1386.46 946.86C1388.06 946.95 1389.21 947.86 1389.07 948.86L1378.57 1027.99C1378.44 1028.89 1377.19 1029.6 1375.71 1029.6Z" fill="white"/>
<path opacity="0.64" d="M1363.37 1029.6H1363.13C1361.55 1029.52 1360.38 1028.6 1360.51 1027.65L1371 948.51C1371.13 947.51 1372.5 946.76 1374.09 946.85C1375.68 946.94 1376.84 947.85 1376.71 948.85L1366.2 1027.98C1366.1 1028.89 1364.84 1029.6 1363.37 1029.6Z" fill="white"/>
<path d="M248.573 474.027C263.799 458.801 263.799 434.114 248.573 418.887C233.346 403.661 208.659 403.661 193.432 418.887C178.206 434.114 178.206 458.801 193.432 474.027C208.659 489.254 233.346 489.254 248.573 474.027Z" fill="#2E112D"/>
<path d="M221 446.46L240.08 412.46C246.118 415.849 251.145 420.785 254.644 426.761C258.143 432.736 259.988 439.535 259.99 446.46H221Z" fill="#820333"/>
<path d="M221 446.46H260C259.999 454.578 257.465 462.494 252.75 469.104C248.036 475.713 241.376 480.686 233.7 483.33L221 446.46Z" fill="#E3EAFC"/>
<path d="M928 175.24V165H922.1C921.874 163.171 921.479 161.366 920.92 159.61L925.71 156.85L920.59 148L916.19 150.54C914.999 148.971 913.659 147.521 912.19 146.21L914.57 142.09L905.66 137L903.42 140.88C901.484 140.112 899.473 139.549 897.42 139.2V134.91H887.22V139.2C885.167 139.559 883.156 140.129 881.22 140.9L879.09 137.21L870.22 142.33L872.5 146.33C870.979 147.673 869.599 149.168 868.38 150.79L864.31 148.44L859.19 157.3L863.71 159.91C863.144 161.735 862.755 163.61 862.55 165.51H857.1V175.75H863.17C863.578 177.463 864.137 179.136 864.84 180.75L859.4 183.89L864.52 192.75L870.52 189.31C871.631 190.498 872.838 191.591 874.13 192.58L870.62 198.66L879.48 203.78L883.2 197.35C884.666 197.825 886.167 198.183 887.69 198.42V205.87H897.92V198.2C899.422 197.921 900.899 197.527 902.34 197.02L906 203.5L914.86 198.38L911.21 192C912.439 191.011 913.586 189.924 914.64 188.75L920.79 192.3L925.91 183.43L920.09 180.07C920.736 178.499 921.248 176.877 921.62 175.22L928 175.24ZM915.36 168.72C915.36 173.269 914.011 177.716 911.484 181.498C908.957 185.28 905.364 188.228 901.162 189.969C896.959 191.71 892.334 192.165 887.873 191.278C883.411 190.391 879.313 188.2 876.097 184.983C872.88 181.767 870.689 177.669 869.802 173.207C868.914 168.745 869.37 164.121 871.111 159.918C872.852 155.715 875.8 152.123 879.582 149.596C883.364 147.069 887.811 145.72 892.36 145.72C898.46 145.72 904.31 148.143 908.623 152.456C912.937 156.77 915.36 162.62 915.36 168.72Z" fill="#2E112D"/>
<path d="M892.34 149.7C888.582 149.7 884.909 150.814 881.784 152.902C878.66 154.99 876.224 157.957 874.786 161.429C873.348 164.901 872.972 168.721 873.705 172.407C874.438 176.092 876.248 179.478 878.905 182.135C881.562 184.792 884.948 186.602 888.633 187.335C892.319 188.068 896.139 187.692 899.611 186.254C903.083 184.816 906.05 182.38 908.138 179.256C910.226 176.131 911.34 172.458 911.34 168.7C911.34 163.661 909.338 158.828 905.775 155.265C902.212 151.702 897.379 149.7 892.34 149.7ZM892.34 184.44C889.231 184.44 886.192 183.518 883.607 181.791C881.021 180.063 879.006 177.608 877.817 174.736C876.627 171.863 876.316 168.703 876.922 165.653C877.529 162.604 879.026 159.803 881.224 157.604C883.423 155.406 886.224 153.909 889.273 153.302C892.323 152.695 895.483 153.007 898.356 154.197C901.228 155.386 903.683 157.401 905.411 159.986C907.138 162.572 908.06 165.611 908.06 168.72C908.06 172.889 906.404 176.888 903.456 179.836C900.508 182.784 896.509 184.44 892.34 184.44Z" fill="#820333"/>
<path d="M1411.39 627.2L1379.31 608.68V571.68L1411.39 553.16L1443.47 571.68V608.68L1443.17 608.86L1411.39 627.2ZM1380.51 608L1411.39 625.83L1442.27 608V572.33L1411.39 554.51L1380.51 572.33V608Z" fill="#49494A"/>
<path d="M1380.5 608.29L1379.95 607.68L1381.5 605L1382.24 605.43L1380.69 608.11L1380.42 607.95L1380.56 608.26L1380.5 608.29ZM1441.57 607.96L1438.75 606.69L1439.1 605.91L1441.42 606.91L1440.08 604.59L1440.82 604.16L1442.37 606.83L1441.87 607.12H1441.92L1441.57 607.96ZM1382.12 607.55L1381.77 606.77L1384.59 605.5L1384.94 606.28L1382.12 607.55ZM1437.18 605.98L1434.37 604.71L1434.72 603.92L1437.54 605.2L1437.18 605.98ZM1386.51 605.57L1386.15 604.79L1388.97 603.51L1389.32 604.3L1386.51 605.57ZM1432.8 604L1429.98 602.73L1430.34 601.94L1433.15 603.22L1432.8 604ZM1383.1 603.94L1382.35 603.51L1383.9 600.84L1384.64 601.27L1383.1 603.94ZM1390.89 603.59L1390.54 602.81L1393.35 601.53L1393.71 602.32L1390.89 603.59ZM1439.22 603.14L1437.67 600.46L1438.42 600.03L1439.96 602.71L1439.22 603.14ZM1428.42 602.02L1425.6 600.74L1425.95 599.96L1428.77 601.23L1428.42 602.02ZM1395.27 601.61L1394.92 600.82L1397.74 599.55L1398.09 600.33L1395.27 601.61ZM1424 600L1421.19 598.72L1421.54 597.94L1424.36 599.21L1424 600ZM1385.47 599.74L1384.73 599.31L1386.28 596.63L1387.02 597.06L1385.47 599.74ZM1399.62 599.59L1399.27 598.8L1402.09 597.53L1402.44 598.31L1399.62 599.59ZM1436.78 598.93L1435.24 596.25L1435.98 595.83L1437.53 598.5L1436.78 598.93ZM1419.62 598.01L1416.8 596.74L1417.16 595.96L1419.97 597.23L1419.62 598.01ZM1404.01 597.6L1403.65 596.82L1406.47 595.55L1406.83 596.33L1404.01 597.6ZM1415.24 596.03L1412.42 594.76L1412.77 593.98L1415.59 595.25L1415.24 596.03ZM1408.39 595.62L1408.04 594.84L1410.85 593.57L1411.21 594.35L1408.39 595.62ZM1387.88 595.62L1387.13 595.19L1388.68 592.52L1389.42 592.95L1387.88 595.62ZM1434.38 594.82L1432.83 592.14L1433.58 591.71L1435.12 594.39L1434.38 594.82ZM1390.28 591.46L1389.54 591.03L1391.09 588.35L1391.83 588.78L1390.28 591.46ZM1431.97 590.65L1430.43 587.97L1431.17 587.54L1432.72 590.22L1431.97 590.65ZM1392.69 587.29L1391.95 586.86L1393.49 584.18L1394.24 584.61L1392.69 587.29ZM1429.57 586.49L1428.02 583.81L1428.77 583.38L1430.31 586.06L1429.57 586.49ZM1395.09 583.13L1394.35 582.7L1395.9 580.02L1396.64 580.45L1395.09 583.13ZM1427.16 582.32L1425.62 579.64L1426.36 579.21L1427.91 581.89L1427.16 582.32ZM1397.53 579L1396.79 578.57L1398.33 575.89L1399.08 576.32L1397.53 579ZM1424.79 578.19L1423.24 575.52L1423.98 575.09L1425.53 577.76L1424.79 578.19ZM1399.93 574.83L1399.19 574.4L1400.74 571.73L1401.48 572.16L1399.93 574.83ZM1422.38 574.03L1420.84 571.35L1421.58 570.92L1423.13 573.6L1422.38 574.03ZM1402.38 570.67L1401.64 570.24L1403.18 567.56L1403.93 567.99L1402.38 570.67ZM1420.02 569.86L1418.47 567.18L1419.21 566.76L1420.76 569.43L1420.02 569.86ZM1404.78 566.5L1404 566L1405.55 563.33L1406.29 563.76L1404.78 566.5ZM1417.61 565.7L1416 563L1416.74 562.57L1418.29 565.25L1417.61 565.7ZM1407.19 562.34L1406.45 561.91L1407.99 559.23L1408.74 559.66L1407.19 562.34ZM1415.19 561.53L1413.64 558.85L1414.38 558.42L1415.93 561.1L1415.19 561.53ZM1409.57 558.17L1408.83 557.74L1410.38 555.06L1411.12 555.49L1409.57 558.17ZM1412.78 557.37L1411.24 554.69L1411.98 554.26L1413.53 556.94L1412.78 557.37Z" fill="#49494A"/>
<path d="M1412 626.38L1411.26 625.96L1412.8 623.28L1413.55 623.71L1412 626.38ZM1410.4 625.58L1408.85 622.9L1409.59 622.47L1411.14 625.15L1410.4 625.58ZM1414.4 622.22L1413.66 621.79L1415.21 619.11L1415.95 619.54L1414.4 622.22ZM1407.99 621.41L1406.45 618.73L1407.19 618.31L1408.74 620.98L1407.99 621.41ZM1416.81 618.05L1416.07 617.62L1417.61 614.95L1418.36 615.38L1416.81 618.05ZM1405.59 617.25L1404.04 614.57L1404.78 614.14L1406.33 616.82L1405.59 617.25ZM1419.21 613.89L1418.47 613.46L1420.02 610.78L1420.76 611.21L1419.21 613.89ZM1403.21 613.08L1401.67 610.4L1402.41 609.97L1403.96 612.65L1403.21 613.08ZM1421.65 609.72L1420.91 609.29L1422.45 606.61L1423.2 607.04L1421.65 609.72ZM1400.81 608.92L1399.26 606.24L1400 605.81L1401.55 608.49L1400.81 608.92ZM1424.05 605.56L1423.31 605.13L1424.86 602.45L1425.6 602.88L1424.05 605.56ZM1398.4 604.75L1396.86 602.07L1397.6 601.64L1399.15 604.32L1398.4 604.75ZM1426.46 601.39L1425.72 600.96L1427.26 598.28L1428.01 598.71L1426.46 601.39ZM1396 600.58L1394.45 597.91L1395.19 597.48L1396.74 600.15L1396 600.58ZM1428.87 597.22L1428.12 596.8L1429.67 594.12L1430.41 594.55L1428.87 597.22ZM1393.59 596.42L1392.05 593.74L1392.79 593.31L1394.34 595.99L1393.59 596.42ZM1431.27 593.06L1430.53 592.63L1432 590L1432.75 590.43L1431.27 593.06ZM1391.19 592.25L1389.64 589.57L1390.38 589.15L1391.93 591.82L1391.19 592.25ZM1433.68 588.89L1432.93 588.46L1434.48 585.79L1435.22 586.22L1433.68 588.89ZM1388.78 588.09L1387.23 585.41L1387.98 584.98L1389.52 587.66L1388.78 588.09ZM1410.95 586.99L1408.14 585.71L1408.49 584.93L1411.31 586.2L1410.95 586.99ZM1412.87 586.58L1412.52 585.79L1415.34 584.52L1415.69 585.3L1412.87 586.58ZM1406.57 585.01L1403.75 583.73L1404.11 582.95L1406.93 584.22L1406.57 585.01ZM1436.08 584.73L1435.34 584.3L1436.88 581.62L1437.63 582.05L1436.08 584.73ZM1417.26 584.59L1416.9 583.81L1419.72 582.54L1420.07 583.32L1417.26 584.59ZM1386.38 583.92L1384.83 581.24L1385.57 580.81L1387.12 583.49L1386.38 583.92ZM1402.19 583.02L1399.37 581.75L1399.72 580.97L1402.54 582.24L1402.19 583.02ZM1421.64 582.61L1421.29 581.83L1424.1 580.56L1424.46 581.34L1421.64 582.61ZM1397.74 581L1394.92 579.73L1395.27 578.95L1398.09 580.22L1397.74 581ZM1425.95 580.59L1425.6 579.81L1428.42 578.54L1428.77 579.32L1425.95 580.59ZM1438.42 580.52L1437.67 580.09L1439.22 577.41L1439.96 577.84L1438.42 580.52ZM1383.9 579.72L1382.35 577.04L1383.1 576.61L1384.64 579.29L1383.9 579.72ZM1393.35 579.02L1390.54 577.75L1390.89 576.96L1393.71 578.24L1393.35 579.02ZM1430.35 578.61L1429.99 577.83L1432.81 576.55L1433.16 577.34L1430.35 578.61ZM1389 577.08L1386.18 575.8L1386.54 575.02L1389.35 576.3L1389 577.08ZM1434.75 576.67L1434.4 575.89L1437.21 574.61L1437.57 575.39L1434.75 576.67ZM1440.85 576.4L1440.11 575.97L1441.45 573.64L1439.13 574.69L1438.78 573.9L1441.6 572.63L1441.95 573.41H1441.9L1442.4 573.7L1440.85 576.4ZM1381.53 575.59L1379.98 572.91L1380.53 572.31H1380.59L1380.45 572.62L1380.72 572.46L1382.27 575.14L1381.53 575.59ZM1384.62 575.1L1381.8 573.82L1382.15 573.04L1384.97 574.31L1384.62 575.1Z" fill="#49494A"/>
<path d="M1416.71 555.277C1417.53 552.318 1415.8 549.253 1412.84 548.43C1409.88 547.608 1406.82 549.339 1405.99 552.297C1405.17 555.256 1406.9 558.321 1409.86 559.144C1412.82 559.967 1415.89 558.235 1416.71 555.277Z" fill="#2E112D"/>
<path d="M1411.39 559.37C1409.92 559.37 1408.5 558.784 1407.46 557.742C1406.42 556.699 1405.83 555.285 1405.83 553.81C1405.83 552.335 1406.42 550.921 1407.46 549.878C1408.5 548.836 1409.92 548.25 1411.39 548.25V559.37Z" fill="#2E112D"/>
<path d="M1405.19 626.51C1405.19 625.284 1405.55 624.085 1406.23 623.066C1406.92 622.046 1407.88 621.251 1409.02 620.782C1410.15 620.313 1411.4 620.19 1412.6 620.429C1413.8 620.668 1414.91 621.259 1415.77 622.126C1416.64 622.993 1417.23 624.098 1417.47 625.3C1417.71 626.503 1417.59 627.75 1417.12 628.883C1416.65 630.016 1415.85 630.984 1414.83 631.665C1413.82 632.346 1412.62 632.71 1411.39 632.71C1410.58 632.711 1409.77 632.552 1409.02 632.241C1408.26 631.93 1407.58 631.473 1407 630.897C1406.43 630.321 1405.97 629.637 1405.66 628.884C1405.35 628.131 1405.19 627.325 1405.19 626.51Z" fill="#29547F"/>
<path d="M1411.39 632.71C1409.75 632.71 1408.17 632.057 1407.01 630.894C1405.84 629.731 1405.19 628.154 1405.19 626.51C1405.19 624.866 1405.84 623.289 1407.01 622.126C1408.17 620.963 1409.75 620.31 1411.39 620.31V632.71Z" fill="#2E112D"/>
<path d="M1373.71 572.7C1373.71 571.474 1374.07 570.275 1374.75 569.255C1375.44 568.236 1376.4 567.441 1377.54 566.972C1378.67 566.503 1379.92 566.38 1381.12 566.619C1382.32 566.858 1383.43 567.449 1384.29 568.316C1385.16 569.183 1385.75 570.288 1385.99 571.49C1386.23 572.693 1386.11 573.94 1385.64 575.073C1385.17 576.206 1384.37 577.174 1383.35 577.855C1382.33 578.536 1381.14 578.9 1379.91 578.9C1378.27 578.897 1376.69 578.243 1375.53 577.081C1374.37 575.919 1373.71 574.344 1373.71 572.7Z" fill="#2E112D"/>
<path d="M1443.04 579.29C1446.88 579.29 1450 576.174 1450 572.33C1450 568.486 1446.88 565.37 1443.04 565.37C1439.2 565.37 1436.08 568.486 1436.08 572.33C1436.08 576.174 1439.2 579.29 1443.04 579.29Z" fill="#820333"/>
<path d="M1443 579.29C1441.28 579.106 1439.69 578.293 1438.54 577.008C1437.39 575.723 1436.75 574.057 1436.75 572.33C1436.75 570.603 1437.39 568.937 1438.54 567.652C1439.69 566.367 1441.28 565.554 1443 565.37V579.29Z" fill="#4D92B3"/>
<path d="M1447.23 608.256C1447.4 605.915 1445.64 603.882 1443.3 603.715C1440.96 603.549 1438.92 605.312 1438.76 607.653C1438.59 609.994 1440.35 612.027 1442.69 612.194C1445.03 612.361 1447.07 610.598 1447.23 608.256Z" fill="#29547F"/>
<path d="M1442.87 612.14C1442.3 612.168 1441.72 612.079 1441.18 611.878C1440.64 611.677 1440.15 611.369 1439.73 610.972C1439.32 610.575 1438.98 610.098 1438.76 609.569C1438.53 609.04 1438.41 608.47 1438.41 607.895C1438.41 607.32 1438.53 606.75 1438.76 606.221C1438.98 605.692 1439.32 605.215 1439.73 604.818C1440.15 604.421 1440.64 604.113 1441.18 603.912C1441.72 603.711 1442.3 603.622 1442.87 603.65V612.14Z" fill="#2E112D"/>
<path d="M1424.74 592.291C1425.94 584.881 1420.9 577.906 1413.49 576.711C1406.08 575.516 1399.1 580.554 1397.91 587.964C1396.71 595.374 1401.75 602.349 1409.16 603.544C1416.57 604.739 1423.55 599.701 1424.74 592.291Z" fill="#A1A7AD"/>
<path d="M1379.91 598.5C1378.05 598.498 1376.23 599.048 1374.68 600.079C1373.14 601.111 1371.93 602.578 1371.22 604.296C1370.51 606.013 1370.32 607.904 1370.68 609.728C1371.04 611.552 1371.94 613.228 1373.25 614.543C1374.56 615.859 1376.24 616.755 1378.06 617.119C1379.89 617.482 1381.78 617.297 1383.49 616.585C1385.21 615.874 1386.68 614.669 1387.72 613.123C1388.75 611.577 1389.3 609.76 1389.3 607.9C1389.3 606.666 1389.06 605.444 1388.59 604.304C1388.12 603.163 1387.43 602.127 1386.55 601.254C1385.68 600.381 1384.65 599.688 1383.51 599.216C1382.37 598.743 1381.14 598.5 1379.91 598.5ZM1379.91 612.66C1378.97 612.662 1378.04 612.384 1377.26 611.86C1376.47 611.337 1375.86 610.592 1375.49 609.72C1375.13 608.848 1375.04 607.888 1375.22 606.962C1375.4 606.036 1375.86 605.185 1376.53 604.517C1377.19 603.849 1378.05 603.395 1378.97 603.211C1379.9 603.027 1380.86 603.123 1381.73 603.485C1382.6 603.847 1383.35 604.46 1383.87 605.246C1384.39 606.032 1384.67 606.956 1384.67 607.9C1384.67 609.162 1384.17 610.373 1383.28 611.266C1382.38 612.158 1381.17 612.66 1379.91 612.66Z" fill="#820333"/>
<g style="mix-blend-mode:multiply" opacity="0.5">
<path d="M1379.91 614.18C1378.29 614.115 1376.75 613.425 1375.63 612.253C1374.5 611.082 1373.87 609.52 1373.87 607.895C1373.87 606.27 1374.5 604.708 1375.63 603.537C1376.75 602.365 1378.29 601.675 1379.91 601.61V598.5C1377.47 598.58 1375.16 599.604 1373.46 601.357C1371.77 603.111 1370.82 605.455 1370.82 607.895C1370.82 610.335 1371.77 612.679 1373.46 614.432C1375.16 616.186 1377.47 617.21 1379.91 617.29V614.18Z" fill="#4D92B3"/>
</g>
<g style="mix-blend-mode:multiply">
<path d="M1426.81 589.19C1426.81 589.51 1426.81 589.83 1426.81 590.19C1426.81 593.246 1425.9 596.233 1424.21 598.774C1422.51 601.314 1420.1 603.295 1417.27 604.464C1414.45 605.633 1411.34 605.939 1408.35 605.343C1405.35 604.747 1402.6 603.276 1400.44 601.115C1398.27 598.954 1396.8 596.201 1396.21 593.204C1395.61 590.207 1395.92 587.101 1397.09 584.278C1398.26 581.454 1400.24 579.042 1402.78 577.344C1405.32 575.646 1408.3 574.74 1411.36 574.74V564.56C1406.3 564.56 1401.35 566.061 1397.14 568.874C1392.93 571.687 1389.65 575.686 1387.71 580.363C1385.77 585.041 1385.26 590.188 1386.25 595.154C1387.24 600.12 1389.68 604.682 1393.26 608.262C1396.84 611.842 1401.4 614.28 1406.37 615.268C1411.33 616.256 1416.48 615.749 1421.16 613.811C1425.83 611.874 1429.83 608.593 1432.65 604.383C1435.46 600.173 1436.96 595.223 1436.96 590.16C1436.96 589.83 1436.96 589.51 1436.96 589.16L1426.81 589.19Z" fill="#CED6DB"/>
</g>
<path d="M1420.61 589.56C1420.46 587.322 1419.51 585.213 1417.92 583.627C1416.34 582.041 1414.23 581.086 1411.99 580.94V579.85H1410.79V580.94C1408.55 581.086 1406.44 582.041 1404.86 583.627C1403.27 585.213 1402.32 587.322 1402.17 589.56H1401.08V590.77H1402.17C1402.32 593.007 1403.27 595.113 1404.86 596.697C1406.45 598.281 1408.55 599.235 1410.79 599.38V600.47H1411.99V599.38C1414.23 599.235 1416.33 598.281 1417.92 596.697C1419.51 595.113 1420.46 593.007 1420.61 590.77H1421.7V589.56H1420.61ZM1412 585V584.13C1413.36 584.266 1414.63 584.854 1415.62 585.8L1414.52 586.9C1413.68 586.101 1412.56 585.655 1411.41 585.655C1410.25 585.655 1409.13 586.101 1408.29 586.9L1407.2 585.8C1408.18 584.859 1409.45 584.275 1410.8 584.14V585H1412ZM1417.45 590.79C1417.32 592.142 1416.73 593.41 1415.79 594.39L1414.69 593.29C1415.49 592.452 1415.93 591.338 1415.93 590.18C1415.93 589.018 1415.48 587.899 1414.68 587.06L1415.78 585.97C1416.73 586.952 1417.31 588.223 1417.45 589.58H1416.59V590.79H1417.45ZM1405.35 589.58C1405.49 588.236 1406.07 586.977 1407 586L1408.1 587.09C1407.3 587.93 1406.86 589.046 1406.86 590.205C1406.86 591.365 1407.3 592.48 1408.1 593.32L1407 594.42C1406.06 593.437 1405.47 592.166 1405.33 590.81H1406.2V589.6L1405.35 589.58ZM1407.52 590.18C1407.52 589.412 1407.74 588.66 1408.17 588.02C1408.59 587.38 1409.2 586.881 1409.91 586.587C1410.62 586.293 1411.4 586.217 1412.15 586.369C1412.91 586.521 1413.6 586.894 1414.14 587.44C1414.5 587.798 1414.79 588.225 1414.99 588.695C1415.18 589.166 1415.28 589.671 1415.28 590.18C1415.28 590.949 1415.06 591.701 1414.63 592.341C1414.21 592.98 1413.6 593.479 1412.89 593.773C1412.18 594.067 1411.4 594.143 1410.65 593.991C1409.89 593.839 1409.2 593.466 1408.66 592.92C1408.29 592.559 1408.01 592.129 1407.81 591.656C1407.61 591.182 1407.51 590.673 1407.51 590.16L1407.52 590.18ZM1405.66 584.44C1407.03 583.061 1408.86 582.223 1410.8 582.08V583.59C1409.26 583.729 1407.81 584.406 1406.71 585.502C1405.62 586.599 1404.94 588.046 1404.8 589.59H1403.29C1403.43 587.638 1404.26 585.801 1405.65 584.42L1405.66 584.44ZM1410.8 598.28C1408.86 598.133 1407.04 597.297 1405.66 595.923C1404.29 594.549 1403.45 592.728 1403.3 590.79H1404.81C1404.95 592.335 1405.62 593.783 1406.72 594.88C1407.82 595.977 1409.26 596.653 1410.81 596.79L1410.8 598.28ZM1410.8 595.37V596.23C1409.44 596.1 1408.17 595.511 1407.19 594.56L1408.28 593.47C1409.12 594.267 1410.24 594.711 1411.4 594.711C1412.55 594.711 1413.67 594.267 1414.51 593.47L1415.61 594.57C1414.63 595.513 1413.36 596.098 1412 596.23V595.37H1410.8ZM1417.14 595.92C1415.77 597.302 1413.94 598.14 1412 598.28V596.77C1413.55 596.633 1414.99 595.957 1416.09 594.86C1417.19 593.763 1417.86 592.315 1418 590.77H1419.51C1419.36 592.711 1418.52 594.534 1417.13 595.9L1417.14 595.92ZM1417.99 589.58C1417.85 588.036 1417.17 586.589 1416.08 585.492C1414.98 584.396 1413.53 583.719 1411.99 583.58V582.07C1413.93 582.218 1415.75 583.055 1417.13 584.431C1418.51 585.807 1419.34 587.63 1419.49 589.57L1417.99 589.58Z" fill="#49494A"/>
<g style="mix-blend-mode:multiply" opacity="0.5">
<path d="M1379.91 578.9C1378.31 578.836 1376.79 578.154 1375.68 576.997C1374.57 575.841 1373.95 574.299 1373.95 572.695C1373.95 571.091 1374.57 569.55 1375.68 568.393C1376.79 567.236 1378.31 566.554 1379.91 566.49V578.9Z" fill="#65C3EF"/>
</g>
<path d="M911.48 1009.57H418.24C411.83 1009.57 405.682 1007.02 401.149 1002.49C396.617 997.958 394.07 991.81 394.07 985.4V256.52C394.07 250.11 396.617 243.962 401.149 239.429C405.682 234.897 411.83 232.35 418.24 232.35H911.48C917.89 232.35 924.038 234.897 928.571 239.429C933.104 243.962 935.65 250.11 935.65 256.52V985.4C935.65 988.574 935.025 991.717 933.81 994.65C932.596 997.582 930.815 1000.25 928.571 1002.49C926.326 1004.74 923.662 1006.52 920.729 1007.73C917.797 1008.94 914.654 1009.57 911.48 1009.57Z" fill="#540032"/>
<path d="M911.48 1009.57L913.16 1009.46C913.858 1009.43 914.553 1009.34 915.24 1009.21C916.2 1009.07 917.149 1008.86 918.08 1008.58C921.226 1007.66 924.153 1006.12 926.687 1004.04C929.22 1001.97 931.306 999.396 932.82 996.49C933.855 994.462 934.608 992.302 935.06 990.07C935.463 987.565 935.613 985.025 935.51 982.49C935.51 977.16 935.51 971.32 935.51 965C935.51 952.36 935.51 937.77 935.51 921.35C935.51 855.65 935.41 760.61 935.33 643.17C935.33 584.44 935.33 520.17 935.27 451.06C935.27 416.54 935.27 380.873 935.27 344.06C935.27 325.673 935.27 307.007 935.27 288.06C935.27 278.607 935.27 269.087 935.27 259.5C935.365 257.13 935.238 254.756 934.89 252.41C934.49 250.086 933.738 247.837 932.66 245.74C930.465 241.513 927.065 238.033 922.89 235.74C920.78 234.638 918.529 233.83 916.2 233.34C913.825 232.945 911.416 232.791 909.01 232.88H418.3C412.777 232.858 407.421 234.773 403.163 238.292C398.906 241.811 396.018 246.711 395 252.14C394.593 254.86 394.452 257.613 394.58 260.36V351.25C394.58 394.89 394.58 437.857 394.58 480.15C394.58 564.66 394.58 646.15 394.58 723.83C394.58 801.51 394.58 875.27 394.53 944.33C394.53 952.964 394.53 961.52 394.53 970C394.53 974.24 394.53 978.463 394.53 982.67C394.46 984.745 394.557 986.821 394.82 988.88C395.107 990.91 395.658 992.893 396.46 994.78C398.08 998.518 400.631 1001.78 403.87 1004.25C407.109 1006.72 410.927 1008.32 414.96 1008.89C416.951 1009.13 418.956 1009.21 420.96 1009.15H439.12H531.3L809.47 1009.32L885.1 1009.43H904.76C909.2 1009.43 911.47 1009.48 911.47 1009.48C911.47 1009.48 909.2 1009.48 904.77 1009.54H885.1L809.47 1009.64L531.31 1009.82H439.13H421C418.943 1009.89 416.883 1009.8 414.84 1009.55C409.6 1008.85 404.73 1006.46 400.959 1002.76C397.187 999.053 394.718 994.226 393.92 989C393.659 986.901 393.562 984.784 393.63 982.67C393.63 978.463 393.63 974.24 393.63 970V944.33C393.63 875.27 393.63 801.48 393.58 723.82C393.53 646.16 393.58 564.65 393.58 480.14C393.58 437.893 393.58 394.927 393.58 351.24C393.58 329.42 393.58 307.443 393.58 285.31V260.36C393.454 257.546 393.601 254.726 394.02 251.94C395.086 246.269 398.104 241.151 402.55 237.474C406.996 233.797 412.59 231.793 418.36 231.81H908.9C911.369 231.724 913.841 231.881 916.28 232.28C918.719 232.792 921.075 233.64 923.28 234.8C927.638 237.197 931.183 240.838 933.46 245.26C934.593 247.459 935.379 249.821 935.79 252.26C936.148 254.662 936.278 257.093 936.18 259.52C936.18 269.1 936.18 278.62 936.18 288.08C936.18 306.993 936.18 325.66 936.18 344.08C936.18 380.86 936.18 416.527 936.18 451.08C936.18 520.13 936.18 584.46 936.12 643.18C936.04 760.63 935.99 855.67 935.94 921.36C935.94 937.78 935.94 952.36 935.94 965.02C935.94 971.34 935.94 977.17 935.94 982.51C936.033 985.06 935.872 987.612 935.46 990.13C934.996 992.386 934.222 994.567 933.16 996.61C931.372 1000 928.814 1002.93 925.69 1005.16C923.433 1006.75 920.92 1007.95 918.26 1008.7C917.323 1008.98 916.367 1009.18 915.4 1009.31C914.713 1009.43 914.018 1009.51 913.32 1009.53C912.05 1009.56 911.48 1009.57 911.48 1009.57Z" fill="#540032"/>
<path d="M664.86 991.3C676.337 991.3 685.64 981.996 685.64 970.52C685.64 959.044 676.337 949.74 664.86 949.74C653.384 949.74 644.08 959.044 644.08 970.52C644.08 981.996 653.384 991.3 664.86 991.3Z" fill="#455A64"/>
<path d="M720.35 273.43H609.74C607.694 273.427 605.733 272.613 604.288 271.165C602.842 269.718 602.03 267.756 602.03 265.71C602.03 263.665 602.842 261.704 604.288 260.258C605.734 258.812 607.695 258 609.74 258H720.35C722.395 258 724.356 258.812 725.802 260.258C727.248 261.704 728.06 263.665 728.06 265.71C728.06 267.756 727.248 269.718 725.802 271.165C724.357 272.613 722.396 273.427 720.35 273.43Z" fill="#455A64"/>
<path d="M918.11 287.8H410.68V936.87H918.11V287.8Z" fill="white"/>
<path d="M628.78 399.27C649.05 412.8 654.84 432.27 654.58 446.34C652.06 465.34 645.47 478.82 640.33 497.34L589.9 386C601.68 388.33 607 385.92 628.78 399.27Z" fill="#540032"/>
<path d="M603.49 389.44C583.73 380.25 564.35 391.09 553.05 398.62C546.94 403.812 541.999 410.239 538.551 417.478C535.104 424.717 533.229 432.604 533.05 440.62C533.05 455.78 533.05 474.16 542.23 482.06C544.77 484.313 547.749 486.015 550.98 487.058C554.21 488.101 557.622 488.463 561 488.12L636 418.93C627.848 406.495 616.659 396.345 603.49 389.44Z" fill="#540032"/>
<path d="M604.77 594.38C599 600.38 593.77 598.38 586.05 595.2C540.27 578.73 553.81 556.63 553.81 556.63C562.5 546.44 562.88 534.25 559.71 515.63C559.652 515.085 559.628 514.538 559.64 513.99C559.672 511.508 560.472 509.098 561.93 507.09C563.769 504.405 566.599 502.559 569.798 501.959C572.997 501.359 576.303 502.054 578.99 503.89L599.49 509.75C599.49 510.03 599.6 510.31 599.66 510.63C599.72 520.79 599.43 528.68 599.5 534.89C599.555 535.642 599.555 536.398 599.5 537.15C599.6 537.906 599.63 538.669 599.59 539.43C600.08 547.94 614.46 560.43 620.33 563.43C623.94 565.47 624.33 574.33 604.77 594.38Z" fill="#FFBC8E"/>
<path opacity="0.2" d="M599.48 509.73C599.494 510.041 599.555 510.347 599.66 510.64C599.72 520.8 599.43 528.7 599.5 534.9C599.445 535.652 599.445 536.408 599.5 537.16C599.542 537.952 599.639 538.741 599.79 539.52C584.23 535.279 570.344 526.373 560 514C560.017 511.556 560.751 509.171 562.11 507.14C563.921 504.444 566.724 502.573 569.908 501.934C573.092 501.296 576.4 501.941 579.11 503.73L599.48 509.73Z" fill="black"/>
<path d="M544.24 445.05C545.02 480.1 544.58 494.9 561.24 513.93C586.32 542.52 628.31 534.93 637.97 500.49C646.42 469.49 643.89 417.49 610.85 401.43C577.81 385.37 543.48 410 544.24 445.05Z" fill="#FFBC8E"/>
<path d="M528.72 475.07C530.287 478.458 532.506 481.505 535.252 484.034C537.997 486.563 541.215 488.526 544.72 489.81C553.84 492.93 559.91 478.37 557.52 468.81C556.382 464.494 553.744 460.723 550.08 458.175C546.415 455.626 541.963 454.465 537.52 454.9C528.37 455.91 524.67 466.42 528.72 475.07Z" fill="#FFBC8E"/>
<path opacity="0.2" d="M548.56 474.86C548.622 471.465 547.334 468.184 544.979 465.737C542.624 463.291 539.395 461.878 536 461.81" stroke="black" stroke-width="0.5" stroke-linecap="round" stroke-linejoin="round"/>
<path d="M589.9 460.14C589.76 463.87 591.52 467.14 593.83 467.35C596.14 467.56 598.12 464.76 598.27 461.02C598.42 457.28 596.65 454.02 594.34 453.81C592.03 453.6 590.05 456.4 589.9 460.14Z" fill="#540032"/>
<path d="M624.61 463C624.47 466.62 626.24 469.75 628.54 470C630.84 470.25 632.81 467.5 632.94 463.88C633.07 460.26 631.31 457.12 629.01 456.88C626.71 456.64 624.74 459.35 624.61 463Z" fill="#540032"/>
<path d="M583.66 446.55C583.882 446.598 584.111 446.596 584.332 446.546C584.553 446.496 584.761 446.398 584.94 446.26C586.578 444.933 588.52 444.032 590.591 443.637C592.662 443.243 594.799 443.367 596.81 444C597.014 444.085 597.233 444.126 597.454 444.121C597.675 444.116 597.892 444.065 598.092 443.971C598.292 443.876 598.47 443.741 598.614 443.574C598.758 443.407 598.866 443.211 598.93 443C599.065 442.553 599.027 442.071 598.824 441.65C598.62 441.229 598.265 440.901 597.83 440.73C595.306 439.883 592.61 439.683 589.989 440.15C587.368 440.616 584.906 441.734 582.83 443.4C582.48 443.697 582.259 444.119 582.214 444.576C582.17 445.034 582.304 445.49 582.59 445.85C582.852 446.204 583.231 446.452 583.66 446.55Z" fill="#540032"/>
<path d="M637.77 446.3C637.957 446.253 638.131 446.166 638.281 446.045C638.432 445.924 638.554 445.773 638.64 445.6C638.816 445.193 638.845 444.738 638.721 444.312C638.596 443.887 638.327 443.518 637.96 443.27C630.3 438.07 624.05 441 623.78 441.13C623.413 441.347 623.147 441.7 623.041 442.112C622.934 442.525 622.995 442.963 623.21 443.33C623.378 443.725 623.693 444.04 624.089 444.208C624.484 444.375 624.929 444.384 625.33 444.23C625.57 444.11 630.46 441.92 636.55 446.05C636.723 446.177 636.922 446.266 637.133 446.309C637.343 446.352 637.561 446.349 637.77 446.3Z" fill="#540032"/>
<path d="M615.31 460.45C615.31 460.45 619.7 474.09 625.22 482.82C625.431 483.181 625.557 483.585 625.587 484.001C625.617 484.418 625.55 484.836 625.393 485.223C625.235 485.609 624.99 485.955 624.678 486.232C624.365 486.509 623.993 486.71 623.59 486.82C619.11 488.05 614.15 486.18 614.15 486.18L615.31 460.45Z" fill="#FFBC8E"/>
<path d="M593 453.86L601.23 452.63C601.23 452.63 596.31 458.28 593 453.86Z" fill="#540032"/>
<path d="M628.17 456.86L636.41 455.64C636.41 455.64 631.49 461.28 628.17 456.86Z" fill="#540032"/>
<path d="M611.86 495.84C609.36 498.952 607.087 502.241 605.06 505.68C604.39 505.44 603.73 505.19 603.06 504.91C594.19 501.35 591.25 496.76 590.68 492.76C590.448 490.802 590.688 488.817 591.38 486.97C591.733 485.903 592.238 484.893 592.88 483.97C596.45 488.66 604.46 492.62 608.88 494.56C610.68 495.41 611.86 495.84 611.86 495.84Z" fill="#540032"/>
<path d="M608.86 494.58L606.77 497.43C598.43 494.05 593.01 490.56 591.41 486.97C591.766 485.904 592.271 484.894 592.91 483.97C596.48 488.69 604.49 492.64 608.86 494.58Z" fill="white"/>
<path d="M603.09 504.91C594.22 501.35 591.28 496.77 590.71 492.77C594.061 494.185 597.132 496.186 599.78 498.68C601.506 500.361 602.663 502.539 603.09 504.91Z" fill="#DE5753"/>
<path d="M556.38 453.59C556.38 453.59 576.38 430.72 577.02 411.14C577.02 411.14 648.67 395.25 642.02 457.08C642.02 457.08 657.51 403.61 599.02 394.88C540.53 386.15 528.4 462.6 554.93 489.24C555 489 544 467.93 556.38 453.59Z" fill="#540032"/>
<path d="M493.93 407C494.406 412.612 496.505 417.964 499.972 422.402C503.439 426.84 508.124 430.173 513.453 431.994C518.783 433.814 524.527 434.043 529.985 432.653C535.443 431.262 540.377 428.313 544.187 424.165C547.996 420.017 550.515 414.849 551.436 409.293C552.357 403.737 551.64 398.033 549.373 392.877C547.106 387.721 543.387 383.338 538.67 380.261C533.953 377.184 528.442 375.547 522.81 375.55C514.822 375.924 507.304 379.439 501.895 385.329C496.486 391.22 493.623 399.009 493.93 407Z" fill="#540032"/>
<path d="M625.63 402.54C633.33 409.934 638.479 419.586 640.33 430.1C640.33 437.73 629.95 443.24 629.95 443.24L617.27 426.61V441.22C596.5 438.94 584.5 427.92 577.39 412L589 391.33C589 391.33 618.74 396.56 625.63 402.54Z" fill="#540032"/>
<path d="M526.68 423.74C524.84 432.087 520.046 439.489 513.18 444.58C516.882 444.869 520.579 443.965 523.73 442C523.564 444.996 522.887 447.942 521.73 450.71C525.918 447.172 529.265 442.745 531.528 437.751C533.79 432.757 534.912 427.322 534.81 421.84L526.68 423.74Z" fill="#540032"/>
<path d="M678.6 804.5L662.6 805.97C662.6 805.97 661.29 795.47 659.95 787.72C658.78 779.86 649.75 753.45 647.54 745.81C601.84 750.14 524.32 747.52 524.32 747.52C524.32 747.52 504.09 954.12 504.09 919.52C533.97 948.52 687.09 953.88 687.09 906.08L678.6 804.5Z" fill="#2E112D"/>
<path opacity="0.3" d="M662.63 804.37L592.57 819C592.57 819 630.91 798.2 659.98 789.76C661.32 798 662.63 804.37 662.63 804.37Z" fill="black"/>
<path d="M765.39 639.68C765.78 633.51 747.52 668.8 747.52 668.8L716.69 647L741.23 622.31C741.23 622.31 766.15 638.58 765.77 639.11" fill="#FFBC8E"/>
<path d="M641.64 559.78C649.811 563.791 657.102 569.389 663.089 576.246C669.076 583.103 673.638 591.082 676.51 599.72C686.97 631 691.51 668.58 691.51 668.58L730.51 633.89L759.51 655.44C759.51 655.44 721.4 713.19 695.76 735.71C674.46 754.41 650.32 718.14 650.32 718.14L639.8 558.87L641.64 559.78Z" fill="#820333"/>
<path opacity="0.2" d="M566.36 766.55L557.99 897.86L482.89 888.91V875.41L566.36 766.55Z" fill="black"/>
<path d="M530 769.84C527.07 736.53 515.24 675.48 494.87 611.37C488.24 590.52 511.92 567.47 511.92 567.47C511.92 567.47 527.2 566.27 530 565.96C533.07 565.59 536.23 565.28 539.39 564.96C563.18 562.96 582.66 561.56 603.87 562.77C609.21 563.08 614.68 563.53 620.06 563.98C621.79 564.16 633.06 564.33 634.74 564.51C634.74 564.51 665.24 600.2 666.89 625.39C667.78 639.47 674.58 645.53 673.82 679.2C673.69 702.06 657.09 735.37 655.58 767.52L530 769.84Z" fill="white"/>
<path d="M571.61 657.9C570.01 605.62 563.84 572.43 561.03 559.74C560.676 558.133 559.734 556.716 558.389 555.769C557.043 554.822 555.392 554.412 553.76 554.62L533.56 558.87C513.78 564.14 503.17 561.3 492.16 576C490.03 578.84 488.25 600.74 488.41 603.74C488.67 609.12 492.41 625.62 497.41 645.53C500.83 659.33 504.88 674.85 508.75 689.46C513.75 708.09 517.86 712.95 519.46 718.92L468.21 870C467.873 870.944 467.755 871.953 467.864 872.95C467.974 873.947 468.309 874.906 468.844 875.754C469.378 876.603 470.098 877.318 470.95 877.848C471.802 878.377 472.763 878.706 473.76 878.81L547.28 886.49C549.005 886.673 550.733 886.171 552.092 885.092C553.45 884.012 554.329 882.442 554.54 880.72C558.2 850.05 573.45 718 571.61 657.9Z" fill="#820333"/>
<path d="M668.22 760.32C668.22 760.32 683.65 664.72 679.55 640.8C675.45 616.88 639.79 558.87 639.79 558.87L623.52 557.75L604.26 549.94C604.26 549.94 648.72 603.59 659.63 642.29C666.82 667.74 652.5 748.19 654.15 767.6L662.43 807.77L682.88 806.86L668.22 760.32Z" fill="#820333"/>
<path d="M558.29 546.38C558.29 546.38 578.29 585.84 570.72 685.16L537.49 613.77L549.49 594.26L533.49 562.37C533.49 562.37 550.56 551.37 557.74 545.58L558.29 546.38Z" fill="#407BFF"/>
<path d="M558.29 546.38C558.29 546.38 578.29 585.84 570.72 685.16L537.49 613.77L549.49 594.26L533.49 562.37C533.49 562.37 550.56 551.37 557.74 545.58L558.29 546.38Z" fill="#820333"/>
<path d="M660.67 685.74C660.67 685.74 668.11 663.84 666.75 643.62C665.39 623.4 665.07 608.33 665.07 608.33L642.14 591.33L645.14 570.67C645.14 570.67 634.1 563.93 623.82 557C616.82 552.25 603.03 545 601.22 545.61C601.22 545.61 659.79 619.73 660.09 650.05C660.37 679.28 660.67 685.74 660.67 685.74Z" fill="#407BFF"/>
<path d="M660.67 685.74C660.67 685.74 668.11 663.84 666.75 643.62C665.39 623.4 665.07 608.33 665.07 608.33L642.14 591.33L645.14 570.67C645.14 570.67 634.1 563.93 623.82 557C616.82 552.25 603.03 545 601.22 545.61C601.22 545.61 659.79 619.73 660.09 650.05C660.37 679.28 660.67 685.74 660.67 685.74Z" fill="#820333"/>
<path opacity="0.3" d="M671.93 736.56L679.93 662.83L682.93 738.96C682.93 738.96 675.21 738.58 671.93 736.56Z" fill="black"/>
<path d="M616 565.35L600.25 543.71L592.75 556.59L561.66 537.86L557.8 545.58L568.8 577.98C568.8 577.98 596.41 589.28 597.87 589.28C599.33 589.28 616 565.35 616 565.35Z" fill="white"/>
<path opacity="0.3" d="M616.73 566.36L610.29 582.3L594.26 566.36L583.36 585.08L567.08 577.1L584.43 590.85L594.48 570.34L612.85 587.64L616.73 566.36Z" fill="black"/>
<path opacity="0.3" d="M530.91 716.89L524.63 646.47L519.79 723.16L592.57 752.75L530.91 716.89Z" fill="black"/>
<path d="M502.11 566.36C502.11 566.36 479 572 474.55 597.27C470.1 622.54 464.22 748.68 469.25 756.67C474.28 764.66 614.89 809.88 614.89 809.88L629.94 770.88L523.72 719.44C523.72 719.44 524.59 683.39 525.45 655.3C525.91 640.44 526.37 627.82 526.7 623.92C527.65 612.66 502.11 566.36 502.11 566.36Z" fill="#820333"/>
<path d="M629.42 773.27C629.42 773.27 673.62 783.88 683.87 792.7C688.42 796.62 688.29 803.03 688.29 803.03L616.71 806.22L629.42 773.27Z" fill="#FFBC8E"/>
<path opacity="0.3" d="M501.7 771.23C503.12 771.76 563.92 793.41 563.92 793.41V801L498.59 780.4L501.7 771.23Z" fill="black"/>
<path opacity="0.2" d="M594.48 570.34C627.6 628.1 625.77 703.22 627.6 767" stroke="black" stroke-width="0.5" stroke-linecap="round" stroke-linejoin="round"/>
<path d="M742.85 626C742.85 626 736.85 616.45 739.04 607.38C741.23 598.31 740.55 590.49 742.64 583.86C744.73 577.23 748.45 585.86 749.49 590.86C750.53 595.86 751.78 601.48 755.4 600.08C759.02 598.68 780.03 572.82 785.26 571.46C790.49 570.1 788.4 575.35 788.4 575.35C788.4 575.35 793.68 569.2 796.68 570.63C797.46 571 798.68 573.13 796.68 576.3C792.26 583.45 782.21 597.97 782.21 597.97C782.77 597.13 796.45 580.09 798.84 577.8C801.95 574.8 804.94 575 806.61 576.86C808.99 579.51 792.75 601.21 792.71 602.61C792.71 602.61 801.64 589.8 806.21 590.29C810.78 590.78 805.59 599.16 799.62 605.67C794.15 611.67 784.97 624.79 778.82 630.31C771.23 637.13 764.61 640 755.82 636.17C750.695 633.95 746.228 630.448 742.85 626Z" fill="#FFBC8E"/>
<path opacity="0.3" d="M787.55 575.94C783.45 580.967 779.583 586.177 775.95 591.57" stroke="black" stroke-width="0.5" stroke-linecap="round" stroke-linejoin="round"/>
<path opacity="0.3" d="M789.44 607.63C784.513 600.772 777.68 595.511 769.79 592.5" stroke="black" stroke-width="0.5" stroke-linecap="round" stroke-linejoin="round"/>
<path opacity="0.3" d="M756.45 604.06C758.774 606.612 760.132 609.896 760.291 613.343C760.45 616.791 759.399 620.185 757.32 622.94" stroke="black" stroke-width="0.5" stroke-linecap="round" stroke-linejoin="round"/>
<path d="M808.37 804.25H693.71C691.71 804.25 690.14 802.94 690.15 801.35C690.158 801.047 690.223 800.749 690.34 800.47L741.34 683.47C742.62 680.13 746.46 677.85 750.82 677.84H865.57C867.51 677.84 869.08 679.1 869.08 680.66C869.08 680.988 869.008 681.312 868.87 681.61L817.87 798.61C816.55 801.94 812.72 804.21 808.37 804.25Z" fill="#540032"/>
<path opacity="0.7" d="M865.57 677.88H750.83C746.47 677.88 742.63 680.18 741.35 683.52L690.35 800.52C690.233 800.799 690.168 801.098 690.16 801.4C690.16 802.99 691.74 804.29 693.72 804.3H808.37C812.72 804.3 816.55 801.99 817.86 798.66L868.86 681.66C868.998 681.362 869.07 681.038 869.07 680.71C869.08 679.15 867.51 677.88 865.57 677.88Z" fill="white"/>
<path d="M794.51 743.67C792.03 749.28 787 753.14 783.26 752.35C779.52 751.56 778.52 746.45 780.92 740.82C783.32 735.19 788.41 731.43 792.15 732.21C795.89 732.99 797 737.91 794.51 743.67Z" fill="white"/>
<path opacity="0.3" d="M751.51 677.88H750.83C746.47 677.88 742.63 680.18 741.35 683.52L690.35 800.52C690.233 800.799 690.168 801.098 690.16 801.4C690.16 802.99 691.74 804.29 693.72 804.3H697.39L751.51 677.88Z" fill="black"/>
<path d="M600.69 805.27V814.74L692.04 805.43L693.41 793.41L600.69 805.27Z" fill="#540032"/>
<path opacity="0.7" d="M600.69 805.27V814.74L692.04 805.43L693.41 793.41L600.69 805.27Z" fill="white"/>
<path d="M1116.33 444.34C1108.78 445.85 1105.79 451.91 1098.22 467.73C1088.67 487.67 1074.76 523.61 1071.61 523.91C1067.18 524.34 1010.55 502.26 1010.55 502.26L1001.74 512.26C1001.74 512.26 1031.4 551.92 1078.35 564.51C1086.79 566.78 1097.44 557.22 1107.59 544.16C1109.59 541.62 1111.52 538.93 1113.46 536.16C1123.89 520.671 1133.25 504.483 1141.46 487.71L1116.28 444.37L1116.33 444.34Z" fill="#820333"/>
<path opacity="0.2" d="M1114 469.63C1111.81 479.3 1106.68 493.83 1102.64 504.13C1101.26 507.441 1100.82 511.065 1101.36 514.61C1102.9 523.751 1105.27 532.734 1108.43 541.45C1110.06 546.2 1117.43 545.86 1117.63 550.88C1119.63 548.34 1121.56 545.65 1123.5 542.88L1127.83 525.76L1114 469.63Z" fill="black"/>
<path d="M1081 531.67C1082.27 531.304 1083.33 530.455 1083.98 529.305C1084.62 528.155 1084.78 526.799 1084.43 525.53L1065.49 445.9C1064.94 444.059 1063.83 442.437 1062.31 441.259C1060.8 440.081 1058.95 439.406 1057.03 439.33L996.34 438.07C995.67 437.975 994.988 438.026 994.34 438.22C993.075 438.586 992.005 439.435 991.363 440.585C990.721 441.735 990.558 443.091 990.91 444.36L1009.9 524C1010.45 525.842 1011.56 527.467 1013.08 528.648C1014.59 529.829 1016.44 530.508 1018.36 530.59L1079.05 531.83C1079.7 531.914 1080.37 531.86 1081 531.67Z" fill="#540032"/>
<path opacity="0.2" d="M1081 531.67C1082.27 531.304 1083.33 530.455 1083.98 529.305C1084.62 528.155 1084.78 526.799 1084.43 525.53L1065.49 445.9C1064.94 444.059 1063.83 442.437 1062.31 441.259C1060.8 440.081 1058.95 439.406 1057.03 439.33L996.34 438.07C995.67 437.975 994.988 438.026 994.34 438.22C993.075 438.586 992.005 439.435 991.363 440.585C990.721 441.735 990.558 443.091 990.91 444.36L1009.9 524C1010.45 525.842 1011.56 527.467 1013.08 528.648C1014.59 529.829 1016.44 530.508 1018.36 530.59L1079.05 531.83C1079.7 531.914 1080.37 531.86 1081 531.67Z" fill="white"/>
<path d="M1074.79 531.55C1076.06 531.187 1077.13 530.338 1077.77 529.188C1078.42 528.038 1078.58 526.68 1078.23 525.41L1059.29 445.78C1058.74 443.943 1057.64 442.321 1056.13 441.141C1054.62 439.96 1052.78 439.278 1050.86 439.19L990.14 437.94C989.47 437.854 988.79 437.905 988.14 438.09C986.873 438.455 985.801 439.307 985.159 440.459C984.516 441.611 984.355 442.97 984.71 444.24L1003.71 523.86C1004.26 525.698 1005.37 527.321 1006.88 528.503C1008.39 529.685 1010.23 530.369 1012.15 530.46L1072.86 531.7C1073.51 531.779 1074.16 531.728 1074.79 531.55Z" fill="#540032"/>
<path opacity="0.7" d="M1074.79 531.55C1076.06 531.187 1077.13 530.338 1077.77 529.188C1078.42 528.038 1078.58 526.68 1078.23 525.41L1059.29 445.78C1058.74 443.943 1057.64 442.321 1056.13 441.141C1054.62 439.96 1052.78 439.278 1050.86 439.19L990.14 437.94C989.47 437.854 988.79 437.905 988.14 438.09C986.873 438.455 985.801 439.307 985.159 440.459C984.516 441.611 984.355 442.97 984.71 444.24L1003.71 523.86C1004.26 525.698 1005.37 527.321 1006.88 528.503C1008.39 529.685 1010.23 530.369 1012.15 530.46L1072.86 531.7C1073.51 531.779 1074.16 531.728 1074.79 531.55Z" fill="white"/>
<path opacity="0.2" d="M1023.62 479C1023.68 478.401 1023.85 477.819 1024.14 477.288C1024.42 476.757 1024.8 476.287 1025.27 475.904C1025.73 475.521 1026.27 475.234 1026.84 475.058C1027.42 474.883 1028.02 474.822 1028.62 474.88C1030.36 474.976 1032.02 475.614 1033.37 476.705C1034.73 477.796 1035.71 479.284 1036.17 480.96C1036.33 481.528 1036.39 482.122 1036.33 482.71C1036.27 483.306 1036.09 483.883 1035.81 484.41C1035.52 484.937 1035.14 485.403 1034.67 485.78C1034.21 486.157 1033.68 486.439 1033.1 486.609C1032.53 486.779 1031.93 486.834 1031.33 486.77C1029.59 486.676 1027.93 486.041 1026.58 484.954C1025.22 483.867 1024.24 482.383 1023.77 480.71C1023.61 480.155 1023.56 479.574 1023.62 479Z" fill="white"/>
<path d="M999.5 488.4C1000.69 488.3 1005.77 490.82 1008.16 489.15C1010.55 487.48 1008.3 486.15 1008.3 486.15C1003.92 485.08 999.12 479.61 996.46 481.15C993.8 482.69 989.39 484.68 990.04 487.15C990.768 489.453 991.65 491.705 992.68 493.89C992.336 494.436 992.133 495.059 992.09 495.704C992.046 496.348 992.163 496.992 992.43 497.58C992.698 498.258 993.133 498.857 993.694 499.322C994.255 499.787 994.924 500.103 995.64 500.24C995.225 500.656 994.904 501.156 994.697 501.706C994.49 502.256 994.403 502.844 994.44 503.43C994.64 505.32 999.62 507.8 999.62 507.8C999.62 507.8 998.62 510.8 999.79 511.91C1000.75 512.702 1001.89 513.258 1003.1 513.534C1004.32 513.81 1005.58 513.799 1006.79 513.5C1009.7 512.81 1011.69 511.81 1011.49 508.87C1011.29 505.93 1006 506 1006 506C1006 506 1015.85 503 1013.76 501.14C1011.67 499.28 1003.81 499.5 1003.81 499.5C1003.81 499.5 1017.15 496.86 1015.03 494.13C1012.91 491.4 999.63 492.13 999.63 492.13C999.63 492.13 998.3 488.5 999.5 488.4Z" fill="#FFBC8E"/>
<path d="M1112.89 960.79L1118.57 1009.11L1101.23 1011.51L1083.01 966.1L1112.89 960.79Z" fill="#E9B376"/>
<path d="M1087.47 999.68C1087.2 996.73 1087.41 994.27 1090.86 994.09L1095.74 993.84C1097.59 993.84 1098.91 994.97 1100.39 995.92C1111.59 1003.06 1116.18 993.84 1120.53 993.84C1126.11 993.84 1122.53 1010.21 1122.78 1011.07L1128.88 1030.07C1129.41 1031.66 1128.34 1035.07 1126.49 1035.53C1126.16 1035.61 1125.83 1035.65 1125.49 1035.65H1060.83C1050.54 1035.65 1050.42 1024.09 1054.66 1023.27C1073.66 1019.67 1081.23 1013.95 1087.5 1009.77C1087.72 1006.41 1087.71 1003.04 1087.47 999.68Z" fill="#820333"/>
<path opacity="0.4" d="M1060.81 1035.65H1125.47C1125.81 1035.65 1126.14 1035.62 1126.47 1035.54C1127.73 1035.23 1128.61 1033.54 1128.89 1032.01V1030.56H1052.56C1053.56 1033.25 1056.12 1035.65 1060.81 1035.65Z" fill="white"/>
<path d="M1077.38 1016.77C1078.17 1017.43 1078.89 1018.17 1079.55 1018.96L1079.78 1019.25L1079.9 1019.41L1080.34 1020.04C1080.63 1020.47 1080.89 1020.91 1081.14 1021.36C1081.25 1021.55 1081.44 1021.69 1081.65 1021.75C1081.87 1021.8 1082.1 1021.77 1082.29 1021.66C1082.48 1021.55 1082.62 1021.36 1082.68 1021.15C1082.73 1020.93 1082.7 1020.7 1082.59 1020.51C1081.58 1018.61 1080.23 1016.91 1078.59 1015.51C1078.43 1015.36 1078.22 1015.27 1077.99 1015.27C1077.77 1015.27 1077.56 1015.36 1077.4 1015.51C1077.24 1015.67 1077.16 1015.88 1077.16 1016.11C1077.16 1016.33 1077.24 1016.54 1077.4 1016.7L1077.38 1016.77Z" fill="#540032"/>
<path d="M1083.33 1013.46C1084.05 1014.07 1084.72 1014.74 1085.33 1015.46L1085.55 1015.73L1085.65 1015.85C1085.65 1015.9 1085.75 1015.99 1085.65 1015.9L1086.06 1016.45C1086.34 1016.85 1086.6 1017.26 1086.85 1017.68C1086.96 1017.87 1087.15 1018.01 1087.36 1018.06C1087.58 1018.12 1087.81 1018.09 1088 1017.98C1088.19 1017.87 1088.33 1017.68 1088.39 1017.46C1088.45 1017.25 1088.42 1017.02 1088.31 1016.82C1087.28 1015.09 1085.99 1013.54 1084.48 1012.22C1084.32 1012.07 1084.11 1011.98 1083.89 1011.98C1083.66 1011.98 1083.45 1012.07 1083.29 1012.22C1083.21 1012.3 1083.15 1012.39 1083.11 1012.49C1083.06 1012.59 1083.04 1012.7 1083.04 1012.82C1083.04 1012.93 1083.06 1013.04 1083.11 1013.14C1083.15 1013.24 1083.21 1013.33 1083.29 1013.41L1083.33 1013.46Z" fill="#540032"/>
<path d="M1087.72 1010.71C1088.07 1010.89 1088.4 1011.08 1088.72 1011.3L1088.95 1011.48C1088.81 1011.36 1089.03 1011.54 1088.95 1011.48L1089.07 1011.57L1089.5 1011.95L1089.89 1012.36L1090.06 1012.56L1090.15 1012.68L1090.08 1012.59L1090.14 1012.67C1090.36 1012.96 1090.56 1013.28 1090.73 1013.61C1090.84 1013.8 1091.03 1013.95 1091.25 1014C1091.46 1014.06 1091.69 1014.03 1091.89 1013.92C1092.08 1013.8 1092.22 1013.62 1092.27 1013.4C1092.33 1013.18 1092.3 1012.95 1092.19 1012.76C1091.39 1011.25 1090.13 1010.04 1088.6 1009.28C1088.41 1009.17 1088.18 1009.14 1087.96 1009.19C1087.75 1009.25 1087.56 1009.39 1087.45 1009.58C1087.34 1009.77 1087.31 1010 1087.36 1010.22C1087.42 1010.43 1087.56 1010.62 1087.75 1010.73L1087.72 1010.71Z" fill="#540032"/>
<path d="M1088.15 1004.79C1088.59 1004.79 1089.03 1004.79 1089.47 1004.86C1089.91 1004.93 1090.13 1004.94 1090.55 1005.02C1091.38 1005.18 1092.19 1005.42 1092.98 1005.72C1093.19 1005.77 1093.41 1005.74 1093.6 1005.63C1093.78 1005.52 1093.92 1005.34 1093.98 1005.13C1094.02 1004.92 1093.99 1004.7 1093.88 1004.52C1093.77 1004.33 1093.59 1004.19 1093.39 1004.13C1091.7 1003.49 1089.92 1003.15 1088.11 1003.13C1087.89 1003.13 1087.67 1003.22 1087.51 1003.38C1087.35 1003.53 1087.26 1003.75 1087.26 1003.97C1087.27 1004.19 1087.36 1004.4 1087.52 1004.56C1087.68 1004.72 1087.89 1004.8 1088.11 1004.81L1088.15 1004.79Z" fill="#540032"/>
<g opacity="0.3">
<path d="M1106.36 1005.4C1106.46 1007.1 1107.11 1008.96 1108.75 1009.75C1109.82 1010.16 1110.98 1010.31 1112.12 1010.19L1122.42 1009.91V1009.82C1122.96 1005.35 1124.42 994.44 1120.17 994.44C1116.82 994.44 1113.3 1000.71 1106.3 998.88C1106.4 1001.24 1106.29 1004.26 1106.36 1005.4Z" fill="black"/>
</g>
<path d="M1059.35 810.72C1062.44 782.78 1101.35 634.48 1101.35 634.48L1150.85 633.27L1227.02 631.12C1227.02 631.12 1231.42 670.87 1231.47 722.93C1231.47 722.93 1227.79 945.2 1224.77 998.1L1183 999.71C1178.25 958.14 1172 828.46 1172 828.46C1169.13 804.96 1166.55 735.6 1164.49 715.8C1163.64 711.41 1162.8 707 1161.98 702.6C1153.86 724.08 1116.58 815.98 1113.7 829.15L1129 1003.95L1084 1002.23C1084 1002.23 1056.27 838.67 1059.35 810.72Z" fill="#2E112D"/>
<path d="M1127.56 640.24C1122.97 654.5 1110.71 665.96 1095.56 670.13C1095.47 670.144 1095.39 670.177 1095.31 670.226C1095.24 670.275 1095.17 670.34 1095.13 670.415C1095.08 670.491 1095.05 670.575 1095.03 670.664C1095.02 670.753 1095.03 670.843 1095.05 670.929C1095.08 671.014 1095.12 671.094 1095.18 671.162C1095.24 671.23 1095.31 671.285 1095.39 671.323C1095.47 671.361 1095.56 671.381 1095.65 671.382C1095.74 671.383 1095.83 671.366 1095.91 671.33C1111.48 667.05 1124.08 655.25 1128.8 640.57C1129.05 639.8 1127.8 639.47 1127.53 640.24H1127.56Z" fill="black"/>
<path d="M1165.5 642.33C1164.6 654.81 1163.71 667.297 1162.84 679.79C1162.84 680.59 1161.48 680.59 1161.52 679.79C1161.99 673.39 1162.43 666.96 1162.88 660.54C1159.63 662.92 1155.82 660.04 1154.76 656.86C1153.02 651.71 1153.67 645.59 1155.03 640.43C1155.25 639.65 1156.52 639.99 1156.31 640.75C1155.33 644.35 1154.97 648.089 1155.23 651.81C1155.24 653.806 1155.66 655.778 1156.48 657.6C1157.48 659.54 1160.16 661.17 1162.27 659.42C1162.36 659.334 1162.48 659.278 1162.6 659.26C1162.73 659.243 1162.86 659.263 1162.97 659.32C1163.37 653.66 1163.77 647.98 1164.18 642.32C1164.22 641.52 1165.54 641.52 1165.5 642.33Z" fill="black"/>
<path d="M1196.52 640C1196.34 656.54 1209.79 670.4 1227.19 671.7C1228.02 671.76 1228.02 670.53 1227.19 670.47C1210.5 669.22 1197.65 655.83 1197.82 640C1197.82 639.21 1196.53 639.2 1196.52 640Z" fill="black"/>
<path d="M1190.21 963.13L1197.58 1012.72L1215.2 1013.54L1220.9 965.73L1190.21 963.13Z" fill="#2E112D"/>
<path d="M1230.2 1035.75H1190.79C1190.79 1035.75 1189.93 1034.23 1190.92 1030.19C1191.09 1029.49 1191.29 1028.79 1191.52 1028.11V1028C1191.89 1026.88 1192.31 1025.5 1192.76 1024C1194.57 1018 1195.76 1004 1195.76 1004C1195.76 1004 1203.21 997.14 1210.88 1000.36C1217.61 1003.18 1216.56 1006.75 1216.56 1006.75C1216.56 1006.75 1216.67 1015.99 1221.77 1020.17C1224.93 1022.75 1228.07 1024.75 1229.58 1027.96C1229.87 1028.58 1230.09 1029.23 1230.24 1029.89C1230.25 1029.98 1230.25 1030.06 1230.24 1030.15C1230.6 1032 1230.59 1033.91 1230.2 1035.75Z" fill="#820333"/>
<path opacity="0.4" d="M1190.91 1030.19C1189.91 1034.19 1190.79 1035.75 1190.79 1035.75H1230.2C1230.62 1033.93 1230.68 1032.04 1230.36 1030.19H1190.91Z" fill="white"/>
<path d="M1214.49 1013.32C1213.44 1012.56 1212.16 1012.18 1210.86 1012.26C1209.57 1012.33 1208.34 1012.85 1207.38 1013.72C1206.84 1014.2 1206.02 1013.45 1206.55 1012.97C1207.74 1011.9 1209.26 1011.27 1210.86 1011.2C1212.46 1011.12 1214.04 1011.61 1215.32 1012.56C1215.91 1012.98 1215.08 1013.73 1214.49 1013.32Z" fill="#540032"/>
<path d="M1215.61 1016.69C1214.56 1015.93 1213.27 1015.55 1211.98 1015.63C1210.68 1015.7 1209.45 1016.22 1208.49 1017.1C1207.95 1017.58 1207.13 1016.82 1207.66 1016.34C1208.85 1015.27 1210.38 1014.65 1211.97 1014.57C1213.57 1014.5 1215.15 1014.98 1216.43 1015.94C1217.02 1016.36 1216.19 1017.11 1215.61 1016.69Z" fill="#540032"/>
<path d="M1216.72 1019.8C1215.67 1019.04 1214.39 1018.66 1213.09 1018.74C1211.8 1018.81 1210.57 1019.33 1209.61 1020.2C1209.07 1020.68 1208.25 1019.93 1208.78 1019.45C1209.97 1018.38 1211.49 1017.75 1213.09 1017.68C1214.68 1017.61 1216.26 1018.09 1217.54 1019.04C1218.14 1019.46 1217.31 1020.21 1216.72 1019.8Z" fill="#540032"/>
<path d="M1101.71 622.91C1094.71 634.44 1094.71 643.69 1101.38 646.05C1101.38 646.05 1162.17 656.36 1224.38 649.29C1239.38 650.12 1232.02 636.29 1232.02 636.29L1232.35 444.39C1185.1 434.39 1127.93 443.63 1116.35 444.39L1101.71 622.91Z" fill="#820333"/>
<path opacity="0.2" d="M1232.13 555.92V492.45C1232.13 492.45 1241.43 557.5 1236.75 573.64L1232.13 555.92Z" fill="black"/>
<path d="M1146.26 359.43C1146.26 359.43 1123.26 346.51 1136.93 332.64C1147.68 321.7 1157.18 323.3 1171.56 325.91C1206.8 332.33 1204.75 347.01 1204.75 347.01L1146.26 359.43Z" fill="#540032"/>
<path d="M1191.13 433.37C1191.13 433.37 1189.24 419.85 1197.13 396.42C1197.13 396.42 1195.9 395.79 1195.9 395.76C1196.99 392.49 1198.14 389.47 1199.21 386.85C1199.21 386.817 1199.21 386.783 1199.21 386.75L1165.88 405.39C1166.31 413.01 1162.95 427.56 1161.06 433.68C1161.06 433.68 1156.47 444.68 1171.37 445.85C1182.3 446.68 1191.13 433.37 1191.13 433.37Z" fill="#FFBC8E"/>
<path opacity="0.2" d="M1164.91 416L1183.77 412.61C1181.77 418.34 1176.38 425 1163.36 425C1163.36 425 1164.94 418.58 1164.91 416Z" fill="black"/>
<path d="M1200.2 371C1197.11 391.48 1195.79 403.09 1184.44 412.65C1167.37 427.02 1143.32 415.65 1140.21 394.57C1137.42 375.62 1142.93 345.31 1163.84 339.09C1184.43 333 1203.28 350.51 1200.2 371Z" fill="#FFBC8E"/>
<path d="M1205 346.46C1179.85 322.24 1154.27 335.82 1144.48 349.1L1188.35 349.62C1190.27 349.62 1191.35 351.62 1190.94 355.24C1190.94 355.24 1175.73 382.51 1196.69 397.82C1204.19 394.95 1205.69 382.47 1208.69 375.22C1213 364.41 1218.51 348.51 1205 346.46Z" fill="#540032"/>
<path d="M1206.81 388.87C1205.81 391.241 1204.36 393.39 1202.52 395.193C1200.69 396.995 1198.52 398.415 1196.13 399.37C1189.71 401.88 1188.01 394.96 1189.13 388.52C1190.13 382.73 1192.5 375.77 1199.24 376.01C1205.98 376.25 1209.23 383 1206.81 388.87Z" fill="#FFBC8E"/>
<path d="M1168.37 374.87C1168.19 376.98 1166.92 378.58 1165.54 378.44C1164.16 378.3 1163.19 376.49 1163.38 374.38C1163.57 372.27 1164.84 370.67 1166.21 370.81C1167.58 370.95 1168.56 372.76 1168.37 374.87Z" fill="#540032"/>
<path d="M1148.7 373.88C1148.51 375.98 1147.25 377.58 1145.87 377.45C1144.49 377.32 1143.52 375.45 1143.71 373.39C1143.9 371.33 1145.17 369.68 1146.54 369.82C1147.91 369.96 1148.89 371.77 1148.7 373.88Z" fill="#540032"/>
<path d="M1176.22 364.85C1176.05 364.906 1175.86 364.914 1175.69 364.873C1175.51 364.833 1175.35 364.745 1175.22 364.62C1174.33 363.747 1173.25 363.093 1172.07 362.711C1170.88 362.329 1169.62 362.23 1168.39 362.42C1168.13 362.481 1167.86 362.438 1167.64 362.301C1167.42 362.165 1167.25 361.945 1167.19 361.69C1167.13 361.437 1167.17 361.171 1167.31 360.949C1167.44 360.727 1167.66 360.566 1167.91 360.5C1169.47 360.224 1171.06 360.325 1172.57 360.793C1174.08 361.261 1175.45 362.083 1176.58 363.19C1176.77 363.37 1176.88 363.616 1176.89 363.875C1176.9 364.134 1176.8 364.387 1176.63 364.58C1176.52 364.706 1176.38 364.8 1176.22 364.85Z" fill="#540032"/>
<path d="M1160.38 395.76C1163.79 396.08 1166.6 394.61 1169.47 392.3" stroke="#540032" stroke-width="0.75" stroke-linecap="round" stroke-linejoin="round"/>
<path opacity="0.2" d="M1202.61 382.76C1202.21 382.131 1201.63 381.636 1200.94 381.339C1200.26 381.041 1199.5 380.955 1198.77 381.09C1197.3 381.385 1195.97 382.184 1195.02 383.35C1193.84 384.703 1193.02 386.339 1192.66 388.1" stroke="black" stroke-width="0.5" stroke-linecap="round" stroke-linejoin="round"/>
<path d="M1141.15 363.21C1140.96 363.155 1140.8 363.043 1140.68 362.89C1140.51 362.686 1140.43 362.425 1140.46 362.163C1140.48 361.901 1140.61 361.659 1140.81 361.49C1142 360.47 1143.41 359.75 1144.94 359.391C1146.46 359.033 1148.05 359.046 1149.57 359.43C1149.82 359.512 1150.03 359.69 1150.15 359.924C1150.27 360.158 1150.29 360.429 1150.21 360.68C1150.13 360.925 1149.95 361.128 1149.72 361.248C1149.49 361.367 1149.23 361.393 1148.98 361.32C1147.78 361.021 1146.52 361.02 1145.31 361.318C1144.11 361.616 1143 362.204 1142.07 363.03C1141.94 363.133 1141.79 363.203 1141.63 363.234C1141.47 363.266 1141.31 363.257 1141.15 363.21Z" fill="#540032"/>
<g opacity="0.2">
<path d="M1171.12 387.54C1172.03 388.528 1172.73 389.689 1173.18 390.954C1173.63 392.218 1173.82 393.56 1173.74 394.9C1174.46 393.567 1174.7 392.028 1174.42 390.54C1173.88 388.31 1171.12 387.54 1171.12 387.54Z" fill="black"/>
</g>
<path d="M1161.86 427.91L1148.88 439.59L1170.55 465.87L1201.86 439.47L1192.58 425.83L1173.01 442.17L1161.86 427.91Z" fill="#407BFF"/>
<path opacity="0.8" d="M1161.86 427.91L1148.88 439.59L1170.55 465.87L1201.86 439.47L1192.58 425.83L1173.01 442.17L1161.86 427.91Z" fill="white"/>
<path opacity="0.2" d="M1231.5 583V605.56C1231.5 605.56 1181.59 590.99 1152.19 564.7C1131.25 545.98 1134.52 538.1 1134.52 538.1L1158.24 540.39L1231.5 583Z" fill="black"/>
<path opacity="0.2" d="M1215.84 497.94L1219.03 550.94C1227.89 556.57 1233.75 548.76 1235.1 540.69V525.46L1215.84 497.94Z" fill="black"/>
<path d="M1215.78 501.35C1215.78 501.35 1231.78 543.2 1227.78 545.73C1223.78 548.26 1158.56 535.92 1158.56 535.92L1148.48 550.38C1150.64 559.88 1260.97 619.77 1269.98 569.67C1274.67 543.6 1256.5 482.03 1249.64 462.89C1247.72 457.53 1238.05 446.09 1232.64 444.44C1230.83 443.833 1228.91 443.658 1227.02 443.93C1206.16 447.84 1215.78 501.35 1215.78 501.35Z" fill="#820333"/>
<path d="M1147.55 551.78C1139.99 552.38 1139.73 541 1135.79 540.55C1133.5 540.329 1131.26 539.76 1129.15 538.86C1129.15 538.86 1131.64 545.7 1129.15 545.15C1126.66 544.6 1118.67 544.2 1116.71 537.69C1114.75 531.18 1121.86 517.23 1123.48 515.29C1125.1 513.35 1133.6 514 1133.6 514C1133.6 514 1124.45 511.63 1119.42 510.94C1114.39 510.25 1113.42 504.5 1120.42 505.77C1123.3 506.29 1146.04 506.46 1148.5 508.77C1150.96 511.08 1160.1 534.09 1160.1 534.09C1163.52 536 1154.92 555.29 1147.55 551.78Z" fill="#FFBC8E"/>
<g opacity="0.3">
<path d="M1133.69 513.23C1136.03 513.067 1138.39 513.218 1140.69 513.68C1140.77 513.701 1140.85 513.738 1140.92 513.789C1140.98 513.841 1141.04 513.905 1141.08 513.979C1141.13 514.053 1141.15 514.134 1141.16 514.219C1141.17 514.303 1141.16 514.388 1141.14 514.47C1141.1 514.616 1141.01 514.743 1140.89 514.829C1140.76 514.916 1140.61 514.955 1140.46 514.94C1138.29 514.509 1136.08 514.361 1133.87 514.5C1133 514.5 1132.87 513.28 1133.69 513.23Z" fill="black"/>
<path d="M1122 520.12C1121.28 520.49 1120.53 519.45 1121.25 519.12C1125.51 516.86 1129.99 518.12 1134.25 519.57C1135.02 519.82 1134.48 520.99 1133.71 520.74C1129.93 519.42 1125.75 518.2 1122 520.12Z" fill="black"/>
<path d="M1118.64 525.74C1120.44 524.667 1122.48 524.058 1124.57 523.967C1126.67 523.877 1128.75 524.307 1130.64 525.22C1130.78 525.312 1130.88 525.457 1130.92 525.624C1130.96 525.79 1130.93 525.965 1130.84 526.11C1130.77 526.23 1130.66 526.322 1130.53 526.373C1130.4 526.424 1130.25 526.43 1130.12 526.39C1128.43 525.563 1126.55 525.167 1124.67 525.237C1122.79 525.307 1120.95 525.84 1119.32 526.79C1118.66 527.21 1117.91 526.17 1118.64 525.74Z" fill="black"/>
<path d="M1124.75 535.29C1124.41 534.617 1124.15 533.91 1123.97 533.18C1123.8 532.39 1124.97 531.94 1125.19 532.74C1125.45 533.951 1125.96 535.094 1126.69 536.099C1127.41 537.104 1128.33 537.949 1129.4 538.58C1130.12 538.98 1129.57 540.15 1128.88 539.75H1128.95C1127.62 538.99 1126.48 537.945 1125.6 536.69C1125.51 536.69 1125.44 536.69 1125.34 536.69C1124.68 536.462 1123.98 536.435 1123.31 536.614C1122.64 536.792 1122.03 537.167 1121.58 537.69C1121.04 538.31 1120.07 537.49 1120.58 536.87C1121.09 536.286 1121.74 535.836 1122.47 535.56C1123.19 535.285 1123.98 535.192 1124.75 535.29Z" fill="black"/>
</g>
<path d="M783.08 519L791 505.35L806.66 505.63L814.09 519.55C820.071 518.445 825.903 516.65 831.47 514.2L829.84 498.51L842.64 489.51L856.86 496.39C861.053 491.976 864.724 487.094 867.8 481.84L857.2 470.12L862.26 455.32L877.82 452.52C878.61 446.491 878.698 440.39 878.08 434.34L862.62 431.06L858 416.12L868.92 404.71C865.998 399.36 862.475 394.361 858.42 389.81L844 396.26L831.47 386.89L833.59 371.25C830.964 370.013 828.277 368.908 825.54 367.94C822.545 366.91 819.489 366.065 816.39 365.41L808.51 379.08L792.88 378.87L785.41 365C779.435 366.117 773.61 367.923 768.05 370.38L769.73 386.07L757 395.12L742.76 388.28C738.581 392.703 734.93 397.595 731.88 402.86L742.5 414.58L737.5 429.4L721.96 432.25C721.206 438.101 721.116 444.019 721.69 449.89L737.13 453.22L741.69 468.22L730.7 479.55C733.588 484.901 737.088 489.897 741.13 494.44L755.56 488.06L768.05 497.47L765.9 513.09C768.588 514.4 771.353 515.545 774.18 516.52C777.098 517.513 780.069 518.341 783.08 519ZM769.79 460.55C766.158 454.602 764.371 447.711 764.656 440.748C764.94 433.785 767.282 427.063 771.386 421.431C775.491 415.799 781.173 411.51 787.714 409.107C794.256 406.704 801.363 406.294 808.137 407.929C814.911 409.565 821.048 413.172 825.773 418.295C830.497 423.418 833.596 429.827 834.679 436.712C835.761 443.596 834.778 450.647 831.854 456.972C828.93 463.298 824.195 468.615 818.25 472.25C814.306 474.68 809.92 476.305 805.345 477.034C800.77 477.762 796.096 477.579 791.593 476.494C787.089 475.41 782.844 473.445 779.102 470.714C775.361 467.983 772.196 464.539 769.79 460.58V460.55Z" fill="#FFC800"/>
</svg>
