<svg width="1600" height="1200" viewBox="0 0 1600 1200" fill="none" xmlns="http://www.w3.org/2000/svg">
<g opacity="0.5">
<path d="M1274.28 377.27H1173.54V478.01H1274.28V377.27Z" fill="#DBDBDB"/>
<path d="M1258.67 392.89H1189.16V462.4H1258.67V392.89Z" fill="white"/>
<path d="M1258.66 392.89H1189.15V462.39L1258.66 392.89Z" fill="#EBEBEB"/>
<path d="M1173.54 377.27H1163.7V478.01H1173.54V377.27Z" fill="#C7C7C7"/>
<path d="M1399 377.27H1298.26V478.01H1399V377.27Z" fill="#DBDBDB"/>
<path d="M1383.38 392.89H1313.87V462.4H1383.38V392.89Z" fill="white"/>
<path d="M1362.95 392.89H1313.87V441.97L1362.95 392.89Z" fill="#EBEBEB"/>
<path d="M1298.26 377.27H1288.42V478.01H1298.26V377.27Z" fill="#C7C7C7"/>
<path d="M1399 502.12H1173.54V603.02H1399V502.12Z" fill="#DBDBDB"/>
<path d="M1382.55 514.59H1190.02V590.55H1382.55V514.59Z" fill="white"/>
<path d="M1316.21 514.59H1189.99V564.37L1316.21 514.59Z" fill="#EBEBEB"/>
<path d="M1173.54 502.12H1163.7V603.02H1173.54V502.12Z" fill="#C7C7C7"/>
<path d="M1127.98 377.27H902.52V602.73H1127.98V377.27Z" fill="#DBDBDB"/>
<path d="M1111.53 393.72H918.97V586.25H1111.53V393.72Z" fill="white"/>
<path d="M919 532.33C948.19 503.2 1031.22 420.71 1057.85 393.72H919V532.33Z" fill="#EBEBEB"/>
<path d="M902.52 377.24H892.68V602.7H902.52V377.24Z" fill="#C7C7C7"/>
</g>
<path d="M1183.11 489.74C1178.95 471.1 1188.93 458.22 1176.87 437.86C1164.81 417.5 1153.87 416.44 1143.2 414.41C1116.2 409.25 1092.1 445.23 1104.52 467.58C1116.02 488.26 1108.07 506.18 1101.15 524.97C1094.23 543.76 1096.15 600.74 1144.85 600.65C1193.55 600.56 1202.57 578.46 1204.45 548.07C1206.7 511.69 1187.28 508.38 1183.11 489.74Z" fill="#1A2E35"/>
<g opacity="0.5">
<path d="M716 305.8H188.28V332.91H716V305.8Z" fill="#E1E1E1"/>
<path d="M235.82 205.86H212.57V305.81H235.82V205.86Z" fill="#ECECEC"/>
<path d="M348.24 205.86H324.99V305.81H348.24V205.86Z" fill="#ECECEC"/>
<path d="M475.865 203.343L452.953 207.293L469.931 305.79L492.843 301.841L475.865 203.343Z" fill="#ECECEC"/>
<path d="M264.63 219.03H241.38V305.8H264.63V219.03Z" fill="#ECECEC"/>
<path d="M318.07 219.03H294.82V305.8H318.07V219.03Z" fill="#ECECEC"/>
<path d="M452.95 219.03H429.7V305.8H452.95V219.03Z" fill="#ECECEC"/>
<path d="M378.783 216.032L356.087 221.076L374.912 305.78L397.608 300.735L378.783 216.032Z" fill="#ECECEC"/>
<path d="M284.73 200.9H273.11V305.81H284.73V200.9Z" fill="#ECECEC"/>
<path d="M423.02 200.9H411.39V305.81H423.02V200.9Z" fill="#ECECEC"/>
<path d="M665.36 226.7H552.08V304.91H665.36V226.7Z" fill="#ECECEC"/>
</g>
<g opacity="0.2">
<path d="M682.66 916.65L452.22 783.65V517.52L682.66 384.52L913.11 517.52V783.61L911 784.85L682.66 916.65ZM460.86 778.65L682.66 906.71L904.47 778.62V522.5L682.66 394.44L460.86 522.5V778.65Z" fill="#59595B"/>
<path d="M460.76 780.76L456.82 776.41L467.92 757.17L473.27 760.26L462.16 779.49L460.16 778.35L461.16 780.57L460.76 780.76ZM899.42 778.43L879.18 769.28L881.72 763.66L898.37 771.19L888.72 754.47L894.06 751.38L905.17 770.62L901.63 772.62L901.96 772.77L899.42 778.43ZM472.42 775.48L469.88 769.86L490.12 760.71L492.66 766.33L472.42 775.48ZM867.92 764.2L847.68 755.05L850.22 749.42L870.46 758.57L867.92 764.2ZM503.92 761.2L501.38 755.58L521.62 746.43L524.16 752.05L503.92 761.2ZM836.45 750L816.21 740.85L818.75 735.23L839 744.34L836.45 750ZM479.45 749.61L474.1 746.52L485.21 727.29L490.55 730.37L479.45 749.61ZM535.45 747.06L532.9 741.44L553.14 732.28L555.69 737.91L535.45 747.06ZM882.6 743.82L871.49 724.58L876.84 721.5L887.94 740.73L882.6 743.82ZM805.01 735.82L784.77 726.67L787.32 721.04L807.56 730.2L805.01 735.82ZM566.93 732.82L564.39 727.2L584.58 718L587.12 723.62L566.93 732.82ZM773.53 721.53L753.29 712.38L755.83 706.76L776 715.87L773.53 721.53ZM496.76 719.69L491.42 716.6L502.53 697.36L507.87 700.45L496.76 719.69ZM598.41 718.59L595.87 712.97L616.11 703.82L618.65 709.44L598.41 718.59ZM865.32 713.9L854.22 694.66L859.56 691.58L870.67 710.81L865.32 713.9ZM742 707.26L721.76 698.11L724.3 692.49L744.54 701.64L742 707.26ZM629.85 704.26L627.31 698.64L647.54 689.49L650.09 695.11L629.85 704.26ZM710.51 693L690.27 683.85L692.81 678.23L713.05 687.38L710.51 693ZM661.33 690.06L658.79 684.44L679 675.31L681.54 680.93L661.33 690.06ZM514 689.72L508.66 686.64L519.76 667.4L525.11 670.49L514 689.72ZM848 683.93L836.89 664.7L842.23 661.61L853.34 680.85L848 683.93ZM531.27 659.8L525.92 656.71L537 637.48L542.34 640.56L531.27 659.8ZM830.72 654L819.61 634.76L824.96 631.68L836.06 650.92L830.72 654ZM548.54 629.88L543.2 626.79L554.3 607.56L559.65 610.64L548.54 629.88ZM813.44 624.09L802.34 604.85L807.68 601.77L818.79 621L813.44 624.09ZM565.82 600L560.47 596.92L571.58 577.68L576.92 580.77L565.82 600ZM796.17 594.21L785.06 574.98L790.41 571.89L801.51 591.13L796.17 594.21ZM583.09 570L577.75 567L588.86 547.76L594.2 550.84L583.09 570ZM778.89 564.21L767.79 545L773.13 541.91L784.24 561.15L778.89 564.21ZM600.37 540.11L595 537L606.1 517.77L611.45 520.85L600.37 540.11ZM761.62 534.32L750.51 515.08L755.85 512L767 531.23L761.62 534.32ZM617.62 510.19L612.27 507.1L623.38 487.86L628.72 490.95L617.62 510.19ZM744.31 504.4L733.2 485.16L738.55 482.07L749.65 501.31L744.31 504.4ZM634.92 480.26L629.58 477.18L640.68 457.94L646 461L634.92 480.26ZM727.06 474.47L716 455.24L721.34 452.15L732.45 471.39L727.06 474.47ZM652.2 450.34L646.85 447.25L658 428L663.34 431.08L652.2 450.34ZM709.79 444.55L698.68 425.31L704.03 422.23L715.13 441.46L709.79 444.55ZM669.47 420.42L664.13 417.33L675.24 398.1L680.58 401.18L669.47 420.42ZM692.47 414.63L681.37 395.39L686.71 392.31L697.82 411.54L692.47 414.63Z" fill="#59595B"/>
<path d="M686.75 910.76L681.41 907.67L692.51 888.44L697.86 891.52L686.75 910.76ZM675.24 905L664.13 885.76L669.47 882.68L680.58 901.92L675.24 905ZM704 880.84L698.65 877.75L709.76 858.52L715.1 861.6L704 880.84ZM658 875.05L646.89 855.81L652.24 852.73L663.3 872L658 875.05ZM721.34 850.91L716 847.83L727.1 828.59L732.45 831.68L721.34 850.91ZM640.72 845.12L629.62 825.89L634.96 822.8L646 842L640.72 845.12ZM738.58 821L733.23 817.92L744.34 798.68L749.68 801.76L738.58 821ZM623.41 815.2L612.3 796L617.65 792.91L628.75 812.15L623.41 815.2ZM755.85 791.07L750.51 788L761.62 768.77L766.96 771.85L755.85 791.07ZM606.13 785.28L595 766L600.34 762.92L611.45 782.15L606.13 785.28ZM773.13 761.14L767.79 758.06L778.89 738.82L784.24 741.91L773.13 761.14ZM588.86 755.36L577.75 736.12L583.09 733.03L594.2 752.27L588.86 755.36ZM790.41 731.22L785.06 728.14L796.17 708.9L801.51 711.99L790.41 731.22ZM571.58 725.43L560.47 706.2L565.82 703.11L576.92 722.35L571.58 725.43ZM807.68 701.3L802.34 698.21L813.44 679L818.79 682.08L807.68 701.3ZM554.3 695.51L543.2 676.27L548.54 673.19L559.65 692.42L554.3 695.51ZM825 671.38L819.65 668.29L830.76 649.05L836.1 652.14L825 671.38ZM537 665.59L525.89 646.35L531.24 643.27L542.34 662.5L537 665.59ZM842.2 641.45L836.86 638.37L848 619.13L853.34 622.22L842.2 641.45ZM519.72 635.66L508.62 616.43L513.96 613.34L525.07 632.58L519.72 635.66ZM679 627.76L658.76 618.61L661.3 612.99L681.54 622.14L679 627.76ZM692.78 624.76L690.24 619.14L710.51 610L713.05 615.62L692.78 624.76ZM647.51 613.47L627.28 604.32L629.82 598.7L650.06 607.85L647.51 613.47ZM859.51 611.47L854.17 608.38L865.27 589.15L870.62 592.23L859.51 611.47ZM724.3 610.52L721.76 605L742 595.81L744.54 601.43L724.3 610.52ZM502.48 605.68L491.37 586.5L496.71 583.42L507.82 602.66L502.48 605.68ZM616.06 599.23L595.82 590.08L598.36 584.46L618.6 593.61L616.06 599.23ZM755.78 596.28L753.24 590.66L773.48 581.51L776.02 587.13L755.78 596.28ZM584.58 585L564.34 575.85L566.88 570.22L587.12 579.37L584.58 585ZM787.27 582.05L784.72 576.43L805 567.34L807.55 572.96L787.27 582.05ZM876.79 581.55L871.44 578.46L882.55 559.23L887.89 562.31L876.79 581.55ZM485.2 575.82L474.09 556.58L479.44 553.5L490.54 572.73L485.2 575.82ZM553.09 570.82L532.85 561.67L535.4 556.05L555.64 565.2L553.09 570.82ZM818.75 567.88L816.21 562.25L836.45 553.1L838.99 558.73L818.75 567.88ZM521.61 556.59L501.37 547.44L503.91 541.81L524.15 551L521.61 556.59ZM850.23 553.59L847.69 548L867.93 538.85L870.47 544.47L850.23 553.59ZM894.06 551.59L888.72 548.51L898.37 531.79L881.72 539.32L879.18 533.69L899.42 524.54L901.96 530.17L901.63 530.31L905.17 532.36L894.06 551.59ZM467.92 545.8L456.82 526.57L460.76 522.21L461.18 522.41L460.18 524.63L462.18 523.48L473.29 542.72L467.92 545.8ZM490.13 542.26L469.89 533.11L472.43 527.49L492.67 536.64L490.13 542.26Z" fill="#59595B"/>
<path d="M719.567 404.749C728.008 384.37 718.33 361.006 697.951 352.565C677.572 344.123 654.208 353.801 645.767 374.18C637.326 394.559 647.003 417.923 667.382 426.364C687.762 434.805 711.125 425.128 719.567 404.749Z" fill="#1F758D"/>
<g style="mix-blend-mode:multiply" opacity="0.5">
<path d="M682.66 429.4C672.175 429.234 662.176 424.953 654.821 417.48C647.465 410.006 643.342 399.941 643.342 389.455C643.342 378.969 647.465 368.904 654.821 361.43C662.176 353.957 672.175 349.676 682.66 349.51V429.4Z" fill="#1F758D"/>
</g>
<path d="M682.66 956.23C707.27 956.23 727.22 936.28 727.22 911.67C727.22 887.06 707.27 867.11 682.66 867.11C658.05 867.11 638.1 887.06 638.1 911.67C638.1 936.28 658.05 956.23 682.66 956.23Z" fill="#59B7CA"/>
<g style="mix-blend-mode:multiply" opacity="0.5">
<path d="M682.66 956.23C670.842 956.23 659.508 951.535 651.151 943.179C642.795 934.822 638.1 923.488 638.1 911.67C638.1 899.852 642.795 888.518 651.151 880.161C659.508 871.805 670.842 867.11 682.66 867.11V956.23Z" fill="#59B7CA"/>
</g>
<path d="M500.549 532.286C504.493 507.994 487.997 485.105 463.705 481.162C439.413 477.219 416.524 493.715 412.581 518.006C408.638 542.298 425.134 565.187 449.425 569.13C473.717 573.074 496.606 556.578 500.549 532.286Z" fill="#59B7CA"/>
<path d="M910 572.49C937.614 572.49 960 550.104 960 522.49C960 494.876 937.614 472.49 910 472.49C882.386 472.49 860 494.876 860 522.49C860 550.104 882.386 572.49 910 572.49Z" fill="#F0781B"/>
<g style="mix-blend-mode:multiply" opacity="0.5">
<path d="M910 572.49C896.739 572.49 884.021 567.222 874.645 557.845C865.268 548.469 860 535.751 860 522.49C860 509.229 865.268 496.512 874.645 487.135C884.021 477.758 896.739 472.49 910 472.49V572.49Z" fill="#F0781B"/>
</g>
<path d="M908.79 808.45C925.635 808.45 939.29 794.795 939.29 777.95C939.29 761.105 925.635 747.45 908.79 747.45C891.945 747.45 878.29 761.105 878.29 777.95C878.29 794.795 891.945 808.45 908.79 808.45Z" fill="#59B7CA"/>
<g style="mix-blend-mode:multiply" opacity="0.5">
<path d="M908.79 808.45C900.701 808.45 892.943 805.237 887.223 799.517C881.503 793.797 878.29 786.039 878.29 777.95C878.29 769.861 881.503 762.103 887.223 756.383C892.943 750.663 900.701 747.45 908.79 747.45V808.45Z" fill="#59B7CA"/>
</g>
<path d="M779.034 666.236C787.671 613.024 751.536 562.885 698.324 554.247C645.112 545.61 594.973 581.745 586.336 634.957C577.698 688.169 613.833 738.308 667.045 746.945C720.257 755.583 770.396 719.448 779.034 666.236Z" fill="#A5A7AA"/>
<path d="M456.54 710.48C443.197 710.478 430.154 714.432 419.058 721.842C407.963 729.253 399.313 739.786 394.204 752.112C389.094 764.437 387.753 778.001 390.352 791.088C392.95 804.175 399.37 816.198 408.8 825.637C418.231 835.076 430.248 841.507 443.333 844.117C456.418 846.727 469.983 845.398 482.313 840.299C494.643 835.201 505.184 826.561 512.604 815.472C520.024 804.383 523.99 791.343 524 778C524.007 769.136 522.267 760.358 518.879 752.167C515.492 743.976 510.524 736.533 504.26 730.263C497.995 723.992 490.556 719.018 482.368 715.624C474.18 712.229 465.404 710.481 456.54 710.48ZM456.54 812.15C449.776 812.15 443.164 810.144 437.54 806.386C431.915 802.628 427.532 797.287 424.943 791.038C422.355 784.789 421.678 777.912 422.997 771.278C424.317 764.644 427.574 758.55 432.357 753.767C437.14 748.984 443.234 745.727 449.868 744.407C456.502 743.088 463.379 743.765 469.628 746.353C475.877 748.942 481.218 753.325 484.976 758.95C488.734 764.574 490.74 771.186 490.74 777.95C490.74 787.02 487.137 795.719 480.723 802.133C474.309 808.547 465.61 812.15 456.54 812.15Z" fill="#1F758D"/>
<g style="mix-blend-mode:multiply" opacity="0.5">
<path d="M456.54 823.09C444.568 823.09 433.087 818.334 424.621 809.869C416.156 801.403 411.4 789.922 411.4 777.95C411.4 765.978 416.156 754.497 424.621 746.031C433.087 737.566 444.568 732.81 456.54 732.81V710.48C438.646 710.48 421.485 717.588 408.832 730.242C396.178 742.895 389.07 760.056 389.07 777.95C389.07 795.844 396.178 813.005 408.832 825.659C421.485 838.312 438.646 845.42 456.54 845.42V823.09Z" fill="#1F758D"/>
</g>
<g style="mix-blend-mode:multiply">
<path d="M793.39 643.56C793.54 645.87 793.62 648.21 793.62 650.56C793.63 672.516 787.128 693.982 774.937 712.242C762.747 730.502 745.414 744.737 725.133 753.146C704.851 761.555 682.531 763.761 660.996 759.483C639.46 755.206 619.677 744.638 604.149 729.117C588.62 713.595 578.044 693.817 573.757 672.283C569.47 650.75 571.665 628.429 580.065 608.144C588.464 587.858 602.692 570.519 620.947 558.32C639.201 546.121 660.664 539.61 682.62 539.61V466.7C581.12 466.7 498.8 549 498.8 650.56C498.8 699.323 518.171 746.088 552.651 780.569C587.132 815.049 633.897 834.42 682.66 834.42C784.21 834.42 866.53 752.11 866.53 650.56C866.53 648.21 866.47 645.88 866.38 643.56H793.39Z" fill="#DBDBDB"/>
</g>
<path d="M748.89 646.22C747.835 630.152 740.976 615.016 729.59 603.63C718.204 592.244 703.068 585.385 687 584.33V576.49H678.33V584.33C662.262 585.383 647.124 592.241 635.737 603.627C624.351 615.014 617.493 630.152 616.44 646.22H608.6V654.9H616.44C617.493 670.968 624.351 686.106 635.737 697.493C647.124 708.879 662.262 715.737 678.33 716.79V724.63H687V716.79C703.068 715.735 718.204 708.876 729.59 697.49C740.976 686.104 747.835 670.968 748.89 654.9H756.73V646.22H748.89ZM687 613.31V607.1C696.751 608.064 705.892 612.293 712.94 619.1L705.06 627C699.035 621.259 691.034 618.052 682.712 618.04C674.39 618.029 666.381 621.215 660.34 626.94L652.46 619C659.501 612.234 668.612 608.032 678.33 607.07V613.28L687 613.31ZM726.12 654.9C725.164 664.614 720.965 673.724 714.2 680.76L706.32 672.88C712.034 666.857 715.219 658.872 715.22 650.57C715.214 642.223 711.991 634.2 706.22 628.17L714.09 620.29C720.896 627.335 725.124 636.472 726.09 646.22H719.89V654.9H726.12ZM639.2 646.22C640.164 636.506 644.366 627.398 651.13 620.36L659.01 628.24C653.283 634.278 650.096 642.287 650.109 650.609C650.122 658.931 653.334 666.93 659.08 672.95L651.2 680.83C644.391 673.787 640.163 664.649 639.2 654.9H645.41V646.22H639.2ZM654.81 650.57C654.74 646.868 655.408 643.188 656.777 639.747C658.145 636.307 660.186 633.173 662.779 630.53C665.373 627.887 668.467 625.787 671.882 624.354C675.296 622.92 678.962 622.182 682.665 622.182C686.368 622.182 690.034 622.92 693.448 624.354C696.863 625.787 699.957 627.887 702.551 630.53C705.144 633.173 707.185 636.307 708.553 639.747C709.922 643.188 710.59 646.868 710.52 650.57C710.382 657.866 707.386 664.817 702.177 669.928C696.969 675.039 689.963 677.902 682.665 677.902C675.367 677.902 668.361 675.039 663.153 669.928C657.944 664.817 654.948 657.866 654.81 650.57ZM641.41 609.31C651.287 599.423 664.392 593.42 678.33 592.4V603.21C667.269 604.226 656.912 609.083 649.058 616.938C641.203 624.792 636.346 635.149 635.33 646.21H624.5C625.523 632.279 631.526 619.181 641.41 609.31ZM678.33 708.72C664.395 707.693 651.293 701.694 641.412 691.814C631.531 681.935 625.529 668.835 624.5 654.9H635.32C636.336 665.961 641.193 676.318 649.048 684.172C656.902 692.027 667.259 696.884 678.32 697.9L678.33 708.72ZM678.33 687.81V694C668.581 693.038 659.443 688.809 652.4 682L660.28 674.12C666.304 679.86 674.302 683.067 682.623 683.079C690.944 683.09 698.951 679.904 704.99 674.18L712.87 682.06C705.831 688.83 696.719 693.036 687 694V687.79L678.33 687.81ZM723.91 691.81C714.041 701.703 700.937 707.706 687 708.72V697.91C698.061 696.894 708.418 692.037 716.272 684.182C724.127 676.328 728.984 665.971 730 654.91H740.81C739.799 668.843 733.799 681.944 723.91 691.81ZM730.01 646.22C728.992 635.159 724.134 624.804 716.28 616.95C708.426 609.096 698.071 604.238 687.01 603.22V592.4C700.942 593.431 714.041 599.432 723.919 609.311C733.798 619.189 739.799 632.288 740.83 646.22H730.01Z" fill="#59595B"/>
<g style="mix-blend-mode:multiply" opacity="0.5">
<path d="M456.54 569.68C444.722 569.68 433.388 564.985 425.031 556.629C416.675 548.272 411.98 536.938 411.98 525.12C411.98 513.302 416.675 501.968 425.031 493.611C433.388 485.255 444.722 480.56 456.54 480.56V569.68Z" fill="#59B7CA"/>
</g>
</g>
<path d="M1291.31 342.75H1442.31C1448.06 342.753 1453.58 345.039 1457.64 349.106C1461.71 353.174 1463.99 358.689 1463.99 364.44V476.26C1463.99 482.01 1461.71 487.524 1457.64 491.59C1453.57 495.656 1448.06 497.94 1442.31 497.94H1347.91L1315.15 537.33C1314.62 538.044 1313.87 538.573 1313.02 538.841C1312.17 539.108 1311.26 539.102 1310.42 538.822C1309.57 538.542 1308.84 538.002 1308.31 537.281C1307.79 536.559 1307.51 535.691 1307.51 534.8L1317.44 497.94H1291.36C1285.61 497.94 1280.09 495.656 1276.03 491.591C1271.96 487.525 1269.67 482.011 1269.67 476.26V364.44C1269.67 358.696 1271.95 353.187 1276.01 349.121C1280.06 345.054 1285.57 342.763 1291.31 342.75Z" fill="#A1D3D1"/>
<path d="M1404.35 459.82C1412.72 453.097 1418.98 444.118 1422.41 433.945C1425.83 423.772 1426.26 412.831 1423.66 402.418C1421.06 392.005 1415.53 382.555 1407.73 375.187C1399.92 367.819 1390.17 362.842 1379.62 360.844C1369.08 358.847 1358.18 359.912 1348.22 363.915C1338.26 367.918 1329.66 374.691 1323.43 383.431C1317.2 392.172 1313.6 402.514 1313.07 413.234C1312.53 423.954 1315.08 434.603 1320.41 443.92C1321.89 446.474 1323.56 448.912 1325.41 451.21C1333.64 461.426 1345.17 468.446 1358.03 471.055C1370.88 473.665 1384.24 471.7 1395.8 465.5C1398.82 463.875 1401.68 461.974 1404.35 459.82ZM1390.66 442.82C1389.03 444.138 1387.27 445.3 1385.42 446.29C1377.64 450.471 1368.55 451.493 1360.04 449.144C1351.53 446.795 1344.25 441.256 1339.72 433.678C1335.18 426.101 1333.75 417.067 1335.7 408.457C1337.66 399.846 1342.86 392.321 1350.22 387.446C1357.58 382.571 1366.54 380.721 1375.23 382.28C1383.92 383.84 1391.68 388.689 1396.89 395.82C1402.09 402.951 1404.35 411.815 1403.19 420.568C1402.03 429.321 1397.54 437.291 1390.66 442.82Z" fill="#26B2A4"/>
<path d="M1346.87 390C1350.3 387.071 1354.27 384.849 1358.56 383.461C1362.85 382.072 1367.38 381.545 1371.87 381.91L1373.6 360.14C1363.27 359.309 1352.92 361.353 1343.68 366.045C1334.44 370.737 1326.68 377.894 1321.26 386.724C1315.84 395.553 1312.96 405.711 1312.96 416.073C1312.95 426.434 1315.82 436.595 1321.23 445.43L1339.85 434.03C1335.6 427.052 1333.98 418.791 1335.26 410.724C1336.55 402.658 1340.66 395.312 1346.87 390Z" fill="white"/>
<path d="M1315.4 448L1343.4 431.67C1343.4 431.67 1360.08 451.62 1381.96 441.67L1396.72 471.3C1396.72 471.3 1347 498.43 1315.4 448Z" fill="#9C2031"/>
<path d="M907.46 1066.71C926.26 1060.51 935.31 1030.35 939.66 1014.19L959.32 1021.77C959.32 1021.77 949.59 1051.21 950.72 1070.03C951.85 1088.85 946.5 1087.03 946.5 1087.03H882.5C882.5 1087.03 888.66 1072.9 907.46 1066.71Z" fill="#FFD2A7"/>
<path d="M907.46 1066.71C913.14 1064.83 917.92 1060.77 921.95 1055.58C924.58 1051.92 937.31 1055.96 939.43 1063.06C939.43 1063.06 944.53 1066.79 950.63 1066.22C950.63 1067.52 950.63 1068.8 950.72 1070.03C951.85 1088.84 946.5 1087.03 946.5 1087.03H882.5C882.5 1087.03 888.66 1072.9 907.46 1066.71Z" fill="#820333"/>
<path d="M1139.4 1019L1159.03 1027.24C1146.93 1048.24 1142.6 1068.24 1176.76 1068.24C1192.5 1068.24 1196.41 1087.14 1196.41 1087.14H1114.72C1114.72 1087.14 1106.6 1083.84 1118.36 1064.73C1131.14 1043.91 1139.4 1019 1139.4 1019Z" fill="#FFD2A7"/>
<path d="M1143.81 1069.5C1148.95 1064.74 1143.25 1055.68 1150.5 1055.27C1152.05 1063.04 1159.5 1068.17 1176.76 1068.17C1192.5 1068.17 1196.41 1087.07 1196.41 1087.07H1114.72C1114.72 1087.07 1107.09 1083.97 1117.32 1066.4C1125.88 1066.4 1136.06 1076.69 1143.81 1069.5Z" fill="#820333"/>
<path d="M1146.25 630.91C1178.62 681.17 1250.25 835.99 1250.9 843.19C1251.59 851.68 1233.82 860.4 1202.9 840.58C1177 824 1032.68 688.44 1086.17 627.1C1105.79 604.59 1136.4 615.63 1146.25 630.91Z" fill="#2E112D"/>
<path d="M1097.93 617.9C1113.16 754.01 1220.93 845.64 1227.79 851.66C1220.87 850.15 1212.51 846.75 1202.87 840.58C1177 824 1032.68 688.44 1086.17 627.1C1089.44 623.278 1093.43 620.149 1097.93 617.9Z" fill="#254F7A"/>
<path d="M1025.56 665.55C1039.17 637.09 1061.04 618.07 1067.98 613.25C1079.37 605.33 1105.16 606.11 1109.98 627.72C1114.8 649.33 1115.3 662.41 1102.17 701.33C1089.04 740.25 1032.75 832.42 1025 861.61C1017.25 890.8 972.36 891.1 986.54 849.3C1000.72 807.5 1009.81 698.46 1025.56 665.55Z" fill="#2E112D"/>
<path d="M982.73 857.28C986 849.44 987.86 843.65 990.51 835.58C1001.78 801.22 1033.95 836 1031.23 845.17C1027.83 856.68 1023.23 862.02 1013.66 902.36C1004.09 942.7 991.46 962.96 979.94 981.69C968.42 1000.42 959.22 1027.09 959.22 1027.09C939.48 1028.26 934.06 1020.17 934.06 1020.17C934.06 1020.17 945.24 977.34 952.82 942.57C960.4 907.8 975.09 875.61 982.73 857.28Z" fill="#2E112D"/>
<path d="M1250.9 843.19C1255.9 855.84 1161.14 1033.6 1161.14 1033.6C1141.38 1032.7 1133.64 1021.77 1133.64 1021.77C1133.64 1021.77 1157.49 967.87 1163.86 932.85C1192.24 776.81 1247.39 834.29 1250.9 843.19Z" fill="#2E112D"/>
<path d="M1214.39 615.77C1215.57 616.342 1216.81 616.766 1218.09 617.03C1229.77 619.44 1240.65 607.46 1233.46 595.09C1226.95 583.88 1185.46 533.23 1176.31 518.7C1166.47 502.98 1136.31 511.84 1143.18 531.7C1144.64 535.98 1158.18 553.7 1173.1 571.85C1189.89 592.21 1208.58 613 1214.39 615.77Z" fill="#FFBC8E"/>
<path d="M1214.39 615.77C1215.57 616.342 1216.81 616.766 1218.09 617.03C1216.24 613.758 1213.93 610.771 1211.23 608.16C1194.12 590.82 1196.29 565.63 1196.29 565.63L1173.1 571.89C1189.89 592.21 1208.58 613 1214.39 615.77Z" fill="#FFBC8E"/>
<path d="M1178.67 582.23C1159.85 561.23 1145.6 535.99 1143.87 530.97C1137.02 511.07 1166.47 502.97 1176.31 518.69C1181.42 526.84 1197.17 545.18 1210.78 562.69C1196.26 576.41 1183.76 581.54 1178.67 582.23Z" fill="#9C2031"/>
<path d="M1167.71 518.73C1158.71 512.65 1152.58 517.16 1145.46 521.52C1148.7 507.76 1167.93 505.31 1176.31 518.69C1181.42 526.84 1197.17 545.18 1210.78 562.69L1210.58 562.86C1196.48 555.66 1180.61 527.43 1167.71 518.73Z" fill="#9C2031"/>
<path d="M1082.4 577.06C1083.32 568.27 1082 559.68 1080.77 528.39C1080.3 516.18 1078.7 506.39 1082.77 501.88C1087.87 496.18 1099.61 497.69 1107.77 499.51C1122.59 502.83 1123.43 465.51 1123.43 465.51C1127.36 458.57 1155.43 450.2 1145.24 488.95C1139.04 512.61 1164.75 506.78 1169.37 512.45C1175.7 520.23 1172.15 533.35 1172.12 540.72C1172.09 548.09 1180.68 558.72 1176.37 571.38C1172.06 584.04 1159.93 580.83 1159.93 580.83C1154.43 584.83 1148.33 593.1 1146.47 599.47C1142.14 614.29 1146.24 630.93 1146.24 630.93C1098.5 640.31 1065.24 615.31 1065.24 615.31C1065.24 615.31 1079.62 603.42 1082.4 577.06Z" fill="#FFBC8E"/>
<path d="M1107.78 499.51C1122.6 502.83 1123.44 465.51 1123.44 465.51C1125.62 461.66 1134.09 462.05 1140.09 467.19C1135.23 467.35 1119.75 485.13 1119.75 516.19C1119.75 525.01 1127.75 531.99 1135.69 535.5C1135.69 535.5 1080.96 533 1080.77 528.41C1080.3 516.18 1099.58 497.69 1107.78 499.51Z" fill="#FFBC8E"/>
<path d="M1082.41 577.06C1083.32 568.27 1082.01 559.68 1080.78 528.39C1080.3 516.19 1078.7 506.39 1082.78 501.88C1087.37 496.74 1097.32 497.45 1105.23 498.97C1110.23 520.97 1126.51 536.11 1141.83 532.87C1151.69 530.79 1158.83 521.6 1161.49 509.41C1165.04 510.12 1168.1 510.8 1169.42 512.41C1175.75 520.19 1172.2 533.31 1172.17 540.67C1172.14 548.03 1180.73 558.67 1176.41 571.34C1172.09 584.01 1159.98 580.79 1159.98 580.79C1154.48 584.79 1148.38 593.06 1146.53 599.43C1142.19 614.25 1146.29 630.9 1146.29 630.9C1098.55 640.26 1065.29 615.27 1065.29 615.27C1065.29 615.27 1079.62 603.43 1082.41 577.06Z" fill="#820333"/>
<path d="M1107.87 531.16C1098.4 545.45 1069.39 604.16 1061.87 614.74C1052.68 627.63 1034.87 620.2 1035.16 605.9C1035.43 593.72 1073.78 509.74 1080.75 503.16C1096.06 488.71 1118.12 515.72 1107.87 531.16Z" fill="#FFBC8E"/>
<path d="M1059.59 608.82C1062.14 604.64 1064.22 600.21 1066.59 595.92C1071.27 587.44 1077.12 579.7 1082.08 571.39C1091.75 555.22 1103.37 530.82 1095.64 512.12C1093.73 507.312 1090.56 503.105 1086.47 499.94C1098.69 501.94 1112.67 523.86 1108.01 531.19C1098.8 545.64 1071.29 601.28 1063.77 611.82C1061.12 615.54 1059.29 620 1055.65 621.14C1057.19 618.93 1058.19 611.12 1059.59 608.82Z" fill="#FFBC8E"/>
<path d="M1053.58 595.58C1030.88 591.96 991.31 603.45 978.98 596.98C966.65 590.51 958.06 579.12 949.54 585.71C940.83 592.43 946.76 593.71 952.43 601.59C956.52 607.22 961.23 616.01 976.93 614.31C992.63 612.61 1019.77 624.43 1042.93 624.98C1065.86 625.53 1068.94 598 1053.58 595.58Z" fill="#FFBC8E"/>
<path d="M1051 559.52C1062.32 533.74 1077.56 506.23 1081.42 502.59C1096.72 488.13 1118.31 516.35 1108.06 531.79C1102.75 539.79 1092.39 561.09 1082.06 580.72C1063.53 573.15 1053.7 563.88 1051 559.52Z" fill="#820333"/>
<path d="M1150.13 673.27L1121.76 713.46L926.24 575.12L954.63 534.93L1150.13 673.27Z" fill="#254F7A"/>
<path d="M1241.6 740.34L1215.24 777.67C1213.36 780.34 1210.97 782.613 1208.21 784.36C1205.45 786.107 1202.37 787.292 1199.15 787.85C1195.93 788.407 1192.64 788.324 1189.45 787.607C1186.26 786.89 1183.25 785.552 1180.58 783.67L1034 679.84C1031.33 677.958 1029.05 675.569 1027.31 672.808C1025.56 670.047 1024.37 666.968 1023.82 663.748C1023.26 660.529 1023.34 657.231 1024.06 654.043C1024.78 650.855 1026.12 647.84 1028 645.17L1054.35 607.85C1058.15 602.457 1063.94 598.795 1070.44 597.67C1076.94 596.545 1083.63 598.048 1089.02 601.85L1235.61 705.65C1238.28 707.532 1240.56 709.923 1242.31 712.686C1244.06 715.449 1245.25 718.53 1245.8 721.752C1246.36 724.975 1246.27 728.275 1245.55 731.465C1244.83 734.654 1243.49 737.67 1241.6 740.34Z" fill="#194066"/>
<path d="M613.19 324C546.67 418.18 569.13 548.46 663.31 615C757.49 681.54 887.8 659.13 954.39 564.92C1020.98 470.71 998.48 340.36 904.23 273.92C809.98 207.48 679.75 229.7 613.19 324ZM889.3 294.92C971.91 353.21 991.52 467.38 933.23 550C874.94 632.62 760.77 652.21 678.23 593.89C595.69 535.57 576 421.41 634.35 338.88C692.7 256.35 806.81 236.67 889.3 294.92Z" fill="#2E112D"/>
<path d="M889.32 294.93C806.79 236.65 692.61 256.31 634.32 338.86C576.03 421.41 595.7 535.57 678.24 593.86C697.842 608.229 720.111 618.549 743.745 624.218C767.38 629.888 791.907 630.792 815.895 626.878C839.883 622.965 862.85 614.313 883.458 601.426C904.065 588.539 921.899 571.677 935.918 551.823C949.938 531.969 959.862 509.521 965.111 485.789C970.36 462.058 970.829 437.519 966.491 413.604C962.154 389.69 953.095 366.879 939.845 346.503C926.596 326.127 909.419 308.595 889.32 294.93Z" fill="white"/>
<g opacity="0.5">
<path d="M912 384.67C909.983 384.723 907.986 384.263 906.196 383.335C904.405 382.406 902.879 381.039 901.76 379.36C892.293 365.186 880.288 352.882 866.35 343.07C865.07 342.167 863.98 341.021 863.142 339.697C862.305 338.373 861.736 336.897 861.469 335.353C861.202 333.809 861.242 332.228 861.586 330.7C861.93 329.171 862.572 327.725 863.475 326.445C864.378 325.165 865.524 324.075 866.848 323.237C868.172 322.4 869.648 321.831 871.192 321.564C872.736 321.297 874.317 321.337 875.846 321.681C877.374 322.025 878.82 322.667 880.1 323.57C896.442 335.065 910.513 349.488 921.6 366.11C922.783 367.885 923.47 369.944 923.588 372.073C923.706 374.203 923.252 376.326 922.272 378.22C921.292 380.115 919.822 381.712 918.016 382.846C916.209 383.981 914.132 384.61 912 384.67Z" fill="white"/>
<path d="M697.3 346.9C694.76 346.967 692.265 346.222 690.178 344.772C688.091 343.323 686.521 341.245 685.697 338.841C684.874 336.437 684.839 333.833 685.599 331.408C686.358 328.983 687.872 326.864 689.92 325.36C724.124 300.404 766.648 289.627 808.61 295.28C810.162 295.494 811.657 296.012 813.009 296.804C814.361 297.595 815.544 298.646 816.491 299.895C817.437 301.144 818.128 302.567 818.524 304.083C818.92 305.599 819.014 307.178 818.8 308.73C818.586 310.282 818.068 311.777 817.276 313.129C816.485 314.481 815.434 315.664 814.185 316.611C812.936 317.557 811.513 318.248 809.997 318.644C808.481 319.04 806.902 319.134 805.35 318.92C769.524 314.103 733.221 323.291 704 344.57C702.055 346.009 699.718 346.822 697.3 346.9Z" fill="white"/>
</g>
<path d="M1236.06 606.87C1231.75 629.45 1204.24 673.87 1206.14 687.67C1208.04 701.47 1215.84 713.4 1206.74 719.19C1197.46 725.1 1188.93 722.54 1180.2 718.39C1174.45 715.65 1179.02 704.39 1185.95 690.21C1192.88 676.03 1197.44 628.88 1204.78 606.92C1212.06 585.16 1239 591.6 1236.06 606.87Z" fill="#FFBC8E"/>
<path d="M972.21 611.88C972.77 610.24 972.97 606.88 970.84 606.18C970.596 606.096 970.337 606.066 970.08 606.09C970.796 605.131 971.341 604.055 971.69 602.91C972.43 600.44 972.33 596.1 968.75 596.37C967.311 596.538 965.937 597.06 964.75 597.89C965.149 596.772 965.267 595.574 965.092 594.4C964.918 593.226 964.457 592.113 963.75 591.16C961.41 587.95 958.75 589.36 956.47 591.51C957.39 588.51 958.14 583.88 954.1 583.99C951.84 584.05 949.33 585.99 947.55 587.11C944.986 588.824 942.636 590.838 940.55 593.11C940.476 593.198 940.416 593.295 940.37 593.4C940.158 593.479 939.97 593.613 939.828 593.789C939.685 593.965 939.593 594.176 939.56 594.4C938.98 597.76 940.32 602.47 944.56 601.67C945.678 601.461 946.768 601.126 947.81 600.67C946.25 603.06 945.56 605.57 947.62 607.54C949.68 609.51 953 608.85 955.86 607.31C955.854 607.38 955.854 607.45 955.86 607.52C955.92 609.05 955.97 611.08 957.51 611.98C958.71 612.68 960.26 612.3 961.65 611.78C961.575 611.936 961.536 612.107 961.536 612.28C961.536 612.453 961.575 612.624 961.65 612.78C962.176 613.782 962.986 614.606 963.978 615.149C964.971 615.693 966.101 615.931 967.229 615.835C968.356 615.739 969.43 615.313 970.316 614.609C971.202 613.906 971.861 612.956 972.21 611.88Z" fill="#FFBC8E"/>
<mask id="mask0_1_1182" style="mask-type:luminance" maskUnits="userSpaceOnUse" x="600" y="261" width="370" height="369">
<path d="M889.32 294.93C806.79 236.65 692.61 256.31 634.32 338.86C576.03 421.41 595.7 535.57 678.24 593.86C697.842 608.229 720.111 618.549 743.745 624.218C767.38 629.888 791.907 630.792 815.895 626.878C839.883 622.965 862.85 614.313 883.458 601.426C904.065 588.539 921.899 571.677 935.918 551.823C949.938 531.969 959.862 509.521 965.111 485.789C970.36 462.058 970.829 437.519 966.491 413.604C962.154 389.69 953.095 366.879 939.845 346.503C926.596 326.127 909.419 308.595 889.32 294.93Z" fill="white"/>
</mask>
<g mask="url(#mask0_1_1182)">
<path d="M662.09 953.22L405.41 805V508.64L662.09 360.45L918.77 508.64V805L916.36 806.39L662.09 953.22ZM415 799.47L662.09 942.11L909.15 799.47V514.2L662.09 371.56L415 514.2V799.47Z" fill="#59595B"/>
<path d="M414.92 801.86L410.53 797L422.9 775.57L428.9 779.01L416.53 800.43L414.33 799.16L415.44 801.63L414.92 801.86ZM903.52 799.26L881 789.07L883.84 782.81L902.39 791.2L891.6 772.57L897.6 769.13L909.97 790.56L906 792.84L906.37 793L903.52 799.26ZM427.92 796L425.09 789.74L447.63 779.55L450.46 785.81L427.92 796ZM868.45 783.43L845.91 773.24L848.74 766.97L871.28 777.17L868.45 783.43ZM463 780.13L460.16 773.87L482.71 763.67L485.54 769.93L463 780.13ZM833.39 767.55L810.85 757.36L813.68 751.1L836.22 761.29L833.39 767.55ZM435.74 767.12L429.74 763.68L442.11 742.25L448.11 745.69L435.74 767.12ZM498.06 764.27L495.22 758L517.77 747.81L520.6 754.07L498.06 764.27ZM884.74 760.67L872.37 739.24L878.32 735.8L890.69 757.23L884.74 760.67ZM798.32 751.67L775.78 741.48L778.61 735.21L801.15 745.41L798.32 751.67ZM533.13 748.39L530.3 742.13L552.84 732L555.67 738.26L533.13 748.39ZM763.25 735.81L740.7 725.65L743.53 719.39L766.08 729.58L763.25 735.81ZM455 733.79L449 730.35L461.37 708.92L467.32 712.36L455 733.79ZM568.22 732.56L565.39 726.3L587.93 716.11L590.76 722.37L568.22 732.56ZM865.52 727.34L853.15 705.91L859.15 702.47L871.52 723.9L865.52 727.34ZM728.18 720L705.63 709.8L708.46 703.53L731 713.73L728.18 720ZM603.26 716.72L600.43 710.46L623 700.25L625.83 706.51L603.26 716.72ZM693.11 704.14L670.56 693.95L673.4 687.69L695.94 697.88L693.11 704.14ZM638.33 700.86L635.5 694.6L658 684.4L660.83 690.66L638.33 700.86ZM474.21 700.47L468.26 697L480.63 675.57L486.58 679.01L474.21 700.47ZM846.21 694.02L833.83 672.59L839.83 669.15L852.2 690.58L846.21 694.02ZM493.41 667.14L487.46 663.7L499.83 642.27L505.78 645.71L493.41 667.14ZM827 660.68L814.63 639.25L820.63 635.82L833 657.24L827 660.68ZM512.7 633.8L506.7 630.36L519.08 608.93L525.08 612.37L512.7 633.8ZM807.76 627.35L795.39 605.92L801.39 602.49L813.76 623.91L807.76 627.35ZM531.94 600.47L526 597L538.37 575.57L544.32 579.01L531.94 600.47ZM788.52 594L776.15 572.57L782.15 569.14L794.52 590.56L788.52 594ZM551.18 567.14L545.23 563.7L557.6 542.27L563.55 545.71L551.18 567.14ZM769.27 560.69L756.9 539.26L762.9 535.83L775.28 557.25L769.27 560.69ZM570.43 533.81L564.43 530.37L576.8 508.94L582.8 512.38L570.43 533.81ZM750 527.36L737.63 505.93L743.63 502.5L756 523.92L750 527.36ZM589.67 500.48L583.72 497L596.09 475.57L602.04 479.01L589.67 500.48ZM730.79 494L718.42 472.6L724.42 469.17L736.79 490.59L730.79 494ZM608.91 467.15L603 463.71L615.37 442.29L621.32 445.72L608.91 467.15ZM711.54 460.7L699.17 439.27L705.17 435.84L717.54 457.26L711.54 460.7ZM628.15 433.82L622.2 430.38L634.57 409L640.52 412.43L628.15 433.82ZM692.3 427.37L679.93 405.94L685.93 402.51L698.3 423.93L692.3 427.37ZM647.4 400.49L641.45 397.05L653.82 375.63L659.77 379.06L647.4 400.49ZM673.06 394L660.69 372.57L666.64 369.14L679 390.6L673.06 394Z" fill="#59595B"/>
<path d="M666.64 946.66L660.69 943.22L673.06 921.8L679.06 925.23L666.64 946.66ZM653.82 940.21L641.45 918.78L647.4 915.35L659.77 936.77L653.82 940.21ZM685.88 913.33L679.88 909.89L692.25 888.47L698.25 891.9L685.88 913.33ZM634.57 906.88L622.2 885.45L628.15 882.02L640.52 903.44L634.57 906.88ZM705.13 880L699.13 876.56L711.5 855.14L717.5 858.57L705.13 880ZM615.33 873.55L603 852.12L608.95 848.69L621.32 870.11L615.33 873.55ZM724.33 846.67L718.33 843.23L730.7 821.81L736.7 825.24L724.33 846.67ZM596.05 840.22L583.68 818.79L589.63 815.36L602 836.78L596.05 840.22ZM743.57 813.34L737.57 809.9L750 788.48L756 791.91L743.57 813.34ZM576.8 806.89L564.43 785.46L570.43 782.03L582.8 803.45L576.8 806.89ZM762.8 780.01L756.8 776.57L769.17 755.15L775.17 758.58L762.8 780.01ZM557.6 773.56L545.23 752.13L551.18 748.7L563.55 770.12L557.6 773.56ZM782.1 746.68L776.1 743.24L788.47 721.82L794.47 725.25L782.1 746.68ZM538.36 740.23L526 718.8L532 715.37L544.37 736.79L538.36 740.23ZM801.36 713.35L795.36 709.91L807.73 688.49L813.73 691.92L801.36 713.35ZM519.12 706.9L506.74 685.47L512.74 682.04L525.11 703.46L519.12 706.9ZM820.58 680L814.58 676.56L827 655.16L833 658.59L820.58 680ZM499.87 673.55L487.5 652.15L493.45 648.71L505.82 670.14L499.87 673.55ZM839.87 646.67L833.87 643.23L846.25 621.81L852.25 625.24L839.87 646.67ZM480.67 640.22L468.3 618.8L474.25 615.36L486.62 636.79L480.67 640.22ZM658 631.44L635.46 621.24L638.29 614.98L660.83 625.17L658 631.44ZM673.36 628.16L670.52 621.89L693.07 611.7L695.9 617.96L673.36 628.16ZM623 615.58L600.46 605.39L603.29 599.13L625.83 609.32L623 615.58ZM859.1 613.36L853.1 609.92L865.47 588.5L871.47 591.93L859.1 613.36ZM708.46 612.3L705.63 606L728.18 595.81L731.01 602.07L708.46 612.3ZM461.39 606.91L449 585.49L455 582.05L467.37 603.48L461.39 606.91ZM587.9 599.73L565.36 589.53L568.19 583.27L590.73 593.46L587.9 599.73ZM743.53 596.45L740.7 590.18L763.24 580L766.08 586.26L743.53 596.45ZM552.84 583.87L530.29 573.68L533.12 567.42L555.67 577.61L552.84 583.87ZM778.6 580.59L775.77 574.33L798.31 564.14L801.14 570.4L778.6 580.59ZM878.31 580.03L872.36 576.59L884.73 555.17L890.68 558.6L878.31 580.03ZM442.14 573.58L429.77 552.16L435.77 548.72L448.14 570.15L442.14 573.58ZM517.77 568L495.22 557.8L498.05 551.54L520.6 561.73L517.77 568ZM813.67 564.72L810.84 558.45L833.38 548.26L836.21 554.52L813.67 564.72ZM482.67 552.14L460.15 542L462.99 535.74L485.53 545.93L482.67 552.14ZM848.67 548.86L845.84 542.6L868.38 532.41L871.21 538.67L848.67 548.86ZM897.49 546.68L891.49 543.24L902.25 524.62L883.81 533L881 526.76L903.55 516.57L906.38 522.83L906 523L909.95 525.27L897.49 546.68ZM422.9 540.25L410.53 518.83L414.92 513.98L415.39 514.19L414.27 516.66L416.48 515.39L428.85 536.82L422.9 540.25ZM447.63 536.31L425.09 526.12L427.92 519.85L450.46 530L447.63 536.31Z" fill="#59595B"/>
<path d="M703.194 383.026C712.597 360.325 701.817 334.3 679.116 324.897C656.416 315.494 630.39 326.274 620.987 348.975C611.584 371.676 622.364 397.701 645.065 407.104C667.766 416.507 693.791 405.727 703.194 383.026Z" fill="#820333"/>
<g style="mix-blend-mode:multiply" opacity="0.5">
<path d="M662.09 410.49C650.288 410.49 638.969 405.802 630.624 397.456C622.278 389.111 617.59 377.792 617.59 365.99C617.59 354.188 622.278 342.869 630.624 334.524C638.969 326.178 650.288 321.49 662.09 321.49V410.49Z" fill="#1F758D"/>
</g>
<path d="M915.31 569.88C946.067 569.88 971 544.947 971 514.19C971 483.433 946.067 458.5 915.31 458.5C884.553 458.5 859.62 483.433 859.62 514.19C859.62 544.947 884.553 569.88 915.31 569.88Z" fill="#F9B200"/>
<path d="M915.31 569.87C900.671 569.674 886.697 563.721 876.414 553.299C866.132 542.877 860.366 528.826 860.366 514.185C860.366 499.544 866.132 485.493 876.414 475.071C886.697 464.649 900.671 458.696 915.31 458.5V569.87Z" fill="#E09E0B"/>
<path d="M738.971 733.714C781.429 691.257 781.429 622.419 738.971 579.961C696.513 537.503 627.676 537.503 585.218 579.961C542.76 622.419 542.76 691.257 585.218 733.714C627.676 776.172 696.513 776.172 738.971 733.714Z" fill="#A5A7AA"/>
<g style="mix-blend-mode:multiply">
<path d="M785.42 649C785.593 651.58 785.68 654.183 785.68 656.81C785.686 681.255 778.443 705.153 764.866 725.481C751.289 745.809 731.989 761.655 709.407 771.014C686.824 780.372 661.973 782.824 637.997 778.059C614.021 773.293 591.997 761.525 574.709 744.242C557.422 726.959 545.648 704.937 540.877 680.962C536.106 656.987 538.551 632.136 547.905 609.551C557.258 586.966 573.099 567.662 593.424 554.081C613.749 540.499 637.645 533.25 662.09 533.25V452C548.98 452 457.29 543.69 457.29 656.8C457.29 769.91 549 861.63 662.09 861.63C775.18 861.63 866.89 769.94 866.89 656.84C866.89 654.22 866.82 651.62 866.72 649.03L785.42 649Z" fill="#DBDBDB"/>
</g>
<path d="M735.86 652C734.683 634.104 727.042 617.245 714.359 604.564C701.676 591.883 684.816 584.244 666.92 583.07V574.34H657.26V583.07C639.363 584.242 622.502 591.88 609.819 604.562C597.135 617.243 589.495 634.103 588.32 652H579.59V661.67H588.32C589.495 679.567 597.135 696.427 609.819 709.108C622.502 721.79 639.363 729.428 657.26 730.6V739.34H666.92V730.6C684.816 729.426 701.676 721.787 714.359 709.106C727.042 696.425 734.683 679.566 735.86 661.67H744.59V652H735.86ZM666.92 615.34V608.43C677.78 609.503 687.959 614.21 695.81 621.79L687 630.56C680.294 624.16 671.384 620.584 662.114 620.571C652.844 620.558 643.924 624.109 637.2 630.49L628.42 621.71C636.261 614.176 646.408 609.498 657.23 608.43V615.34H666.92ZM710.5 661.67C709.426 672.492 704.745 682.639 697.21 690.48L688.44 681.7C694.807 674.99 698.355 666.09 698.35 656.84C698.35 647.55 694.768 638.617 688.35 631.9L697.12 623.12C704.702 630.967 709.416 641.142 710.5 652H703.58V661.67H710.5ZM613.68 652C614.762 641.174 619.454 631.027 627 623.19L635.78 631.97C629.398 638.696 625.847 647.617 625.86 656.889C625.873 666.16 629.45 675.072 635.85 681.78L627 690.55C619.42 682.703 614.713 672.527 613.64 661.67H620.56V652H613.68ZM631.06 656.84C631.06 648.61 634.329 640.718 640.148 634.898C645.968 629.079 653.86 625.81 662.09 625.81C670.32 625.81 678.212 629.079 684.031 634.898C689.851 640.718 693.12 648.61 693.12 656.84C693.12 665.07 689.851 672.962 684.031 678.781C678.212 684.601 670.32 687.87 662.09 687.87C653.86 687.87 645.968 684.601 640.148 678.781C634.329 672.962 631.06 665.07 631.06 656.84ZM616.14 610.84C627.137 599.822 641.734 593.134 657.26 592V604.1C644.939 605.236 633.403 610.647 624.652 619.396C615.902 628.144 610.488 639.679 609.35 652H597.35C598.469 636.484 605.139 621.89 616.14 610.89V610.84ZM657.26 721.57C641.723 720.433 627.114 713.747 616.099 702.731C605.083 691.716 598.397 677.106 597.26 661.57H609.26C610.398 673.891 615.812 685.426 624.562 694.174C633.313 702.923 644.849 708.334 657.17 709.47L657.26 721.57ZM657.26 698.28V705.19C646.404 704.121 636.228 699.417 628.38 691.84L637.15 683.06C643.859 689.455 652.768 693.029 662.036 693.042C671.304 693.055 680.224 689.506 686.95 683.13L695.73 691.91C687.889 699.444 677.741 704.122 666.92 705.19V698.28H657.26ZM708 702.78C697.002 713.797 682.405 720.484 666.88 721.62V709.62C679.201 708.484 690.737 703.073 699.488 694.324C708.238 685.576 713.652 674.041 714.79 661.72H726.79C725.655 677.217 718.986 691.79 708 702.78ZM714.83 652C713.692 639.679 708.278 628.144 699.528 619.396C690.777 610.647 679.241 605.236 666.92 604.1V592.05C682.457 593.187 697.066 599.873 708.081 610.889C719.097 621.904 725.783 636.513 726.92 652.05L714.83 652Z" fill="#59595B"/>
</g>
<path d="M1376.98 852.338L1366.77 862.542L1374.45 870.221L1384.66 860.017L1376.98 852.338Z" fill="#2E112D"/>
<path d="M1402.08 869.84C1421.37 869.84 1437 854.206 1437 834.92C1437 815.634 1421.37 800 1402.08 800C1382.79 800 1367.16 815.634 1367.16 834.92C1367.16 854.206 1382.79 869.84 1402.08 869.84Z" fill="#A1A7AD"/>
<path d="M1402.08 859.61C1415.72 859.61 1426.77 848.556 1426.77 834.92C1426.77 821.284 1415.72 810.23 1402.08 810.23C1388.44 810.23 1377.39 821.284 1377.39 834.92C1377.39 848.556 1388.44 859.61 1402.08 859.61Z" fill="#49494A"/>
<path d="M1364.32 860.09L1358.52 865.888L1371.13 878.496L1376.92 872.698L1364.32 860.09Z" fill="#A1A7AD"/>
<path d="M1360.05 867.422L1330.16 897.319L1339.7 906.865L1369.6 876.968L1360.05 867.422Z" fill="#2E112D"/>
<path d="M1402.08 866.21C1394.84 866.211 1387.82 863.701 1382.22 859.108C1376.62 854.515 1372.79 848.123 1371.38 841.021C1369.96 833.919 1371.06 826.546 1374.47 820.159C1377.88 813.772 1383.4 808.766 1390.09 805.994C1396.78 803.222 1404.23 802.855 1411.16 804.957C1418.09 807.058 1424.07 811.497 1428.1 817.517C1432.12 823.538 1433.93 830.768 1433.22 837.974C1432.52 845.181 1429.33 851.919 1424.21 857.04C1421.31 859.957 1417.86 862.269 1414.06 863.844C1410.27 865.418 1406.19 866.222 1402.08 866.21ZM1402.08 804.69C1395.09 804.692 1388.31 807.119 1382.9 811.557C1377.5 815.995 1373.8 822.17 1372.44 829.03C1371.07 835.89 1372.13 843.01 1375.43 849.177C1378.73 855.344 1384.06 860.177 1390.53 862.852C1396.99 865.527 1404.18 865.878 1410.87 863.846C1417.56 861.815 1423.34 857.525 1427.23 851.709C1431.11 845.894 1432.86 838.911 1432.17 831.951C1431.49 824.991 1428.41 818.484 1423.46 813.54C1420.66 810.723 1417.33 808.49 1413.66 806.971C1409.99 805.452 1406.05 804.676 1402.08 804.69Z" fill="#49494A"/>
<path d="M294.33 489.07V474.34H285.85C285.527 471.709 284.957 469.115 284.15 466.59L291.03 462.59L283.67 449.84L277.34 453.49C275.612 451.228 273.666 449.141 271.53 447.26L274.95 441.34L262.2 434L259 439.58C256.231 438.483 253.355 437.676 250.42 437.17V431H235.68V437.17C232.715 437.675 229.812 438.493 227.02 439.61L224 434.3L211.25 441.66L214.53 447.34C212.348 449.28 210.361 451.431 208.6 453.76L202.75 450.38L195.39 463.13L201.88 466.88C201.067 469.504 200.508 472.199 200.21 474.93H192.38V489.66H201.11C201.695 492.126 202.499 494.536 203.51 496.86L195.68 501.38L203 514.13L211.58 509.18C213.179 510.889 214.915 512.464 216.77 513.89L211.77 522.63L224.46 530L229.8 520.75C231.914 521.429 234.077 521.943 236.27 522.29V533H251V522.08C253.157 521.683 255.281 521.118 257.35 520.39L262.72 529.7L275.47 522.34L270.2 513.2C271.963 511.767 273.611 510.199 275.13 508.51L283.98 513.62L291.34 500.87L283 496C283.926 493.733 284.659 491.391 285.19 489L294.33 489.07ZM276.15 479.68C276.15 486.229 274.208 492.631 270.57 498.077C266.932 503.523 261.762 507.768 255.711 510.276C249.661 512.784 243.003 513.441 236.58 512.166C230.156 510.89 224.254 507.739 219.621 503.11C214.988 498.481 211.831 492.582 210.55 486.16C209.269 479.737 209.92 473.079 212.423 467.026C214.925 460.974 219.165 455.799 224.608 452.156C230.05 448.513 236.451 446.566 243 446.56C247.352 446.555 251.663 447.408 255.685 449.07C259.708 450.732 263.363 453.171 266.442 456.247C269.521 459.323 271.963 462.976 273.629 466.997C275.295 471.018 276.151 475.328 276.15 479.68Z" fill="#2E112D"/>
<path d="M243 452.33C237.591 452.33 232.303 453.934 227.805 456.939C223.307 459.945 219.802 464.216 217.732 469.214C215.662 474.211 215.12 479.71 216.176 485.016C217.231 490.321 219.836 495.194 223.661 499.019C227.486 502.844 232.359 505.449 237.664 506.505C242.97 507.56 248.469 507.018 253.466 504.948C258.464 502.878 262.735 499.373 265.741 494.875C268.746 490.377 270.35 485.089 270.35 479.68C270.351 476.088 269.645 472.531 268.271 469.212C266.897 465.893 264.882 462.878 262.342 460.338C259.802 457.798 256.787 455.783 253.468 454.409C250.149 453.035 246.592 452.329 243 452.33ZM243 502.33C238.528 502.33 234.157 501.004 230.439 498.52C226.72 496.035 223.822 492.504 222.111 488.372C220.4 484.241 219.952 479.695 220.824 475.309C221.697 470.923 223.85 466.894 227.012 463.732C230.174 460.57 234.203 458.417 238.589 457.544C242.975 456.672 247.521 457.12 251.652 458.831C255.784 460.542 259.315 463.44 261.8 467.159C264.284 470.877 265.61 475.248 265.61 479.72C265.599 485.71 263.213 491.45 258.974 495.682C254.735 499.913 248.99 502.29 243 502.29V502.33Z" fill="#820333"/>
<path d="M901.767 115.074L900.951 115.926L906.69 121.426L907.507 120.574L901.767 115.074Z" fill="#49494A"/>
<path d="M924.55 114.83L923.38 114.6L923.72 112.91L924.88 113.15L924.55 114.83ZM925.12 111.98L923.96 111.75L924.42 109.43L925.58 109.66L925.12 111.98ZM925.82 108.5L924.65 108.27L925.12 105.94L926.28 106.18L925.82 108.5ZM926.51 105.01L925.35 104.78L925.82 102.46L926.98 102.69L926.51 105.01ZM927.21 101.53L926.05 101.3L926.52 98.97L927.68 99.21L927.21 101.53ZM927.91 98.04L926.75 97.81L927.21 95.49L928.38 95.72L927.91 98.04Z" fill="#49494A"/>
<path d="M943.282 105.178L930.542 118.12L931.383 118.947L944.123 106.006L943.282 105.178Z" fill="#49494A"/>
<path d="M932.763 137.978L932.184 139.006L949.757 148.908L950.336 147.88L932.763 137.978Z" fill="#49494A"/>
<path d="M906.784 137.941L889.64 149.825L890.313 150.795L907.456 138.911L906.784 137.941Z" fill="#49494A"/>
<path d="M920.28 114.72C916.953 114.718 913.699 115.703 910.932 117.551C908.164 119.398 906.007 122.025 904.732 125.099C903.458 128.173 903.124 131.555 903.773 134.819C904.421 138.083 906.024 141.081 908.376 143.434C910.729 145.786 913.727 147.389 916.991 148.037C920.255 148.686 923.638 148.352 926.711 147.078C929.785 145.803 932.412 143.646 934.259 140.878C936.107 138.111 937.092 134.858 937.09 131.53C937.087 127.073 935.315 122.798 932.164 119.646C929.012 116.495 924.738 114.723 920.28 114.72ZM920.28 142.79C918.053 142.792 915.875 142.133 914.022 140.897C912.169 139.661 910.724 137.903 909.87 135.846C909.016 133.789 908.792 131.524 909.225 129.339C909.659 127.155 910.73 125.147 912.304 123.572C913.879 121.996 915.885 120.922 918.07 120.487C920.254 120.052 922.519 120.274 924.577 121.126C926.635 121.978 928.394 123.421 929.632 125.273C930.869 127.125 931.53 129.303 931.53 131.53C931.53 134.515 930.345 137.377 928.236 139.489C926.126 141.6 923.265 142.787 920.28 142.79Z" fill="#254F7A"/>
<path d="M920.28 142.79C918.774 142.835 917.274 142.577 915.869 142.032C914.464 141.486 913.183 140.664 912.102 139.615C911.021 138.565 910.161 137.309 909.574 135.921C908.987 134.534 908.684 133.042 908.684 131.535C908.684 130.028 908.987 128.537 909.574 127.149C910.161 125.761 911.021 124.505 912.102 123.455C913.183 122.406 914.464 121.584 915.869 121.038C917.274 120.493 918.774 120.235 920.28 120.28V114.72C918.037 114.665 915.806 115.06 913.718 115.88C911.631 116.701 909.728 117.931 908.122 119.497C906.517 121.064 905.241 122.936 904.37 125.004C903.499 127.071 903.05 129.292 903.05 131.535C903.05 133.778 903.499 135.999 904.37 138.066C905.241 140.134 906.517 142.006 908.122 143.573C909.728 145.14 911.631 146.369 913.718 147.19C915.806 148.01 918.037 148.405 920.28 148.35V142.79Z" fill="#2E112D"/>
<path d="M896.85 103.56C895.492 103.558 894.165 103.959 893.035 104.712C891.905 105.465 891.025 106.536 890.504 107.79C889.984 109.044 889.847 110.424 890.111 111.756C890.376 113.088 891.029 114.311 891.989 115.271C892.949 116.231 894.172 116.884 895.504 117.149C896.836 117.413 898.216 117.276 899.47 116.756C900.724 116.235 901.795 115.355 902.548 114.225C903.301 113.095 903.702 111.768 903.7 110.41C903.697 108.594 902.975 106.853 901.691 105.569C900.407 104.285 898.666 103.563 896.85 103.56ZM896.85 113.89C896.161 113.892 895.487 113.69 894.914 113.308C894.34 112.927 893.893 112.384 893.628 111.749C893.363 111.113 893.292 110.413 893.426 109.737C893.559 109.062 893.889 108.441 894.376 107.953C894.862 107.465 895.482 107.133 896.157 106.998C896.833 106.863 897.533 106.931 898.169 107.194C898.806 107.457 899.35 107.903 899.733 108.476C900.116 109.048 900.32 109.721 900.32 110.41C900.32 111.331 899.955 112.215 899.304 112.867C898.654 113.52 897.771 113.887 896.85 113.89Z" fill="#2E112D"/>
<path d="M896.85 115C896.23 115.029 895.61 114.932 895.029 114.714C894.447 114.497 893.916 114.164 893.467 113.735C893.018 113.307 892.66 112.792 892.416 112.221C892.172 111.65 892.046 111.036 892.046 110.415C892.046 109.794 892.172 109.18 892.416 108.609C892.66 108.038 893.018 107.523 893.467 107.095C893.916 106.666 894.447 106.333 895.029 106.116C895.61 105.898 896.23 105.801 896.85 105.83V103.56C895.928 103.525 895.008 103.676 894.145 104.005C893.283 104.333 892.496 104.833 891.831 105.473C891.166 106.113 890.637 106.88 890.276 107.729C889.914 108.579 889.728 109.492 889.728 110.415C889.728 111.338 889.914 112.251 890.276 113.101C890.637 113.95 891.166 114.717 891.831 115.357C892.496 115.997 893.283 116.497 894.145 116.825C895.008 117.154 895.928 117.305 896.85 117.27V115Z" fill="#820333"/>
<path d="M935.1 96.2232C936.045 92.1789 933.532 88.1344 929.488 87.1895C925.444 86.2447 921.399 88.7573 920.454 92.8016C919.509 96.8458 922.022 100.89 926.066 101.835C930.111 102.78 934.155 100.267 935.1 96.2232Z" fill="#820333"/>
<path d="M897.51 150.34C897.51 151.827 897.069 153.281 896.243 154.518C895.416 155.755 894.242 156.718 892.868 157.288C891.494 157.857 889.982 158.006 888.523 157.715C887.064 157.425 885.724 156.709 884.673 155.657C883.621 154.606 882.905 153.266 882.614 151.807C882.324 150.348 882.473 148.836 883.042 147.462C883.612 146.088 884.575 144.914 885.812 144.087C887.049 143.261 888.503 142.82 889.99 142.82C891.984 142.82 893.897 143.612 895.307 145.023C896.718 146.433 897.51 148.346 897.51 150.34Z" fill="#A1A7AD"/>
<path d="M944.276 109.883C946.611 109.595 948.27 107.468 947.982 105.133C947.693 102.798 945.566 101.139 943.231 101.428C940.896 101.716 939.237 103.843 939.526 106.178C939.814 108.513 941.941 110.172 944.276 109.883Z" fill="#A1A7AD"/>
<path d="M954.25 148.35C954.252 149.193 954.004 150.018 953.536 150.721C953.069 151.423 952.404 151.97 951.625 152.294C950.846 152.618 949.989 152.703 949.161 152.539C948.334 152.375 947.574 151.969 946.978 151.372C946.381 150.776 945.975 150.016 945.811 149.189C945.647 148.361 945.733 147.504 946.056 146.725C946.38 145.946 946.927 145.281 947.63 144.814C948.332 144.346 949.157 144.098 950 144.1C951.127 144.1 952.208 144.548 953.005 145.345C953.802 146.142 954.25 147.223 954.25 148.35Z" fill="#A1A7AD"/>
<path d="M1454 1085.04H132V1088.93H1454V1085.04Z" fill="#2E112D"/>
<path d="M1222.33 265.708C1264.52 255.888 1290.77 213.718 1280.95 171.519C1271.13 129.32 1228.96 103.072 1186.76 112.892C1144.56 122.712 1118.32 164.882 1128.14 207.081C1137.96 249.28 1180.13 275.528 1222.33 265.708Z" fill="#ECECEC"/>
<path d="M1225.11 263.927C1265.38 254.549 1290.42 214.305 1281.04 174.038C1271.66 133.772 1231.42 108.731 1191.15 118.109C1150.89 127.487 1125.85 167.731 1135.22 207.998C1144.6 248.264 1184.85 273.304 1225.11 263.927Z" fill="#DCDCDC"/>
<path d="M1234.51 256.05C1270.4 241.484 1287.68 200.583 1273.12 164.694C1258.55 128.806 1217.65 111.52 1181.76 126.085C1145.87 140.651 1128.59 181.552 1143.15 217.441C1157.72 253.329 1198.62 270.615 1234.51 256.05Z" fill="white"/>
<path opacity="0.5" d="M1276.68 176.19C1244.75 195.54 1192.26 227.28 1162.93 244.68C1154.63 237.692 1148.07 228.874 1143.76 218.92L1240.76 129C1249.83 133.768 1257.74 140.463 1263.95 148.616C1270.15 156.768 1274.5 166.18 1276.68 176.19Z" fill="#ECECEC"/>
<path opacity="0.5" d="M1278.22 193.53C1277.96 201.329 1276.4 209.029 1273.59 216.31L1186.12 257.68C1182.32 256.417 1178.64 254.827 1175.12 252.93C1201.5 237.66 1249.78 209.88 1278.22 193.53Z" fill="#ECECEC"/>
<path d="M1208.83 126.04H1207.47V136.67H1208.83V126.04Z" fill="#C8C8C8"/>
<path d="M1176.19 134.352L1175.01 135.032L1180.33 144.238L1181.5 143.558L1176.19 134.352Z" fill="#C8C8C8"/>
<path d="M1152.1 157.931L1151.42 159.1L1160.63 164.415L1161.3 163.246L1152.1 157.931Z" fill="#C8C8C8"/>
<path d="M1153.73 190.4H1143.1V191.76H1153.73V190.4Z" fill="#C8C8C8"/>
<path d="M1160.72 217.771L1151.51 223.086L1152.19 224.255L1161.39 218.94L1160.72 217.771Z" fill="#C8C8C8"/>
<path d="M1180.28 237.793L1174.97 247.003L1176.15 247.682L1181.46 238.472L1180.28 237.793Z" fill="#C8C8C8"/>
<path d="M1208.83 245.49H1207.47V256.12H1208.83V245.49Z" fill="#C8C8C8"/>
<path d="M1235.94 237.847L1234.76 238.527L1240.08 247.733L1241.26 247.053L1235.94 237.847Z" fill="#C8C8C8"/>
<path d="M1255.51 217.63L1254.84 218.8L1264.04 224.115L1264.72 222.945L1255.51 217.63Z" fill="#C8C8C8"/>
<path d="M1273.18 190.4H1262.55V191.76H1273.18V190.4Z" fill="#C8C8C8"/>
<path d="M1269.24 158.79L1259.99 164.105L1260.66 165.279L1269.91 159.964L1269.24 158.79Z" fill="#C8C8C8"/>
<path d="M1240.1 134.435L1234.79 143.644L1235.97 144.323L1241.28 135.114L1240.1 134.435Z" fill="#C8C8C8"/>
<path d="M1209.16 130.85L1211.47 195.81L1204.82 195.73L1207.36 130.83L1209.16 130.85Z" fill="#C8C8C8"/>
<path d="M1249.63 168.42L1205.92 196.32L1202.74 190.47L1248.76 166.84L1249.63 168.42Z" fill="#A8A8A8"/>
<path d="M1208.14 193.35C1209.39 193.35 1210.41 192.334 1210.41 191.08C1210.41 189.826 1209.39 188.81 1208.14 188.81C1206.89 188.81 1205.87 189.826 1205.87 191.08C1205.87 192.334 1206.89 193.35 1208.14 193.35Z" fill="#C8C8C8"/>
<path d="M261.36 828C261.36 828 217.36 821.84 227.67 768.75C227.67 768.72 276.8 779.75 261.36 828Z" fill="#FFC800"/>
<path d="M261.36 828C261.36 828 217.36 821.84 227.67 768.75C227.67 768.72 276.8 779.75 261.36 828Z" fill="#1D6677"/>
<path d="M259.14 816.88C258.28 814.2 257.27 811.56 256.14 808.97C256.14 808.63 256.05 808.29 256.03 807.97C255.96 807.24 255.9 806.51 255.84 805.78C255.72 804.19 255.62 802.61 255.53 801.02C255.34 797.85 255.14 794.68 255.09 791.5C255.082 791.47 255.064 791.444 255.04 791.426C255.015 791.407 254.986 791.397 254.955 791.397C254.924 791.397 254.895 791.407 254.87 791.426C254.846 791.444 254.828 791.47 254.82 791.5C254.82 794.68 254.74 797.85 254.82 801.03C254.88 802.61 254.97 804.2 255.07 805.78C255.07 806.14 255.13 806.49 255.15 806.84C252.685 801.55 249.732 796.502 246.33 791.76C244.82 789.65 243.23 787.62 241.53 785.67C239.83 783.72 237.92 781.75 236.15 779.76C236.03 779.64 235.84 779.83 235.96 779.96C239.117 783.453 241.955 787.221 244.44 791.22C245.77 793.22 247.03 795.32 248.24 797.43L247.83 797.27L246.26 796.64L242.67 795.28C240.31 794.4 237.95 793.54 235.6 792.65C235.45 792.65 235.36 792.84 235.5 792.9C237.84 793.83 240.15 794.81 242.5 795.81L245.91 797.28C246.47 797.52 247.05 797.75 247.62 797.98C247.994 798.161 248.386 798.302 248.79 798.4C249.68 799.99 250.56 801.59 251.36 803.22C253.407 807.327 255.204 811.555 256.74 815.88C256.84 816.19 256.95 816.49 257.05 816.8C255.9 816.122 254.696 815.54 253.45 815.06L248.92 813C245.84 811.59 242.77 810.15 239.82 808.48C239.789 808.471 239.757 808.474 239.728 808.486C239.699 808.498 239.674 808.52 239.659 808.548C239.644 808.576 239.639 808.608 239.645 808.639C239.65 808.671 239.666 808.699 239.69 808.72C242.69 810.37 245.69 812.12 248.69 813.72C250.2 814.54 251.69 815.34 253.27 816.09C254.553 816.85 255.946 817.406 257.4 817.74C258.872 821.762 259.839 825.95 260.28 830.21C260.77 836.21 260.72 842.27 260.86 848.29C260.86 848.39 261.01 848.38 261.02 848.29C261.46 842.83 261.7 837.29 261.73 831.85C261.668 826.754 260.794 821.7 259.14 816.88Z" fill="#1A2E35"/>
<path d="M252.37 785.67C251.949 788.771 251.802 791.903 251.93 795.03C251.93 795.049 251.937 795.066 251.951 795.079C251.964 795.093 251.981 795.1 252 795.1C252.019 795.1 252.036 795.093 252.05 795.079C252.063 795.066 252.07 795.049 252.07 795.03C252.24 791.92 252.27 788.83 252.63 785.73C252.65 785.56 252.39 785.5 252.37 785.67Z" fill="#1A2E35"/>
<path d="M239.8 788.32C237.832 787.573 235.937 786.646 234.14 785.55C234 785.45 233.87 785.69 234.01 785.78C235.771 786.968 237.699 787.888 239.73 788.51C239.83 788.54 239.91 788.37 239.8 788.32Z" fill="#1A2E35"/>
<path d="M262.77 912.24C262.77 907.38 262.64 902.52 262.58 897.66C262.49 881.53 262.36 865.39 262.07 849.25C261.837 836.443 261.537 823.633 261.17 810.82C261.169 810.786 261.158 810.752 261.138 810.724C261.119 810.696 261.092 810.673 261.06 810.66C261.06 807.16 261.043 803.66 261.01 800.16C261.01 800.08 260.9 800.03 260.8 800.03C260.7 800.03 260.59 800.08 260.59 800.17C260.59 803.68 260.59 807.17 260.52 810.68C260.467 810.718 260.431 810.776 260.42 810.84C259.78 833.63 259.2 856.44 259.06 879.24C259.06 883.88 259.06 888.52 259.06 893.15C258.9 908.017 258.843 922.887 258.89 937.76C258.89 940.13 258.84 942.49 258.84 944.86C258.79 958.46 258.98 972.07 258.98 985.67C258.98 986.4 259.8 986.77 260.66 986.8C261.52 986.83 262.66 986.45 262.66 985.61C262.66 970.61 262.76 955.61 262.76 940.61C262.8 931.15 262.84 921.7 262.77 912.24Z" fill="#1A2E35"/>
<path d="M244.4 897.48C244.4 897.48 223.25 881.81 203.18 892.39C183.11 902.97 180 943.8 180 943.8C180 943.8 209.48 948.02 228 930.35C245.89 913.32 244.4 897.48 244.4 897.48Z" fill="#1F758D"/>
<path d="M250.17 898.44C246.28 896.909 242.072 896.363 237.92 896.85C237.064 896.699 236.199 896.612 235.33 896.59L232.33 896.37C230.28 896.21 228.22 896.09 226.17 895.93C221.99 895.62 217.81 895.37 213.65 894.93C213.5 894.93 213.47 895.17 213.65 895.19C217.77 895.72 221.87 896.3 226 896.72C228.13 896.94 230.26 897.16 232.39 897.31C232.89 897.31 233.39 897.4 233.94 897.46C233.3 897.6 232.67 897.75 232.06 897.92C228.737 898.885 225.523 900.192 222.47 901.82C220.81 902.12 219.15 902.58 217.52 902.97C214.9 903.59 212.29 904.26 209.69 904.97C204.56 906.32 199.48 907.83 194.38 909.31C194.353 909.326 194.332 909.351 194.321 909.38C194.31 909.409 194.309 909.441 194.318 909.471C194.327 909.501 194.346 909.527 194.372 909.545C194.398 909.563 194.429 909.572 194.46 909.57C199.55 908.32 204.67 907.18 209.77 905.96C212.25 905.37 214.77 904.79 217.21 904.18C217.85 904.02 218.5 903.88 219.15 903.73C213.483 907.256 208.418 911.669 204.15 916.8C200.021 921.856 196.512 927.389 193.7 933.28C193.63 933.43 193.84 933.58 193.93 933.43C197.405 927.371 201.654 921.791 206.57 916.83L206.3 917.68C205.9 918.92 205.51 920.17 205.12 921.41C204.34 923.9 203.55 926.41 202.8 928.89C202.75 929.06 203 929.12 203.06 928.96C203.95 926.54 204.8 924.12 205.65 921.69L206.91 918.12L207.54 916.26C207.61 916.07 207.68 915.88 207.74 915.69C210.099 913.396 212.608 911.262 215.25 909.3C218.735 906.736 222.499 904.576 226.47 902.86C226.4 903.23 226.33 903.6 226.26 903.95C226.05 904.95 225.84 905.87 225.64 906.84C225.22 908.84 224.83 910.84 224.44 912.84C223.65 916.93 223.15 921.07 222.44 925.17C222.432 925.204 222.438 925.241 222.457 925.271C222.476 925.301 222.506 925.322 222.54 925.33C222.574 925.338 222.611 925.332 222.641 925.313C222.671 925.294 222.692 925.264 222.7 925.23C223.7 921.12 224.87 917.07 225.79 912.94C226.24 910.88 226.71 908.81 227.14 906.74C227.34 905.74 227.53 904.81 227.73 903.84C227.83 903.3 227.96 902.77 228.02 902.22C228.41 902.07 228.78 901.89 229.17 901.75C234.72 899.75 240.85 898.2 246.77 899.34C249.567 899.861 252.193 901.065 254.413 902.844C256.634 904.624 258.381 906.924 259.5 909.54C259.69 910 260.42 909.71 260.31 909.24C259.06 904.17 254.82 900.4 250.17 898.44Z" fill="#1A2E35"/>
<path d="M217.79 915.87C217.19 918.537 216.597 921.203 216.01 923.87C215.338 926.436 214.843 929.046 214.53 931.68C214.53 931.79 214.67 931.79 214.7 931.68C215.471 929.099 216.072 926.47 216.5 923.81C217.02 921.16 217.5 918.52 218.05 915.87C218.08 915.77 217.83 915.71 217.79 915.87Z" fill="#1A2E35"/>
<path d="M197.33 922.69C194.64 924.05 192.03 925.61 189.22 926.69C189.199 926.694 189.18 926.703 189.163 926.715C189.146 926.728 189.132 926.744 189.123 926.763C189.113 926.781 189.108 926.802 189.107 926.823C189.106 926.844 189.11 926.865 189.119 926.884C189.127 926.903 189.14 926.92 189.156 926.934C189.172 926.947 189.191 926.957 189.211 926.963C189.231 926.968 189.252 926.969 189.273 926.965C189.294 926.961 189.313 926.952 189.33 926.94C192.091 925.689 194.785 924.293 197.4 922.76C197.46 922.75 197.4 922.65 197.33 922.69Z" fill="#1A2E35"/>
<path d="M249.16 868.7C249.16 868.7 223.31 870.35 211.29 853.3C199.27 836.25 202 811.91 202 811.91C202 811.91 229.15 815.21 239.94 827.45C250.73 839.69 249.16 868.7 249.16 868.7Z" fill="#1F758D"/>
<path d="M261.29 894.21C260.4 891.44 259.29 888.71 258.24 885.99C257.19 883.27 256.17 880.8 255.03 878.25C252.716 873.034 250.129 867.944 247.28 863C245.46 859.85 243.5 856.81 241.49 853.8C241.49 853.34 241.35 852.88 241.29 852.42C241.17 851.62 241.05 850.82 240.92 850.02C240.67 848.39 240.38 846.76 240.11 845.12C239.51 841.55 238.78 838.01 238.21 834.43C238.21 834.27 237.92 834.27 237.94 834.43C238.46 837.96 238.82 841.51 239.31 845.04C239.55 846.77 239.78 848.51 240.04 850.24L240.34 852.11C236.392 846.347 232.122 840.812 227.55 835.53C226.93 834.81 226.3 834.12 225.66 833.41C225.6 833.22 225.5 833.02 225.42 832.82C225.23 832.33 225.05 831.82 224.86 831.34C224.48 830.34 224.11 829.34 223.74 828.26C223.02 826.26 222.37 824.19 221.82 822.11C221.804 822.083 221.779 822.062 221.75 822.051C221.721 822.04 221.689 822.039 221.659 822.048C221.629 822.057 221.603 822.076 221.585 822.102C221.567 822.128 221.558 822.159 221.56 822.19C222.08 824.31 222.63 826.43 223.25 828.53C223.55 829.53 223.89 830.53 224.25 831.53C224.31 831.7 224.38 831.86 224.44 832.03C221.13 828.43 217.69 824.96 214.2 821.53C214.08 821.4 213.9 821.6 214.02 821.72C220.703 828.71 226.828 836.213 232.34 844.16C231.709 843.963 231.068 843.799 230.42 843.67C228.42 843.29 226.42 843 224.42 842.75C220.2 842.21 216 841.68 211.81 841.02C211.64 841.02 211.57 841.25 211.74 841.28C215.74 842.07 219.74 842.97 223.74 843.88C225.61 844.32 227.5 844.68 229.39 845.06C230.929 845.394 232.445 845.825 233.93 846.35C234.34 846.95 234.78 847.54 235.19 848.14C237.09 850.9 238.91 853.72 240.69 856.56L238.05 856.04C236.05 855.647 234.05 855.287 232.05 854.96C228.11 854.31 224.17 853.63 220.27 852.74C220.236 852.731 220.199 852.736 220.168 852.753C220.137 852.771 220.114 852.801 220.105 852.835C220.096 852.87 220.101 852.906 220.118 852.937C220.136 852.968 220.166 852.991 220.2 853C224.2 853.93 228.07 855 232 856.06C233.89 856.56 235.8 857.06 237.71 857.45L240.58 858.07C240.964 858.167 241.355 858.233 241.75 858.27C245.52 864.39 249.07 870.66 252.35 877.05C253.79 879.86 255.18 882.71 256.52 885.56C257.86 888.41 259.09 891.5 260.36 894.48C260.56 895.1 261.5 894.86 261.29 894.21Z" fill="#1A2E35"/>
<path d="M234.83 834.79C234.337 832.33 233.817 829.87 233.27 827.41C233.27 827.25 232.98 827.32 233.02 827.49C233.507 829.91 233.97 832.337 234.41 834.77C234.779 837.21 235.269 839.629 235.88 842.02H235.96C235.759 839.586 235.381 837.169 234.83 834.79Z" fill="#1A2E35"/>
<path d="M219.75 834.08C218.56 833.48 217.29 833 216.04 832.51L214.04 831.74L213.04 831.34C212.659 831.227 212.294 831.069 211.95 830.87C211.75 830.72 211.63 831.06 211.82 831.09C212.207 831.197 212.58 831.352 212.93 831.55L213.93 831.98L215.81 832.82C217.053 833.4 218.329 833.907 219.63 834.34C219.8 834.38 219.9 834.15 219.75 834.08Z" fill="#1A2E35"/>
<path d="M275.62 848.37C275.62 848.37 291.27 819.15 315.07 814.62C338.87 810.09 353.43 834.62 353.43 834.62C353.43 834.62 336.08 856.79 314.23 860.62C292.38 864.45 275.62 848.37 275.62 848.37Z" fill="#1F758D"/>
<path d="M331 827.72C324.799 826.888 318.51 826.962 312.33 827.94L313.39 827.37C315.157 826.483 316.917 825.577 318.67 824.65C322.33 822.75 326.02 820.73 329.85 819.2C329.871 819.196 329.89 819.187 329.907 819.175C329.924 819.162 329.938 819.146 329.947 819.127C329.957 819.109 329.962 819.088 329.963 819.067C329.964 819.046 329.96 819.025 329.951 819.006C329.943 818.987 329.93 818.97 329.914 818.956C329.898 818.943 329.879 818.933 329.859 818.927C329.839 818.922 329.818 818.921 329.797 818.925C329.776 818.929 329.757 818.938 329.74 818.95C326.02 820.69 322.16 822.14 318.42 823.86C316.55 824.72 314.72 825.61 312.9 826.58C311.73 827.2 310.42 827.79 309.27 828.53C304.043 829.577 298.962 831.256 294.14 833.53L297.14 830.29C299.36 827.86 301.54 825.29 303.98 823.09C304.1 822.98 303.91 822.79 303.78 822.91C301.29 825.17 298.66 827.27 296.25 829.62C295.07 830.76 293.95 831.94 292.86 833.16C292.32 833.76 291.77 834.39 291.25 835.04C283.078 839.418 275.978 845.554 270.46 853.004C264.942 860.455 261.145 869.036 259.34 878.13C259.34 878.29 259.55 878.39 259.6 878.22C262.945 867.079 268.947 856.917 277.09 848.61C285.854 839.683 296.887 833.315 309 830.19C316.18 828.358 323.607 827.683 331 828.19C331.054 828.179 331.103 828.149 331.137 828.107C331.172 828.064 331.191 828.01 331.191 827.955C331.191 827.9 331.172 827.846 331.137 827.804C331.103 827.761 331.054 827.731 331 827.72Z" fill="#1A2E35"/>
<path d="M353.44 834.59C353.44 834.59 336.07 856.76 314.23 860.59C297.57 863.59 283.86 854.85 278.3 850.59L277.1 848.59C277.1 848.59 288.36 839.09 309.68 833.59C331 828.09 353.44 834.59 353.44 834.59Z" fill="#1D6677"/>
<path d="M317.19 817.3C315.369 818.369 313.607 819.534 311.91 820.79C310.252 822.044 308.715 823.45 307.32 824.99C307.19 825.13 307.39 825.3 307.52 825.19C309.1 823.81 310.69 822.44 312.33 821.14C313.92 819.834 315.59 818.628 317.33 817.53C317.351 817.508 317.363 817.479 317.366 817.449C317.37 817.419 317.363 817.388 317.347 817.362C317.331 817.336 317.307 817.316 317.279 817.305C317.251 817.294 317.219 817.292 317.19 817.3Z" fill="#1A2E35"/>
<path d="M330.26 822.25C329.37 822.62 328.47 822.93 327.59 823.25L324.94 824.35C324.75 824.43 324.84 824.74 325.04 824.66L327.69 823.58C328.58 823.22 329.45 822.81 330.33 822.46C330.49 822.44 330.41 822.18 330.26 822.25Z" fill="#1A2E35"/>
<path d="M272.5 885.15C272.5 885.15 276.68 914.15 298.5 924.28C320.32 934.41 346.87 924.28 346.87 924.28C346.87 924.28 336.4 861.56 272.5 885.15Z" fill="#1F758D"/>
<path d="M331.83 905.42C329.83 905.19 327.83 904.85 325.83 904.49C324.83 904.31 323.88 904.13 322.9 903.93C322.41 903.84 321.9 903.72 321.37 903.63C320.79 903.08 320.21 902.52 319.61 901.99C315.473 898.362 311.007 895.128 306.27 892.33C303.69 890.798 301.018 889.425 298.27 888.22H298.69L305.86 888.53C310.65 888.75 315.43 888.86 320.21 889.17C320.38 889.17 320.37 888.91 320.21 888.9C315.41 888.58 310.64 888.05 305.85 887.64L298.85 887.02L295.25 886.7L294.33 886.61C293.09 886.14 291.84 885.7 290.57 885.31C284.57 883.46 278.22 882.73 272.11 884.31C266.62 885.72 261.11 889.31 259.73 895.09C259.68 895.29 259.99 895.43 260.08 895.23C262.08 890.4 267.49 887.96 272.33 886.96C275.585 886.332 278.923 886.268 282.2 886.77C282.421 888.263 282.79 889.73 283.3 891.15C283.9 893.19 284.503 895.23 285.11 897.27C286.35 901.34 287.71 905.37 288.92 909.45C288.925 909.466 288.934 909.482 288.945 909.495C288.956 909.508 288.97 909.519 288.985 909.527C289 909.535 289.017 909.539 289.034 909.541C289.051 909.542 289.069 909.54 289.085 909.535C289.101 909.53 289.117 909.521 289.13 909.51C289.143 909.499 289.154 909.485 289.162 909.47C289.17 909.455 289.174 909.438 289.176 909.421C289.177 909.404 289.175 909.386 289.17 909.37C288.17 905.31 287.31 901.2 286.33 897.12C285.85 895.12 285.33 893.12 284.85 891.12C284.567 889.722 284.2 888.343 283.75 886.99C285.656 887.334 287.542 887.781 289.4 888.33C292.767 889.327 296.067 890.536 299.28 891.95C299.6 894.01 300.06 896.06 300.54 898.1C301.14 900.66 301.8 903.19 302.61 905.7C302.625 905.725 302.649 905.744 302.676 905.754C302.704 905.764 302.734 905.764 302.762 905.755C302.789 905.746 302.813 905.727 302.829 905.703C302.845 905.678 302.853 905.649 302.85 905.62L302.76 905.15C302.27 902.78 301.76 900.42 301.25 898.05C300.85 896.14 300.48 894.22 300.06 892.32C302.776 893.519 305.429 894.854 308.01 896.32C308.06 896.91 308.2 897.52 308.29 898.05C308.45 899.05 308.63 900.05 308.81 901.05C309.22 903.28 309.67 905.51 310.2 907.72C311.198 912 312.468 916.211 314 920.33C313.981 920.354 313.971 920.384 313.971 920.415C313.971 920.446 313.981 920.476 314 920.5C314.038 920.551 314.082 920.598 314.13 920.64C314.22 920.75 314.37 920.64 314.35 920.51C313.35 916.21 312.19 911.95 311.24 907.64C310.77 905.49 310.3 903.33 309.86 901.17C309.65 900.09 309.45 899.01 309.25 897.93C309.19 897.63 309.14 897.29 309.09 896.93C312.025 898.654 314.86 900.543 317.58 902.59C322.283 906.119 326.636 910.09 330.58 914.45C330.73 914.63 331.04 914.38 330.9 914.19C329.23 912.01 327.58 909.87 325.7 907.85C324.6 906.683 323.467 905.543 322.3 904.43L322.67 904.5C323.67 904.67 324.67 904.82 325.74 904.96C327.74 905.23 329.74 905.42 331.8 905.65C331.94 905.7 332 905.44 331.83 905.42Z" fill="#1A2E35"/>
<path d="M316.51 915.25C316.51 915.003 316.47 914.753 316.39 914.5C316.33 914.18 316.17 913.87 316.12 913.5C315.67 911.56 315.29 909.61 314.94 907.65C314.94 907.52 314.7 907.56 314.7 907.65C314.84 910.247 315.4 912.803 316.36 915.22C316.36 915.29 316.53 915.29 316.52 915.22L316.51 915.25Z" fill="#1A2E35"/>
<path d="M298.27 914.79C298.266 914.757 298.251 914.726 298.227 914.703C298.204 914.679 298.173 914.664 298.14 914.66C297.53 912.1 296.94 909.53 296.41 906.94C296.13 905.58 295.85 904.23 295.59 902.87C295.45 902.13 295.31 901.4 295.18 900.66C295.121 900.013 294.962 899.379 294.71 898.78C294.7 898.756 294.683 898.736 294.662 898.722C294.641 898.708 294.616 898.7 294.59 898.7C294.564 898.7 294.539 898.708 294.518 898.722C294.497 898.736 294.48 898.756 294.47 898.78C294.447 900.097 294.629 901.409 295.01 902.67C295.28 904.08 295.55 905.5 295.87 906.9C296.5 909.76 297.21 912.61 298.02 915.42C298.028 915.452 298.047 915.48 298.074 915.5C298.1 915.521 298.132 915.532 298.165 915.532C298.198 915.532 298.23 915.521 298.257 915.5C298.283 915.48 298.302 915.452 298.31 915.42C298.3 915.21 298.28 915 298.27 914.79Z" fill="#1A2E35"/>
<path d="M329.84 897.07C325.84 896.53 321.84 895.95 317.89 895.47C317.73 895.47 317.66 895.7 317.83 895.73C321.83 896.32 325.83 896.81 329.78 897.33C330 897.36 330 897.1 329.84 897.07Z" fill="#1A2E35"/>
<path d="M261.33 817.16C261.33 817.16 248 758.64 310.87 735C310.87 735 328.29 812 261.33 817.16Z" fill="#1F758D"/>
<path d="M274.9 784L275.58 783.59C276.77 782.94 277.95 782.27 279.13 781.59L286.42 777.51C291.22 774.82 295.96 772.03 300.79 769.41C300.821 769.391 300.842 769.362 300.851 769.327C300.859 769.292 300.854 769.255 300.835 769.225C300.816 769.194 300.787 769.173 300.752 769.164C300.717 769.156 300.68 769.161 300.65 769.18C295.81 771.81 290.89 774.27 286.02 776.85L278.81 780.66L275.87 782.21C277.96 778.21 280.2 774.33 282.66 770.58C285.95 765.58 289.55 760.79 293.3 756.12C293.327 756.077 293.339 756.026 293.333 755.976C293.328 755.925 293.304 755.878 293.268 755.843C293.231 755.808 293.184 755.786 293.133 755.782C293.082 755.778 293.032 755.791 292.99 755.82C287.472 761.183 282.593 767.166 278.45 773.65C278.45 773.44 278.45 773.23 278.45 773.04C278.52 771.58 278.56 770.13 278.58 768.67C278.58 765.81 278.49 762.95 278.58 760.1C278.58 759.93 278.32 759.93 278.31 760.1C278.2 762.91 277.86 765.71 277.7 768.52C277.62 769.92 277.56 771.32 277.52 772.73C277.52 773.49 277.42 774.35 277.45 775.18C276.15 777.24 274.913 779.33 273.74 781.45C271.627 785.261 269.75 789.198 268.12 793.24C268.05 791.78 267.96 790.32 267.88 788.87C267.69 785.66 267.3 782.47 267.17 779.27C267.17 779.09 266.89 779.1 266.9 779.27C266.96 782.48 266.81 785.68 266.9 788.89C266.95 790.49 267 792.09 267.11 793.69C267.11 794.28 267.18 794.88 267.22 795.48C265.211 800.705 263.623 806.082 262.47 811.56C261.386 817.406 260.605 823.304 260.13 829.23H260.19C260.863 823.893 261.98 818.621 263.53 813.47C264.31 810.71 265.13 807.96 266.01 805.24C268.63 804.01 271.14 802.47 273.66 801.07C276.18 799.67 278.92 798.19 281.55 796.75C286.8 793.87 292.03 790.95 297.45 788.4C297.6 788.33 297.45 788.1 297.31 788.17C291.82 790.66 286.31 793.02 280.92 795.72C278.24 797.07 275.6 798.51 272.99 799.98C270.81 801.21 268.56 802.44 266.48 803.85C267.09 802.03 267.72 800.22 268.42 798.43C270.336 793.514 272.499 788.698 274.9 784Z" fill="#1A2E35"/>
<path d="M269.6 770.59C269.6 770.42 269.32 770.43 269.33 770.59C269.56 773.93 269.67 777.27 270.03 780.59C270.03 780.77 270.33 780.77 270.32 780.59C270.21 777.25 269.85 773.93 269.6 770.59Z" fill="#1A2E35"/>
<path d="M299.75 781.77C295.81 783.35 291.84 784.86 287.93 786.5C287.82 786.5 287.87 786.72 287.98 786.68C291.98 785.19 295.87 783.57 299.83 782.03C300 782 299.91 781.71 299.75 781.77Z" fill="#1A2E35"/>
<path d="M305.72 754.78C301.874 756.55 298.14 758.553 294.54 760.78C294.512 760.807 294.495 760.844 294.49 760.882C294.486 760.921 294.495 760.96 294.516 760.993C294.537 761.026 294.569 761.051 294.606 761.063C294.643 761.075 294.684 761.074 294.72 761.06C298.37 758.93 302.08 756.89 305.86 755.06C306 754.93 305.88 754.71 305.72 754.78Z" fill="#1A2E35"/>
<path d="M304.78 943.71H214.1V1039.29H304.78V943.71Z" fill="#F9B200"/>
<path d="M212.5 977.53H207.86V1086H212.5V977.53Z" fill="#1A2E35"/>
<path d="M310.53 977.53H305.89V1086H310.53V977.53Z" fill="#1A2E35"/>
<path d="M263.98 977.53H259.34V1086H263.98V977.53Z" fill="#1A2E35"/>
<path d="M308.21 1033.16H210.18V1046.39H308.21V1033.16Z" fill="#1A2E35"/>
<path d="M700.6 127.76L666.13 128.5L648.63 128.78C642.77 128.78 636.89 128.78 631.03 128.94H629.85V97.05H631.16L665.95 97.23C677.56 97.23 689.14 97.52 700.73 97.65H701.47V98.36C701.47 103.36 701.23 108.36 701.1 113.23L700.6 127.76ZM700.6 127.76L700.23 112.92C700.23 108.03 699.94 103.17 699.89 98.36L700.6 99.1C689.01 99.23 677.43 99.49 665.81 99.52L631 99.67L632.31 98.36V127.76L631.13 126.6C636.86 126.6 642.59 126.6 648.34 126.74L665.63 127.02L700.6 127.76Z" fill="#EBEBEB"/>
<path d="M835.29 1007.16L800.79 1007.87L783.3 1008.18C777.46 1008.18 771.58 1008.18 765.72 1008.31H764.54V1007.16L764.41 977.76V976.5H765.72L800.51 976.65C812.09 976.65 823.7 976.94 835.29 977.07H836V977.78C836 982.78 835.79 987.71 835.66 992.63L835.29 1007.16ZM835.29 1007.16L834.92 992.29C834.92 987.4 834.61 982.57 834.58 977.76L835.29 978.47C823.7 978.6 812.09 978.89 800.51 978.89L765.72 979.05L767.03 977.76L766.88 1007.16L765.72 1005.97H782.9L800.19 1006.29L835.29 1007.16Z" fill="#EBEBEB"/>
<path d="M232.26 646.09L197.79 646.83L180.29 647.12C174.43 647.12 168.55 647.12 162.69 647.27H161.54V646.09L161.38 616.67V615.35H162.69L197.48 615.51C209.09 615.51 220.67 615.83 232.26 615.96H233V616.67C233 621.67 232.76 626.67 232.65 631.51L232.26 646.09ZM232.26 646.09L231.89 631.25C231.89 626.33 231.6 621.5 231.55 616.69L232.26 617.4C220.67 617.4 209.09 617.82 197.48 617.85L162.69 618.01L164 616.69V646.09L162.82 644.91C168.55 644.91 174.28 644.91 180.03 645.07L197.32 645.36L232.26 646.09Z" fill="#EBEBEB"/>
<path d="M1110.55 446.74C1102.38 478.06 1121.3 487.37 1128.44 489.44C1134.92 491.32 1157.21 496.94 1168.76 466.79C1180.31 436.64 1167.49 422.25 1152.85 417.21C1138.21 412.17 1118.72 415.42 1110.55 446.74Z" fill="#FFBC8E"/>
<path d="M1118 445.31C1118.78 445.35 1119.57 445.35 1120.35 445.31C1121.17 445.425 1122.01 445.267 1122.73 444.86C1122.92 444.688 1123.05 444.453 1123.09 444.198C1123.13 443.942 1123.07 443.681 1122.94 443.46C1122.61 443.035 1122.18 442.699 1121.68 442.482C1121.19 442.266 1120.65 442.176 1120.11 442.22C1119.03 442.144 1117.96 442.475 1117.11 443.15C1116.29 443.82 1117 445.22 1118 445.31Z" fill="#1A2E35"/>
<path d="M1141 450.67C1140.25 450.406 1139.51 450.103 1138.79 449.76C1137.97 449.545 1137.23 449.08 1136.69 448.43C1136.56 448.209 1136.51 447.949 1136.55 447.696C1136.59 447.442 1136.72 447.211 1136.91 447.04C1137.36 446.772 1137.87 446.623 1138.4 446.608C1138.92 446.592 1139.44 446.71 1139.91 446.95C1140.96 447.301 1141.86 448.009 1142.44 448.95C1143.1 449.93 1142 451 1141 450.67Z" fill="#1A2E35"/>
<path d="M1134.43 457.51C1134.43 457.43 1134.59 457.65 1134.57 457.74C1134.1 459.91 1133.95 462.48 1135.89 463.66C1135.95 463.66 1135.89 463.8 1135.89 463.77C1133.38 462.88 1133.62 459.47 1134.43 457.51Z" fill="#1A2E35"/>
<path d="M1136.89 455.69C1140.62 456.23 1139.64 463.32 1136.18 462.82C1132.72 462.32 1133.75 455.23 1136.89 455.69Z" fill="#1A2E35"/>
<path d="M1138.3 456.33C1138.89 456.85 1139.43 457.67 1140.21 457.88C1140.66 457.926 1141.11 457.859 1141.52 457.684C1141.94 457.509 1142.3 457.233 1142.58 456.88C1142.65 456.82 1142.71 456.88 1142.7 456.98C1142.53 458.35 1141.79 459.64 1140.23 459.57C1138.67 459.5 1137.97 458.11 1137.81 456.68C1137.77 456.45 1138.06 456.12 1138.3 456.33Z" fill="#1A2E35"/>
<path d="M1121.39 453.75C1121.39 453.66 1121.2 453.82 1121.19 453.91C1120.98 456.13 1120.34 458.6 1118.19 458.97C1118.18 458.975 1118.17 458.984 1118.16 458.996C1118.15 459.007 1118.15 459.021 1118.15 459.035C1118.15 459.049 1118.15 459.063 1118.16 459.074C1118.17 459.086 1118.18 459.095 1118.19 459.1C1120.76 459.2 1121.56 455.9 1121.39 453.75Z" fill="#1A2E35"/>
<path d="M1119.63 451.1C1115.95 450.18 1114.73 457.23 1118.14 458.1C1121.55 458.97 1122.72 451.86 1119.63 451.1Z" fill="#1A2E35"/>
<path d="M1118 451.23C1117.35 451.48 1116.65 452.04 1115.94 451.93C1115.23 451.82 1114.65 450.93 1114.26 450.08C1114.26 449.99 1114.15 450.08 1114.13 450.13C1113.86 451.47 1114.13 452.97 1115.4 453.52C1116.67 454.07 1117.72 453.06 1118.29 451.79C1118.4 451.55 1118.27 451.13 1118 451.23Z" fill="#1A2E35"/>
<path d="M1130.8 474.88C1130.2 475.32 1129.58 475.96 1128.73 475.88C1127.86 475.747 1127.03 475.441 1126.29 474.98C1126.22 474.98 1126.14 474.98 1126.18 475.08C1126.48 475.564 1126.9 475.966 1127.39 476.247C1127.89 476.528 1128.45 476.681 1129.02 476.69C1129.49 476.647 1129.93 476.459 1130.29 476.153C1130.65 475.846 1130.9 475.437 1131.02 474.98C1131.06 474.89 1130.89 474.82 1130.8 474.88Z" fill="#1A2E35"/>
<path d="M1122.43 469.59C1123.15 471.053 1124.23 472.316 1125.55 473.27C1126.29 473.773 1127.16 474.048 1128.06 474.06C1129.99 474.06 1130.39 472.48 1130.35 471.06C1130.33 470.281 1130.2 469.509 1129.99 468.76C1127.62 469.824 1124.97 470.114 1122.43 469.59Z" fill="#1A2E35"/>
<path d="M1125.55 473.27C1126.29 473.773 1127.16 474.048 1128.06 474.06C1129.99 474.06 1130.39 472.48 1130.35 471.06C1128.34 470.72 1126.12 471.49 1125.55 473.27Z" fill="#FF9CBF"/>
<path d="M1122.37 465.1C1121.89 466.655 1121.49 468.234 1121.17 469.83C1121.17 469.97 1121.53 470.12 1122.07 470.25C1122.07 470.25 1122.07 470.25 1122.14 470.25C1123.45 470.769 1124.88 470.922 1126.27 470.693C1127.66 470.464 1128.96 469.861 1130.04 468.95C1130.18 468.82 1130.04 468.62 1129.84 468.69C1127.51 469.641 1124.94 469.837 1122.5 469.25C1122.5 468.8 1124.36 463.87 1124.1 463.8C1122.83 463.664 1121.55 463.691 1120.29 463.88C1122.11 457.19 1125.05 450.88 1126.76 444.19C1126.82 443.95 1126.46 443.81 1126.35 444.01C1122.77 450.38 1120.5 458.01 1118.43 464.88C1118.16 465.76 1121.68 465.24 1122.37 465.1Z" fill="#1A2E35"/>
<path d="M1167.11 469.68C1165.08 468.422 1163.41 466.664 1162.26 464.575C1161.11 462.486 1160.51 460.136 1160.53 457.75C1154.95 454.446 1150.3 449.785 1147 444.2C1147.15 444.89 1148.26 449.9 1148.91 452.45C1128.02 445.38 1123.11 428.83 1123.11 428.83C1115.5 434.34 1113.66 438.34 1112.44 440.28C1112.44 440.28 1113.63 427.8 1121.25 420.49C1123.88 417.912 1127.14 416.068 1130.71 415.14C1134.28 414.212 1138.02 414.232 1141.58 415.2C1147.05 414.815 1152.52 415.817 1157.5 418.115C1162.47 420.412 1166.79 423.929 1170.04 428.34C1182.36 444.83 1167.11 469.68 1167.11 469.68Z" fill="#1A2E35"/>
<path d="M1133.12 446.6C1136.35 448.91 1139.89 450.761 1143.63 452.1C1137.84 449.62 1132.8 445.674 1129 440.65C1127.42 438.539 1126.1 436.246 1125.07 433.82C1123.86 431.256 1123.18 428.474 1123.07 425.64C1123.07 425.44 1122.74 425.41 1122.73 425.64C1122.53 428.421 1122.81 431.214 1123.56 433.9C1124.44 436.599 1125.79 439.119 1127.56 441.34C1129.17 443.338 1131.04 445.114 1133.12 446.62" fill="#1A2E35"/>
<path d="M1162.94 465.58C1162.94 465.58 1171.94 457.08 1176.3 460.58C1180.66 464.08 1172.75 477.42 1166.82 478.25C1165.28 478.569 1163.68 478.283 1162.34 477.45C1161.01 476.618 1160.05 475.303 1159.66 473.78L1162.94 465.58Z" fill="#FFBC8E"/>
<path d="M1173.93 464.32C1173.95 464.326 1173.96 464.336 1173.97 464.349C1173.98 464.363 1173.98 464.379 1173.98 464.395C1173.98 464.411 1173.98 464.427 1173.97 464.441C1173.96 464.454 1173.95 464.464 1173.93 464.47C1169.75 465.18 1167.11 468.22 1165.07 471.47C1166.46 470.32 1168.18 469.89 1169.91 471.61C1170 471.7 1169.91 471.83 1169.77 471.79C1169.14 471.447 1168.43 471.299 1167.71 471.365C1167 471.431 1166.32 471.708 1165.77 472.16C1164.9 472.931 1164.11 473.8 1163.44 474.75C1163.2 475.05 1162.59 474.75 1162.79 474.38C1162.79 474.353 1162.79 474.327 1162.79 474.3C1163.48 469.57 1168.47 463.7 1173.93 464.32Z" fill="#1A2E35"/>
</svg>
