<svg width="1600" height="1200" viewBox="0 0 1600 1200" fill="none" xmlns="http://www.w3.org/2000/svg">
<path d="M1343 1067.04H271V1070.93H1343V1067.04Z" fill="#C8D3FB"/>
<path d="M1477.26 1042.31H68.73V1043.01H1477.26V1042.31Z" fill="#EBEBEB"/>
<path d="M1336.13 1087.63H1242.83V1088.33H1336.13V1087.63Z" fill="#EBEBEB"/>
<path d="M1001.8 1095.3H977.32V1096H1001.8V1095.3Z" fill="#EBEBEB"/>
<path d="M1240.01 1061.49H1185.95V1062.19H1240.01V1061.49Z" fill="#EBEBEB"/>
<path d="M338.19 1066.22H216.52V1066.92H338.19V1066.22Z" fill="#EBEBEB"/>
<path d="M381.12 1066.22H363.29V1066.92H381.12V1066.22Z" fill="#EBEBEB"/>
<path d="M702.99 1078.11H439.09V1078.81H702.99V1078.11Z" fill="#EBEBEB"/>
<path d="M736.38 916.67H192.43C188.169 916.659 184.085 914.96 181.075 911.944C178.065 908.928 176.373 904.841 176.37 900.58V135.94C176.41 131.704 178.118 127.654 181.125 124.67C184.132 121.686 188.194 120.008 192.43 120H736.43C738.543 120 740.634 120.416 742.586 121.225C744.538 122.034 746.311 123.219 747.804 124.713C749.297 126.207 750.482 127.981 751.289 129.933C752.096 131.885 752.511 133.977 752.51 136.09V900.58C752.51 902.696 752.093 904.792 751.282 906.747C750.47 908.701 749.282 910.477 747.783 911.971C746.285 913.466 744.507 914.651 742.55 915.457C740.593 916.263 738.496 916.675 736.38 916.67ZM192.43 120.56C188.357 120.571 184.454 122.195 181.577 125.078C178.7 127.961 177.083 131.867 177.08 135.94V900.58C177.075 902.601 177.468 904.602 178.236 906.471C179.005 908.34 180.135 910.039 181.56 911.471C182.986 912.903 184.679 914.04 186.544 914.817C188.41 915.594 190.41 915.996 192.43 916H736.43C740.508 915.995 744.416 914.373 747.3 911.489C750.183 908.606 751.805 904.697 751.81 900.62V135.94C751.8 131.864 750.176 127.958 747.294 125.076C744.412 122.194 740.506 120.571 736.43 120.56H192.43Z" fill="#EBEBEB"/>
<path d="M1345.74 916.67H801.74C797.476 916.662 793.389 914.964 790.375 911.948C787.361 908.932 785.665 904.844 785.66 900.58V135.94C785.702 131.698 787.417 127.644 790.432 124.659C793.446 121.674 797.518 120 801.76 120H1345.76C1349.99 120.023 1354.03 121.708 1357.03 124.691C1360.02 127.674 1361.72 131.714 1361.76 135.94V900.58C1361.76 904.834 1360.07 908.915 1357.07 911.93C1354.07 914.945 1349.99 916.649 1345.74 916.67ZM801.74 120.56C797.664 120.571 793.758 122.194 790.876 125.076C787.994 127.958 786.37 131.864 786.36 135.94V900.58C786.357 902.604 786.754 904.609 787.526 906.479C788.299 908.35 789.433 910.05 790.863 911.482C792.294 912.914 793.992 914.051 795.862 914.826C797.732 915.601 799.736 916 801.76 916H1345.76C1349.84 915.995 1353.75 914.373 1356.63 911.489C1359.51 908.606 1361.13 904.697 1361.14 900.62V135.94C1361.13 131.864 1359.51 127.958 1356.62 125.076C1353.74 122.194 1349.84 120.571 1345.76 120.56H801.74Z" fill="#EBEBEB"/>
<path d="M488.98 341.62H256.83V636.57H488.98V341.62Z" fill="#E6E6E6"/>
<path d="M483.69 346.89H262.1V631.27H483.69V346.89Z" fill="#F0F0F0"/>
<path d="M319.17 480.22C327.62 489.71 329.9 470.87 329.9 470.87L354.47 429.14L359.82 472L341.37 604.68C341.37 604.68 324.47 609.68 323.37 612.56C322.27 615.44 352.37 616.14 355.57 612.56C358.77 608.98 352.33 604.68 352.33 604.68L375.57 495L375.93 496.75L398.81 604.7C398.81 604.7 392.39 608.98 395.6 612.58C398.81 616.18 428.87 615.4 427.8 612.58C426.73 609.76 409.8 604.7 409.8 604.7L391.34 472L396.67 429.18L421.23 470.91C421.23 470.91 423.37 489.75 431.97 480.26C440.57 470.77 425.52 462.2 425.52 462.2L398.81 415.83L384.08 410.73L380.84 406.62C380.84 406.62 399.74 372.82 375.93 372.05H375.23C351.43 372.7 370.3 406.62 370.3 406.62L367.06 410.73L352.33 415.83L325.62 462.1C325.62 462.1 310.61 470.75 319.17 480.22Z" fill="#FAFAFA"/>
<path d="M375.93 372.07V496.73L398.81 604.68C398.81 604.68 392.39 608.96 395.6 612.56C398.81 616.16 428.87 615.38 427.8 612.56C426.73 609.74 409.8 604.68 409.8 604.68L391.34 472L396.67 429.18L421.23 470.91C421.23 470.91 423.37 489.75 431.97 480.26C440.57 470.77 425.52 462.2 425.52 462.2L398.81 415.83L384.08 410.73L380.84 406.62C380.84 406.62 399.74 372.72 375.93 372.07Z" fill="#E6E6E6"/>
<path d="M326.95 380.01H296.27V391.95H326.95V380.01Z" fill="#E6E6E6"/>
<path d="M316.53 433.76H285.85V445.7H316.53V433.76Z" fill="#E6E6E6"/>
<path d="M462.22 490.22H431.54V502.16H462.22V490.22Z" fill="#E6E6E6"/>
<path d="M449.97 379.56H419.29V391.5H449.97V379.56Z" fill="#E6E6E6"/>
<path d="M326.95 510.05H296.27V521.99H326.95V510.05Z" fill="#E6E6E6"/>
<path d="M453.8 555.77H423.12V567.71H453.8V555.77Z" fill="#E6E6E6"/>
<path d="M311.62 567.72H280.94V579.66H311.62V567.72Z" fill="#E6E6E6"/>
<path d="M736.52 340.21H512.31V637.97H736.52V340.21Z" fill="#E6E6E6"/>
<path d="M731.23 345.51H517.58V632.68H731.23V345.51Z" fill="#F5F5F5"/>
<path d="M731.23 345.51H517.58V416.89H731.23V345.51Z" fill="#FAFAFA"/>
<path d="M731.23 482.92H517.58V561.4H731.23V482.92Z" fill="#FAFAFA"/>
<path d="M559.26 399.65C571.195 399.65 580.87 389.975 580.87 378.04C580.87 366.105 571.195 356.43 559.26 356.43C547.325 356.43 537.65 366.105 537.65 378.04C537.65 389.975 547.325 399.65 559.26 399.65Z" fill="#F5F5F5"/>
<path d="M698.34 470.97C710.275 470.97 719.95 461.295 719.95 449.36C719.95 437.425 710.275 427.75 698.34 427.75C686.405 427.75 676.73 437.425 676.73 449.36C676.73 461.295 686.405 470.97 698.34 470.97Z" fill="#FAFAFA"/>
<path d="M556.67 547.26C568.605 547.26 578.28 537.585 578.28 525.65C578.28 513.715 568.605 504.04 556.67 504.04C544.735 504.04 535.06 513.715 535.06 525.65C535.06 537.585 544.735 547.26 556.67 547.26Z" fill="#F5F5F5"/>
<path d="M695.77 618.7C707.705 618.7 717.38 609.025 717.38 597.09C717.38 585.155 707.705 575.48 695.77 575.48C683.835 575.48 674.16 585.155 674.16 597.09C674.16 609.025 683.835 618.7 695.77 618.7Z" fill="#FAFAFA"/>
<path d="M318.33 963.63C318.33 962.75 321.14 877.99 335.03 864.63C348.92 851.27 363.85 864.12 364.5 864.63L365.88 862.99C365.71 862.83 348.33 848.66 333.51 862.99C319.11 877.08 316.3 959.99 316.18 963.51L318.33 963.63Z" fill="#E0E0E0"/>
<path d="M317.14 980.28C317.14 979.28 326.58 878.49 289.79 836.28L288.16 837.69C324.35 879.21 315.11 979.07 315 980.09L317.14 980.28Z" fill="#E0E0E0"/>
<path d="M318.52 969.63L320.66 969.49C320.66 968.33 313.45 854.92 340.38 830.07L338.92 828.49C311.26 854 318.21 964.92 318.52 969.63Z" fill="#E0E0E0"/>
<path d="M315 969.57H317.17C317.17 966.44 316.27 892.95 295.39 881C293.408 879.709 291.145 878.916 288.792 878.686C286.438 878.456 284.064 878.797 281.87 879.68C269.25 884.89 263 907.37 262.75 908.33L264.83 908.89C264.83 908.67 271.06 886.49 282.72 881.68C284.607 880.936 286.645 880.655 288.663 880.86C290.682 881.065 292.621 881.751 294.32 882.86C314.13 894.19 315 968.81 315 969.57Z" fill="#E0E0E0"/>
<path d="M323.14 969.6H325.28C325.28 969.03 322.13 911.54 337.65 891.26C341.4 886.35 345.48 884.02 349.79 884.33C359.96 885.03 368.5 899.9 368.58 900.07L370.47 899C370.1 898.35 361.29 883 349.96 882.1C344.89 881.73 340.16 884.35 335.88 889.88C319.93 910.75 323 967.23 323.14 969.6Z" fill="#E0E0E0"/>
<path d="M319.73 977.43C320.16 971.8 329.88 840.58 312.73 817.43L311 818.63C327.62 841.17 317.65 975.82 317.54 977.18L319.73 977.43Z" fill="#E0E0E0"/>
<path d="M277.2 893C277.2 893 287.48 896.77 284.41 905.73C281.34 914.69 249 929.29 249 929.29C249 929.29 235.42 916.83 247.9 896.58C260.38 876.33 276.94 886.55 277.2 893Z" fill="#EBEBEB"/>
<path d="M321.85 876C321.85 876 310.92 875.52 310.3 885C309.68 894.48 334 920.38 334 920.38C334 920.38 351.35 914.1 347.61 890.61C343.87 867.12 324.55 870.16 321.85 876Z" fill="#EBEBEB"/>
<path d="M331.09 830.89C331.09 830.89 323.82 830.1 324.38 825.65C324.94 821.2 352.72 809.79 369.06 828.27C369.06 828.27 358.61 846.27 343.45 846.49C328.29 846.71 331.09 830.89 331.09 830.89Z" fill="#EBEBEB"/>
<path d="M317.51 820.1C317.51 820.1 324.1 823.28 325.96 819.22C327.82 815.16 310.33 790.77 286.52 797.79C286.52 797.79 285.9 818.6 298.63 826.79C311.36 834.98 317.51 820.1 317.51 820.1Z" fill="#EBEBEB"/>
<path d="M352 889.37C352 889.37 347 885.31 352.39 883.31C357.78 881.31 384.39 881.9 384.7 908.31C384.7 908.31 353.7 913.47 349.86 903.41C346.02 893.35 352 889.37 352 889.37Z" fill="#EBEBEB"/>
<path d="M288.77 830.21C288.77 830.21 293.82 826.15 288.46 824.27C283.1 822.39 256.46 822.83 256.13 849.2C256.13 849.2 287.13 854.35 290.97 844.32C294.81 834.29 288.77 830.21 288.77 830.21Z" fill="#EBEBEB"/>
<path d="M305.17 851.45C305.17 851.45 305.62 846.52 301.62 848.45C297.62 850.38 283.76 865.36 298.16 879.45C298.16 879.45 317.51 865.11 314.02 857.65C310.53 850.19 305.17 851.45 305.17 851.45Z" fill="#EBEBEB"/>
<path d="M356.5 858.49C356.5 858.49 353.5 854.55 357.91 854.07C362.32 853.59 382.02 858.83 377.43 878.52C377.43 878.52 353.43 876.72 352.38 868.52C351.33 860.32 356.5 858.49 356.5 858.49Z" fill="#EBEBEB"/>
<path d="M275.31 1042.64H357.76L366.67 952.39H266.41L275.31 1042.64Z" fill="#F0F0F0"/>
<path d="M371.06 942.41H262.01V962.33H371.06V942.41Z" fill="#E6E6E6"/>
<path d="M1218.41 1020.59V739.19H1204.4V1020.59L1158.94 1036.14V1042.64H1209.67H1213.14H1263.87V1036.14L1218.41 1020.59Z" fill="#EBEBEB"/>
<path d="M936.53 1020.59V739.19H922.53V1020.59L877.06 1036.14V1042.64H927.8H931.26H982V1036.14L936.53 1020.59Z" fill="#EBEBEB"/>
<path d="M1285.45 464.33H855.51V765.5H1285.45V464.33Z" fill="#EBEBEB"/>
<path d="M1277 472.75H863.96V757.02H1277V472.75Z" fill="#FAFAFA"/>
<path d="M708.76 1062H638.29C632.514 1062 626.974 1059.71 622.889 1055.62C618.805 1051.54 616.51 1046 616.51 1040.22C616.51 1034.44 618.805 1028.9 622.889 1024.82C626.974 1020.73 632.514 1018.44 638.29 1018.44H708.76V1062Z" fill="#9C2031"/>
<path d="M616.65 1037.79C617.249 1032.47 619.787 1027.56 623.778 1023.99C627.77 1020.42 632.936 1018.44 638.29 1018.44H708.76V1035.53C700.32 1038.8 690.76 1042.63 687.69 1037.8C684.15 1032.24 672.44 1023.48 672.44 1023.48C672.44 1023.48 649.83 1023.32 634.44 1023.32C619.05 1023.32 616.7 1037.53 616.65 1037.79Z" fill="#820333"/>
<path d="M811.53 1057.64H685.31C680.608 1057.64 676.098 1055.77 672.773 1052.45C669.448 1049.12 667.58 1044.61 667.58 1039.91C667.579 1037.58 668.036 1035.27 668.927 1033.12C669.817 1030.97 671.123 1029.01 672.77 1027.37C674.416 1025.72 676.371 1024.41 678.523 1023.52C680.675 1022.63 682.981 1022.17 685.31 1022.17H811.53V1057.64Z" fill="url(#paint0_linear_1_1680)"/>
<path d="M819 1054.53H686.36C682.565 1054.53 678.925 1053.02 676.241 1050.34C673.558 1047.66 672.05 1044.02 672.05 1040.22C672.05 1036.42 673.558 1032.79 676.241 1030.1C678.925 1027.42 682.565 1025.91 686.36 1025.91H819V1018.44H686.36C680.584 1018.44 675.044 1020.73 670.959 1024.82C666.875 1028.9 664.58 1034.44 664.58 1040.22C664.58 1046 666.875 1051.54 670.959 1055.62C675.044 1059.71 680.584 1062 686.36 1062H819V1054.53Z" fill="#820333"/>
<path d="M721.62 956.54H667.05C662.576 956.54 658.285 954.763 655.121 951.599C651.957 948.435 650.18 944.144 650.18 939.67C650.18 937.455 650.616 935.262 651.464 933.216C652.312 931.169 653.555 929.31 655.122 927.745C656.688 926.179 658.548 924.937 660.595 924.091C662.642 923.244 664.835 922.809 667.05 922.81H721.62V956.54Z" fill="#254F7A"/>
<path d="M801.22 953.17H703.46C699.818 953.167 696.325 951.719 693.751 949.142C691.176 946.566 689.73 943.072 689.73 939.43C689.73 937.627 690.085 935.842 690.775 934.176C691.465 932.51 692.476 930.996 693.751 929.721C695.026 928.447 696.54 927.435 698.206 926.745C699.872 926.055 701.657 925.7 703.46 925.7H801.22V953.17Z" fill="url(#paint1_linear_1_1680)"/>
<path d="M807 950.76H704.28C702.796 950.805 701.319 950.551 699.935 950.014C698.551 949.477 697.289 948.667 696.224 947.634C695.158 946.6 694.312 945.363 693.733 943.996C693.155 942.629 692.857 941.159 692.857 939.675C692.857 938.191 693.155 936.721 693.733 935.354C694.312 933.987 695.158 932.75 696.224 931.716C697.289 930.683 698.551 929.873 699.935 929.336C701.319 928.799 702.796 928.546 704.28 928.59H807V922.81H704.28C702.031 922.755 699.793 923.151 697.699 923.974C695.605 924.797 693.697 926.03 692.086 927.602C690.476 929.173 689.197 931.051 688.323 933.124C687.449 935.198 686.999 937.425 686.999 939.675C686.999 941.925 687.449 944.152 688.323 946.226C689.197 948.299 690.476 950.177 692.086 951.748C693.697 953.32 695.605 954.553 697.699 955.376C699.793 956.199 702.031 956.595 704.28 956.54H807V950.76Z" fill="#2E112D"/>
<path d="M728.28 982.35H668.94C667.242 982.353 665.561 982.021 663.992 981.373C662.423 980.726 660.997 979.775 659.795 978.576C658.593 977.377 657.639 975.953 656.988 974.386C656.337 972.818 656.001 971.138 656 969.44C656.003 966.015 657.365 962.731 659.788 960.311C662.21 957.89 665.495 956.53 668.92 956.53H728.26L728.28 982.35Z" fill="#9C2031"/>
<path d="M656.44 972.64C655.94 970.733 655.885 968.737 656.28 966.806C656.675 964.875 657.509 963.06 658.717 961.503C659.926 959.945 661.476 958.687 663.249 957.824C665.021 956.962 666.969 956.519 668.94 956.53H728.28V962.53L713.83 961H669.34C669.34 961 658 961.06 656.44 972.64Z" fill="#820333"/>
<path d="M818.66 979.77H723C721.618 979.771 720.25 979.5 718.973 978.972C717.696 978.444 716.535 977.669 715.558 976.692C714.581 975.715 713.806 974.554 713.278 973.277C712.75 972 712.479 970.632 712.48 969.25C712.483 966.462 713.592 963.788 715.565 961.818C717.537 959.847 720.212 958.74 723 958.74H818.65L818.66 979.77Z" fill="url(#paint2_linear_1_1680)"/>
<path d="M823.08 977.93H723.63C721.376 977.93 719.214 977.034 717.62 975.44C716.026 973.846 715.13 971.684 715.13 969.43C715.13 967.176 716.026 965.014 717.62 963.42C719.214 961.826 721.376 960.93 723.63 960.93H823.08V956.5H723.63C720.206 956.5 716.922 957.86 714.501 960.281C712.08 962.702 710.72 965.986 710.72 969.41C710.72 972.834 712.08 976.118 714.501 978.539C716.922 980.96 720.206 982.32 723.63 982.32H823.08V977.93Z" fill="#820333"/>
<path d="M678.34 1018.44H786.77C791.544 1018.44 796.122 1016.54 799.498 1013.17C802.874 1009.79 804.77 1005.21 804.77 1000.44C804.77 995.666 802.874 991.088 799.498 987.712C796.122 984.337 791.544 982.44 786.77 982.44H678.34V1018.44Z" fill="url(#paint3_linear_1_1680)"/>
<path opacity="0.25" d="M786.77 982.35C791.544 982.35 796.122 984.246 799.498 987.622C802.874 990.998 804.77 995.576 804.77 1000.35C804.77 1001 804.77 1001.65 804.67 1002.28C802.869 998.561 800.056 995.424 796.554 993.229C793.052 991.034 789.003 989.87 784.87 989.87C770.28 989.73 707.27 989.87 707.27 989.87L690.12 982.3L786.77 982.35Z" fill="url(#paint4_linear_1_1680)"/>
<path d="M634.47 1014.83H697.77C701.666 1014.83 705.402 1013.28 708.157 1010.53C710.912 1007.77 712.46 1004.04 712.46 1000.14C712.461 998.211 712.082 996.3 711.344 994.517C710.607 992.734 709.525 991.114 708.16 989.75C706.796 988.385 705.176 987.303 703.393 986.566C701.61 985.828 699.7 985.449 697.77 985.45H634.47V1014.83Z" fill="url(#paint5_linear_1_1680)"/>
<path opacity="0.69" d="M628.28 1012.25H696.9C698.486 1012.3 700.065 1012.02 701.543 1011.45C703.022 1010.87 704.37 1010.01 705.508 1008.9C706.646 1007.8 707.551 1006.47 708.168 1005.01C708.786 1003.55 709.104 1001.98 709.104 1000.4C709.104 998.809 708.786 997.238 708.168 995.777C707.551 994.316 706.646 992.993 705.508 991.888C704.37 990.783 703.022 989.917 701.543 989.342C700.065 988.767 698.486 988.494 696.9 988.54H628.28V982.35H696.9C701.686 982.35 706.276 984.251 709.66 987.635C713.044 991.019 714.945 995.609 714.945 1000.4C714.945 1005.18 713.044 1009.77 709.66 1013.15C706.276 1016.54 701.686 1018.44 696.9 1018.44H628.28V1012.25Z" fill="url(#paint6_linear_1_1680)"/>
<path d="M977.6 585.56C977.6 770.04 933.79 920.12 879.93 920.12C826.07 920.12 782.26 770 782.26 585.56C782.26 401.12 826.08 251 879.93 251C933.78 251 977.6 401.08 977.6 585.56ZM785.6 585.56C785.6 768.2 827.92 916.79 879.93 916.79C931.94 916.79 974.27 768.2 974.27 585.56C974.27 402.92 932 254.33 879.93 254.33C827.86 254.33 785.6 402.92 785.6 585.56Z" fill="#2E112D"/>
<path d="M1158.45 411.93C1158.45 466.36 1067.88 571.78 936.53 665.16C863.93 716.78 789.87 757.16 727.97 778.86C665.46 800.78 622.59 800.98 607.26 779.43C591.93 757.88 606.26 717.43 647.45 665.6C688.28 614.27 750.74 557.6 823.34 505.96C895.94 454.32 970 414 1031.9 392.26C1094.41 370.34 1137.28 370.14 1152.6 391.7C1156.55 397.25 1158.45 404.06 1158.45 411.93ZM604.68 758.93C604.68 766.29 606.43 772.54 609.98 777.53C624.16 797.53 666.77 796.83 726.87 775.75C788.48 754.15 862.25 713.92 934.6 662.49C1083.46 556.61 1180 436 1149.89 393.63C1135.7 373.68 1093.1 374.33 1033 395.41C971.39 417 897.62 457.24 825.27 508.68C752.92 560.12 690.7 616.58 650.05 667.68C620.33 705 604.68 736.89 604.68 758.89V758.93Z" fill="#2E112D"/>
<path d="M1158.45 759.19C1158.45 767.07 1156.55 773.87 1152.6 779.43C1137.28 800.98 1094.41 800.78 1031.9 778.86C970 757.16 895.9 716.78 823.34 665.16C750.78 613.54 688.28 556.86 647.45 505.53C606.2 453.68 591.94 413.25 607.26 391.7C622.58 370.15 665.46 370.34 727.97 392.26C789.87 413.97 863.97 454.35 936.53 505.96C1067.86 599.34 1158.45 704.76 1158.45 759.19ZM604.68 412.19C604.68 434.19 620.33 466.04 650.05 503.41C690.7 554.51 752.92 610.97 825.27 662.41C897.62 713.85 971.39 754.11 1033 775.71C1093.1 796.79 1135.7 797.44 1149.89 777.49C1153.61 772.26 1155.4 765.84 1155.4 758.4C1155.4 705.56 1065.09 601.45 934.6 508.68C862.25 457.24 788.48 417 726.87 395.41C666.77 374.33 624.16 373.68 609.98 393.63C606.43 398.62 604.68 404.88 604.68 412.23V412.19Z" fill="#2E112D"/>
<path d="M1044 416.23C1057.94 416.23 1069.24 404.93 1069.24 390.99C1069.24 377.05 1057.94 365.75 1044 365.75C1030.06 365.75 1018.76 377.05 1018.76 390.99C1018.76 404.93 1030.06 416.23 1044 416.23Z" fill="#820333"/>
<path d="M701.13 789.22C701.13 793.188 699.954 797.066 697.749 800.365C695.545 803.664 692.412 806.235 688.747 807.753C685.081 809.271 681.048 809.669 677.157 808.895C673.265 808.121 669.691 806.21 666.885 803.405C664.08 800.599 662.169 797.025 661.395 793.134C660.621 789.242 661.019 785.209 662.537 781.543C664.055 777.878 666.626 774.745 669.925 772.541C673.224 770.337 677.103 769.16 681.07 769.16C686.39 769.16 691.493 771.274 695.255 775.036C699.017 778.798 701.13 783.9 701.13 789.22Z" fill="url(#paint7_linear_1_1680)"/>
<path d="M717.64 416.23C731.58 416.23 742.88 404.93 742.88 390.99C742.88 377.05 731.58 365.75 717.64 365.75C703.7 365.75 692.4 377.05 692.4 390.99C692.4 404.93 703.7 416.23 717.64 416.23Z" fill="#2E112D"/>
<path d="M811.98 855.54C825.92 855.54 837.22 844.24 837.22 830.3C837.22 816.36 825.92 805.06 811.98 805.06C798.04 805.06 786.74 816.36 786.74 830.3C786.74 844.24 798.04 855.54 811.98 855.54Z" fill="#2E112D"/>
<path d="M1121.7 650.5C1121.7 655.212 1120.31 659.818 1117.69 663.736C1115.07 667.655 1111.35 670.71 1107 672.514C1102.65 674.318 1097.86 674.792 1093.24 673.874C1088.62 672.956 1084.37 670.688 1081.04 667.357C1077.71 664.026 1075.44 659.782 1074.52 655.161C1073.6 650.54 1074.07 645.75 1075.87 641.397C1077.67 637.044 1080.73 633.323 1084.65 630.705C1088.56 628.087 1093.17 626.69 1097.88 626.69C1101.01 626.689 1104.1 627.304 1106.99 628.5C1109.88 629.696 1112.51 631.449 1114.72 633.66C1116.93 635.871 1118.69 638.497 1119.89 641.386C1121.08 644.275 1121.7 647.372 1121.7 650.5Z" fill="url(#paint8_linear_1_1680)"/>
<path d="M951.23 574.71C948.219 558.583 939.667 544.016 927.053 533.527C914.439 523.038 898.555 517.288 882.15 517.27C878.467 517.271 874.789 517.559 871.15 518.13C857.892 520.234 845.515 526.092 835.483 535.011C825.452 543.93 818.185 555.536 814.544 568.456C810.903 581.376 811.039 595.069 814.938 607.914C818.836 620.759 826.333 632.218 836.541 640.934C846.749 649.651 859.241 655.261 872.537 657.1C885.834 658.938 899.38 656.929 911.57 651.309C923.76 645.69 934.085 636.695 941.323 625.39C948.561 614.085 952.408 600.943 952.41 587.52C952.414 583.223 952.019 578.934 951.23 574.71ZM882.15 630.45C871.356 630.435 860.963 626.356 853.042 619.024C845.12 611.693 840.25 601.646 839.401 590.886C838.552 580.125 841.788 569.44 848.462 560.957C855.137 552.474 864.762 546.816 875.42 545.11C877.647 544.765 879.897 544.591 882.15 544.59C892.174 544.604 901.878 548.119 909.585 554.528C917.292 560.937 922.518 569.837 924.36 579.69C924.847 582.271 925.092 584.893 925.09 587.52C925.071 598.902 920.541 609.812 912.492 617.859C904.443 625.906 893.532 630.434 882.15 630.45Z" fill="#820333"/>
<path d="M839.29 586.18C839.118 591.82 840.064 597.438 842.074 602.711C844.084 607.983 847.117 612.806 851 616.9L831.13 635.65C822.233 626.228 816.116 614.528 813.456 601.844C810.797 589.161 811.699 575.989 816.062 563.786C820.425 551.584 828.08 540.827 838.178 532.705C848.277 524.584 860.426 519.414 873.28 517.77L876.75 544.86C866.614 546.172 857.277 551.051 850.412 558.623C843.548 566.195 839.605 575.964 839.29 586.18Z" fill="url(#paint9_linear_1_1680)"/>
<path d="M871.24 510L877.24 550.12C877.24 550.12 909.76 550.76 917.24 579.88L957.69 571.06C957.69 571.06 945.13 501.36 871.24 510Z" fill="#2E112D"/>
<path d="M594.27 691.16H493.01V852.85H594.27V691.16Z" fill="url(#paint10_linear_1_1680)"/>
<path d="M504.33 1001.22C505.94 993.34 510.92 985.06 517.73 976.04L499.4 964.37C494.6 972.43 493.03 976.96 483.82 986.63C477.73 993.03 482.64 1013.12 497.95 1016.88C498.68 1017.07 501.92 1012.92 504.33 1001.22Z" fill="#FFBC8E"/>
<path d="M497.75 996.22C502.85 999.06 511.38 988.68 512.33 995.88C504.76 1001.38 500.26 1011.54 501.57 1029.2C502.76 1045.28 484.35 1058.78 484.35 1058.78L478.16 975.36C478.16 975.36 480.65 966 498.81 967.6C499.46 976.34 490.05 991.92 497.75 996.22Z" fill="#820333"/>
<path d="M497.21 1041.44C523.21 1030.44 514.81 1005.33 519.02 989.22L538.63 996.61C538.63 996.61 538.41 1025.98 539.63 1044.69C540.85 1063.4 535.56 1061.69 535.56 1061.69L471.9 1062.17C471.9 1062.17 479.07 1049.14 497.21 1041.44Z" fill="#FFBC8E"/>
<path d="M496.6 1041.71C502.23 1039.8 506.96 1035.71 510.94 1030.53C513.52 1026.86 526.22 1030.79 528.38 1037.84C528.38 1037.84 533.49 1041.52 539.55 1040.9C539.55 1042.2 539.55 1043.47 539.67 1044.69C540.93 1063.4 535.6 1061.69 535.6 1061.69L471.94 1062.17C471.94 1062.17 477.93 1048 496.6 1041.71Z" fill="#820333"/>
<path d="M567.11 579C584.66 635.85 618.11 797.27 616.78 804.32C615.17 812.65 572.46 840.73 565.2 804.88C553.91 749.1 449.15 597.51 516.85 553.06C541.7 536.74 561.78 561.7 567.11 579Z" fill="#2E112D"/>
<path d="M498.83 574.87C502.9 565.87 508.77 558.36 516.83 553.05C517.57 552.57 518.31 552.12 519.04 551.71L519.28 551.57C522.73 549.591 526.548 548.338 530.5 547.89C523.43 591.78 526.31 634.4 533.58 672.17L545.43 612.41C545.43 612.41 555.09 659.67 549.15 712.29C548.104 722.001 549.298 731.823 552.64 741C567.36 781.89 583.23 808.83 585.48 812.26C582.09 810.47 575.87 813.76 569.68 815.76C567.408 812.487 565.879 808.757 565.2 804.83C555.35 756.21 474.36 634.61 498.83 574.87Z" fill="#254F7A"/>
<path d="M470.7 641.74C472.91 610.42 486.19 584.83 490.85 577.83C498.5 566.33 522.66 557.63 535.06 575.83C547.46 594.03 546.26 603.5 548.33 644.33C550.4 685.16 538.33 793.55 541.86 823.39C545.39 853.23 503.86 869.92 501.75 826.04C499.64 782.16 468.14 678 470.7 641.74Z" fill="#2E112D"/>
<path d="M501.12 834.86C501.28 826.41 500.89 820.37 500.39 811.93C498.26 776.01 540.75 796.45 541.59 805.93C542.59 817.82 540.33 824.45 546.22 865.28C552.11 906.11 547.82 929.5 544 951C540.18 972.5 541.41 1000.59 541.41 1000.59C523.56 1008.9 515.59 1003.39 515.59 1003.39C515.59 1003.39 510.29 959.66 504.59 924.7C498.89 889.74 500.74 854.63 501.12 834.86Z" fill="#2E112D"/>
<path d="M493 968.18C494.786 970.79 497.049 973.04 499.67 974.81C499.91 974.99 500.16 975.16 500.43 975.33C506.122 979.03 512.609 981.333 519.36 982.05C519.36 982.05 621 814.8 617 801.85C615.21 795.99 596.32 767.73 572.31 789.22C559.4 800.82 545 826.84 531 878.59C530.65 879.82 530.32 881.07 530 882.33C520.9 916.58 493 968.18 493 968.18Z" fill="#2E112D"/>
<path d="M493 968.18C494.786 970.79 497.049 973.04 499.67 974.81L500.43 975.35C519.65 945.83 543 893 549.5 865.11C553.06 850 559 830.39 564 814.62C567.7 803.03 570.91 793.47 572.34 789.22C559.4 800.82 545 826.84 531 878.59C530.65 879.82 530.32 881.07 530 882.33C520.9 916.58 493 968.18 493 968.18Z" fill="#254F7A"/>
<path d="M548.59 480.65C550.33 487.7 573 572.28 580 581.7C588.19 592.7 603.09 583.26 603.91 567.23C604.69 551.85 593.62 489.39 581.98 471.23C569.4 451.64 544.83 465.48 548.59 480.65Z" fill="#FFBC8E"/>
<path d="M551.5 477.94C594.03 501.3 603.5 562.88 603.86 567.1C604.58 551.53 593.54 489.34 581.93 471.2C570.32 453.06 550.44 477.36 551.5 477.94Z" fill="#FFBC8E"/>
<path d="M495.94 544.28C495.19 535.28 492.23 526.88 485.03 495.65C482.22 483.47 478.75 473.93 481.95 468.65C485.95 461.95 498.08 461.23 506.68 461.51C522.2 462.01 515.93 424.32 515.93 424.32C518.56 416.59 544.33 418.78 542.33 443.72C540.33 468.66 565.33 457.92 571.07 462.72C578.92 469.33 577.85 483.2 579.22 490.61C580.59 498.02 591.22 507.12 589.34 520.61C587.46 534.1 574.62 533.24 574.62 533.24C569.86 538.36 565.3 547.8 564.62 554.56C563.09 570.28 570.38 586.23 570.38 586.23C524.19 604.78 486 586 486 586C486 586 498.18 571.31 495.94 544.28Z" fill="#FFBC8E"/>
<path d="M506.68 461.48C522.2 461.98 515.93 424.29 515.93 424.29C517.39 419.99 525.98 418.77 533 422.79C528.14 423.88 516 444.71 521.88 475.94C523.56 484.8 532.88 490.31 541.59 492.31C541.59 492.31 486.09 500.24 485.03 495.65C482.22 483.47 498.08 461.2 506.68 461.48Z" fill="#FFBC8E"/>
<path d="M604.06 546.31C594.362 554.318 583.241 560.425 571.28 564.31L563.28 539.94L564.91 461.23C564.91 461.23 578.31 459 586.43 477.18C594.55 495.36 600.2 536 604.06 546.31Z" fill="url(#paint11_linear_1_1680)"/>
<path d="M564 541.61L565.48 470.19C565.943 467.208 566.247 464.204 566.39 461.19C570.1 461.19 573.05 463.88 574.69 465.26C582.54 471.88 581.47 485.75 582.84 493.15C584.21 500.55 594.84 509.66 592.95 523.15C591.06 536.64 582.11 539 582.11 539C577.75 543.67 571.21 552.61 570.03 559.16L564 541.61Z" fill="#9C2031"/>
<path d="M496 544.28C495.25 535.28 492.28 526.88 485.08 495.65C482.27 483.48 478.8 473.93 482 468.65C485.64 462.65 495.78 461.42 504 461.44C513.28 482.63 532.47 494.73 547.25 488.54C556.77 484.54 562.18 473.98 562.55 461.22C566.26 461.22 569.47 461.35 571.1 462.73C578.95 469.35 577.88 483.22 579.25 490.63C580.62 498.04 591.25 507.13 589.37 520.63C587.49 534.13 574.65 533.27 574.65 533.27C569.88 538.37 565.32 547.82 564.65 554.57C563.12 570.3 570.41 586.26 570.41 586.26C524.19 604.77 486 586 486 586C486 586 498.18 571.32 496 544.28Z" fill="white"/>
<path d="M496 544.28C495.25 535.28 492.28 526.88 485.08 495.65C482.27 483.48 478.8 473.93 482 468.65C485.51 462.82 495.09 461.5 503.17 461.45C503.32 462.79 503.52 464.16 503.78 465.52C505.389 474.039 509.143 482.008 514.688 488.672C520.233 495.337 527.386 500.478 535.47 503.61L526.4 505.33C516.01 507.33 509.4 518.61 511.7 528.61C512.497 532.075 514.235 535.252 516.723 537.791C519.211 540.33 522.352 542.133 525.8 543L522.21 564.37C525.31 580.74 518.21 595.22 502.04 591.37C496.525 590.127 491.151 588.328 486 586C486 586 498.18 571.32 496 544.28Z" fill="#D35600"/>
<path d="M600.28 555.15C578.36 557.85 578.28 585.05 593.18 586.81C615.18 589.41 668.25 569.09 680.36 574.81C692.47 580.53 703.2 553 688.55 557.03C673.9 561.06 618.49 552.9 600.28 555.15Z" fill="#FFBC8E"/>
<path d="M504.78 458.71C504.78 458.71 539.54 481.02 539.86 515.81C540.18 550.6 523.29 542.24 525.11 567.32C526.93 592.4 530.42 766.82 517.73 867.39C517.73 867.39 479.09 874.74 463.57 861.48C463.57 861.48 478.22 771.73 469.26 721.76C460.3 671.79 464.08 620.28 478.84 596.82C493.6 573.36 491.77 530.07 484.7 507.35C477.63 484.63 482 468.62 482 468.62C482 468.62 485.79 457.94 504.78 458.71Z" fill="#820333"/>
<path d="M407.84 546.85C412.9 535.46 471.31 478.12 483.28 466.77C487.53 462.77 508.92 488.34 501.17 503.08C496.88 511.24 430.61 565.89 419.46 569.5C406.37 573.73 401.32 561.53 407.84 546.85Z" fill="#FFBC8E"/>
<path d="M482.75 506.7C488.59 495.31 493.22 484.08 491.65 471.25C498.65 478.77 506.3 493.31 501.17 503.08C497.31 510.43 443.17 555.5 424.3 567C428 564.35 475 521.82 482.75 506.7Z" fill="#FFBC8E"/>
<path d="M452.91 548.68C452.91 548.68 497.61 509.89 503.32 502.13C509.03 494.37 497.09 468.38 484 466L483.33 466.61C479.01 470.5 454.79 492.42 433.8 513.68C433.82 513.71 431.31 529.94 452.91 548.68Z" fill="#820333"/>
<path d="M452.91 548.68C452.91 548.68 497.61 509.89 503.32 502.13C509.03 494.37 497.09 468.38 484 466C487.366 468.395 490.162 471.502 492.19 475.1C495.7 481.46 499.59 491.79 494.7 500.81C487 515.08 458.22 533.47 452.91 548.68Z" fill="#9C2031"/>
<path d="M516.05 576C529.26 573.75 546.91 583.33 547.27 593.69C547.389 596.309 547.015 598.928 546.17 601.41C544.45 606.96 540.58 610.9 535.84 614.3C535.3 614.68 526.14 615 526.49 613.79C522.58 610.6 518.06 604.32 513.1 596.79C504.68 584.09 440.39 581.73 419.04 575.35C397.88 569.03 403.23 542.94 418.04 545.27C439.86 548.78 502.84 578.3 516.05 576Z" fill="#FFBC8E"/>
<path d="M664.87 615.29L598.53 600.5C596.665 600.08 595.043 598.938 594.018 597.324C592.993 595.711 592.648 593.757 593.06 591.89L616.39 487.29C616.806 485.422 617.946 483.796 619.561 482.768C621.175 481.74 623.132 481.396 625 481.81L691.33 496.6C692.255 496.806 693.13 497.192 693.905 497.736C694.681 498.28 695.341 498.972 695.849 499.772C696.357 500.571 696.703 501.463 696.866 502.396C697.029 503.329 697.007 504.286 696.8 505.21L673.48 609.82C673.274 610.745 672.888 611.62 672.344 612.395C671.8 613.171 671.108 613.831 670.309 614.339C669.509 614.847 668.617 615.193 667.684 615.356C666.751 615.519 665.795 615.497 664.87 615.29Z" fill="#820333"/>
<path d="M664.44 493.43C663.66 493.431 662.882 493.347 662.12 493.18C659.386 492.552 657.011 490.869 655.512 488.498C654.013 486.126 653.513 483.259 654.12 480.52C654.553 478.568 655.529 476.779 656.936 475.357C658.342 473.936 660.121 472.941 662.068 472.487C664.015 472.033 666.051 472.138 667.941 472.791C669.83 473.444 671.497 474.617 672.749 476.176C674.002 477.734 674.788 479.615 675.017 481.601C675.247 483.587 674.911 485.598 674.048 487.401C673.184 489.204 671.829 490.727 670.138 491.794C668.447 492.86 666.489 493.428 664.49 493.43H664.44ZM664.44 475.2C662.566 475.208 660.761 475.905 659.369 477.158C657.976 478.411 657.093 480.132 656.888 481.994C656.682 483.857 657.17 485.729 658.256 487.255C659.343 488.782 660.953 489.855 662.78 490.27C664.753 490.708 666.819 490.346 668.525 489.262C670.232 488.179 671.438 486.462 671.88 484.49C672.098 483.513 672.122 482.502 671.95 481.516C671.777 480.53 671.412 479.587 670.876 478.742C670.339 477.897 669.641 477.166 668.821 476.591C668.002 476.016 667.077 475.608 666.1 475.39C665.549 475.262 664.985 475.198 664.42 475.2H664.44Z" fill="#820333"/>
<path d="M670.32 616.5L604 601.72C602.134 601.297 600.512 600.153 599.487 598.538C598.462 596.923 598.118 594.968 598.53 593.1L621.86 488.5C622.065 487.575 622.45 486.699 622.994 485.923C623.538 485.147 624.229 484.485 625.029 483.977C625.829 483.469 626.722 483.124 627.655 482.961C628.589 482.799 629.545 482.822 630.47 483.03L696.8 497.82C697.725 498.026 698.6 498.412 699.375 498.956C700.151 499.5 700.811 500.192 701.319 500.991C701.827 501.791 702.173 502.683 702.336 503.616C702.499 504.549 702.477 505.505 702.27 506.43L678.93 611C678.727 611.927 678.344 612.806 677.801 613.584C677.258 614.363 676.567 615.027 675.767 615.538C674.967 616.049 674.074 616.397 673.139 616.562C672.205 616.727 671.247 616.706 670.32 616.5Z" fill="#E3EAFC"/>
<path d="M674.506 491.303L651.754 486.234L650.458 492.051L673.21 497.12L674.506 491.303Z" fill="#820333"/>
<path d="M693.24 574C693.218 573.86 693.167 573.726 693.089 573.607C693.012 573.488 692.91 573.387 692.79 573.31C694.03 573.04 695.32 572.6 695.85 571.54C696.54 570.17 695.63 568.69 694.96 567.54C694.919 567.491 694.876 567.444 694.83 567.4C697.61 567.18 700.26 566.25 700.83 563.74C701.4 561.23 699.73 559.88 697.5 558.9C698.462 558.747 699.404 558.489 700.31 558.13C703.72 556.73 702.49 552.73 700.51 550.6C700.389 550.459 700.233 550.352 700.057 550.289C699.882 550.225 699.694 550.209 699.51 550.24C699.425 550.19 699.334 550.15 699.24 550.12C696.692 549.478 694.077 549.143 691.45 549.12C689.63 549.12 686.95 548.92 685.3 549.93C682.35 551.73 685.05 554.73 687.1 556.43C684.48 555.94 681.9 556.17 681.71 559.57C681.647 560.581 681.831 561.593 682.248 562.517C682.664 563.44 683.3 564.248 684.1 564.87C682.85 564.833 681.61 565.105 680.49 565.66C677.79 567.13 679.75 570.29 681.43 571.72C682.21 572.38 683.101 572.898 684.06 573.25C683.864 573.356 683.691 573.498 683.55 573.67C682.37 575.18 684.05 577.48 685.22 578.39C685.979 579.018 686.908 579.404 687.889 579.497C688.869 579.591 689.855 579.388 690.719 578.915C691.583 578.443 692.285 577.721 692.734 576.845C693.184 575.969 693.36 574.978 693.24 574Z" fill="#FFBC8E"/>
<path d="M548.57 458.67C548.57 458.67 573.5 481.61 572.48 510.15C571.46 538.69 557.18 528.21 557.18 549.77C557.18 571.33 580.43 702.94 575.77 781.28C571.11 859.62 572.34 864.71 572.34 864.71C572.34 864.71 597.64 867.09 613.96 858.93C613.96 858.93 623.1 817.27 619.06 798.42C609.59 754.25 577.67 617.7 572.34 579.53C567.43 544.32 571.55 540.06 579.62 537.67C587.69 535.28 597.47 520.84 581.53 496.24C575.32 486.65 589.29 454.38 548.57 458.67Z" fill="#820333"/>
<path d="M498 379.44C503.4 373.44 502.32 353.81 492.68 345.72C479.39 334.58 454.53 350.72 461.51 368.92C468.49 387.12 493.86 384.07 498 379.44Z" fill="#540032"/>
<path d="M467.86 348.34C469.419 346.19 471.388 344.369 473.653 342.982C475.919 341.595 478.436 340.67 481.06 340.26C483.763 339.993 486.492 340.336 489.044 341.263C491.597 342.191 493.909 343.68 495.81 345.62C498.597 348.568 500.514 352.23 501.35 356.2C502.179 360.086 502.301 364.09 501.71 368.02C501.349 370.61 500.76 373.163 499.95 375.65C500.444 373.107 500.778 370.535 500.95 367.95C501.7 357.95 498.67 346.6 488.5 342.64C481 339.53 473.22 342.77 467.85 348.35L467.86 348.34Z" fill="#540032"/>
<g opacity="0.1">
<path d="M465.88 350.53C464.361 353.525 463.57 356.837 463.57 360.195C463.57 363.554 464.361 366.865 465.88 369.86C468.99 375.86 475.56 379.19 482.06 379.96C486.553 380.471 491.101 380.197 495.5 379.15C491.182 380.715 486.58 381.345 482 381C475.06 380.5 468 376.86 464.83 370.46C463.284 367.331 462.573 363.855 462.765 360.37C462.958 356.885 464.048 353.509 465.93 350.57L465.88 350.53Z" fill="black"/>
<path d="M467.61 357.32C468.12 358.7 468.48 360.14 469.08 361.49C469.643 362.821 470.347 364.089 471.18 365.27C475.486 371.19 481.54 375.611 488.49 377.91C489.889 378.378 491.329 378.713 492.79 378.91C490.54 378.948 488.299 378.61 486.16 377.91C479.627 375.868 474.002 371.628 470.24 365.91C469.458 364.613 468.843 363.222 468.41 361.77C468.019 360.329 467.752 358.857 467.61 357.37V357.32Z" fill="black"/>
</g>
<path d="M466.61 349.23C464.87 350.899 463.548 352.955 462.75 355.23C459.9 362.23 459.62 371.23 465.75 376.46C471.53 381.76 479.69 383.71 487.39 382.93C488.6 382.822 489.803 382.639 490.99 382.38C489.839 382.809 488.655 383.143 487.45 383.38C483.795 384.1 480.035 384.1 476.38 383.38C472.054 382.531 468.032 380.542 464.73 377.62C460.22 373.87 458.67 367.62 459.73 362C460.357 358.319 461.817 354.83 464 351.8C464.693 350.773 465.592 349.901 466.64 349.24L466.61 349.23Z" fill="#540032"/>
<path d="M465.58 349.74C461.07 355.74 457.45 363.8 460.36 371.23C462.351 375.937 466.064 379.707 470.74 381.77C475.45 383.85 480.8 384.09 485.88 383.43C488.477 383.1 491.038 382.531 493.53 381.73C492.334 382.283 491.105 382.761 489.85 383.16C483.52 385.16 476.44 385.68 470.17 383.1C467.645 382.049 465.356 380.503 463.438 378.554C461.52 376.605 460.011 374.291 459 371.75C456.1 363.9 460.1 355.39 465.6 349.75L465.58 349.74Z" fill="#540032"/>
<path d="M470.72 349.06C466.107 350.335 462.061 353.133 459.24 357C458.339 358.34 457.531 359.74 456.82 361.19C456.961 359.509 457.43 357.871 458.2 356.37C459.377 354.088 461.179 352.188 463.396 350.893C465.614 349.599 468.154 348.963 470.72 349.06Z" fill="#540032"/>
<path d="M504 367.32C508.76 361.473 511.208 354.082 510.88 346.55C510.762 344.016 510.468 341.493 510 339C511.298 341.283 512.182 343.778 512.61 346.37C513.97 354.16 510.79 362.92 504.07 367.32H504Z" fill="#540032"/>
<path d="M557 398.48C562.85 436.05 541 443.8 532.93 445.06C525.57 446.19 500.38 449.14 490.67 412.38C480.96 375.62 496.57 361.02 513.25 357.54C529.93 354.06 551.12 360.92 557 398.48Z" fill="#FFBC8E"/>
<path d="M495 423.42C505 423.14 502.74 400.17 502.74 400.17C502.74 400.17 525.18 396.39 528.33 370.08C528.33 370.08 545.13 388.57 555.47 386.34C555.47 386.34 546.58 354.23 525.36 356.15C525.36 356.15 499.76 350.42 486.36 372.55C472.96 394.68 485 423.69 495 423.42Z" fill="#540032"/>
<path d="M506.41 409.9C504.05 407.19 504.48 402.9 506.72 400.25C508.22 398.47 510.48 397.57 512.4 396.45C514.275 395.411 516.075 394.245 517.79 392.96C525.6 386.88 527.47 376.38 528.52 366.96C529.42 377.05 527.3 389.01 518.41 395.17C516.785 396.286 515.084 397.289 513.32 398.17C511.46 399.17 509.32 399.8 507.82 401.23C506.69 402.331 505.944 403.766 505.69 405.323C505.436 406.88 505.688 408.477 506.41 409.88V409.9Z" fill="#540032"/>
<path d="M528.06 368.51C531.57 374.25 536.98 381.18 543.69 383.05C547.33 384.21 551.49 383.76 554.87 385.81C557.6 387.57 558.47 391.23 557.78 394.23C557.574 395.182 557.237 396.1 556.78 396.96C557.09 394.24 556.97 391.45 555.42 389.26C553.87 387.07 551.42 386.87 548.71 386.53C544.89 386.17 540.71 385.24 537.59 382.75C533.028 379.1 529.703 374.13 528.07 368.52L528.06 368.51Z" fill="#540032"/>
<path d="M486.4 415.35C487.988 417.281 489.684 419.121 491.48 420.86C494.41 423.93 500.4 428.18 499.08 433.1C498.32 436.31 493.92 438.1 491.55 435.54C492.049 435.797 492.596 435.946 493.156 435.977C493.715 436.009 494.276 435.922 494.8 435.723C495.324 435.524 495.801 435.217 496.199 434.822C496.597 434.427 496.907 433.953 497.11 433.43C497.308 432.821 497.37 432.177 497.294 431.542C497.218 430.906 497.005 430.295 496.67 429.75L496.23 429.04C495.98 428.68 495.44 427.98 495.14 427.65C491.92 423.97 488.01 420.17 486.39 415.35H486.4Z" fill="#540032"/>
<path d="M487.63 409.55C490.025 414.554 492.852 419.339 496.08 423.85C498.52 427.74 502.08 432.43 500.87 437.36C499.78 442.08 493.6 444.43 489.87 441.19C489.519 440.867 489.21 440.501 488.95 440.1C489.594 440.673 490.351 441.104 491.172 441.366C491.994 441.628 492.861 441.714 493.717 441.62C494.574 441.526 495.401 441.253 496.146 440.819C496.891 440.385 497.536 439.799 498.04 439.1C501.13 434.53 496.55 428.98 494.3 424.95C491.39 420.17 488.61 415.1 487.6 409.53L487.63 409.55Z" fill="#540032"/>
<g opacity="0.1">
<path d="M525.85 362.89C526.41 375.52 518.07 387.37 507.15 393.15C503.527 395.137 499.642 396.604 495.61 397.51C501.719 395.065 507.402 391.67 512.45 387.45C519.74 381.153 524.5 372.428 525.85 362.89Z" fill="black"/>
<path d="M528.52 365.53C535.058 373.671 543.646 379.925 553.4 383.65C542.93 382.61 532.91 375 528.52 365.53Z" fill="black"/>
</g>
<path d="M492.51 364.83C487.2 374.36 480.35 383.73 479.77 394.95C479.25 399.77 480.61 404.55 482.51 408.95C483.981 412.348 485.692 415.636 487.63 418.79C486.003 416.913 484.531 414.906 483.23 412.79C480.62 408.49 478.42 403.79 477.95 398.68C477.671 393.583 478.55 388.489 480.52 383.78C483.52 376.87 487.94 370.78 492.52 364.86L492.51 364.83Z" fill="#540032"/>
<path d="M525.32 356.15C533.13 354.89 542.69 359.78 547.98 365.37C551.61 369.58 553.66 378.18 554.62 383.64C553.3 380.2 552.01 376.77 550.62 373.44C549.33 370.62 548.12 367.73 545.78 365.65C540.27 360.77 532.76 356.52 525.32 356.15Z" fill="#540032"/>
<path d="M528.34 368.72C529.154 371.305 529.727 373.959 530.05 376.65C530.509 379.734 530.461 382.871 529.91 385.94C529.171 388.411 527.534 390.516 525.32 391.84C523.022 393.342 520.455 394.385 517.76 394.91C520.141 393.741 522.393 392.327 524.48 390.69C526.4 389.1 528.08 387.14 528.32 384.61C529.01 379.41 528.49 374 528.32 368.72H528.34Z" fill="#540032"/>
<path d="M502.43 400.17C504.098 403.338 505.028 406.842 505.15 410.42C505.29 412.09 504.86 413.71 505.44 415.36C505.979 416.977 506.74 418.511 507.7 419.92C506.489 419.203 505.465 418.21 504.712 417.021C503.96 415.832 503.5 414.481 503.37 413.08C503.37 412.22 503.37 411.37 503.37 410.5C503.2 407.04 502.87 403.65 502.46 400.17H502.43Z" fill="#540032"/>
<path d="M545.64 395.05C544.754 395.1 543.866 395.1 542.98 395.05C542.044 395.187 541.089 395.015 540.26 394.56C540.03 394.365 539.871 394.1 539.806 393.806C539.741 393.511 539.774 393.204 539.9 392.93C540.235 392.425 540.699 392.019 541.245 391.756C541.79 391.492 542.396 391.379 543 391.43C544.228 391.33 545.449 391.686 546.43 392.43C546.667 392.61 546.844 392.858 546.936 393.142C547.028 393.425 547.031 393.729 546.945 394.014C546.859 394.3 546.688 394.552 546.455 394.737C546.222 394.922 545.937 395.031 545.64 395.05Z" fill="#540032"/>
<path d="M519.49 400.45C520.349 400.252 521.197 400.009 522.03 399.72C522.965 399.589 523.832 399.157 524.5 398.49C524.669 398.239 524.75 397.938 524.73 397.636C524.71 397.334 524.59 397.047 524.39 396.82C523.925 396.432 523.365 396.174 522.767 396.074C522.17 395.974 521.556 396.034 520.99 396.25C519.776 396.52 518.706 397.234 517.99 398.25C517.848 398.491 517.777 398.767 517.786 399.046C517.795 399.325 517.883 399.596 518.04 399.827C518.198 400.058 518.418 400.239 518.675 400.35C518.931 400.46 519.214 400.495 519.49 400.45Z" fill="#540032"/>
<path d="M525.54 405.27C525.54 405.18 525.36 405.44 525.39 405.54C526.03 408.09 526.33 411.11 524.19 412.45C524.13 412.45 524.19 412.62 524.25 412.59C527 411.59 526.55 407.58 525.54 405.27Z" fill="#540032"/>
<path d="M522.67 403.1C518.48 403.67 519.95 412.01 523.83 411.46C527.71 410.91 526.18 402.61 522.67 403.1Z" fill="#540032"/>
<path d="M521.11 403.82C520.47 404.42 519.9 405.38 519.04 405.62C518.18 405.86 517.12 405.16 516.31 404.45C516.23 404.37 516.17 404.45 516.19 404.57C516.44 406.16 517.35 407.69 519.09 407.63C520.83 407.57 521.57 405.96 521.68 404.29C521.71 404 521.39 403.58 521.11 403.82Z" fill="#540032"/>
<path d="M540.91 402C540.91 401.9 541.13 402.1 541.14 402.21C541.41 404.81 542.14 407.76 544.62 408.3C544.69 408.3 544.7 408.45 544.62 408.45C541.69 408.44 540.74 404.53 540.91 402Z" fill="#540032"/>
<path d="M542.86 399C547 398.12 548.45 406.45 544.62 407.27C540.79 408.09 539.4 399.73 542.86 399Z" fill="#540032"/>
<path d="M544.7 399.23C545.42 399.56 546.22 400.23 547.02 400.16C547.82 400.09 548.47 399.04 548.89 398.08C548.94 397.98 549.01 398.08 549.03 398.15C549.36 399.73 549.12 401.48 547.64 402.06C546.16 402.64 545.03 401.39 544.37 399.88C544.25 399.59 544.4 399.1 544.7 399.23Z" fill="#540032"/>
<path d="M528.32 425.8C528.95 426.41 529.58 427.25 530.53 427.33C531.508 427.316 532.471 427.087 533.35 426.66C533.365 426.646 533.385 426.638 533.405 426.638C533.426 426.638 533.445 426.646 533.46 426.66C533.467 426.672 533.471 426.686 533.471 426.7C533.471 426.714 533.467 426.728 533.46 426.74C533.089 427.258 532.584 427.666 531.999 427.919C531.415 428.173 530.772 428.263 530.14 428.18C529.606 428.042 529.124 427.749 528.756 427.338C528.388 426.927 528.149 426.416 528.07 425.87C528 425.77 528.23 425.71 528.32 425.8Z" fill="#540032"/>
<path d="M538.68 415.69C538.68 415.69 539.46 419.56 539.57 421.41C539.57 421.58 539.14 421.69 538.52 421.77C538.52 421.77 538.52 421.77 538.45 421.77C536.883 422.154 535.24 422.101 533.7 421.616C532.161 421.131 530.784 420.233 529.72 419.02C529.59 418.85 529.81 418.65 529.98 418.74C532.427 420.205 535.282 420.843 538.12 420.56C538.22 420.05 536.57 413.97 536.86 413.93C538.298 413.974 539.724 414.21 541.1 414.63C539.72 406.51 537.04 398.68 535.78 390.58C535.777 390.523 535.794 390.466 535.827 390.419C535.86 390.372 535.907 390.337 535.962 390.32C536.017 390.303 536.076 390.304 536.13 390.324C536.184 390.344 536.229 390.381 536.26 390.43C539.64 398.43 541.44 407.74 543.09 416.09C543.32 417.1 539.44 416 538.68 415.69Z" fill="#540032"/>
<path d="M503 413.66C503 413.66 493.64 402.61 488.55 406.06C483.46 409.51 491.28 426.06 497.79 427.81C498.61 428.093 499.479 428.206 500.344 428.144C501.209 428.082 502.052 427.845 502.823 427.448C503.594 427.051 504.277 426.501 504.83 425.833C505.383 425.165 505.794 424.392 506.04 423.56L503 413.66Z" fill="#FFBC8E"/>
<path d="M490.93 410.74C490.918 410.741 490.907 410.745 490.896 410.751C490.886 410.756 490.877 410.764 490.869 410.773C490.862 410.783 490.856 410.793 490.853 410.805C490.85 410.816 490.849 410.828 490.85 410.84C490.849 410.858 490.855 410.876 490.866 410.891C490.877 410.905 490.892 410.915 490.91 410.92C495.49 412.29 498.18 416.17 500.22 420.26C498.76 418.75 496.88 418.02 494.84 419.78C494.73 419.88 494.84 420.05 494.98 420.01C495.737 419.701 496.57 419.631 497.367 419.81C498.164 419.989 498.888 420.408 499.44 421.01C500.361 422.022 501.169 423.132 501.85 424.32C502.09 424.68 502.78 424.42 502.57 423.98V423.88C502.13 418.21 497 410.75 490.93 410.74Z" fill="#540032"/>
<path d="M490 422.16C490.09 423.93 484.82 418.02 484.55 417.16C484.28 416.3 482.03 414.37 481.09 412.63C480.15 410.89 483.43 389 490.86 379C501.67 364.4 520.34 358.42 520.34 358.42C520.34 358.42 523.25 357.5 532.34 360.17C541.43 362.84 552.53 371.17 552.58 371.65C552.63 372.492 552.809 373.322 553.11 374.11C553.57 375.45 555.04 376.82 554.31 378.11C553.58 379.4 555.54 382.67 555.52 384.05C555.5 385.43 555.16 385.78 555.4 386.71C555.64 387.64 552.82 370.17 523.66 362.1C523.68 362.09 488 384.09 490 422.16Z" fill="#820333"/>
<path d="M555.37 386.44C555.356 386.523 555.356 386.607 555.37 386.69C555.45 386.77 555.43 386.68 555.37 386.44Z" fill="#FFC727"/>
<path d="M555.37 386.44C555.362 386.526 555.362 386.613 555.37 386.7C555.44 386.77 555.43 386.68 555.37 386.44Z" fill="#FFC727"/>
<path opacity="0.1" d="M484.43 416.85C484.327 415.104 484.394 413.353 484.63 411.62C484.8 409.88 485.04 408.14 485.28 406.4C485.78 402.94 486.28 399.47 486.97 396.04C487.13 395.18 487.29 394.32 487.5 393.49C487.784 392.688 488.149 391.917 488.59 391.19C489.47 389.68 490.46 388.24 491.42 386.78C492.38 385.32 493.42 383.87 494.42 382.45L497.42 378.16C495.187 380.867 493.05 383.65 491.01 386.51C490.01 387.94 489.01 389.4 488.11 390.91C487.624 391.671 487.228 392.487 486.93 393.34C486.69 394.21 486.52 395.06 486.35 395.93C485.73 399.39 485.2 402.86 484.8 406.35C484.61 408.1 484.44 409.85 484.32 411.6C484.32 412.48 484.23 413.36 484.23 414.24C484.207 415.114 484.274 415.989 484.43 416.85Z" fill="#050400"/>
<path opacity="0.1" d="M554.12 378.89C553.349 377.676 552.501 376.514 551.58 375.41C550.673 374.291 549.708 373.22 548.69 372.2C548.175 371.686 547.631 371.201 547.06 370.75C546.48 370.33 545.91 369.9 545.32 369.49L543.56 368.28C542.96 367.88 542.37 367.47 541.76 367.1C542.29 367.59 542.85 368.04 543.38 368.52L545.04 369.88C545.58 370.34 546.15 370.77 546.71 371.22C547.254 371.667 547.774 372.141 548.27 372.64C549.27 373.64 550.27 374.64 551.27 375.72C551.76 376.24 552.27 376.72 552.72 377.3C553.17 377.88 553.65 378.35 554.12 378.89Z" fill="#050400"/>
<path d="M525.12 358.41C525.12 358.41 533.59 349.27 544.38 350.16C544.38 350.16 541.9 360.55 537.51 363.27C535.33 364.62 526.91 363.71 526.21 362.14C525.722 360.937 525.357 359.687 525.12 358.41Z" fill="#820333"/>
<path opacity="0.1" d="M525.12 358.42C525.363 359.689 525.728 360.931 526.21 362.13C526.238 362.205 526.287 362.271 526.35 362.32C526.401 362.401 526.469 362.469 526.55 362.52L526.75 362.64C528.164 363.322 529.702 363.71 531.27 363.78C531.331 362.182 531.241 360.581 531 359C530.79 357.77 529.62 356.52 528.42 355.5C527.238 356.376 526.134 357.353 525.12 358.42Z" fill="#050400"/>
<path d="M522.26 359.35C522.26 359.35 508 354.18 500.26 355.98C500.26 355.98 502.61 364.4 509.6 367.75C512.73 369.25 523.6 365.16 523.39 363.33C523.199 361.957 522.819 360.618 522.26 359.35Z" fill="#820333"/>
<path opacity="0.1" d="M519 358.26C518.299 359.799 518.056 361.507 518.3 363.18C518.581 364.202 519.075 365.153 519.75 365.97C521.91 365.04 523.48 363.97 523.43 363.3C523.22 361.938 522.83 360.61 522.27 359.35C522.27 359.35 521 358.87 519 358.26Z" fill="#050400"/>
<path d="M520.06 362.37C520.333 363.307 520.877 364.141 521.624 364.768C522.371 365.395 523.287 365.786 524.257 365.893C525.226 365.999 526.205 365.815 527.071 365.365C527.936 364.914 528.648 364.217 529.116 363.362C529.585 362.507 529.79 361.532 529.705 360.56C529.619 359.589 529.248 358.664 528.637 357.904C528.026 357.144 527.203 356.582 526.273 356.289C525.342 355.997 524.346 355.986 523.41 356.26C522.156 356.627 521.099 357.476 520.471 358.622C519.843 359.767 519.695 361.116 520.06 362.37Z" fill="#820333"/>
<path d="M506 365.27C509.75 368.1 511 368.37 515.56 367.36C516.04 367.27 516.56 367.14 517.01 367.02C515.163 367.831 513.167 368.247 511.15 368.24C509.1 368.09 507.42 366.62 506 365.24V365.27Z" fill="#540032"/>
<path d="M529 363.43C531.76 363.85 534.79 364.43 537.39 363.14C537.764 362.963 538.128 362.766 538.48 362.55C535.94 364.92 532.06 364.47 529.01 363.43H529Z" fill="#540032"/>
<path d="M1019.14 861.19C1023.95 861.122 1028.62 859.579 1032.53 856.77C1032.75 865.021 1032.08 873.273 1030.53 881.38C1025.27 889.86 1010.67 905.47 1011.65 905.38C1015.66 904.971 1019.59 904.053 1023.37 902.65C1020.88 907.794 1017.89 912.681 1014.44 917.24C1007.36 926.69 997.27 934.24 993.44 945.78C993.413 945.891 993.359 945.994 993.285 946.081C993.21 946.168 993.116 946.236 993.01 946.28C993.005 946.439 992.956 946.593 992.867 946.725C992.778 946.857 992.654 946.961 992.508 947.025C992.362 947.089 992.202 947.11 992.044 947.086C991.887 947.062 991.74 946.994 991.62 946.89C972.56 928.8 969.16 901.31 966.36 876.53C966.23 875.35 966.1 874.2 965.99 873.02C971.139 878.427 977.056 883.046 983.55 886.73C984.47 887.23 971.62 866.66 965.32 857.19C965.459 851.184 966.57 845.241 968.61 839.59C973.06 827.59 980.71 816.46 988.13 806.17C988.43 805.75 988.77 805.34 989.13 804.92C991.1 810.255 993.864 815.261 997.33 819.77C997.93 820.57 995.97 804.77 994.77 797.5C996.63 795.19 998.49 792.87 1000.43 790.64C1002.97 787.64 1006.11 782.56 1010.67 783.24C1015.23 783.92 1025.18 802 1026.46 807.18C1027.02 809.4 1027.46 811.66 1027.96 813.93C1028.18 814.93 1028.36 815.93 1028.53 816.93C1030.13 826.063 1031.27 835.271 1031.93 844.52C1031.62 845.01 1031.3 845.52 1030.93 845.98C1027.19 851 1018.23 861.19 1019.14 861.19Z" fill="#820333"/>
<path d="M1001.77 852.06C1011.17 850.64 1018.36 844.7 1025.26 838.58C1026.26 837.66 1025.01 835.93 1023.97 836.85C1017.51 842.59 1010.77 848.33 1001.97 849.85C1003.97 835.85 1006.33 821.907 1009.04 808.02C1009.31 806.66 1007.18 806.33 1006.92 807.69C1003.27 826.077 1000.29 844.577 998 863.19C992.612 855.535 988.417 847.105 985.56 838.19C985.13 836.88 983.13 837.68 983.56 839C986.588 848.453 991.093 857.367 996.91 865.41C996.998 865.537 997.114 865.642 997.249 865.717C997.385 865.791 997.536 865.834 997.69 865.84C997.197 869.9 996.737 873.967 996.31 878.04C992.38 873.186 989.26 867.729 987.07 861.88C986.59 860.59 984.59 861.38 985.07 862.68C987.502 869.218 991.055 875.283 995.57 880.6C995.686 880.742 995.838 880.849 996.01 880.91C994.637 894.31 993.593 907.743 992.88 921.21C992.806 921.353 992.765 921.51 992.76 921.67C992.473 926.597 992.3 931.517 992.24 936.43C992.14 939.643 992.053 942.853 991.98 946.06C991.971 946.197 991.994 946.335 992.048 946.462C992.102 946.589 992.185 946.701 992.29 946.79C992.85 977.12 997.29 1007.12 1003.72 1036.79L1005.82 1036.3C998.61 1002.76 993.82 968.81 994.44 934.43C994.567 930.797 994.72 927.17 994.9 923.55C995.062 923.62 995.24 923.646 995.416 923.625C995.592 923.604 995.759 923.537 995.9 923.43C999.818 920.758 1003.16 917.331 1005.74 913.35C1006.49 912.2 1004.82 910.85 1004.06 912.01C1001.69 915.677 998.631 918.854 995.06 921.37C996.26 898.19 998.473 875.1 1001.7 852.1C1001.73 852.09 1001.75 852.077 1001.77 852.06Z" fill="#9C2031"/>
<path d="M927 914.38C922.958 915.906 918.573 916.283 914.33 915.47C916.538 921.752 919.507 927.74 923.17 933.3C930.11 937.95 947.06 944.87 946.17 945.13C942.667 946.136 939.06 946.74 935.42 946.93C939.075 950 943.04 952.681 947.25 954.93C956.02 959.7 966.79 962.06 973.4 969.46C973.46 969.54 973.539 969.603 973.63 969.645C973.721 969.687 973.82 969.706 973.92 969.7C973.986 969.821 974.084 969.922 974.203 969.992C974.322 970.063 974.457 970.1 974.595 970.1C974.733 970.1 974.868 970.063 974.987 969.992C975.106 969.922 975.204 969.821 975.27 969.7C986.21 949.84 981.12 928.07 976.27 908.53C976.04 907.6 975.82 906.69 975.57 905.77C972.695 911.616 969.008 917.026 964.62 921.84C963.98 922.52 968.93 902.84 971.53 893.65C969.648 889.159 966.968 885.046 963.62 881.51C956.36 874 946.62 868.11 937.32 862.82C936.94 862.6 936.53 862.41 936.15 862.19C936.006 866.921 935.112 871.6 933.5 876.05C933.21 876.85 930.27 864.3 929.2 858.47C926.94 857.34 924.69 856.22 922.39 855.18C919.39 853.76 915.22 850.98 911.54 852.99C907.86 855 904.65 871.85 905.07 876.17C905.24 878.01 905.48 879.88 905.76 881.73C905.85 882.53 905.99 883.34 906.13 884.13C907.443 891.515 909.183 898.817 911.34 906C911.75 906.27 912.16 906.53 912.6 906.77C917.21 909.35 927.8 914.08 927 914.38Z" fill="#820333"/>
<path d="M991.12 1041.23C987.92 1016.83 983.02 992.82 974.68 969.85C974.745 969.756 974.783 969.646 974.792 969.532C974.801 969.418 974.78 969.303 974.73 969.2C973.73 966.81 972.73 964.43 971.73 962.05C970.25 958.383 968.673 954.743 967 951.13C966.941 951.012 966.86 950.907 966.76 950.82C962.253 940.94 957.457 931.19 952.37 921.57C952.496 921.469 952.595 921.338 952.66 921.19C954.93 915.831 956.192 910.098 956.38 904.28C956.38 903.14 954.48 903.2 954.44 904.33C954.267 909.533 953.202 914.668 951.29 919.51C949.743 916.59 948.17 913.683 946.57 910.79C946.698 910.743 946.813 910.668 946.907 910.569C947.001 910.47 947.07 910.35 947.11 910.22C949.692 902.412 950.932 894.223 950.78 886C950.78 884.88 948.83 884.93 948.85 886.06C949.002 893.816 947.884 901.545 945.54 908.94C938.16 895.74 930.26 882.817 921.84 870.17C921.21 869.24 919.5 870.17 920.12 871.17C926.49 880.7 932.52 890.42 938.29 900.28C930.41 902.04 923.01 899.94 915.85 897.75C915.628 897.697 915.394 897.728 915.194 897.838C914.993 897.947 914.841 898.128 914.766 898.343C914.691 898.559 914.699 898.795 914.789 899.005C914.878 899.215 915.043 899.384 915.25 899.48C922.9 901.81 930.73 903.91 939.14 901.89H939.21C948.63 918.03 957.227 934.617 965 951.65C961.315 950.957 957.794 949.576 954.62 947.58C953.62 946.95 952.62 948.52 953.62 949.14C957.064 951.316 960.904 952.787 964.92 953.47C965.069 953.5 965.223 953.496 965.37 953.458C965.518 953.42 965.654 953.349 965.77 953.25C966.97 955.91 968.15 958.59 969.31 961.25C979.84 986.87 985.63 1013.96 989.25 1041.53L991.12 1041.23Z" fill="#9C2031"/>
<path d="M922.59 888.3C916.653 887.167 910.975 884.95 905.84 881.76C905.93 882.56 906.07 883.37 906.21 884.16C911.12 886.955 916.453 888.927 922 890C923.19 890.25 923.78 888.53 922.59 888.3Z" fill="#84AFE6"/>
<path d="M1104.34 904.45C1104.22 912.2 1086.34 915.95 1080.6 918.06C1068 922.73 1055.7 927.43 1046.38 937.57C1035.38 949.52 1025.93 963.32 1016.45 976.5C1016.21 976.867 1015.88 977.156 1015.48 977.334C1015.08 977.512 1014.64 977.569 1014.21 977.5C1013.18 975.687 1012.31 973.79 1011.6 971.83C1008.33 963.83 1003.33 949.05 1004.6 940.65C1005.51 934.779 1007.45 929.113 1010.32 923.91C1010.86 926.553 1012.1 929.003 1013.91 931C1014.36 931.46 1015.33 920.41 1015.98 915.39C1016.8 914.39 1017.65 913.39 1018.53 912.39C1020.57 910.175 1022.79 908.132 1025.16 906.28C1025.66 905.88 1026.16 905.48 1026.68 905.1C1028.61 903.666 1030.61 902.331 1032.68 901.1C1033.23 900.77 1033.79 900.45 1034.37 900.1C1036.31 899.02 1038.37 898.02 1040.37 897.1C1040.95 900.923 1042.07 904.644 1043.7 908.15C1044.04 908.89 1044.89 899.42 1045.02 895.24C1046.96 894.5 1048.95 893.89 1051.02 893.32C1051.55 895.787 1052.38 898.181 1053.49 900.45C1053.76 901 1056.43 894.59 1057.39 891.77C1063.71 890.477 1070.16 889.973 1076.6 890.27C1077.15 890.27 1077.7 890.27 1078.23 890.37C1079.95 890.48 1081.65 890.68 1083.32 890.94C1089.5 891.94 1104.06 895.81 1104.32 904.16C1104.33 904.256 1104.34 904.353 1104.34 904.45Z" fill="#820333"/>
<path d="M1035.36 924.82C1020.13 939.82 1015.36 967.47 1014.42 975.31C1012.87 978.533 1011.81 981.971 1011.28 985.51C1009.47 997.9 1010 1010.98 1010.28 1023.51C1010.38 1027.62 1010.56 1031.72 1010.78 1035.82L1012.9 1035.43C1012.76 1032.84 1012.64 1030.25 1012.55 1027.66C1012.17 1016.48 1012.18 1005.28 1012.7 994.1C1012.96 988.33 1013.5 982.52 1015.7 977.17C1015.96 977.004 1016.19 976.79 1016.37 976.54C1025.85 963.36 1035.37 949.54 1046.3 937.61C1055.63 927.47 1067.93 922.77 1080.53 918.1C1086.22 915.99 1104.15 912.24 1104.27 904.49C1080.45 907.23 1052.89 907.52 1035.36 924.82Z" fill="#9C2031"/>
<path d="M1034.71 917.44C1033.59 911.737 1033.47 905.882 1034.38 900.14C1033.8 900.46 1033.24 900.78 1032.69 901.14C1031.93 906.689 1032.09 912.325 1033.17 917.82C1033.36 918.79 1034.88 918.43 1034.71 917.44Z" fill="#9C2031"/>
<path d="M1028.88 920.53C1027.53 915.496 1026.78 910.32 1026.65 905.11C1026.14 905.49 1025.65 905.89 1025.13 906.29C1025.32 911.224 1026.06 916.121 1027.34 920.89C1027.39 921.094 1027.51 921.271 1027.69 921.382C1027.87 921.493 1028.09 921.528 1028.29 921.48C1028.49 921.432 1028.67 921.305 1028.78 921.127C1028.89 920.949 1028.93 920.734 1028.88 920.53Z" fill="#9C2031"/>
<path d="M1054.36 1024.1C1054.37 1032.94 1052.28 1041.66 1048.26 1049.54C1044.24 1057.42 1038.4 1064.22 1031.23 1069.4H965.62C958.451 1064.22 952.617 1057.41 948.597 1049.54C944.577 1041.66 942.487 1032.94 942.5 1024.1C942.495 1020 942.948 1015.91 943.85 1011.91C944.569 1008.6 945.597 1005.37 946.92 1002.26H1049.92C1051.25 1005.37 1052.28 1008.6 1053.01 1011.91C1053.91 1015.91 1054.36 1020 1054.36 1024.1Z" fill="url(#paint12_linear_1_1680)"/>
<path d="M1340.33 412V400.6H1333.76C1333.51 398.564 1333.07 396.555 1332.45 394.6L1337.78 391.52L1332.08 381.64L1327.17 384.47C1325.83 382.718 1324.33 381.103 1322.67 379.65L1325.32 375.06L1315.45 369.36L1312.95 373.68C1310.81 372.821 1308.58 372.194 1306.3 371.81V367H1294.9V371.78C1292.61 372.175 1290.36 372.808 1288.2 373.67L1285.82 369.56L1275.95 375.26L1278.49 379.66C1276.79 381.168 1275.25 382.843 1273.89 384.66L1269.36 382.04L1263.66 391.92L1268.66 394.82C1268.03 396.854 1267.6 398.944 1267.36 401.06H1261.3V412.46H1268.06C1268.54 414.361 1269.19 416.215 1270 418L1263.94 421.5L1269.64 431.38L1276.28 427.54C1277.51 428.861 1278.85 430.082 1280.28 431.19L1276.37 437.96L1286.25 443.66L1290.38 436.5C1292.01 437.025 1293.69 437.423 1295.38 437.69V446H1306.78V437.54C1308.45 437.233 1310.1 436.795 1311.7 436.23L1315.86 443.44L1325.74 437.74L1321.65 430.67C1323.02 429.561 1324.3 428.344 1325.47 427.03L1332.32 431.03L1338.02 421.15L1331.55 417.41C1332.27 415.662 1332.83 413.856 1333.24 412.01L1340.33 412ZM1326.25 404.73C1326.25 409.803 1324.75 414.762 1321.93 418.98C1319.11 423.198 1315.1 426.486 1310.42 428.428C1305.73 430.369 1300.57 430.877 1295.6 429.887C1290.62 428.897 1286.05 426.454 1282.46 422.867C1278.88 419.28 1276.43 414.71 1275.44 409.734C1274.45 404.758 1274.96 399.601 1276.9 394.914C1278.84 390.227 1282.13 386.221 1286.35 383.403C1290.57 380.584 1295.53 379.08 1300.6 379.08C1307.4 379.08 1313.92 381.778 1318.73 386.582C1323.54 391.386 1326.24 397.902 1326.25 404.7V404.73Z" fill="#2E112D"/>
<path d="M1300.6 383.52C1296.41 383.52 1292.31 384.763 1288.83 387.092C1285.34 389.421 1282.63 392.731 1281.02 396.603C1279.42 400.476 1279 404.737 1279.82 408.848C1280.64 412.958 1282.66 416.734 1285.62 419.697C1288.58 422.66 1292.36 424.678 1296.47 425.494C1300.58 426.311 1304.84 425.89 1308.72 424.284C1312.59 422.679 1315.9 419.961 1318.22 416.475C1320.55 412.989 1321.79 408.891 1321.79 404.7C1321.79 401.918 1321.24 399.163 1320.18 396.593C1319.11 394.022 1317.55 391.687 1315.58 389.72C1313.62 387.753 1311.28 386.193 1308.71 385.129C1306.14 384.066 1303.38 383.519 1300.6 383.52ZM1300.6 422.22C1297.14 422.22 1293.75 421.192 1290.87 419.267C1287.99 417.342 1285.74 414.606 1284.41 411.405C1283.09 408.203 1282.74 404.681 1283.42 401.282C1284.09 397.883 1285.76 394.762 1288.21 392.312C1290.66 389.861 1293.78 388.193 1297.18 387.517C1300.58 386.841 1304.1 387.188 1307.3 388.514C1310.51 389.84 1313.24 392.085 1315.17 394.966C1317.09 397.848 1318.12 401.235 1318.12 404.7C1318.12 407.001 1317.67 409.279 1316.79 411.405C1315.91 413.53 1314.62 415.462 1312.99 417.089C1311.36 418.715 1309.43 420.006 1307.3 420.886C1305.18 421.767 1302.9 422.22 1300.6 422.22Z" fill="#820333"/>
<path d="M267.337 805.899L258.583 814.653L265.173 821.243L273.927 812.489L267.337 805.899Z" fill="#2E112D"/>
<path d="M288.87 820.92C305.417 820.92 318.83 807.506 318.83 790.96C318.83 774.414 305.417 761 288.87 761C272.324 761 258.91 774.414 258.91 790.96C258.91 807.506 272.324 820.92 288.87 820.92Z" fill="#A1A7AD"/>
<path d="M288.87 812.14C300.567 812.14 310.05 802.657 310.05 790.96C310.05 779.263 300.567 769.78 288.87 769.78C277.173 769.78 267.69 779.263 267.69 790.96C267.69 802.657 277.173 812.14 288.87 812.14Z" fill="#49494A"/>
<path d="M256.458 812.551L251.487 817.522L262.306 828.341L267.277 823.37L256.458 812.551Z" fill="#A1A7AD"/>
<path d="M252.801 818.84L227.154 844.487L235.343 852.675L260.989 827.028L252.801 818.84Z" fill="#2E112D"/>
<path d="M288.87 817.8C282.661 817.795 276.646 815.637 271.85 811.695C267.053 807.753 263.772 802.27 262.565 796.179C261.357 790.089 262.299 783.769 265.228 778.295C268.158 772.821 272.895 768.532 278.632 766.159C284.369 763.785 290.752 763.474 296.693 765.279C302.633 767.083 307.765 770.891 311.213 776.054C314.661 781.218 316.212 787.417 315.603 793.595C314.993 799.774 312.26 805.55 307.87 809.94C305.38 812.441 302.418 814.424 299.157 815.773C295.896 817.122 292.399 817.811 288.87 817.8ZM288.87 765.02C282.868 765.019 277.052 767.099 272.412 770.905C267.773 774.712 264.596 780.009 263.424 785.895C262.253 791.781 263.158 797.891 265.986 803.184C268.814 808.478 273.39 812.626 278.935 814.924C284.479 817.222 290.648 817.525 296.391 815.784C302.135 814.043 307.096 810.364 310.431 805.375C313.766 800.385 315.268 794.394 314.681 788.421C314.093 782.448 311.453 776.864 307.21 772.62C304.809 770.2 301.952 768.28 298.804 766.972C295.655 765.664 292.279 764.993 288.87 765V765.02Z" fill="#49494A"/>
<path d="M288.21 317L256.5 298.73V262.12L288.21 243.81L319.92 262.12V298.73L319.62 298.9L288.21 317ZM257.69 298L288.21 315.63L318.73 298V262.8L288.21 245.18L257.69 262.8V298Z" fill="#49494A"/>
<path d="M257.67 298.34L257.13 297.74L258.66 295.09L259.4 295.52L257.87 298.16L257.59 298.01L257.73 298.31L257.67 298.34ZM318 298L315.22 296.74L315.57 295.97L317.86 296.97L316.53 294.67L317.27 294.25L318.8 296.89L318.31 297.17L318 298ZM259.25 297.59L258.9 296.82L261.69 295.56L262.04 296.33L259.25 297.59ZM313.67 296.04L310.89 294.78L311.24 294.01L314.02 295.27L313.67 296.04ZM263.58 295.63L263.23 294.86L266.02 293.6L266.37 294.38L263.58 295.63ZM309.34 294.08L306.55 292.82L306.9 292.05L309.69 293.31L309.34 294.08ZM260.21 294.03L259.48 293.6L261 291L261.73 291.42L260.21 294.03ZM267.91 293.68L267.56 292.9L270.35 291.64L270.7 292.42L267.91 293.68ZM315.68 293.23L314.15 290.58L314.89 290.16L316.42 292.81L315.68 293.23ZM305 292.14L302.21 290.88L302.56 290.11L305.35 291.37L305 292.14ZM272.24 291.74L271.89 290.96L274.67 289.7L275.02 290.48L272.24 291.74ZM300.66 290.18L297.88 288.93L298.23 288.15L301.01 289.41L300.66 290.18ZM262.58 289.93L261.85 289.51L263.37 286.86L264.11 287.28L262.58 289.93ZM276.58 289.78L276.23 289.01L279.01 287.75L279.36 288.52L276.58 289.78ZM313.31 289.13L311.78 286.49L312.51 286.06L314.04 288.71L313.31 289.13ZM296.31 288.23L293.59 287L293.94 286.22L296.72 287.48L296.31 288.23ZM280.88 287.82L280.53 287.05L283.32 285.79L283.67 286.56L280.88 287.82ZM291.98 286.27L289.26 285L289.61 284.22L292.39 285.48L291.98 286.27ZM285.21 285.86L284.86 285.09L287.65 283.83L288 284.6L285.21 285.86ZM265 285.81L264.26 285.39L265.79 282.74L266.53 283.17L265 285.81ZM311 285.02L309.47 282.37L310.21 281.94L311.73 284.59L311 285.02ZM267.42 281.7L266.68 281.27L268.21 278.62L268.94 279.05L267.42 281.7ZM308.62 280.9L307.09 278.25L307.83 277.83L309.36 280.47L308.62 280.9ZM269.79 277.58L269.06 277.15L270.59 274.51L271.32 274.93L269.79 277.58ZM306.24 276.78L304.72 274.13L305.45 273.71L306.98 276.36L306.24 276.78ZM272.17 273.46L271.44 273.04L272.96 270.39L273.7 270.81L272.17 273.46ZM303.87 272.66L302.3 270L303.03 269.57L304.56 272.22L303.87 272.66ZM274.55 269.34L273.81 268.92L275.34 266.27L276.08 266.7L274.55 269.34ZM301.49 268.55L299.96 265.9L300.7 265.48L302.22 268.12L301.49 268.55ZM276.92 265.23L276.19 264.8L277.72 262.15L278.45 262.58L276.92 265.23ZM299.11 264.43L297.58 261.78L298.32 261.36L299.85 264L299.11 264.43ZM279.3 261.11L278.57 260.68L280.1 258.04L280.83 258.46L279.3 261.11ZM296.74 260.31L295.21 257.66L295.94 257.24L297.47 259.89L296.74 260.31ZM281.64 257L280.9 256.58L282.43 253.93L283.17 254.35L281.64 257ZM294.32 256.2L292.79 253.56L293.53 253.13L295.05 255.78L294.32 256.2ZM284 252.87L283.26 252.45L284.79 249.8L285.52 250.23L284 252.87ZM291.92 252.08L290.39 249.43L291.13 249.01L292.66 251.65L291.92 252.08ZM286.37 248.76L285.64 248.33L287.17 245.68L287.9 246.11L286.37 248.76ZM289.54 247.96L288 245.31L288.73 244.89L290.26 247.53L289.54 247.96Z" fill="#49494A"/>
<path d="M288.77 316.23L288.04 315.8L289.56 313.16L290.3 313.58L288.77 316.23ZM287.19 315.43L285.66 312.78L286.39 312.36L287.92 315.01L287.19 315.43ZM291.19 312.11L290.45 311.69L291.98 309.04L292.72 309.46L291.19 312.11ZM284.85 311.31L283.32 308.67L284.06 308.24L285.58 310.89L284.85 311.31ZM293.57 307.99L292.83 307.57L294.36 304.92L295.09 305.35L293.57 307.99ZM282.47 307.2L280.94 304.55L281.68 304.12L283.21 306.77L282.47 307.2ZM295.94 303.88L295.21 303.45L296.74 300.8L297.47 301.23L295.94 303.88ZM280.1 303.08L278.57 300.43L279.3 300.01L280.83 302.65L280.1 303.08ZM298.32 299.76L297.58 299.33L299.11 296.69L299.85 297.11L298.32 299.76ZM277.72 298.96L276.19 296.31L276.92 295.89L278.45 298.54L277.72 298.96ZM300.72 295.64L299.98 295.22L301.51 292.57L302.24 292.99L300.72 295.64ZM275.36 294.84L273.83 292.2L274.57 291.77L276.1 294.42L275.36 294.84ZM303 291.52L302.27 291.1L303.8 288.45L304.53 288.88L303 291.52ZM272.89 290.73L271.37 288.08L272.1 287.65L273.63 290.3L272.89 290.73ZM305.38 287.41L304.65 286.98L306.17 284.33L306.91 284.76L305.38 287.41ZM270.52 286.61L269 284L269.73 283.58L271.26 286.22L270.52 286.61ZM307.76 283.29L307.02 282.86L308.55 280.22L309.29 280.64L307.76 283.29ZM268.14 282.49L266.61 279.84L267.35 279.42L268.87 282.07L268.14 282.49ZM310.14 279.17L309.4 278.75L311 276.1L311.73 276.52L310.14 279.17ZM265.76 278.37L264.23 275.73L264.97 275.3L266.5 277.95L265.76 278.37ZM287.68 277.29L284.92 276L285.27 275.22L288.06 276.48L287.68 277.29ZM289.58 276.88L289.23 276.11L292.01 274.85L292.36 275.62L289.58 276.88ZM283.35 275.33L280.56 274.07L280.91 273.29L283.7 274.55L283.35 275.33ZM312.51 275.05L311.78 274.63L313.31 271.98L314.04 272.41L312.51 275.05ZM293.91 274.92L293.56 274.15L296.34 272.89L296.69 273.66L293.91 274.92ZM263.38 274.26L261.86 271.61L262.59 271.19L264.12 273.83L263.38 274.26ZM279.01 273.37L276.23 272.11L276.58 271.34L279.36 272.6L279.01 273.37ZM298.24 272.96L297.89 272.19L300.67 270.93L301.02 271.7L298.24 272.96ZM274.68 271.41L271.9 270.15L272.25 269.38L275.03 270.64L274.68 271.41ZM302.57 271.01L302.22 270.23L305 269L305.35 269.78L302.57 271.01ZM314.89 270.94L314.15 270.51L315.68 267.86L316.42 268.29L314.89 270.94ZM261.01 270.14L259.48 267.49L260.21 267.07L261.74 269.71L261.01 270.14ZM270.35 269.45L267.56 268.19L267.91 267.42L270.7 268.68L270.35 269.45ZM306.9 269.05L306.55 268.27L309.34 267.01L309.69 267.79L306.9 269.05ZM266.02 267.49L263.23 266.23L263.58 265.46L266.37 266.72L266.02 267.49ZM311.24 267.09L310.89 266.31L313.67 265.06L314.02 265.83L311.24 267.09ZM317.24 266.82L316.5 266.39L317.83 264.09L315.54 265.09L315.19 264.32L318 263.1L318.35 263.87L318.84 264.15L317.24 266.82ZM258.6 266.02L257.07 263.37L257.61 262.78H257.67L257.53 263.09L257.81 262.93L259.34 265.58L258.6 266.02ZM261.66 265.53L258.87 264.28L259.22 263.5L262.01 264.76L261.66 265.53Z" fill="#49494A"/>
<path d="M293.505 245.964C294.319 243.037 292.607 240.005 289.68 239.191C286.754 238.378 283.721 240.09 282.908 243.017C282.094 245.943 283.806 248.975 286.733 249.789C289.66 250.603 292.692 248.89 293.505 245.964Z" fill="#2E112D"/>
<path d="M288.21 250C286.751 250 285.352 249.421 284.321 248.389C283.289 247.358 282.71 245.959 282.71 244.5C282.71 243.041 283.289 241.642 284.321 240.611C285.352 239.579 286.751 239 288.21 239V250Z" fill="#2E112D"/>
<path d="M282.08 316.35C282.08 315.138 282.44 313.952 283.113 312.944C283.787 311.936 284.744 311.151 285.864 310.687C286.984 310.223 288.217 310.101 289.406 310.338C290.595 310.574 291.687 311.158 292.545 312.015C293.402 312.873 293.986 313.965 294.222 315.154C294.459 316.343 294.337 317.576 293.873 318.696C293.41 319.816 292.624 320.773 291.616 321.447C290.608 322.12 289.422 322.48 288.21 322.48C286.584 322.48 285.025 321.834 283.876 320.685C282.726 319.535 282.08 317.976 282.08 316.35Z" fill="#29547F"/>
<path d="M288.21 322.48C286.584 322.48 285.025 321.834 283.876 320.685C282.726 319.535 282.08 317.976 282.08 316.35C282.08 314.724 282.726 313.165 283.876 312.015C285.025 310.866 286.584 310.22 288.21 310.22V322.48Z" fill="#2E112D"/>
<path d="M251 263.16C250.998 261.945 251.357 260.756 252.031 259.745C252.705 258.734 253.663 257.945 254.786 257.479C255.908 257.013 257.143 256.891 258.335 257.128C259.527 257.364 260.622 257.949 261.482 258.808C262.341 259.668 262.926 260.763 263.163 261.955C263.399 263.147 263.277 264.382 262.811 265.504C262.345 266.627 261.556 267.585 260.545 268.259C259.534 268.933 258.345 269.292 257.13 269.29C255.505 269.287 253.947 268.641 252.798 267.492C251.649 266.343 251.003 264.785 251 263.16Z" fill="#2E112D"/>
<path d="M319.49 269.68C323.29 269.68 326.37 266.6 326.37 262.8C326.37 259 323.29 255.92 319.49 255.92C315.69 255.92 312.61 259 312.61 262.8C312.61 266.6 315.69 269.68 319.49 269.68Z" fill="#820333"/>
<path d="M319.49 269.68C317.665 269.68 315.915 268.955 314.625 267.665C313.335 266.375 312.61 264.625 312.61 262.8C312.61 260.975 313.335 259.226 314.625 257.935C315.915 256.645 317.665 255.92 319.49 255.92V269.68Z" fill="#4D92B3"/>
<path d="M323.532 298.281C323.697 295.967 321.954 293.958 319.641 293.793C317.327 293.628 315.318 295.371 315.153 297.684C314.988 299.998 316.731 302.007 319.044 302.172C321.358 302.337 323.367 300.594 323.532 298.281Z" fill="#29547F"/>
<path d="M319.32 302.15C318.243 302.097 317.227 301.632 316.484 300.852C315.74 300.071 315.325 299.033 315.325 297.955C315.325 296.877 315.74 295.839 316.484 295.059C317.227 294.278 318.243 293.813 319.32 293.76V302.15Z" fill="#2E112D"/>
<path d="M301.453 282.544C302.634 275.221 297.655 268.328 290.333 267.147C283.01 265.967 276.117 270.946 274.936 278.268C273.755 285.591 278.734 292.484 286.057 293.665C293.379 294.846 300.273 289.867 301.453 282.544Z" fill="#A1A7AD"/>
<path d="M257.09 288.67C255.252 288.67 253.455 289.215 251.928 290.237C250.4 291.258 249.209 292.709 248.506 294.407C247.803 296.105 247.62 297.974 247.979 299.776C248.338 301.579 249.224 303.234 250.524 304.533C251.825 305.832 253.481 306.716 255.284 307.073C257.086 307.43 258.955 307.245 260.652 306.54C262.349 305.835 263.799 304.643 264.819 303.114C265.839 301.585 266.382 299.788 266.38 297.95C266.377 295.488 265.397 293.128 263.655 291.388C261.913 289.648 259.552 288.67 257.09 288.67ZM257.09 302.67C256.157 302.67 255.244 302.393 254.469 301.874C253.694 301.354 253.09 300.616 252.735 299.753C252.379 298.89 252.288 297.941 252.473 297.026C252.658 296.112 253.111 295.273 253.774 294.616C254.436 293.958 255.279 293.513 256.196 293.336C257.112 293.159 258.06 293.258 258.92 293.62C259.78 293.983 260.513 294.593 261.026 295.373C261.538 296.152 261.808 297.067 261.8 298C261.787 299.241 261.285 300.426 260.403 301.298C259.521 302.171 258.33 302.66 257.09 302.66V302.67Z" fill="#820333"/>
<g style="mix-blend-mode:multiply" opacity="0.5">
<path d="M257.09 304.16C255.443 304.16 253.863 303.506 252.699 302.341C251.534 301.177 250.88 299.597 250.88 297.95C250.88 296.303 251.534 294.724 252.699 293.559C253.863 292.394 255.443 291.74 257.09 291.74V288.67C254.68 288.749 252.395 289.762 250.719 291.495C249.042 293.227 248.104 295.544 248.104 297.955C248.104 300.366 249.042 302.683 250.719 304.416C252.395 306.148 254.68 307.161 257.09 307.24V304.16Z" fill="#4D92B3"/>
</g>
<g style="mix-blend-mode:multiply">
<path d="M303.44 279.46C303.44 279.78 303.44 280.1 303.44 280.46C303.442 283.481 302.548 286.434 300.872 288.946C299.195 291.459 296.811 293.418 294.021 294.575C291.231 295.732 288.16 296.036 285.197 295.448C282.234 294.86 279.513 293.406 277.376 291.271C275.24 289.136 273.784 286.415 273.194 283.453C272.604 280.491 272.906 277.42 274.062 274.629C275.217 271.838 277.174 269.453 279.686 267.774C282.197 266.096 285.15 265.2 288.17 265.2V255.2C283.166 255.2 278.275 256.684 274.114 259.464C269.954 262.244 266.711 266.195 264.796 270.818C262.881 275.441 262.38 280.528 263.356 285.436C264.332 290.344 266.742 294.852 270.28 298.39C273.819 301.928 278.327 304.338 283.234 305.314C288.142 306.29 293.229 305.789 297.852 303.874C302.475 301.959 306.426 298.717 309.206 294.556C311.986 290.396 313.47 285.504 313.47 280.5C313.47 280.18 313.47 279.86 313.47 279.5L303.44 279.46Z" fill="#CED6DB"/>
</g>
<path d="M297.32 279.83C297.175 277.62 296.232 275.538 294.666 273.97C293.101 272.403 291.02 271.458 288.81 271.31V270.23H287.61V271.31C285.399 271.456 283.317 272.401 281.751 273.968C280.186 275.536 279.243 277.619 279.1 279.83H278V281H279.08C279.223 283.211 280.166 285.294 281.731 286.862C283.297 288.429 285.379 289.374 287.59 289.52V290.6H288.79V289.52C291 289.372 293.081 288.427 294.646 286.86C296.212 285.292 297.155 283.21 297.3 281H298.38V279.81L297.32 279.83ZM288.81 275.3V274.44C290.148 274.575 291.402 275.157 292.37 276.09L291.29 277.18C290.462 276.388 289.361 275.947 288.215 275.947C287.069 275.947 285.968 276.388 285.14 277.18L284.05 276.1C285.018 275.167 286.272 274.585 287.61 274.45V275.31L288.81 275.3ZM294.19 281.02C294.057 282.357 293.48 283.61 292.55 284.58L291.46 283.5C292.248 282.668 292.688 281.566 292.69 280.42C292.689 279.272 292.245 278.168 291.45 277.34L292.54 276.26C293.475 277.231 294.057 278.488 294.19 279.83H293.33V281L294.19 281.02ZM282.19 279.83C282.315 278.491 282.894 277.235 283.83 276.27L284.91 277.35C284.122 278.182 283.683 279.284 283.683 280.43C283.683 281.576 284.122 282.678 284.91 283.51L283.83 284.59C282.895 283.619 282.313 282.362 282.18 281.02H283.03V279.83H282.19ZM284.34 280.42C284.339 279.917 284.437 279.418 284.629 278.953C284.821 278.487 285.103 278.065 285.459 277.709C285.815 277.353 286.237 277.071 286.703 276.879C287.168 276.687 287.667 276.589 288.17 276.59C288.673 276.589 289.172 276.687 289.637 276.879C290.103 277.071 290.525 277.353 290.881 277.709C291.237 278.065 291.519 278.487 291.711 278.953C291.903 279.418 292.001 279.917 292 280.42C292.001 281.178 291.776 281.919 291.356 282.55C290.935 283.18 290.336 283.672 289.636 283.962C288.936 284.252 288.165 284.328 287.422 284.18C286.678 284.032 285.996 283.666 285.46 283.13C285.109 282.772 284.833 282.349 284.648 281.883C284.463 281.418 284.372 280.921 284.38 280.42H284.34ZM282.49 274.75C283.851 273.392 285.653 272.565 287.57 272.42V273.91C286.047 274.049 284.62 274.717 283.539 275.799C282.457 276.88 281.789 278.307 281.65 279.83H280.17C280.319 277.908 281.157 276.104 282.53 274.75H282.49ZM287.57 288.43C285.653 288.285 283.851 287.458 282.49 286.1C281.132 284.74 280.308 282.937 280.17 281.02H281.65C281.791 282.543 282.459 283.968 283.541 285.049C284.622 286.13 286.047 286.799 287.57 286.94V288.43ZM287.57 285.55V286.4C286.228 286.267 284.971 285.685 284 284.75L285.09 283.67C285.92 284.457 287.021 284.896 288.165 284.896C289.309 284.896 290.41 284.457 291.24 283.67L292.32 284.75C291.358 285.684 290.105 286.263 288.77 286.39V285.54L287.57 285.55ZM293.84 286.1C292.484 287.46 290.685 288.287 288.77 288.43V286.94C290.292 286.799 291.716 286.13 292.795 285.048C293.875 283.967 294.542 282.542 294.68 281.02H296.17C296.046 282.935 295.233 284.739 293.88 286.1H293.84ZM294.68 279.83C294.544 278.307 293.877 276.881 292.797 275.799C291.717 274.718 290.292 274.049 288.77 273.91V272.42C290.685 272.563 292.484 273.39 293.84 274.75C295.207 276.104 296.036 277.91 296.17 279.83H294.68Z" fill="#49494A"/>
<g style="mix-blend-mode:multiply" opacity="0.5">
<path d="M257.09 269.29C256.285 269.29 255.488 269.131 254.744 268.823C254 268.515 253.325 268.064 252.755 267.495C252.186 266.925 251.735 266.25 251.427 265.506C251.119 264.762 250.96 263.965 250.96 263.16C250.96 262.355 251.119 261.558 251.427 260.814C251.735 260.07 252.186 259.395 252.755 258.825C253.325 258.256 254 257.805 254.744 257.497C255.488 257.189 256.285 257.03 257.09 257.03V269.29Z" fill="#65C3EF"/>
</g>
<path d="M1298.78 849.017L1297.96 849.869L1303.7 855.37L1304.52 854.518L1298.78 849.017Z" fill="#49494A"/>
<path d="M1321.55 848.83L1320.38 848.6L1320.72 846.91L1321.88 847.15L1321.55 848.83ZM1322.12 845.98L1320.96 845.75L1321.42 843.43L1322.58 843.66L1322.12 845.98ZM1322.82 842.5L1321.65 842.27L1322.12 839.94L1323.28 840.18L1322.82 842.5ZM1323.51 839.01L1322.35 838.78L1322.82 836.46L1323.98 836.69L1323.51 839.01ZM1324.21 835.53L1323.05 835.3L1323.52 832.97L1324.68 833.21L1324.21 835.53ZM1324.91 832.04L1323.75 831.81L1324.21 829.49L1325.38 829.72L1324.91 832.04Z" fill="#49494A"/>
<path d="M1340.31 839.115L1327.57 852.056L1328.41 852.884L1341.15 839.943L1340.31 839.115Z" fill="#49494A"/>
<path d="M1329.76 872.03L1329.18 873.058L1346.76 882.959L1347.34 881.931L1329.76 872.03Z" fill="#49494A"/>
<path d="M1303.79 871.931L1286.65 883.815L1287.32 884.785L1304.47 872.901L1303.79 871.931Z" fill="#49494A"/>
<path d="M1317.28 848.72C1313.95 848.718 1310.7 849.703 1307.93 851.551C1305.16 853.398 1303.01 856.025 1301.73 859.099C1300.46 862.172 1300.12 865.555 1300.77 868.819C1301.42 872.083 1303.02 875.081 1305.38 877.434C1307.73 879.786 1310.73 881.389 1313.99 882.037C1317.25 882.686 1320.64 882.352 1323.71 881.078C1326.79 879.803 1329.41 877.646 1331.26 874.878C1333.11 872.111 1334.09 868.858 1334.09 865.53C1334.09 861.073 1332.32 856.798 1329.16 853.646C1326.01 850.495 1321.74 848.723 1317.28 848.72ZM1317.28 876.79C1315.05 876.792 1312.87 876.133 1311.02 874.897C1309.17 873.661 1307.72 871.903 1306.87 869.846C1306.02 867.789 1305.79 865.524 1306.23 863.339C1306.66 861.155 1307.73 859.147 1309.3 857.572C1310.88 855.996 1312.89 854.922 1315.07 854.487C1317.25 854.052 1319.52 854.274 1321.58 855.126C1323.63 855.978 1325.39 857.421 1326.63 859.273C1327.87 861.125 1328.53 863.303 1328.53 865.53C1328.53 868.515 1327.35 871.377 1325.24 873.488C1323.13 875.6 1320.26 876.787 1317.28 876.79Z" fill="#254F7A"/>
<path d="M1317.28 876.79C1315.77 876.835 1314.27 876.577 1312.87 876.032C1311.46 875.486 1310.18 874.664 1309.1 873.615C1308.02 872.565 1307.16 871.309 1306.57 869.922C1305.99 868.534 1305.68 867.042 1305.68 865.535C1305.68 864.028 1305.99 862.537 1306.57 861.149C1307.16 859.761 1308.02 858.505 1309.1 857.455C1310.18 856.406 1311.46 855.584 1312.87 855.039C1314.27 854.493 1315.77 854.235 1317.28 854.28V848.72C1315.04 848.665 1312.81 849.06 1310.72 849.88C1308.63 850.701 1306.73 851.931 1305.12 853.497C1303.52 855.064 1302.24 856.936 1301.37 859.004C1300.5 861.071 1300.05 863.292 1300.05 865.535C1300.05 867.778 1300.5 869.999 1301.37 872.066C1302.24 874.134 1303.52 876.006 1305.12 877.573C1306.73 879.14 1308.63 880.369 1310.72 881.19C1312.81 882.01 1315.04 882.405 1317.28 882.35V876.79Z" fill="#2E112D"/>
<path d="M1293.85 837.56C1292.49 837.558 1291.16 837.959 1290.04 838.712C1288.91 839.465 1288.02 840.536 1287.5 841.79C1286.98 843.044 1286.85 844.424 1287.11 845.756C1287.38 847.088 1288.03 848.311 1288.99 849.271C1289.95 850.231 1291.17 850.884 1292.5 851.149C1293.84 851.413 1295.22 851.276 1296.47 850.756C1297.72 850.236 1298.8 849.355 1299.55 848.225C1300.3 847.095 1300.7 845.768 1300.7 844.41C1300.7 842.594 1299.97 840.853 1298.69 839.569C1297.41 838.285 1295.67 837.563 1293.85 837.56ZM1293.85 847.89C1293.16 847.892 1292.49 847.69 1291.91 847.308C1291.34 846.927 1290.89 846.384 1290.63 845.749C1290.36 845.113 1290.29 844.413 1290.43 843.737C1290.56 843.062 1290.89 842.441 1291.38 841.953C1291.86 841.465 1292.48 841.133 1293.16 840.998C1293.83 840.863 1294.53 840.931 1295.17 841.194C1295.81 841.457 1296.35 841.903 1296.73 842.476C1297.12 843.048 1297.32 843.721 1297.32 844.41C1297.32 845.331 1296.95 846.215 1296.3 846.867C1295.65 847.52 1294.77 847.887 1293.85 847.89Z" fill="#2E112D"/>
<path d="M1293.85 849C1293.23 849.029 1292.61 848.932 1292.03 848.715C1291.45 848.497 1290.92 848.164 1290.47 847.736C1290.02 847.307 1289.66 846.792 1289.42 846.221C1289.17 845.65 1289.05 845.036 1289.05 844.415C1289.05 843.794 1289.17 843.18 1289.42 842.609C1289.66 842.038 1290.02 841.523 1290.47 841.095C1290.92 840.666 1291.45 840.333 1292.03 840.116C1292.61 839.898 1293.23 839.801 1293.85 839.83V837.56C1292.93 837.525 1292.01 837.676 1291.15 838.005C1290.28 838.333 1289.5 838.833 1288.83 839.473C1288.17 840.113 1287.64 840.88 1287.28 841.729C1286.91 842.579 1286.73 843.492 1286.73 844.415C1286.73 845.338 1286.91 846.251 1287.28 847.101C1287.64 847.95 1288.17 848.718 1288.83 849.358C1289.5 849.998 1290.28 850.497 1291.15 850.825C1292.01 851.154 1292.93 851.305 1293.85 851.27V849Z" fill="#820333"/>
<path d="M1332.1 830.209C1333.05 826.165 1330.53 822.121 1326.49 821.176C1322.44 820.231 1318.4 822.743 1317.46 826.788C1316.51 830.832 1319.02 834.876 1323.07 835.821C1327.11 836.766 1331.16 834.254 1332.1 830.209Z" fill="#820333"/>
<path d="M1294.51 884.34C1294.51 885.827 1294.07 887.281 1293.24 888.518C1292.42 889.755 1291.24 890.718 1289.87 891.288C1288.49 891.857 1286.98 892.006 1285.52 891.716C1284.06 891.425 1282.72 890.709 1281.67 889.658C1280.62 888.606 1279.9 887.266 1279.61 885.807C1279.32 884.348 1279.47 882.836 1280.04 881.462C1280.61 880.088 1281.58 878.914 1282.81 878.087C1284.05 877.261 1285.5 876.82 1286.99 876.82C1288.98 876.82 1290.9 877.612 1292.31 879.023C1293.72 880.433 1294.51 882.346 1294.51 884.34Z" fill="#A1A7AD"/>
<path d="M1341.27 843.882C1343.61 843.594 1345.27 841.467 1344.98 839.132C1344.69 836.797 1342.56 835.138 1340.23 835.427C1337.89 835.715 1336.23 837.842 1336.52 840.177C1336.81 842.512 1338.94 844.171 1341.27 843.882Z" fill="#A1A7AD"/>
<path d="M1351.25 882.35C1351.25 883.194 1351 884.019 1350.54 884.721C1350.07 885.423 1349.4 885.97 1348.62 886.294C1347.85 886.618 1346.99 886.703 1346.16 886.539C1345.33 886.375 1344.57 885.969 1343.98 885.372C1343.38 884.776 1342.98 884.016 1342.81 883.189C1342.65 882.361 1342.73 881.504 1343.06 880.725C1343.38 879.946 1343.93 879.281 1344.63 878.814C1345.33 878.347 1346.16 878.098 1347 878.1C1348.13 878.1 1349.21 878.548 1350.01 879.345C1350.8 880.142 1351.25 881.223 1351.25 882.35Z" fill="#A1A7AD"/>
<path d="M907.869 195.262C922.994 180.137 922.994 155.614 907.869 140.489C892.744 125.364 868.221 125.364 853.096 140.49C837.971 155.615 837.971 180.137 853.096 195.262C868.221 210.387 892.744 210.387 907.869 195.262Z" fill="#2E112D"/>
<path d="M880.48 167.88L899.48 134.1C905.476 137.471 910.466 142.376 913.941 148.312C917.415 154.248 919.247 161.002 919.25 167.88H880.48Z" fill="#820333"/>
<path d="M880.48 167.88H919.21C919.21 175.944 916.693 183.806 912.011 190.371C907.329 196.935 900.714 201.875 893.09 204.5L880.48 167.88Z" fill="#E3EAFC"/>
<defs>
<linearGradient id="paint0_linear_1_1680" x1="667.58" y1="1039.91" x2="811.53" y2="1039.91" gradientUnits="userSpaceOnUse">
<stop stop-color="white"/>
<stop offset="1" stop-color="#D3DBEB"/>
</linearGradient>
<linearGradient id="paint1_linear_1_1680" x1="689.73" y1="939.43" x2="801.22" y2="939.43" gradientUnits="userSpaceOnUse">
<stop stop-color="white"/>
<stop offset="1" stop-color="#D3DBEB"/>
</linearGradient>
<linearGradient id="paint2_linear_1_1680" x1="712.49" y1="969.26" x2="818.66" y2="969.26" gradientUnits="userSpaceOnUse">
<stop stop-color="white"/>
<stop offset="1" stop-color="#D3DBEB"/>
</linearGradient>
<linearGradient id="paint3_linear_1_1680" x1="678.34" y1="1000.4" x2="804.81" y2="1000.4" gradientUnits="userSpaceOnUse">
<stop stop-color="#FFAE00"/>
<stop offset="1" stop-color="#FFC527"/>
</linearGradient>
<linearGradient id="paint4_linear_1_1680" x1="690.16" y1="992.34" x2="804.81" y2="992.34" gradientUnits="userSpaceOnUse">
<stop stop-color="#FFAE00"/>
<stop offset="1" stop-color="#FFC527"/>
</linearGradient>
<linearGradient id="paint5_linear_1_1680" x1="634.47" y1="1000.14" x2="712.46" y2="1000.14" gradientUnits="userSpaceOnUse">
<stop stop-color="white"/>
<stop offset="1" stop-color="#D3DBEB"/>
</linearGradient>
<linearGradient id="paint6_linear_1_1680" x1="628.28" y1="1000.4" x2="714.94" y2="1000.4" gradientUnits="userSpaceOnUse">
<stop stop-color="#FFAE00"/>
<stop offset="1" stop-color="#FFC527"/>
</linearGradient>
<linearGradient id="paint7_linear_1_1680" x1="661.01" y1="789.22" x2="701.13" y2="789.22" gradientUnits="userSpaceOnUse">
<stop stop-color="#FFAE00"/>
<stop offset="1" stop-color="#FFC527"/>
</linearGradient>
<linearGradient id="paint8_linear_1_1680" x1="1074.07" y1="650.51" x2="1121.7" y2="650.51" gradientUnits="userSpaceOnUse">
<stop stop-color="#FFAE00"/>
<stop offset="1" stop-color="#FFC527"/>
</linearGradient>
<linearGradient id="paint9_linear_1_1680" x1="811.96" y1="576.71" x2="876.75" y2="576.71" gradientUnits="userSpaceOnUse">
<stop stop-color="#FFAE00"/>
<stop offset="1" stop-color="#FFC527"/>
</linearGradient>
<linearGradient id="paint10_linear_1_1680" x1="543.64" y1="691.16" x2="543.64" y2="859" gradientUnits="userSpaceOnUse">
<stop stop-color="white"/>
<stop offset="1" stop-color="#D3DBEB"/>
</linearGradient>
<linearGradient id="paint11_linear_1_1680" x1="583.64" y1="458.46" x2="583.64" y2="880.74" gradientUnits="userSpaceOnUse">
<stop stop-color="white"/>
<stop offset="1" stop-color="#D3DBEB"/>
</linearGradient>
<linearGradient id="paint12_linear_1_1680" x1="942.5" y1="1035.83" x2="1054.36" y2="1035.83" gradientUnits="userSpaceOnUse">
<stop stop-color="#FFAE00"/>
<stop offset="1" stop-color="#FFC527"/>
</linearGradient>
</defs>
</svg>
